<svg xmlns="http://www.w3.org/2000/svg" xmlns:xlink="http://www.w3.org/1999/xlink" width="1936" zoomAndPan="magnify" viewBox="0 0 1452 410.250001" height="547" preserveAspectRatio="xMidYMid meet" version="1.0"><defs><g/><clipPath id="eaa17621c8"><path d="M 1.324219 0 L 1450.675781 0 L 1450.675781 409.5 L 1.324219 409.5 Z M 1.324219 0 " clip-rule="nonzero"/></clipPath><clipPath id="8f3db145ff"><path d="M 1.324219 5.242188 L 1438.695312 5.242188 L 1438.695312 409.5 L 1.324219 409.5 Z M 1.324219 5.242188 " clip-rule="nonzero"/></clipPath><clipPath id="e5d9f34328"><path d="M 1126 5.242188 L 1447 5.242188 L 1447 409.5 L 1126 409.5 Z M 1126 5.242188 " clip-rule="nonzero"/></clipPath><clipPath id="9186777ab5"><path d="M 1030 101 L 1438 101 L 1438 409.5 L 1030 409.5 Z M 1030 101 " clip-rule="nonzero"/></clipPath><clipPath id="246a538604"><path d="M 1037 104 L 1213 104 L 1213 409.5 L 1037 409.5 Z M 1037 104 " clip-rule="nonzero"/></clipPath><clipPath id="e4a9deae85"><path d="M 1.324219 0 L 1061.386719 0 L 1061.386719 409.5 L 1.324219 409.5 Z M 1.324219 0 " clip-rule="nonzero"/></clipPath><clipPath id="ba013a958a"><path d="M 82.175781 297.28125 L 386.257812 297.28125 L 386.257812 349.773438 L 82.175781 349.773438 Z M 82.175781 297.28125 " clip-rule="nonzero"/></clipPath><clipPath id="805de08832"><path d="M 376.3125 349.773438 L 92.070312 349.773438 C 86.617188 349.773438 82.175781 345.332031 82.175781 339.882812 L 82.175781 307.175781 C 82.175781 301.722656 86.617188 297.28125 92.070312 297.28125 L 376.3125 297.28125 C 381.761719 297.28125 386.203125 301.722656 386.203125 307.175781 L 386.203125 339.882812 C 386.203125 345.332031 381.761719 349.773438 376.3125 349.773438 Z M 376.3125 349.773438 " clip-rule="nonzero"/></clipPath><clipPath id="4bcede6d2d"><path d="M 99.707031 304.761719 L 121 304.761719 L 121 342.195312 L 99.707031 342.195312 Z M 99.707031 304.761719 " clip-rule="nonzero"/></clipPath><clipPath id="94c4d33fed"><path d="M 247 317 L 255.59375 317 L 255.59375 331 L 247 331 Z M 247 317 " clip-rule="nonzero"/></clipPath></defs><g clip-path="url(#eaa17621c8)"><path fill="#ffffff" d="M 1.324219 0 L 1450.675781 0 L 1450.675781 409.5 L 1.324219 409.5 Z M 1.324219 0 " fill-opacity="1" fill-rule="nonzero"/></g><g clip-path="url(#8f3db145ff)"><path fill="#edeced" d="M 1.324219 5.242188 L 1438.695312 5.242188 L 1438.695312 409.503906 L 1.324219 409.503906 Z M 1.324219 5.242188 " fill-opacity="1" fill-rule="nonzero"/></g><g clip-path="url(#e5d9f34328)"><path fill="#2b529d" d="M 1421.433594 434.292969 C 1408.441406 429.148438 1393.5 426.929688 1378.519531 425.632812 C 1362.570312 424.25 1346.539062 423.511719 1330.648438 422.675781 C 1301.542969 421.144531 1272.742188 419.261719 1244.070312 418.382812 C 1229.894531 417.949219 1215.753906 417.929688 1201.542969 418.722656 C 1196.378906 419.011719 1191.644531 418.53125 1191.105469 414.847656 C 1190.546875 411.023438 1192.519531 406.5 1193.378906 402.664062 C 1201.207031 367.617188 1208.964844 334.0625 1216.53125 301.863281 C 1217.023438 299.765625 1220.386719 298.222656 1223.851562 298.664062 C 1241.945312 300.980469 1260.378906 302.949219 1279.007812 304.847656 C 1287.785156 305.742188 1296.65625 307.019531 1305.667969 307.464844 C 1314.726562 307.914062 1322.695312 305.964844 1331.394531 304.304688 C 1366.816406 297.535156 1404.207031 300.246094 1440.777344 296.816406 C 1444.410156 296.476562 1446.207031 297.921875 1446.210938 299.546875 C 1447.332031 302.910156 1445.019531 306.78125 1444.089844 310.191406 C 1443.023438 314.09375 1442.210938 318.03125 1441.511719 321.992188 C 1441.179688 323.867188 1440.875 325.753906 1440.585938 327.640625 C 1439.960938 361.003906 1440.316406 396.078125 1430.570312 431.988281 C 1429.90625 434.429688 1424.53125 435.519531 1421.433594 434.292969 Z M 1201.246094 -6.96875 C 1184.417969 -3.964844 1165.902344 3.59375 1161.292969 21.8125 C 1156.070312 37.289062 1150.308594 52.710938 1144.28125 67.949219 C 1135.121094 86.449219 1125.003906 106.035156 1126.210938 127.265625 C 1129.878906 136.644531 1139.371094 142.074219 1146.660156 148.46875 C 1172.996094 179.28125 1213.035156 175.425781 1236.746094 143.914062 C 1244.84375 117.074219 1262.132812 94.027344 1268.683594 66.613281 C 1272.675781 53.019531 1276.707031 36.554688 1270.253906 23.203125 C 1268.296875 7.296875 1215.875 -5.382812 1201.246094 -6.96875 Z M 1201.246094 -6.96875 " fill-opacity="1" fill-rule="nonzero"/></g><g clip-path="url(#9186777ab5)"><path fill="#85d8a6" d="M 1301.714844 370.84375 C 1309.890625 387.816406 1318.015625 404.96875 1325.433594 422.394531 C 1321.898438 422.203125 1318.367188 422.011719 1314.839844 421.816406 C 1307.722656 405.996094 1300.890625 390.039062 1293.9375 374.210938 C 1283.449219 350.339844 1272.503906 326.652344 1261.472656 303.019531 C 1263.695312 303.253906 1265.917969 303.492188 1268.148438 303.722656 C 1279.71875 325.898438 1290.855469 348.292969 1301.714844 370.84375 Z M 1236.898438 300.269531 C 1234.652344 300.003906 1232.425781 299.71875 1230.191406 299.445312 C 1237.886719 319.730469 1246.300781 339.773438 1254.816406 359.664062 C 1263.460938 379.847656 1272.195312 400.300781 1282.140625 420.023438 C 1285.398438 420.191406 1288.664062 420.367188 1291.929688 420.542969 C 1282.558594 399.359375 1272.214844 378.496094 1262.542969 357.5 C 1253.796875 338.511719 1245.417969 319.359375 1236.898438 300.269531 Z M 1210.3125 346.796875 C 1209 344.734375 1205.417969 346.011719 1206.222656 348.519531 C 1211.863281 366.109375 1220.972656 383.050781 1229.671875 399.285156 C 1233.105469 405.699219 1236.636719 412.035156 1240.339844 418.285156 C 1241.582031 418.316406 1242.824219 418.34375 1244.070312 418.382812 C 1246.050781 418.445312 1248.035156 418.519531 1250.015625 418.589844 C 1245.796875 411.046875 1241.550781 403.515625 1237.359375 395.953125 C 1228.324219 379.664062 1220.304688 362.507812 1210.3125 346.796875 Z M 1331.339844 369.648438 C 1321.871094 348.90625 1313.328125 327.757812 1303.324219 307.324219 C 1300.378906 307.132812 1297.445312 306.867188 1294.523438 306.5625 C 1301.832031 329.664062 1311.992188 351.789062 1322.050781 373.90625 C 1328.507812 388.097656 1335.160156 402.199219 1342 416.207031 C 1343.167969 418.597656 1344.324219 421.019531 1345.476562 423.449219 C 1349.507812 423.664062 1353.542969 423.886719 1357.578125 424.132812 C 1355.601562 420.375 1353.648438 416.617188 1351.792969 412.832031 C 1344.773438 398.535156 1337.957031 384.140625 1331.339844 369.648438 Z M 1425.808594 352.015625 C 1421.738281 339.175781 1416.140625 327.019531 1410.027344 315.039062 C 1407.308594 309.710938 1404.824219 304.292969 1402.476562 298.820312 C 1398.78125 298.925781 1395.085938 299.027344 1391.394531 299.132812 C 1394.132812 305.667969 1397.054688 312.125 1400.308594 318.402344 C 1407.125 331.542969 1416.910156 342.296875 1421.726562 356.5625 C 1427 372.195312 1430.09375 389.03125 1436.28125 404.394531 C 1436.6875 401.671875 1437.050781 398.949219 1437.375 396.238281 C 1432.78125 381.78125 1430.375 366.402344 1425.808594 352.015625 Z M 1369.0625 379.84375 C 1366.566406 372.789062 1363.082031 366.058594 1359.929688 359.273438 C 1353.328125 345.074219 1346.636719 330.914062 1339.972656 316.742188 C 1337.945312 312.433594 1335.933594 308.074219 1333.613281 303.898438 C 1332.871094 304.03125 1332.132812 304.164062 1331.394531 304.304688 C 1328.480469 304.859375 1325.648438 305.449219 1322.832031 305.96875 C 1323.128906 306.457031 1323.425781 306.941406 1323.710938 307.433594 C 1326.949219 313.011719 1329.609375 318.90625 1332.351562 324.734375 C 1338.71875 338.285156 1345.070312 351.847656 1351.492188 365.371094 C 1354.65625 372.035156 1357.503906 378.960938 1361.359375 385.261719 C 1365.242188 391.613281 1369.042969 397.761719 1372.359375 404.445312 C 1375.859375 411.511719 1379.046875 418.683594 1381.996094 425.953125 C 1383.199219 426.070312 1384.398438 426.195312 1385.59375 426.328125 C 1382.660156 418.40625 1379.636719 410.523438 1376.683594 402.625 C 1373.871094 395.097656 1371.730469 387.402344 1369.0625 379.84375 Z M 1391.835938 356.140625 C 1387.660156 347.230469 1382.863281 338.601562 1378.5625 329.75 C 1373.796875 319.953125 1369.007812 310.101562 1364.066406 300.332031 C 1362.578125 300.429688 1361.089844 300.539062 1359.605469 300.65625 C 1364.59375 311.605469 1369.421875 322.613281 1373.957031 333.835938 C 1377.652344 342.988281 1380.300781 352.460938 1383.707031 361.710938 C 1387.351562 371.621094 1391.285156 381.425781 1394.953125 391.324219 C 1399.71875 404.195312 1404.222656 417.160156 1408.476562 430.203125 C 1412.632812 431.234375 1416.667969 432.472656 1420.535156 433.953125 C 1415.246094 417.460938 1409.539062 401.101562 1403.433594 384.894531 C 1399.804688 375.257812 1396.210938 365.464844 1391.835938 356.140625 Z M 1197.324219 271.792969 C 1195.605469 260.390625 1193.449219 249.972656 1194.632812 237.917969 C 1195.816406 225.878906 1198.132812 213.910156 1199.921875 202.054688 C 1203.75 176.742188 1207.695312 151.476562 1212.136719 126.40625 C 1212.992188 121.585938 1211.050781 117.226562 1208.140625 116.898438 C 1164.496094 112.003906 1120.867188 107.273438 1077.195312 102.898438 C 1072.527344 102.429688 1067.089844 100.648438 1062.429688 101.996094 C 1057.957031 103.289062 1057.1875 109.402344 1057.328125 115.929688 C 1057.710938 133.859375 1057.121094 151.746094 1056.03125 169.664062 C 1053.851562 205.65625 1050.5 241.550781 1047.585938 277.429688 C 1046.007812 296.871094 1044.539062 316.375 1042.34375 335.6875 C 1040.292969 353.714844 1037.191406 371.59375 1030.84375 386.988281 C 1029.34375 390.632812 1030.390625 397.019531 1033.152344 397.859375 C 1074.628906 410.472656 1117.34375 411.140625 1159.734375 413.019531 C 1162.175781 413.449219 1164.613281 413.898438 1167.046875 414.382812 C 1172.203125 415.410156 1177.347656 416.585938 1182.453125 418.085938 C 1186.933594 419.398438 1191.96875 422.511719 1196.554688 421.210938 C 1198.746094 421.269531 1200.816406 419.019531 1200.585938 414.335938 C 1198.246094 367.03125 1204.316406 318.179688 1197.324219 271.792969 Z M 1197.324219 271.792969 " fill-opacity="1" fill-rule="nonzero"/></g><g clip-path="url(#246a538604)"><path fill="#ffffff" d="M 1195.917969 195.589844 C 1197.554688 194.859375 1199.332031 194.554688 1201.117188 194.253906 C 1200.964844 195.230469 1200.816406 196.207031 1200.667969 197.183594 C 1199.753906 197.433594 1198.84375 197.699219 1198.011719 198.132812 C 1196.199219 199.105469 1194.710938 200.757812 1192.910156 201.71875 C 1191.101562 202.667969 1189.207031 203.4375 1187.402344 204.398438 C 1185.621094 205.382812 1183.832031 206.375 1182.042969 207.363281 C 1180.246094 208.3125 1178.339844 209.03125 1176.511719 209.9375 C 1174.960938 210.71875 1173.503906 211.695312 1171.980469 212.523438 C 1171.699219 212.675781 1171.417969 212.835938 1171.125 212.976562 C 1169.277344 213.871094 1167.503906 214.925781 1165.664062 215.832031 C 1164.316406 216.488281 1162.859375 216.921875 1161.460938 217.472656 C 1160.941406 217.675781 1160.429688 217.894531 1159.9375 218.152344 C 1159.5 218.378906 1159.066406 218.617188 1158.640625 218.863281 C 1157.28125 219.640625 1155.960938 220.480469 1154.585938 221.226562 C 1152.777344 222.191406 1150.804688 222.855469 1148.996094 223.828125 C 1147.214844 224.820312 1145.652344 226.214844 1143.871094 227.199219 C 1142.085938 228.175781 1140.023438 228.664062 1138.25 229.671875 C 1136.480469 230.6875 1135.054688 232.292969 1133.3125 233.34375 C 1132.976562 233.542969 1132.621094 233.710938 1132.269531 233.882812 C 1133.105469 233.648438 1133.933594 233.394531 1134.699219 233.027344 C 1136.53125 232.144531 1138.246094 231.023438 1140.082031 230.144531 C 1141.917969 229.257812 1143.941406 228.75 1145.78125 227.894531 C 1147.625 227.039062 1149.308594 225.855469 1151.15625 225.011719 C 1153 224.152344 1154.765625 223.144531 1156.59375 222.257812 C 1158.433594 221.398438 1160.117188 220.21875 1161.949219 219.335938 L 1167.429688 216.691406 C 1169.261719 215.8125 1171.421875 215.632812 1173.257812 214.777344 C 1175.085938 213.914062 1176.546875 212.230469 1178.382812 211.359375 C 1180.222656 210.5 1182.289062 210.136719 1184.121094 209.265625 C 1185.953125 208.386719 1187.765625 207.460938 1189.605469 206.601562 C 1191.449219 205.738281 1193.28125 204.851562 1195.144531 204.035156 C 1196.785156 203.320312 1198.347656 202.410156 1199.984375 201.667969 C 1199.964844 201.796875 1199.941406 201.925781 1199.921875 202.054688 C 1199.785156 202.980469 1199.636719 203.90625 1199.492188 204.835938 C 1197.894531 205.625 1196.226562 206.261719 1194.671875 207.125 C 1192.648438 208.234375 1190.699219 209.46875 1188.667969 210.542969 C 1186.636719 211.613281 1184.921875 213.335938 1182.894531 214.398438 C 1181.117188 215.328125 1178.976562 215.492188 1177.195312 216.417969 C 1175.410156 217.339844 1173.851562 218.710938 1172.058594 219.597656 C 1170.269531 220.496094 1168.5625 221.570312 1166.757812 222.425781 C 1164.949219 223.28125 1162.929688 223.703125 1161.113281 224.546875 C 1159.296875 225.390625 1157.542969 226.351562 1155.734375 227.210938 C 1153.925781 228.074219 1152.292969 229.296875 1150.488281 230.164062 C 1148.683594 231.023438 1146.492188 231.125 1144.664062 231.964844 C 1142.847656 232.820312 1141.164062 233.929688 1139.339844 234.78125 C 1137.472656 235.632812 1135.601562 236.472656 1133.75 237.363281 C 1131.898438 238.253906 1130.269531 239.570312 1128.417969 240.453125 C 1126.558594 241.328125 1124.628906 242.082031 1122.71875 242.878906 C 1120.824219 243.6875 1118.636719 243.902344 1116.648438 244.574219 C 1114.714844 245.226562 1112.949219 246.210938 1111.050781 246.929688 C 1109.417969 247.550781 1107.90625 248.394531 1106.347656 249.152344 C 1106.085938 249.277344 1105.832031 249.40625 1105.566406 249.527344 C 1105.292969 249.648438 1105.019531 249.769531 1104.746094 249.890625 C 1103.683594 250.453125 1102.632812 251.023438 1101.558594 251.570312 C 1100.625 252.058594 1099.597656 252.402344 1098.570312 252.746094 C 1097.191406 253.347656 1095.769531 253.882812 1094.492188 254.652344 C 1093.878906 255.027344 1093.09375 254.199219 1093.066406 253.515625 C 1092.328125 252.757812 1092.210938 251.460938 1093.359375 250.441406 C 1094.929688 249.046875 1096.539062 247.710938 1098.234375 246.484375 C 1099.941406 245.273438 1101.730469 244.1875 1103.507812 243.078125 C 1105.277344 241.964844 1106.941406 240.664062 1108.757812 239.625 C 1110.574219 238.582031 1112.277344 237.347656 1114.113281 236.339844 C 1115.953125 235.332031 1118.035156 234.75 1119.84375 233.707031 C 1121.621094 232.664062 1123.328125 231.488281 1125.101562 230.433594 C 1126.894531 229.40625 1128.871094 228.699219 1130.660156 227.675781 C 1132.441406 226.636719 1134.089844 225.355469 1135.894531 224.355469 C 1137.703125 223.359375 1139.410156 222.175781 1141.246094 221.230469 C 1143.078125 220.277344 1144.941406 219.386719 1146.789062 218.464844 C 1148.6875 217.527344 1150.769531 216.957031 1152.664062 216.027344 C 1154.5625 215.101562 1156.484375 214.21875 1158.394531 213.3125 C 1160.296875 212.398438 1162.074219 211.207031 1164 210.335938 C 1165.925781 209.460938 1167.738281 208.34375 1169.679688 207.503906 C 1171.617188 206.652344 1173.851562 206.480469 1175.78125 205.628906 C 1178.0625 204.644531 1180.089844 203.0625 1182.363281 202.039062 C 1184.652344 201.050781 1186.835938 199.851562 1189.066406 198.730469 C 1191.324219 197.621094 1193.632812 196.621094 1195.917969 195.589844 Z M 1122.441406 281.167969 C 1123.785156 280.6875 1125.226562 280.464844 1126.628906 280.167969 C 1127.65625 280.050781 1128.683594 279.933594 1129.644531 279.652344 C 1130.808594 279.324219 1131.960938 278.980469 1133.113281 278.632812 C 1133.335938 278.585938 1133.554688 278.539062 1133.777344 278.488281 C 1134.042969 278.425781 1134.304688 278.355469 1134.570312 278.285156 C 1136.171875 277.871094 1137.742188 277.351562 1139.390625 277.070312 C 1141.300781 276.746094 1143.136719 276.148438 1145.070312 275.890625 C 1147.058594 275.621094 1149.167969 275.835938 1151.09375 275.417969 C 1153.027344 275.007812 1154.976562 274.632812 1156.875 274.132812 C 1158.769531 273.625 1160.511719 272.636719 1162.402344 272.105469 C 1164.292969 271.578125 1166.199219 271.109375 1168.09375 270.605469 C 1169.949219 270.101562 1171.710938 269.320312 1173.5625 268.804688 C 1175.417969 268.304688 1177.511719 268.585938 1179.351562 268.0625 C 1181.191406 267.53125 1182.910156 266.597656 1184.75 266.0625 C 1186.589844 265.527344 1188.390625 264.882812 1190.230469 264.351562 C 1192.070312 263.816406 1194.050781 263.746094 1195.882812 263.195312 C 1195.914062 263.183594 1195.945312 263.171875 1195.980469 263.160156 C 1195.730469 261.527344 1195.492188 259.902344 1195.277344 258.277344 L 1191.722656 259.371094 C 1189.867188 259.933594 1188.113281 260.816406 1186.25 261.351562 C 1184.394531 261.90625 1182.578125 262.59375 1180.710938 263.125 C 1178.839844 263.640625 1177.074219 264.492188 1175.207031 265.011719 C 1173.339844 265.53125 1171.347656 265.667969 1169.476562 266.203125 C 1167.609375 266.730469 1165.820312 267.523438 1163.949219 268.046875 C 1163.167969 268.265625 1162.347656 268.359375 1161.519531 268.433594 C 1161.878906 268.332031 1162.242188 268.230469 1162.589844 268.097656 C 1164.398438 267.398438 1165.984375 266.082031 1167.808594 265.410156 C 1169.636719 264.742188 1171.664062 264.644531 1173.492188 263.996094 C 1175.320312 263.34375 1177 262.253906 1178.828125 261.59375 C 1180.675781 260.949219 1182.636719 260.632812 1184.488281 259.996094 C 1185.886719 259.503906 1187.253906 258.894531 1188.640625 258.359375 C 1189.082031 258.1875 1189.523438 258.023438 1189.972656 257.871094 C 1190.472656 257.703125 1190.984375 257.574219 1191.503906 257.460938 C 1192.691406 257.199219 1193.90625 257.007812 1195.078125 256.699219 C 1195.066406 256.59375 1195.054688 256.488281 1195.042969 256.382812 C 1194.828125 254.585938 1194.644531 252.785156 1194.515625 250.964844 C 1192.703125 251.515625 1190.96875 252.324219 1189.15625 252.867188 L 1183.371094 254.570312 C 1181.453125 255.160156 1179.40625 255.359375 1177.484375 255.953125 C 1175.609375 256.535156 1173.71875 257.074219 1171.855469 257.683594 C 1169.984375 258.289062 1168.203125 259.140625 1166.351562 259.785156 C 1164.496094 260.433594 1162.757812 261.390625 1160.917969 262.070312 C 1159.074219 262.738281 1157.101562 263.0625 1155.257812 263.730469 C 1153.417969 264.421875 1151.628906 265.238281 1149.789062 265.921875 C 1147.921875 266.597656 1145.859375 266.742188 1143.96875 267.367188 C 1142.078125 267.992188 1140.277344 268.859375 1138.394531 269.503906 C 1136.511719 270.148438 1134.738281 271.089844 1132.882812 271.804688 C 1131.023438 272.515625 1129.15625 273.203125 1127.347656 274.03125 C 1125.546875 274.867188 1123.800781 275.820312 1122.085938 276.84375 C 1120.832031 277.589844 1120.722656 278.875 1121.292969 279.765625 C 1121.199219 280.433594 1121.800781 281.402344 1122.441406 281.167969 Z M 1054.679688 356.003906 C 1056.839844 354.949219 1059 353.898438 1061.160156 352.847656 C 1063.320312 351.796875 1065.660156 351.109375 1067.816406 350.054688 C 1069.925781 349.027344 1072.066406 348.066406 1074.167969 347.027344 C 1076.265625 345.988281 1078.269531 344.75 1080.363281 343.703125 C 1082.460938 342.65625 1084.402344 341.292969 1086.496094 340.246094 C 1088.59375 339.195312 1090.855469 338.476562 1092.953125 337.429688 C 1095.050781 336.382812 1097.085938 335.214844 1099.1875 334.175781 C 1101.3125 333.125 1103.707031 332.644531 1105.875 331.671875 C 1108.039062 330.703125 1110.101562 329.511719 1112.273438 328.558594 C 1114.449219 327.601562 1116.476562 326.335938 1118.625 325.332031 C 1120.777344 324.328125 1122.933594 323.347656 1125.027344 322.234375 C 1127.121094 321.121094 1129.15625 319.914062 1131.160156 318.628906 C 1132.621094 317.691406 1132.777344 316.34375 1132.144531 315.496094 C 1132.269531 314.789062 1131.597656 313.863281 1130.84375 314.191406 C 1129.277344 314.871094 1127.597656 315.292969 1125.957031 315.792969 C 1124.757812 316.054688 1123.558594 316.316406 1122.425781 316.742188 C 1121.070312 317.257812 1119.71875 317.785156 1118.371094 318.320312 C 1118.113281 318.402344 1117.859375 318.484375 1117.605469 318.566406 C 1117.292969 318.667969 1116.988281 318.785156 1116.679688 318.894531 C 1114.804688 319.5625 1112.96875 320.347656 1111.046875 320.910156 C 1108.824219 321.566406 1106.671875 322.46875 1104.417969 323.078125 C 1102.101562 323.707031 1099.628906 323.863281 1097.375 324.640625 C 1095.117188 325.417969 1092.851562 326.1875 1090.636719 327.070312 C 1088.421875 327.949219 1086.425781 329.324219 1084.234375 330.261719 C 1082.042969 331.195312 1079.820312 332.058594 1077.632812 333 C 1075.488281 333.925781 1073.464844 335.105469 1071.332031 336.046875 C 1069.195312 336.992188 1066.714844 337.191406 1064.589844 338.15625 C 1062.464844 339.121094 1060.542969 340.515625 1058.429688 341.507812 C 1056.320312 342.496094 1054.265625 343.605469 1052.167969 344.628906 C 1050.070312 345.652344 1047.75 346.222656 1045.667969 347.28125 C 1043.875 348.195312 1042.160156 349.261719 1040.398438 350.242188 C 1040.140625 351.886719 1039.871094 353.523438 1039.585938 355.148438 C 1041.28125 354.503906 1043.101562 354.085938 1044.707031 353.261719 C 1046.789062 352.191406 1048.863281 351.109375 1050.964844 350.066406 C 1053.0625 349.023438 1055.011719 347.679688 1057.128906 346.664062 C 1059.242188 345.648438 1061.296875 344.507812 1063.421875 343.515625 C 1065.550781 342.527344 1067.554688 341.273438 1069.691406 340.308594 C 1071.832031 339.34375 1074.144531 338.753906 1076.292969 337.8125 C 1078.445312 336.871094 1080.472656 335.65625 1082.632812 334.742188 C 1083.535156 334.359375 1084.488281 334.09375 1085.453125 333.851562 C 1085.035156 334.027344 1084.621094 334.203125 1084.21875 334.410156 C 1082.136719 335.488281 1080.371094 337.179688 1078.292969 338.261719 C 1076.210938 339.34375 1073.84375 339.867188 1071.765625 340.953125 C 1069.691406 342.039062 1067.824219 343.53125 1065.75 344.621094 C 1063.660156 345.722656 1061.414062 346.519531 1059.320312 347.613281 C 1057.742188 348.4375 1056.234375 349.402344 1054.691406 350.292969 C 1054.191406 350.585938 1053.683594 350.871094 1053.167969 351.140625 C 1052.609375 351.433594 1052.035156 351.691406 1051.453125 351.9375 C 1049.851562 352.609375 1048.195312 353.175781 1046.664062 353.988281 C 1044.578125 355.089844 1042.546875 356.308594 1040.46875 357.429688 C 1040.140625 357.605469 1039.824219 357.800781 1039.503906 357.988281 C 1039.339844 358.085938 1039.175781 358.175781 1039.011719 358.273438 C 1038.617188 360.355469 1038.191406 362.417969 1037.734375 364.460938 C 1039.183594 363.984375 1040.667969 363.578125 1042.015625 362.90625 C 1044.167969 361.835938 1046.210938 360.554688 1048.367188 359.492188 C 1050.523438 358.433594 1052.523438 357.058594 1054.679688 356.003906 Z M 1186.679688 362.625 C 1184.195312 363.449219 1181.722656 364.320312 1179.285156 365.277344 C 1176.839844 366.21875 1174.648438 367.734375 1172.257812 368.792969 C 1169.867188 369.859375 1167.429688 370.828125 1165.070312 371.960938 C 1162.75 373.058594 1160.546875 374.394531 1158.238281 375.519531 C 1155.949219 376.671875 1153.277344 377.101562 1150.988281 378.28125 C 1148.691406 379.445312 1146.675781 381.125 1144.421875 382.359375 C 1143.296875 382.984375 1142.1875 383.636719 1141.082031 384.292969 L 1137.792969 386.304688 C 1135.589844 387.632812 1133.097656 388.492188 1130.933594 389.890625 C 1128.769531 391.285156 1126.734375 392.882812 1124.597656 394.3125 C 1122.464844 395.757812 1120.703125 397.71875 1118.621094 399.222656 C 1116.535156 400.71875 1114.011719 401.636719 1111.992188 403.234375 C 1109.683594 405.058594 1107.824219 407.425781 1105.613281 409.347656 C 1105.292969 409.628906 1104.976562 409.914062 1104.660156 410.191406 C 1106.15625 410.308594 1107.65625 410.421875 1109.160156 410.527344 C 1109.808594 410.003906 1110.464844 409.488281 1111.136719 408.992188 C 1113.191406 407.460938 1115.582031 406.390625 1117.644531 404.875 C 1119.71875 403.375 1121.335938 401.214844 1123.441406 399.746094 C 1125.542969 398.269531 1128.128906 397.527344 1130.277344 396.132812 C 1132.429688 394.746094 1134.550781 393.3125 1136.753906 392 C 1138.945312 390.675781 1140.960938 389.050781 1143.175781 387.753906 C 1145.410156 386.492188 1147.578125 385.109375 1149.824219 383.871094 C 1152.058594 382.613281 1154.222656 381.203125 1156.5 380.023438 C 1158.777344 378.84375 1161.25 378.050781 1163.574219 376.964844 C 1165.890625 375.871094 1168.0625 374.46875 1170.40625 373.433594 C 1171.390625 373 1172.421875 372.6875 1173.464844 372.394531 C 1173.011719 372.597656 1172.558594 372.796875 1172.121094 373.023438 C 1169.847656 374.199219 1167.941406 376.050781 1165.710938 377.289062 C 1163.480469 378.53125 1160.921875 379.195312 1158.722656 380.5 C 1156.511719 381.789062 1154.527344 383.460938 1152.328125 384.757812 C 1150.132812 386.097656 1147.757812 387.144531 1145.558594 388.480469 C 1143.902344 389.464844 1142.363281 390.636719 1140.78125 391.738281 C 1140.25 392.109375 1139.710938 392.46875 1139.160156 392.8125 C 1138.582031 393.179688 1137.980469 393.515625 1137.371094 393.839844 C 1136.839844 394.121094 1136.304688 394.394531 1135.765625 394.667969 C 1134.617188 395.265625 1133.480469 395.875 1132.40625 396.585938 C 1130.269531 398.023438 1128.171875 399.519531 1126.074219 401.011719 C 1125.746094 401.246094 1125.425781 401.492188 1125.101562 401.738281 C 1123.375 403.050781 1121.738281 404.492188 1119.984375 405.761719 C 1117.933594 407.273438 1115.808594 408.675781 1113.820312 410.25 C 1113.589844 410.429688 1113.371094 410.613281 1113.148438 410.796875 C 1115.339844 410.9375 1117.535156 411.074219 1119.726562 411.199219 C 1120.234375 410.789062 1120.746094 410.382812 1121.277344 410.007812 C 1123.417969 408.542969 1126.015625 407.761719 1128.171875 406.328125 C 1130.320312 404.882812 1132.394531 403.320312 1134.585938 401.941406 C 1136.78125 400.5625 1138.785156 398.878906 1141.023438 397.566406 C 1143.253906 396.246094 1145.464844 394.890625 1147.710938 393.597656 C 1149.960938 392.3125 1152.414062 391.382812 1154.660156 390.097656 C 1156.859375 388.855469 1159.125 387.730469 1161.328125 386.5 C 1163.527344 385.257812 1165.65625 383.882812 1167.886719 382.695312 C 1170.117188 381.515625 1172.164062 379.980469 1174.425781 378.851562 C 1176.679688 377.699219 1179.09375 376.875 1181.34375 375.734375 C 1183.617188 374.628906 1185.828125 373.402344 1188.101562 372.304688 C 1190.394531 371.175781 1192.992188 370.726562 1195.34375 369.730469 C 1196.992188 369.035156 1198.601562 368.238281 1200.238281 367.511719 C 1200.273438 365.730469 1200.304688 363.945312 1200.339844 362.160156 C 1200.355469 361.523438 1200.367188 360.890625 1200.378906 360.253906 C 1200.378906 360.234375 1200.378906 360.214844 1200.378906 360.195312 C 1200.386719 359.871094 1200.390625 359.542969 1200.398438 359.21875 C 1198.394531 359.796875 1196.398438 360.460938 1194.371094 360.988281 C 1191.839844 361.640625 1189.164062 361.816406 1186.679688 362.625 Z M 1082.378906 312.238281 C 1094.128906 308.128906 1105.980469 304.050781 1118.027344 300.8125 C 1130.078125 297.59375 1142.28125 295.289062 1154.558594 293.21875 C 1166.835938 291.183594 1179.28125 289.5 1191.726562 288.914062 C 1193.050781 288.828125 1194.378906 288.832031 1195.703125 288.800781 L 1199.328125 288.753906 C 1199.21875 287.554688 1199.109375 286.355469 1198.988281 285.160156 L 1198.128906 285.1875 L 1195.730469 285.25 C 1194.132812 285.300781 1192.535156 285.3125 1190.941406 285.414062 C 1187.75 285.585938 1184.554688 285.71875 1181.371094 286.007812 L 1176.59375 286.402344 L 1171.824219 286.90625 C 1159.351562 288.261719 1147.003906 290.699219 1134.804688 293.390625 C 1122.597656 296.074219 1110.441406 298.523438 1098.511719 302.265625 C 1086.574219 305.996094 1074.890625 310.601562 1063.28125 315.074219 C 1056.699219 317.601562 1050.175781 320.257812 1043.6875 322.972656 C 1043.535156 324.496094 1043.382812 326.015625 1043.226562 327.539062 C 1044.660156 326.929688 1046.097656 326.332031 1047.539062 325.738281 C 1059.050781 321.023438 1070.621094 316.359375 1082.378906 312.238281 Z M 1061.859375 304.59375 C 1067.121094 301.421875 1072.320312 298.164062 1077.46875 294.894531 C 1080.4375 293.078125 1083.371094 291.230469 1086.292969 289.363281 L 1090.660156 286.554688 L 1095.101562 283.878906 C 1098.066406 282.09375 1101.03125 280.308594 1104 278.523438 C 1106.988281 276.773438 1110.0625 275.167969 1113.132812 273.519531 C 1125.398438 266.90625 1137.9375 261 1150.644531 255.285156 C 1163.460938 249.871094 1176.742188 244.992188 1189.910156 240.519531 C 1191.460938 239.988281 1193.007812 239.4375 1194.550781 238.890625 C 1194.578125 238.566406 1194.601562 238.246094 1194.632812 237.917969 C 1194.6875 237.347656 1194.757812 236.777344 1194.820312 236.207031 L 1193.4375 236.652344 C 1187.550781 238.578125 1181.648438 240.421875 1175.878906 242.660156 L 1167.1875 245.878906 C 1164.28125 246.9375 1161.445312 248.171875 1158.5625 249.292969 L 1149.945312 252.734375 L 1141.453125 256.460938 C 1138.628906 257.71875 1135.777344 258.910156 1132.980469 260.226562 L 1124.613281 264.226562 C 1118.996094 266.808594 1113.558594 269.75 1108.078125 272.605469 L 1103.976562 274.75 C 1102.617188 275.484375 1101.28125 276.265625 1099.933594 277.015625 L 1091.855469 281.554688 C 1089.140625 283.027344 1086.480469 284.609375 1083.808594 286.167969 L 1075.753906 290.796875 L 1073.738281 291.957031 L 1071.761719 293.179688 L 1067.8125 295.628906 C 1065.1875 297.269531 1062.570312 298.921875 1059.972656 300.601562 C 1054.878906 304.101562 1049.933594 307.800781 1045.023438 311.515625 L 1044.742188 311.742188 C 1044.597656 313.363281 1044.445312 314.988281 1044.296875 316.613281 C 1045.066406 316.023438 1045.828125 315.429688 1046.605469 314.847656 C 1051.550781 311.277344 1056.734375 307.96875 1061.859375 304.59375 Z M 1053.097656 302.8125 C 1058.132812 299.183594 1063.414062 295.929688 1068.613281 292.5625 L 1072.515625 290.050781 L 1076.488281 287.660156 C 1079.132812 286.058594 1081.769531 284.457031 1084.40625 282.855469 C 1087.023438 281.203125 1089.722656 279.699219 1092.402344 278.160156 C 1095.078125 276.617188 1097.753906 275.078125 1100.429688 273.539062 C 1101.757812 272.75 1103.113281 272.015625 1104.476562 271.300781 L 1108.558594 269.121094 L 1116.734375 264.769531 C 1122.265625 262.019531 1127.871094 259.351562 1133.480469 256.707031 C 1136.320312 255.460938 1139.160156 254.210938 1141.996094 252.96875 L 1146.242188 251.082031 C 1147.652344 250.445312 1149.066406 249.820312 1150.5 249.246094 C 1153.355469 248.070312 1156.175781 246.855469 1158.980469 245.621094 C 1161.789062 244.394531 1164.5625 243.097656 1167.40625 241.980469 C 1170.238281 240.824219 1173.074219 239.671875 1175.917969 238.515625 C 1177.34375 237.949219 1178.773438 237.382812 1180.207031 236.8125 C 1181.660156 236.289062 1183.121094 235.792969 1184.589844 235.296875 C 1188.125 234.121094 1191.703125 232.96875 1195.320312 231.898438 C 1195.453125 230.855469 1195.582031 229.816406 1195.722656 228.773438 C 1189.625 230.445312 1183.5625 232.265625 1177.539062 234.300781 C 1170.394531 236.917969 1163.171875 239.363281 1156.128906 242.300781 C 1152.59375 243.734375 1149.027344 245.085938 1145.523438 246.601562 L 1135.058594 251.230469 C 1131.582031 252.714844 1128.199219 254.390625 1124.804688 256.042969 C 1121.414062 257.703125 1118.003906 259.308594 1114.636719 261.011719 C 1111.292969 262.761719 1107.949219 264.511719 1104.601562 266.261719 C 1102.933594 267.144531 1101.242188 267.988281 1099.582031 268.894531 L 1094.625 271.65625 C 1091.316406 273.496094 1088.019531 275.351562 1084.75 277.257812 L 1075.121094 283.261719 L 1070.3125 286.265625 L 1065.59375 289.414062 C 1062.445312 291.5 1059.289062 293.574219 1056.109375 295.609375 C 1053.453125 297.414062 1050.792969 299.203125 1048.105469 300.957031 C 1047.253906 301.527344 1046.394531 302.082031 1045.53125 302.636719 C 1045.367188 304.601562 1045.199219 306.5625 1045.027344 308.523438 C 1045.164062 308.425781 1045.300781 308.320312 1045.441406 308.21875 Z M 1089.789062 317.914062 C 1101.398438 313.886719 1113.152344 310.371094 1124.984375 307.238281 C 1136.808594 304.097656 1148.734375 301.328125 1160.78125 299.371094 C 1172.816406 297.402344 1184.929688 295.800781 1197.097656 295.332031 L 1199.394531 295.246094 L 1199.832031 295.257812 C 1199.707031 293.441406 1199.574219 291.628906 1199.417969 289.816406 C 1199.394531 289.546875 1199.375 289.277344 1199.351562 289.007812 L 1195.386719 289.199219 C 1193.835938 289.28125 1192.285156 289.371094 1190.738281 289.527344 C 1187.640625 289.804688 1184.546875 290.089844 1181.46875 290.503906 C 1175.296875 291.222656 1169.175781 292.234375 1163.035156 293.140625 C 1150.777344 295.042969 1138.460938 297.03125 1126.421875 300.136719 C 1114.382812 303.25 1102.671875 307.367188 1090.941406 311.402344 C 1079.121094 315.464844 1067.3125 319.660156 1055.722656 324.371094 C 1051.449219 326.109375 1047.210938 327.929688 1042.988281 329.777344 C 1042.980469 329.84375 1042.972656 329.910156 1042.964844 329.976562 C 1042.761719 331.882812 1042.558594 333.785156 1042.34375 335.6875 C 1042.335938 335.746094 1042.328125 335.804688 1042.320312 335.863281 C 1046.292969 334.191406 1050.269531 332.53125 1054.253906 330.910156 C 1065.96875 326.132812 1077.894531 322.042969 1089.789062 317.914062 Z M 1200.316406 303.792969 C 1200.3125 303.695312 1200.308594 303.601562 1200.304688 303.507812 C 1200.207031 301.425781 1200.097656 299.347656 1199.964844 297.269531 L 1199.792969 297.378906 L 1198.402344 298.207031 L 1194.417969 300.570312 C 1189.09375 303.710938 1183.742188 306.820312 1178.359375 309.882812 C 1167.464844 316.085938 1156.28125 321.652344 1145.3125 327.851562 C 1134.351562 334.058594 1123.511719 340.621094 1112.714844 347.226562 C 1101.898438 353.832031 1091.394531 361.105469 1081.042969 368.511719 C 1070.675781 375.917969 1060.597656 383.773438 1051.058594 392.324219 C 1048.101562 394.972656 1045.199219 397.6875 1042.351562 400.453125 C 1043.199219 400.675781 1044.050781 400.902344 1044.898438 401.113281 C 1046.1875 401.4375 1047.472656 401.75 1048.761719 402.054688 C 1048.847656 402.074219 1048.929688 402.09375 1049.011719 402.113281 C 1050.820312 400.550781 1052.632812 398.992188 1054.453125 397.433594 C 1060.589844 392.1875 1066.910156 387.152344 1073.359375 382.300781 C 1074.15625 381.714844 1074.949219 381.132812 1075.75 380.550781 C 1077.164062 379.53125 1078.585938 378.511719 1080.011719 377.496094 C 1088.511719 371.453125 1097.242188 365.585938 1106.117188 360.207031 C 1116.4375 353.960938 1127.007812 347.679688 1137.667969 341.953125 C 1148.625 336.054688 1159.574219 330.945312 1170.589844 325.046875 C 1180.574219 319.707031 1190.585938 314.34375 1200.515625 308.777344 C 1200.464844 307.277344 1200.40625 305.78125 1200.339844 304.289062 C 1200.332031 304.121094 1200.324219 303.957031 1200.316406 303.792969 Z M 1205.339844 127.507812 L 1197.175781 130.46875 C 1191.710938 132.386719 1186.359375 134.59375 1180.984375 136.722656 C 1178.289062 137.765625 1175.648438 138.9375 1172.976562 140.046875 L 1164.976562 143.398438 C 1154.359375 148 1143.816406 152.753906 1133.453125 157.894531 C 1123.03125 162.917969 1112.890625 168.460938 1102.738281 173.988281 C 1092.675781 179.667969 1082.324219 184.988281 1072.535156 191.164062 C 1071.152344 192.039062 1069.769531 192.917969 1068.398438 193.808594 C 1066.253906 194.621094 1064.109375 195.449219 1061.980469 196.3125 C 1061.394531 196.550781 1060.816406 196.800781 1060.234375 197.042969 C 1059.640625 197.285156 1059.050781 197.535156 1058.460938 197.78125 C 1058.515625 197.746094 1058.570312 197.707031 1058.625 197.671875 C 1061.050781 196.050781 1063.464844 194.398438 1065.929688 192.832031 L 1073.300781 188.226562 L 1076.996094 185.9375 L 1080.734375 183.730469 C 1083.222656 182.253906 1085.710938 180.78125 1088.195312 179.304688 C 1090.695312 177.863281 1093.195312 176.425781 1095.695312 174.988281 C 1105.683594 169.152344 1115.792969 163.628906 1126.011719 158.273438 C 1136.316406 153.054688 1146.859375 148.125 1157.394531 143.410156 C 1162.628906 140.976562 1167.800781 138.570312 1172.980469 136.160156 L 1176.867188 134.347656 C 1178.167969 133.753906 1179.484375 133.195312 1180.796875 132.625 C 1183.429688 131.488281 1186.082031 130.371094 1188.765625 129.289062 C 1191.441406 128.199219 1194.199219 127.269531 1196.953125 126.300781 C 1199.71875 125.359375 1202.480469 124.375 1205.285156 123.511719 C 1207.535156 122.820312 1209.777344 122.101562 1212.019531 121.382812 C 1211.78125 120.429688 1211.425781 119.585938 1210.972656 118.886719 C 1208.023438 119.753906 1205.074219 120.605469 1202.140625 121.503906 C 1195.421875 123.667969 1188.695312 125.832031 1182.101562 128.460938 C 1175.464844 130.96875 1168.925781 133.757812 1162.355469 136.472656 C 1155.84375 139.332031 1149.304688 142.144531 1142.890625 145.226562 C 1136.480469 148.164062 1130.226562 151.390625 1123.921875 154.511719 C 1117.6875 157.785156 1111.410156 160.964844 1105.214844 164.363281 C 1098.957031 167.644531 1092.925781 171.320312 1086.847656 174.898438 C 1080.859375 178.636719 1074.824219 182.28125 1068.863281 186.039062 C 1064.03125 188.984375 1059.167969 191.882812 1054.332031 194.835938 C 1054.214844 196.441406 1054.09375 198.046875 1053.972656 199.65625 C 1053.941406 200.066406 1053.90625 200.480469 1053.878906 200.894531 C 1053.871094 200.996094 1053.859375 201.101562 1053.851562 201.207031 C 1053.777344 202.179688 1053.703125 203.15625 1053.628906 204.128906 C 1053.605469 204.457031 1053.578125 204.78125 1053.554688 205.105469 C 1053.507812 205.6875 1053.464844 206.265625 1053.421875 206.84375 C 1053.410156 206.96875 1053.402344 207.089844 1053.394531 207.214844 C 1053.355469 207.683594 1053.320312 208.15625 1053.285156 208.628906 C 1053.164062 210.160156 1053.042969 211.691406 1052.917969 213.226562 C 1063.59375 208.636719 1074.292969 204.019531 1085.203125 199.972656 C 1096.277344 195.859375 1107.449219 191.988281 1118.691406 188.332031 C 1129.9375 184.671875 1141.347656 181.605469 1152.71875 178.34375 C 1163.804688 175.15625 1174.992188 172.207031 1186.148438 169.292969 C 1192.695312 167.605469 1199.207031 165.976562 1205.707031 164.722656 C 1206.03125 162.699219 1206.367188 160.679688 1206.695312 158.660156 C 1206.710938 158.5625 1206.726562 158.464844 1206.746094 158.367188 C 1200.238281 159.324219 1193.777344 160.621094 1187.417969 162.253906 C 1176.179688 165.1875 1165.136719 168.699219 1154.003906 171.953125 C 1142.789062 175.234375 1131.496094 178.351562 1120.382812 181.988281 C 1112.027344 184.726562 1103.761719 187.714844 1095.523438 190.765625 C 1092.804688 191.773438 1090.09375 192.785156 1087.378906 193.800781 C 1084.332031 194.9375 1081.277344 196.054688 1078.21875 197.179688 C 1072.003906 199.460938 1065.785156 201.761719 1059.648438 204.242188 C 1059.652344 204.238281 1059.660156 204.238281 1059.664062 204.234375 C 1062.046875 202.660156 1064.46875 201.121094 1066.90625 199.601562 C 1066.917969 199.597656 1066.925781 199.589844 1066.933594 199.585938 C 1071.214844 197.871094 1075.503906 196.183594 1079.820312 194.550781 C 1090.699219 190.441406 1101.566406 186.230469 1112.625 182.601562 C 1123.671875 178.976562 1134.765625 175.414062 1145.9375 172.191406 C 1157.105469 168.972656 1168.292969 165.613281 1179.554688 162.742188 C 1188.5625 160.433594 1197.691406 158.480469 1206.949219 157.117188 C 1207.15625 155.847656 1207.363281 154.578125 1207.570312 153.3125 C 1203.402344 153.984375 1199.28125 154.800781 1195.21875 155.667969 C 1189.511719 156.894531 1183.835938 158.117188 1178.15625 159.335938 C 1175.34375 159.964844 1172.53125 160.59375 1169.714844 161.226562 C 1166.90625 161.894531 1164.101562 162.589844 1161.300781 163.339844 C 1150.101562 166.375 1139.011719 170.042969 1127.910156 173.449219 C 1116.804688 176.859375 1105.789062 180.570312 1094.824219 184.445312 C 1093.082031 185.0625 1091.335938 185.667969 1089.589844 186.273438 C 1095.039062 182.96875 1100.453125 179.6875 1105.863281 176.40625 C 1111.449219 173.125 1117.015625 169.789062 1122.808594 166.796875 C 1128.550781 163.695312 1134.382812 160.808594 1140.175781 157.847656 C 1143.082031 156.386719 1146.027344 155.003906 1148.953125 153.578125 L 1153.351562 151.449219 C 1154.820312 150.75 1156.3125 150.089844 1157.792969 149.410156 C 1160.757812 148.058594 1163.742188 146.722656 1166.742188 145.40625 C 1169.773438 144.15625 1172.808594 142.902344 1175.839844 141.648438 C 1178.867188 140.371094 1181.929688 139.1875 1184.976562 137.988281 C 1188.019531 136.773438 1191.054688 135.5625 1194.078125 134.351562 C 1200.058594 132.03125 1205.972656 129.601562 1211.96875 127.386719 C 1212.023438 127.0625 1212.078125 126.734375 1212.136719 126.40625 C 1212.210938 125.980469 1212.257812 125.558594 1212.292969 125.136719 Z M 1165.742188 183.605469 C 1163.054688 184.851562 1160.414062 186.171875 1157.757812 187.464844 L 1149.765625 191.289062 C 1147.078125 192.523438 1144.46875 193.90625 1141.832031 195.242188 C 1139.203125 196.589844 1136.574219 197.953125 1133.960938 199.347656 C 1128.757812 202.183594 1123.660156 205.226562 1118.519531 208.1875 C 1113.445312 211.269531 1108.375 214.351562 1103.3125 217.425781 C 1098.304688 220.597656 1093.332031 223.851562 1088.382812 227.132812 C 1083.5 230.515625 1078.617188 233.902344 1073.75 237.277344 C 1068.941406 240.75 1064.078125 244.136719 1059.332031 247.6875 L 1052.261719 253.074219 C 1051.320312 253.800781 1050.375 254.523438 1049.429688 255.25 C 1049.332031 256.425781 1049.230469 257.605469 1049.132812 258.78125 C 1049.007812 260.273438 1048.882812 261.769531 1048.757812 263.261719 C 1048.746094 263.367188 1048.738281 263.472656 1048.730469 263.574219 C 1049.769531 262.773438 1050.796875 261.957031 1051.855469 261.175781 L 1055.34375 258.613281 L 1062.3125 253.476562 C 1062.929688 253.007812 1063.5625 252.5625 1064.191406 252.109375 C 1065.765625 251.007812 1067.339844 249.90625 1068.921875 248.816406 C 1069.660156 248.320312 1070.390625 247.816406 1071.125 247.3125 C 1075.078125 244.597656 1079.003906 241.804688 1083.0625 239.203125 C 1087.847656 236.085938 1092.570312 232.878906 1097.46875 230.019531 C 1102.316406 227.136719 1107.121094 224.085938 1112.085938 221.289062 C 1117.023438 218.449219 1121.921875 215.542969 1126.957031 212.972656 C 1132.101562 210.273438 1137.199219 207.6875 1142.40625 205.308594 C 1147.578125 202.871094 1152.746094 200.429688 1158.003906 197.949219 L 1165.890625 194.179688 C 1168.527344 192.941406 1171.207031 191.785156 1173.863281 190.582031 L 1181.835938 186.988281 L 1189.886719 183.566406 C 1192.558594 182.398438 1195.242188 181.230469 1197.925781 180.054688 C 1199.84375 179.246094 1201.761719 178.4375 1203.679688 177.628906 C 1203.929688 176.023438 1204.183594 174.421875 1204.433594 172.820312 C 1204.457031 172.671875 1204.480469 172.527344 1204.503906 172.382812 C 1204.507812 172.363281 1204.511719 172.339844 1204.515625 172.316406 C 1204.859375 170.113281 1205.203125 167.90625 1205.554688 165.703125 C 1202.910156 166.765625 1200.28125 167.859375 1197.644531 168.941406 C 1186.859375 173.488281 1176.269531 178.496094 1165.742188 183.605469 Z M 1067.90625 143.964844 L 1074.132812 138.308594 C 1076.179688 136.394531 1078.101562 134.34375 1080.171875 132.449219 C 1082.242188 130.558594 1084.058594 128.390625 1086.152344 126.519531 C 1088.234375 124.644531 1090.5625 123.039062 1092.648438 121.167969 C 1094.75 119.3125 1096.761719 117.351562 1098.871094 115.503906 C 1100.996094 113.625 1103.5625 112.28125 1105.765625 110.492188 C 1107.425781 109.144531 1109.007812 107.695312 1110.644531 106.320312 C 1108.230469 106.066406 1105.8125 105.824219 1103.398438 105.574219 C 1102.828125 105.515625 1102.257812 105.460938 1101.6875 105.402344 C 1101.464844 105.378906 1101.246094 105.355469 1101.023438 105.332031 C 1099.832031 105.210938 1098.640625 105.089844 1097.445312 104.96875 C 1096.648438 105.402344 1095.859375 105.855469 1095.113281 106.371094 C 1092.753906 108.015625 1090.40625 109.675781 1088.125 111.417969 C 1085.832031 113.15625 1083.910156 115.351562 1081.683594 117.164062 C 1079.457031 118.980469 1077.171875 120.722656 1074.972656 122.574219 C 1072.8125 124.378906 1070.828125 126.394531 1068.683594 128.222656 C 1066.550781 130.0625 1063.882812 131.285156 1061.761719 133.144531 C 1060.183594 134.523438 1058.800781 136.121094 1057.339844 137.628906 C 1057.304688 139.535156 1057.265625 141.4375 1057.214844 143.34375 C 1058.691406 141.921875 1060.152344 140.488281 1061.667969 139.109375 C 1063.75 137.203125 1065.6875 135.121094 1067.808594 133.253906 C 1069.929688 131.390625 1072.328125 129.851562 1074.496094 128.039062 C 1076.65625 126.226562 1078.613281 124.160156 1080.804688 122.382812 C 1081.722656 121.640625 1082.71875 121 1083.730469 120.375 C 1083.308594 120.71875 1082.886719 121.0625 1082.484375 121.429688 C 1080.402344 123.332031 1078.824219 125.773438 1076.773438 127.703125 C 1074.726562 129.636719 1072.230469 131.105469 1070.207031 133.070312 C 1068.179688 135.027344 1066.464844 137.308594 1064.445312 139.269531 C 1062.425781 141.265625 1060.160156 143.011719 1058.132812 145 C 1057.789062 145.335938 1057.460938 145.683594 1057.128906 146.027344 C 1057.125 146.152344 1057.121094 146.273438 1057.117188 146.394531 C 1057.039062 148.871094 1056.949219 151.347656 1056.84375 153.824219 L 1061.332031 149.558594 C 1063.429688 147.59375 1065.808594 145.929688 1067.90625 143.964844 Z M 1067.90625 143.964844 " fill-opacity="1" fill-rule="nonzero"/></g><path fill="#ceb7ff" d="M 1266.851562 155.335938 C 1277.371094 146.25 1283.609375 128.402344 1287.304688 110.910156 C 1293.007812 83.933594 1316.585938 64.488281 1344.160156 64.488281 C 1366.191406 64.488281 1386.320312 76.960938 1396.121094 96.695312 C 1399.375 103.238281 1403.335938 111.109375 1408.167969 120.566406 C 1435.085938 173.28125 1431.71875 269.730469 1431.71875 269.730469 L 1202.925781 269.730469 C 1201.804688 174.402344 1242.179688 176.644531 1266.851562 155.335938 Z M 1266.851562 155.335938 " fill-opacity="1" fill-rule="nonzero"/><path fill="#2b529d" d="M 1406.59375 81.5 C 1401.429688 77.734375 1396.023438 77.75 1390.929688 79.679688 C 1381.910156 79.941406 1372.132812 86.195312 1366.566406 92.21875 C 1357.035156 102.523438 1351.921875 118.304688 1357.867188 131.667969 C 1364.839844 147.339844 1383.039062 146.390625 1395.820312 138.390625 C 1408.027344 130.75 1416.699219 116.632812 1416.15625 101.992188 C 1415.875 94.394531 1412.917969 86.121094 1406.59375 81.5 Z M 1406.003906 109.488281 C 1402.96875 121.796875 1392.429688 132.476562 1379.757812 134.570312 C 1363.570312 137.246094 1362.117188 117.78125 1366.4375 106.824219 C 1368.816406 100.78125 1373.140625 95.320312 1378.335938 91.445312 C 1380.324219 89.964844 1382.855469 88.441406 1385.570312 87.328125 C 1392.453125 86.125 1400.148438 85.625 1404.203125 92.355469 C 1407.269531 97.445312 1407.394531 103.859375 1406.003906 109.488281 Z M 1449.042969 150.238281 C 1448.285156 143.382812 1445.269531 136.179688 1438.832031 132.859375 C 1435.445312 131.117188 1430.835938 130.910156 1427.085938 132.359375 C 1416.777344 132.492188 1408.246094 140.78125 1403.09375 149.945312 C 1396.964844 160.835938 1391.996094 175.671875 1401.382812 186.3125 C 1410.609375 196.773438 1426.589844 191.011719 1435.578125 183.257812 C 1444.882812 175.226562 1450.402344 162.542969 1449.042969 150.238281 Z M 1439.292969 159.570312 C 1437.199219 169.273438 1430.023438 178.042969 1420.625 181.46875 C 1415.144531 183.464844 1409.492188 183.378906 1406.316406 177.84375 C 1403.332031 172.640625 1404.707031 166.371094 1406.617188 161.054688 C 1409.539062 152.921875 1415.128906 143.125 1423.382812 139.386719 C 1423.75 139.503906 1424.175781 139.496094 1424.664062 139.289062 C 1437.121094 134.101562 1441.269531 150.414062 1439.292969 159.570312 Z M 1362.417969 175.484375 C 1361.976562 174.8125 1361.46875 174.117188 1360.910156 173.417969 C 1360.550781 170.6875 1359.914062 168.074219 1359.492188 166.273438 C 1357.996094 159.898438 1354.15625 155.910156 1347.269531 156.816406 C 1345.550781 157.039062 1343.925781 157.570312 1342.414062 158.332031 C 1338.378906 158.523438 1335.480469 163.535156 1333.582031 166.957031 C 1330.292969 172.890625 1328.644531 179.621094 1328.332031 186.375 C 1328.035156 192.71875 1328.628906 200.613281 1332.640625 205.832031 C 1336.6875 211.089844 1343.480469 212.285156 1349.472656 209.847656 C 1361.414062 204.996094 1369.835938 186.777344 1362.417969 175.484375 Z M 1343.246094 202.265625 C 1336.777344 202.421875 1335.417969 193.0625 1335.332031 186.902344 C 1335.601562 187.496094 1335.878906 188.09375 1336.167969 188.691406 C 1336.980469 190.378906 1340.03125 189.625 1339.808594 187.707031 C 1339.324219 183.457031 1339.039062 177.492188 1340.589844 172.695312 C 1340.910156 172.457031 1341.179688 172.136719 1341.332031 171.738281 C 1342.390625 169.003906 1349.585938 175.578125 1350.601562 176.484375 C 1351.832031 177.589844 1353.101562 178.769531 1354.117188 180.101562 C 1354.101562 180.25 1354.074219 180.386719 1354.046875 180.519531 C 1353.011719 180.746094 1352.304688 181.941406 1352.875 183.078125 C 1353.269531 183.859375 1353.515625 184.203125 1354.097656 184.832031 C 1354.65625 185.433594 1355.398438 185.644531 1356.144531 185.589844 C 1356.113281 191.613281 1349.777344 202.109375 1343.246094 202.265625 Z M 1415.753906 206.921875 C 1412.539062 207.773438 1410.679688 209.582031 1409.75 211.933594 C 1409.5625 212.078125 1409.386719 212.242188 1409.238281 212.449219 C 1403.066406 220.855469 1407.78125 236.144531 1416.496094 241.058594 C 1426.304688 246.582031 1434.167969 236.660156 1434.273438 227.4375 C 1434.375 218.414062 1426.820312 203.980469 1415.753906 206.921875 Z M 1418.253906 230.039062 C 1418.976562 231.585938 1419.832031 233.054688 1420.765625 234.386719 C 1420.8125 234.453125 1420.867188 234.515625 1420.921875 234.582031 C 1420.082031 234.277344 1419.289062 233.714844 1418.59375 233.042969 C 1418.453125 232.042969 1418.351562 231.042969 1418.253906 230.039062 Z M 1370.050781 234.625 C 1368.410156 235.910156 1366.492188 236.054688 1364.878906 234.625 C 1363.660156 233.542969 1362.488281 232.035156 1361.632812 230.355469 C 1358.179688 226.046875 1358.210938 219.078125 1362.285156 215.074219 C 1363.757812 213.628906 1365.652344 213.652344 1367.441406 214.410156 C 1374.886719 217.570312 1376.316406 229.707031 1370.050781 234.625 Z M 1370.050781 234.625 " fill-opacity="1" fill-rule="nonzero"/><g clip-path="url(#e4a9deae85)"><path fill="#ffffff" d="M 1.324219 0 L 1061.386719 0 L 1061.386719 409.5 L 1.324219 409.5 Z M 1.324219 0 " fill-opacity="1" fill-rule="nonzero"/></g><g fill="#000000" fill-opacity="1"><g transform="translate(82.177002, 227.466193)"><g><path d="M 13.546875 -9.265625 C 6.859375 -15.828125 3.515625 -24.140625 3.515625 -34.203125 C 3.515625 -44.273438 6.875 -52.59375 13.59375 -59.15625 C 20.320312 -65.726562 28.5625 -69.015625 38.3125 -69.015625 C 45.71875 -69.015625 52.296875 -67.128906 58.046875 -63.359375 C 63.796875 -59.585938 67.90625 -54.289062 70.375 -47.46875 L 53.90625 -47.46875 C 50.84375 -53.445312 45.644531 -56.4375 38.3125 -56.4375 C 32.132812 -56.4375 27.113281 -54.40625 23.25 -50.34375 C 19.382812 -46.28125 17.453125 -40.882812 17.453125 -34.15625 C 17.453125 -27.4375 19.382812 -22.046875 23.25 -17.984375 C 27.113281 -13.921875 32.132812 -11.890625 38.3125 -11.890625 C 45.582031 -11.890625 50.78125 -14.878906 53.90625 -20.859375 L 70.375 -20.859375 C 67.90625 -14.035156 63.796875 -8.753906 58.046875 -5.015625 C 52.296875 -1.285156 45.71875 0.578125 38.3125 0.578125 C 28.5 0.578125 20.242188 -2.703125 13.546875 -9.265625 Z M 13.546875 -9.265625 "/></g></g></g><g fill="#000000" fill-opacity="1"><g transform="translate(157.125216, 227.466193)"><g><path d="M 31.28125 -10.8125 C 35.113281 -10.8125 38.410156 -12.222656 41.171875 -15.046875 C 43.941406 -17.878906 45.328125 -21.878906 45.328125 -27.046875 C 45.328125 -32.210938 43.960938 -36.191406 41.234375 -38.984375 C 38.503906 -41.773438 35.203125 -43.171875 31.328125 -43.171875 C 27.460938 -43.171875 24.195312 -41.773438 21.53125 -38.984375 C 18.875 -36.191406 17.546875 -32.195312 17.546875 -27 C 17.546875 -21.800781 18.875 -17.800781 21.53125 -15 C 24.195312 -12.207031 27.445312 -10.8125 31.28125 -10.8125 Z M 11.5 -6.921875 C 6.238281 -12.054688 3.609375 -18.78125 3.609375 -27.09375 C 3.609375 -35.414062 6.269531 -42.109375 11.59375 -47.171875 C 16.925781 -52.242188 23.539062 -54.78125 31.4375 -54.78125 C 39.332031 -54.78125 45.941406 -52.242188 51.265625 -47.171875 C 56.597656 -42.109375 59.265625 -35.414062 59.265625 -27.09375 C 59.265625 -18.78125 56.582031 -12.054688 51.21875 -6.921875 C 45.851562 -1.785156 39.207031 0.78125 31.28125 0.78125 C 23.351562 0.78125 16.757812 -1.785156 11.5 -6.921875 Z M 11.5 -6.921875 "/></g></g></g><g fill="#000000" fill-opacity="1"><g transform="translate(219.988149, 227.466193)"><g><path d="M 44.546875 -54 L 58.28125 -54 L 58.28125 0 L 44.546875 0 L 44.546875 -8.1875 C 41.097656 -2.269531 35.476562 0.6875 27.6875 0.6875 C 21.570312 0.6875 16.566406 -1.34375 12.671875 -5.40625 C 8.773438 -9.46875 6.828125 -15.109375 6.828125 -22.328125 L 6.828125 -54 L 20.46875 -54 L 20.46875 -24.265625 C 20.46875 -20.046875 21.539062 -16.796875 23.6875 -14.515625 C 25.832031 -12.242188 28.753906 -11.109375 32.453125 -11.109375 C 36.160156 -11.109375 39.101562 -12.242188 41.28125 -14.515625 C 43.457031 -16.796875 44.546875 -20.046875 44.546875 -24.265625 Z M 44.546875 -54 "/></g></g></g><g fill="#000000" fill-opacity="1"><g transform="translate(285.580019, 227.466193)"><g><path d="M 21.046875 -54 L 21.046875 -44.453125 C 24.691406 -51.335938 29.957031 -54.78125 36.84375 -54.78125 L 36.84375 -40.734375 L 33.4375 -40.734375 C 29.34375 -40.734375 26.253906 -39.707031 24.171875 -37.65625 C 22.085938 -35.613281 21.046875 -32.09375 21.046875 -27.09375 L 21.046875 0 L 7.3125 0 L 7.3125 -54 Z M 21.046875 -54 "/></g></g></g><g fill="#000000" fill-opacity="1"><g transform="translate(324.857183, 227.466193)"><g><path d="M 4.28125 -38.203125 C 4.28125 -42.878906 6.265625 -46.8125 10.234375 -50 C 14.203125 -53.1875 19.46875 -54.78125 26.03125 -54.78125 C 32.59375 -54.78125 37.851562 -53.203125 41.8125 -50.046875 C 45.78125 -46.898438 47.894531 -42.628906 48.15625 -37.234375 L 34.109375 -37.234375 C 33.722656 -41.785156 30.929688 -44.0625 25.734375 -44.0625 C 23.128906 -44.0625 21.113281 -43.539062 19.6875 -42.5 C 18.257812 -41.457031 17.546875 -40.023438 17.546875 -38.203125 C 17.546875 -36.390625 18.617188 -34.960938 20.765625 -33.921875 C 22.910156 -32.878906 25.507812 -32.066406 28.5625 -31.484375 C 31.613281 -30.898438 34.648438 -30.164062 37.671875 -29.28125 C 40.691406 -28.40625 43.273438 -26.847656 45.421875 -24.609375 C 47.566406 -22.367188 48.640625 -19.394531 48.640625 -15.6875 C 48.640625 -10.8125 46.578125 -6.847656 42.453125 -3.796875 C 38.328125 -0.742188 33.0625 0.78125 26.65625 0.78125 C 20.257812 0.78125 15.015625 -0.726562 10.921875 -3.75 C 6.828125 -6.769531 4.582031 -11.109375 4.1875 -16.765625 L 18.234375 -16.765625 C 18.742188 -12.210938 21.632812 -9.9375 26.90625 -9.9375 C 29.4375 -9.9375 31.476562 -10.503906 33.03125 -11.640625 C 34.59375 -12.785156 35.375 -14.28125 35.375 -16.125 C 35.375 -17.976562 34.300781 -19.441406 32.15625 -20.515625 C 30.019531 -21.585938 27.421875 -22.414062 24.359375 -23 C 21.304688 -23.582031 18.269531 -24.296875 15.25 -25.140625 C 12.226562 -25.984375 9.644531 -27.492188 7.5 -29.671875 C 5.351562 -31.847656 4.28125 -34.691406 4.28125 -38.203125 Z M 4.28125 -38.203125 "/></g></g></g><g fill="#000000" fill-opacity="1"><g transform="translate(377.876475, 227.466193)"><g><path d="M 30.125 0.78125 C 22.257812 0.78125 15.859375 -1.765625 10.921875 -6.859375 C 5.984375 -11.960938 3.515625 -18.707031 3.515625 -27.09375 C 3.515625 -35.476562 6 -42.1875 10.96875 -47.21875 C 15.9375 -52.257812 22.367188 -54.78125 30.265625 -54.78125 C 38.160156 -54.78125 44.640625 -52.328125 49.703125 -47.421875 C 54.773438 -42.515625 57.3125 -35.96875 57.3125 -27.78125 C 57.3125 -25.894531 57.179688 -24.140625 56.921875 -22.515625 L 17.546875 -22.515625 C 17.867188 -19.003906 19.164062 -16.175781 21.4375 -14.03125 C 23.71875 -11.882812 26.613281 -10.8125 30.125 -10.8125 C 34.863281 -10.8125 38.367188 -12.765625 40.640625 -16.671875 L 55.453125 -16.671875 C 53.898438 -11.535156 50.878906 -7.34375 46.390625 -4.09375 C 41.910156 -0.84375 36.488281 0.78125 30.125 0.78125 Z M 43.078125 -31.390625 C 42.878906 -34.960938 41.5625 -37.816406 39.125 -39.953125 C 36.695312 -42.097656 33.757812 -43.171875 30.3125 -43.171875 C 26.863281 -43.171875 23.988281 -42.097656 21.6875 -39.953125 C 19.382812 -37.816406 18.003906 -34.960938 17.546875 -31.390625 Z M 43.078125 -31.390625 "/></g></g></g><g fill="#000000" fill-opacity="1"><g transform="translate(438.692725, 227.466193)"><g/></g></g><g fill="#000000" fill-opacity="1"><g transform="translate(467.931299, 227.466193)"><g><path d="M 53.3125 -17.984375 C 57.144531 -22.046875 59.0625 -27.453125 59.0625 -34.203125 C 59.0625 -40.960938 57.144531 -46.359375 53.3125 -50.390625 C 49.476562 -54.421875 44.472656 -56.4375 38.296875 -56.4375 C 32.128906 -56.4375 27.113281 -54.40625 23.25 -50.34375 C 19.382812 -46.28125 17.453125 -40.882812 17.453125 -34.15625 C 17.453125 -27.4375 19.382812 -22.046875 23.25 -17.984375 C 27.113281 -13.921875 32.128906 -11.890625 38.296875 -11.890625 C 44.472656 -11.890625 49.476562 -13.921875 53.3125 -17.984375 Z M 38.296875 0.6875 C 28.492188 0.6875 20.242188 -2.59375 13.546875 -9.15625 C 6.859375 -15.71875 3.515625 -24.050781 3.515625 -34.15625 C 3.515625 -44.257812 6.875 -52.59375 13.59375 -59.15625 C 20.320312 -65.726562 28.570312 -69.015625 38.34375 -69.015625 C 48.125 -69.015625 56.363281 -65.726562 63.0625 -59.15625 C 69.757812 -52.59375 73.109375 -44.257812 73.109375 -34.15625 C 73.109375 -24.050781 69.757812 -15.71875 63.0625 -9.15625 C 56.363281 -2.59375 48.109375 0.6875 38.296875 0.6875 Z M 38.296875 0.6875 "/></g></g></g><g fill="#000000" fill-opacity="1"><g transform="translate(544.53637, 227.466193)"><g><path d="M 44.546875 -54 L 58.28125 -54 L 58.28125 0 L 44.546875 0 L 44.546875 -8.1875 C 41.097656 -2.269531 35.476562 0.6875 27.6875 0.6875 C 21.570312 0.6875 16.566406 -1.34375 12.671875 -5.40625 C 8.773438 -9.46875 6.828125 -15.109375 6.828125 -22.328125 L 6.828125 -54 L 20.46875 -54 L 20.46875 -24.265625 C 20.46875 -20.046875 21.539062 -16.796875 23.6875 -14.515625 C 25.832031 -12.242188 28.753906 -11.109375 32.453125 -11.109375 C 36.160156 -11.109375 39.101562 -12.242188 41.28125 -14.515625 C 43.457031 -16.796875 44.546875 -20.046875 44.546875 -24.265625 Z M 44.546875 -54 "/></g></g></g><g fill="#000000" fill-opacity="1"><g transform="translate(610.12824, 227.466193)"><g><path d="M 28.265625 -11.5 L 34.796875 -11.5 L 34.796875 0 L 26.125 0 C 20.601562 0 16.347656 -1.265625 13.359375 -3.796875 C 10.367188 -6.335938 8.875 -10.53125 8.875 -16.375 L 8.875 -42.78125 L 3.125 -42.78125 L 3.125 -54 L 8.875 -54 L 8.875 -67.34375 L 22.609375 -67.34375 L 22.609375 -54 L 34.703125 -54 L 34.703125 -42.78125 L 22.609375 -42.78125 L 22.609375 -16.375 C 22.609375 -14.625 23.03125 -13.375 23.875 -12.625 C 24.71875 -11.875 26.179688 -11.5 28.265625 -11.5 Z M 28.265625 -11.5 "/></g></g></g><g fill="#000000" fill-opacity="1"><g transform="translate(648.333305, 227.466193)"><g><path d="M 7.3125 0 L 7.3125 -72.125 L 21.046875 -72.125 L 21.046875 0 Z M 7.3125 0 "/></g></g></g><g fill="#000000" fill-opacity="1"><g transform="translate(676.694703, 227.466193)"><g><path d="M 22.515625 -67.734375 C 22.515625 -65.398438 21.703125 -63.421875 20.078125 -61.796875 C 18.453125 -60.171875 16.484375 -59.359375 14.171875 -59.359375 C 11.867188 -59.359375 9.90625 -60.171875 8.28125 -61.796875 C 6.65625 -63.421875 5.84375 -65.398438 5.84375 -67.734375 C 5.84375 -70.078125 6.65625 -72.0625 8.28125 -73.6875 C 9.90625 -75.3125 11.867188 -76.125 14.171875 -76.125 C 16.484375 -76.125 18.453125 -75.3125 20.078125 -73.6875 C 21.703125 -72.0625 22.515625 -70.078125 22.515625 -67.734375 Z M 7.3125 0 L 7.3125 -54 L 21.046875 -54 L 21.046875 0 Z M 7.3125 0 "/></g></g></g><g fill="#000000" fill-opacity="1"><g transform="translate(705.056136, 227.466193)"><g><path d="M 21.046875 -54 L 21.046875 -45.90625 C 24.492188 -51.820312 30.082031 -54.78125 37.8125 -54.78125 C 43.988281 -54.78125 49.023438 -52.75 52.921875 -48.6875 C 56.828125 -44.625 58.78125 -38.988281 58.78125 -31.78125 L 58.78125 0 L 45.125 0 L 45.125 -29.828125 C 45.125 -34.046875 44.050781 -37.273438 41.90625 -39.515625 C 39.757812 -41.765625 36.832031 -42.890625 33.125 -42.890625 C 29.425781 -42.890625 26.488281 -41.765625 24.3125 -39.515625 C 22.132812 -37.273438 21.046875 -34.046875 21.046875 -29.828125 L 21.046875 0 L 7.3125 0 L 7.3125 -54 Z M 21.046875 -54 "/></g></g></g><g fill="#000000" fill-opacity="1"><g transform="translate(770.648006, 227.466193)"><g><path d="M 30.125 0.78125 C 22.257812 0.78125 15.859375 -1.765625 10.921875 -6.859375 C 5.984375 -11.960938 3.515625 -18.707031 3.515625 -27.09375 C 3.515625 -35.476562 6 -42.1875 10.96875 -47.21875 C 15.9375 -52.257812 22.367188 -54.78125 30.265625 -54.78125 C 38.160156 -54.78125 44.640625 -52.328125 49.703125 -47.421875 C 54.773438 -42.515625 57.3125 -35.96875 57.3125 -27.78125 C 57.3125 -25.894531 57.179688 -24.140625 56.921875 -22.515625 L 17.546875 -22.515625 C 17.867188 -19.003906 19.164062 -16.175781 21.4375 -14.03125 C 23.71875 -11.882812 26.613281 -10.8125 30.125 -10.8125 C 34.863281 -10.8125 38.367188 -12.765625 40.640625 -16.671875 L 55.453125 -16.671875 C 53.898438 -11.535156 50.878906 -7.34375 46.390625 -4.09375 C 41.910156 -0.84375 36.488281 0.78125 30.125 0.78125 Z M 43.078125 -31.390625 C 42.878906 -34.960938 41.5625 -37.816406 39.125 -39.953125 C 36.695312 -42.097656 33.757812 -43.171875 30.3125 -43.171875 C 26.863281 -43.171875 23.988281 -42.097656 21.6875 -39.953125 C 19.382812 -37.816406 18.003906 -34.960938 17.546875 -31.390625 Z M 43.078125 -31.390625 "/></g></g></g><g fill="#000000" fill-opacity="1"><g transform="translate(82.177002, 127.217182)"><g><path d="M 3.4375 -1.453125 L 6.09375 -1.453125 C 7.90625 -1.453125 9.285156 -1.945312 10.234375 -2.9375 C 11.191406 -3.9375 11.671875 -5.328125 11.671875 -7.109375 C 11.671875 -8.890625 11.191406 -10.273438 10.234375 -11.265625 C 9.285156 -12.265625 7.90625 -12.765625 6.09375 -12.765625 L 3.4375 -12.765625 Z M 6.09375 -14.359375 C 8.414062 -14.359375 10.242188 -13.707031 11.578125 -12.40625 C 12.921875 -11.113281 13.59375 -9.347656 13.59375 -7.109375 C 13.59375 -4.867188 12.921875 -3.125 11.578125 -1.875 C 10.242188 -0.625 8.414062 0 6.09375 0 L 1.546875 0 L 1.546875 -14.359375 Z M 6.09375 -14.359375 "/></g></g></g><g fill="#000000" fill-opacity="1"><g transform="translate(97.634785, 127.217182)"><g><path d="M 11.453125 0 L 10.34375 -3.15625 L 3.953125 -3.15625 L 2.84375 0 L 0.90625 0 L 6.125 -14.359375 L 8.203125 -14.359375 L 13.40625 0 Z M 4.5 -4.640625 L 9.796875 -4.640625 L 7.140625 -12.0625 Z M 4.5 -4.640625 "/></g></g></g><g fill="#000000" fill-opacity="1"><g transform="translate(112.988958, 127.217182)"><g><path d="M 0.90625 -12.84375 L 0.90625 -14.359375 L 10.375 -14.359375 L 10.375 -12.84375 L 6.59375 -12.84375 L 6.59375 0 L 4.703125 0 L 4.703125 -12.84375 Z M 0.90625 -12.84375 "/></g></g></g><g fill="#000000" fill-opacity="1"><g transform="translate(125.338601, 127.217182)"><g><path d="M 11.453125 0 L 10.34375 -3.15625 L 3.953125 -3.15625 L 2.84375 0 L 0.90625 0 L 6.125 -14.359375 L 8.203125 -14.359375 L 13.40625 0 Z M 4.5 -4.640625 L 9.796875 -4.640625 L 7.140625 -12.0625 Z M 4.5 -4.640625 "/></g></g></g><g fill="#000000" fill-opacity="1"><g transform="translate(140.692776, 127.217182)"><g/></g></g><g fill="#000000" fill-opacity="1"><g transform="translate(147.945087, 127.217182)"><g><path d="M 3.09375 -10.53125 C 3.09375 -10 3.234375 -9.5625 3.515625 -9.21875 C 3.804688 -8.875 4.179688 -8.617188 4.640625 -8.453125 C 5.097656 -8.285156 5.601562 -8.140625 6.15625 -8.015625 C 6.71875 -7.890625 7.28125 -7.75 7.84375 -7.59375 C 8.40625 -7.4375 8.910156 -7.234375 9.359375 -6.984375 C 9.816406 -6.734375 10.191406 -6.359375 10.484375 -5.859375 C 10.773438 -5.367188 10.921875 -4.753906 10.921875 -4.015625 C 10.921875 -2.898438 10.488281 -1.925781 9.625 -1.09375 C 8.769531 -0.269531 7.613281 0.140625 6.15625 0.140625 C 4.707031 0.140625 3.523438 -0.191406 2.609375 -0.859375 C 1.703125 -1.523438 1.25 -2.429688 1.25 -3.578125 L 3.25 -3.578125 C 3.300781 -2.929688 3.554688 -2.40625 4.015625 -2 C 4.484375 -1.601562 5.171875 -1.40625 6.078125 -1.40625 C 6.992188 -1.40625 7.722656 -1.640625 8.265625 -2.109375 C 8.804688 -2.578125 9.078125 -3.125 9.078125 -3.75 C 9.078125 -4.382812 8.929688 -4.867188 8.640625 -5.203125 C 8.347656 -5.546875 7.972656 -5.800781 7.515625 -5.96875 C 7.066406 -6.132812 6.5625 -6.273438 6 -6.390625 C 5.4375 -6.503906 4.875 -6.644531 4.3125 -6.8125 C 3.757812 -6.976562 3.253906 -7.1875 2.796875 -7.4375 C 2.335938 -7.695312 1.960938 -8.078125 1.671875 -8.578125 C 1.390625 -9.085938 1.25 -9.71875 1.25 -10.46875 C 1.25 -11.675781 1.675781 -12.648438 2.53125 -13.390625 C 3.394531 -14.128906 4.519531 -14.5 5.90625 -14.5 C 7.300781 -14.5 8.410156 -14.175781 9.234375 -13.53125 C 10.054688 -12.894531 10.53125 -12.007812 10.65625 -10.875 L 8.5625 -10.875 C 8.5 -11.445312 8.226562 -11.929688 7.75 -12.328125 C 7.28125 -12.722656 6.640625 -12.921875 5.828125 -12.921875 C 5.023438 -12.921875 4.367188 -12.71875 3.859375 -12.3125 C 3.347656 -11.90625 3.09375 -11.3125 3.09375 -10.53125 Z M 3.09375 -10.53125 "/></g></g></g><g fill="#000000" fill-opacity="1"><g transform="translate(161.144289, 127.217182)"><g><path d="M 8.125 0.125 C 6.0625 0.125 4.328125 -0.5625 2.921875 -1.9375 C 1.515625 -3.320312 0.8125 -5.070312 0.8125 -7.1875 C 0.8125 -9.3125 1.515625 -11.0625 2.921875 -12.4375 C 4.328125 -13.8125 6.0625 -14.5 8.125 -14.5 C 9.613281 -14.5 10.941406 -14.144531 12.109375 -13.4375 C 13.273438 -12.738281 14.132812 -11.726562 14.6875 -10.40625 L 12.40625 -10.40625 C 11.550781 -12.019531 10.125 -12.828125 8.125 -12.828125 C 6.5625 -12.828125 5.269531 -12.3125 4.25 -11.28125 C 3.238281 -10.25 2.734375 -8.882812 2.734375 -7.1875 C 2.734375 -5.488281 3.238281 -4.117188 4.25 -3.078125 C 5.269531 -2.046875 6.5625 -1.53125 8.125 -1.53125 C 9.070312 -1.53125 9.914062 -1.738281 10.65625 -2.15625 C 11.40625 -2.582031 11.988281 -3.191406 12.40625 -3.984375 L 14.6875 -3.984375 C 14.132812 -2.648438 13.273438 -1.628906 12.109375 -0.921875 C 10.941406 -0.222656 9.613281 0.125 8.125 0.125 Z M 8.125 0.125 "/></g></g></g><g fill="#000000" fill-opacity="1"><g transform="translate(178.280465, 127.217182)"><g><path d="M 1.546875 0 L 1.546875 -14.359375 L 3.4375 -14.359375 L 3.4375 0 Z M 1.546875 0 "/></g></g></g><g fill="#000000" fill-opacity="1"><g transform="translate(184.310248, 127.217182)"><g><path d="M 9.15625 -14.359375 L 9.15625 -12.859375 L 3.4375 -12.859375 L 3.4375 -7.984375 L 8.53125 -7.984375 L 8.53125 -6.5 L 3.4375 -6.5 L 3.4375 -1.484375 L 9.15625 -1.484375 L 9.15625 0 L 1.546875 0 L 1.546875 -14.359375 Z M 9.15625 -14.359375 "/></g></g></g><g fill="#000000" fill-opacity="1"><g transform="translate(195.810341, 127.217182)"><g><path d="M 11.015625 -14.359375 L 12.90625 -14.359375 L 12.90625 0 L 11.015625 0 L 3.4375 -11.390625 L 3.4375 0 L 1.546875 0 L 1.546875 -14.359375 L 3.4375 -14.359375 L 11.015625 -2.96875 Z M 11.015625 -14.359375 "/></g></g></g><g fill="#000000" fill-opacity="1"><g transform="translate(211.309562, 127.217182)"><g><path d="M 8.125 0.125 C 6.0625 0.125 4.328125 -0.5625 2.921875 -1.9375 C 1.515625 -3.320312 0.8125 -5.070312 0.8125 -7.1875 C 0.8125 -9.3125 1.515625 -11.0625 2.921875 -12.4375 C 4.328125 -13.8125 6.0625 -14.5 8.125 -14.5 C 9.613281 -14.5 10.941406 -14.144531 12.109375 -13.4375 C 13.273438 -12.738281 14.132812 -11.726562 14.6875 -10.40625 L 12.40625 -10.40625 C 11.550781 -12.019531 10.125 -12.828125 8.125 -12.828125 C 6.5625 -12.828125 5.269531 -12.3125 4.25 -11.28125 C 3.238281 -10.25 2.734375 -8.882812 2.734375 -7.1875 C 2.734375 -5.488281 3.238281 -4.117188 4.25 -3.078125 C 5.269531 -2.046875 6.5625 -1.53125 8.125 -1.53125 C 9.070312 -1.53125 9.914062 -1.738281 10.65625 -2.15625 C 11.40625 -2.582031 11.988281 -3.191406 12.40625 -3.984375 L 14.6875 -3.984375 C 14.132812 -2.648438 13.273438 -1.628906 12.109375 -0.921875 C 10.941406 -0.222656 9.613281 0.125 8.125 0.125 Z M 8.125 0.125 "/></g></g></g><g fill="#000000" fill-opacity="1"><g transform="translate(228.445737, 127.217182)"><g><path d="M 9.15625 -14.359375 L 9.15625 -12.859375 L 3.4375 -12.859375 L 3.4375 -7.984375 L 8.53125 -7.984375 L 8.53125 -6.5 L 3.4375 -6.5 L 3.4375 -1.484375 L 9.15625 -1.484375 L 9.15625 0 L 1.546875 0 L 1.546875 -14.359375 Z M 9.15625 -14.359375 "/></g></g></g><g fill="#000000" fill-opacity="1"><g transform="translate(239.94583, 127.217182)"><g/></g></g><g fill="#000000" fill-opacity="1"><g transform="translate(247.198141, 127.217182)"><g><path d="M 1.546875 0 L 1.546875 -14.359375 L 9.640625 -14.359375 L 9.640625 -12.84375 L 3.4375 -12.84375 L 3.4375 -7.984375 L 8.328125 -7.984375 L 8.328125 -6.484375 L 3.4375 -6.484375 L 3.4375 0 Z M 1.546875 0 "/></g></g></g><g fill="#000000" fill-opacity="1"><g transform="translate(258.387415, 127.217182)"><g><path d="M 9.15625 -14.359375 L 9.15625 -12.859375 L 3.4375 -12.859375 L 3.4375 -7.984375 L 8.53125 -7.984375 L 8.53125 -6.5 L 3.4375 -6.5 L 3.4375 -1.484375 L 9.15625 -1.484375 L 9.15625 0 L 1.546875 0 L 1.546875 -14.359375 Z M 9.15625 -14.359375 "/></g></g></g><g fill="#000000" fill-opacity="1"><g transform="translate(269.887508, 127.217182)"><g><path d="M 1.546875 -14.359375 L 3.4375 -14.359375 L 3.4375 -1.453125 L 8.46875 -1.453125 L 8.46875 0 L 1.546875 0 Z M 1.546875 -14.359375 "/></g></g></g><g fill="#000000" fill-opacity="1"><g transform="translate(279.812802, 127.217182)"><g><path d="M 1.546875 -14.359375 L 3.4375 -14.359375 L 3.4375 -1.453125 L 8.46875 -1.453125 L 8.46875 0 L 1.546875 0 Z M 1.546875 -14.359375 "/></g></g></g><g fill="#000000" fill-opacity="1"><g transform="translate(289.738095, 127.217182)"><g><path d="M 11.96875 -3.078125 C 12.976562 -4.117188 13.484375 -5.488281 13.484375 -7.1875 C 13.484375 -8.882812 12.976562 -10.25 11.96875 -11.28125 C 10.96875 -12.3125 9.679688 -12.828125 8.109375 -12.828125 C 6.546875 -12.828125 5.253906 -12.3125 4.234375 -11.28125 C 3.222656 -10.25 2.71875 -8.882812 2.71875 -7.1875 C 2.71875 -5.488281 3.226562 -4.117188 4.25 -3.078125 C 5.269531 -2.046875 6.5625 -1.53125 8.125 -1.53125 C 9.6875 -1.53125 10.96875 -2.046875 11.96875 -3.078125 Z M 8.109375 0.140625 C 6.054688 0.140625 4.328125 -0.550781 2.921875 -1.9375 C 1.515625 -3.320312 0.8125 -5.070312 0.8125 -7.1875 C 0.8125 -9.3125 1.515625 -11.0625 2.921875 -12.4375 C 4.328125 -13.8125 6.054688 -14.5 8.109375 -14.5 C 10.171875 -14.5 11.90625 -13.8125 13.3125 -12.4375 C 14.71875 -11.0625 15.421875 -9.3125 15.421875 -7.1875 C 15.421875 -5.0625 14.71875 -3.304688 13.3125 -1.921875 C 11.90625 -0.546875 10.171875 0.140625 8.109375 0.140625 Z M 8.109375 0.140625 "/></g></g></g><g fill="#000000" fill-opacity="1"><g transform="translate(306.977862, 127.217182)"><g><path d="M 17.8125 -14.359375 L 19.8125 -14.359375 L 15.453125 0 L 13.34375 0 L 10.109375 -11.609375 L 6.65625 0 L 4.5625 0.015625 L 0.5 -14.359375 L 2.484375 -14.359375 L 5.671875 -2.15625 L 9.15625 -14.359375 L 11.234375 -14.359375 L 14.4375 -2.203125 Z M 17.8125 -14.359375 "/></g></g></g><g fill="#000000" fill-opacity="1"><g transform="translate(328.320375, 127.217182)"><g><path d="M 3.09375 -10.53125 C 3.09375 -10 3.234375 -9.5625 3.515625 -9.21875 C 3.804688 -8.875 4.179688 -8.617188 4.640625 -8.453125 C 5.097656 -8.285156 5.601562 -8.140625 6.15625 -8.015625 C 6.71875 -7.890625 7.28125 -7.75 7.84375 -7.59375 C 8.40625 -7.4375 8.910156 -7.234375 9.359375 -6.984375 C 9.816406 -6.734375 10.191406 -6.359375 10.484375 -5.859375 C 10.773438 -5.367188 10.921875 -4.753906 10.921875 -4.015625 C 10.921875 -2.898438 10.488281 -1.925781 9.625 -1.09375 C 8.769531 -0.269531 7.613281 0.140625 6.15625 0.140625 C 4.707031 0.140625 3.523438 -0.191406 2.609375 -0.859375 C 1.703125 -1.523438 1.25 -2.429688 1.25 -3.578125 L 3.25 -3.578125 C 3.300781 -2.929688 3.554688 -2.40625 4.015625 -2 C 4.484375 -1.601562 5.171875 -1.40625 6.078125 -1.40625 C 6.992188 -1.40625 7.722656 -1.640625 8.265625 -2.109375 C 8.804688 -2.578125 9.078125 -3.125 9.078125 -3.75 C 9.078125 -4.382812 8.929688 -4.867188 8.640625 -5.203125 C 8.347656 -5.546875 7.972656 -5.800781 7.515625 -5.96875 C 7.066406 -6.132812 6.5625 -6.273438 6 -6.390625 C 5.4375 -6.503906 4.875 -6.644531 4.3125 -6.8125 C 3.757812 -6.976562 3.253906 -7.1875 2.796875 -7.4375 C 2.335938 -7.695312 1.960938 -8.078125 1.671875 -8.578125 C 1.390625 -9.085938 1.25 -9.71875 1.25 -10.46875 C 1.25 -11.675781 1.675781 -12.648438 2.53125 -13.390625 C 3.394531 -14.128906 4.519531 -14.5 5.90625 -14.5 C 7.300781 -14.5 8.410156 -14.175781 9.234375 -13.53125 C 10.054688 -12.894531 10.53125 -12.007812 10.65625 -10.875 L 8.5625 -10.875 C 8.5 -11.445312 8.226562 -11.929688 7.75 -12.328125 C 7.28125 -12.722656 6.640625 -12.921875 5.828125 -12.921875 C 5.023438 -12.921875 4.367188 -12.71875 3.859375 -12.3125 C 3.347656 -11.90625 3.09375 -11.3125 3.09375 -10.53125 Z M 3.09375 -10.53125 "/></g></g></g><g fill="#000000" fill-opacity="1"><g transform="translate(341.519577, 127.217182)"><g><path d="M 10.671875 -14.359375 L 12.578125 -14.359375 L 12.578125 0 L 10.671875 0 L 10.671875 -6.484375 L 3.4375 -6.484375 L 3.4375 0 L 1.546875 0 L 1.546875 -14.359375 L 3.4375 -14.359375 L 3.4375 -7.984375 L 10.671875 -7.984375 Z M 10.671875 -14.359375 "/></g></g></g><g fill="#000000" fill-opacity="1"><g transform="translate(356.687254, 127.217182)"><g><path d="M 1.546875 0 L 1.546875 -14.359375 L 3.4375 -14.359375 L 3.4375 0 Z M 1.546875 0 "/></g></g></g><g fill="#000000" fill-opacity="1"><g transform="translate(362.717036, 127.217182)"><g><path d="M 6.21875 -14.359375 C 7.832031 -14.359375 9.0625 -13.960938 9.90625 -13.171875 C 10.757812 -12.390625 11.1875 -11.382812 11.1875 -10.15625 C 11.1875 -8.925781 10.773438 -7.910156 9.953125 -7.109375 C 9.128906 -6.316406 7.882812 -5.921875 6.21875 -5.921875 L 3.4375 -5.921875 L 3.4375 0 L 1.546875 0 L 1.546875 -14.359375 Z M 3.4375 -7.421875 L 6.21875 -7.421875 C 7.25 -7.421875 8.015625 -7.65625 8.515625 -8.125 C 9.023438 -8.601562 9.28125 -9.269531 9.28125 -10.125 C 9.28125 -11.9375 8.257812 -12.84375 6.21875 -12.84375 L 3.4375 -12.84375 Z M 3.4375 -7.421875 "/></g></g></g><g clip-path="url(#ba013a958a)"><g clip-path="url(#805de08832)"><path fill="#edeced" d="M 82.175781 297.28125 L 386.257812 297.28125 L 386.257812 349.773438 L 82.175781 349.773438 Z M 82.175781 297.28125 " fill-opacity="1" fill-rule="nonzero"/></g></g><g clip-path="url(#4bcede6d2d)"><path fill="#000000" d="M 102.679688 332.214844 C 102.984375 330.675781 103.222656 329.28125 103.558594 327.917969 C 103.722656 327.234375 103.609375 326.878906 102.910156 326.648438 C 101.867188 326.296875 100.824219 325.820312 99.707031 325.359375 C 101.03125 318.507812 102.355469 311.675781 103.691406 304.761719 C 103.921875 304.835938 104.121094 304.886719 104.308594 304.960938 C 109.523438 306.976562 114.738281 309.027344 119.953125 311.03125 C 120.453125 311.230469 120.589844 311.449219 120.496094 311.96875 C 119.273438 318.488281 118.074219 325.019531 116.84375 331.546875 C 116.757812 331.933594 116.582031 332.289062 116.324219 332.585938 C 113.609375 335.707031 110.878906 338.742188 108.15625 341.820312 C 108.023438 341.988281 107.847656 342.113281 107.644531 342.183594 C 108.261719 338.886719 108.886719 335.601562 109.511719 332.203125 Z M 119.816406 311.554688 L 107.414062 311.554688 C 106.371094 316.597656 105.382812 321.609375 104.371094 326.660156 L 110.136719 329.011719 C 110.574219 326.671875 110.984375 324.4375 111.441406 322.210938 C 111.53125 321.769531 111.71875 321.359375 111.996094 321.003906 C 113.246094 319.457031 114.539062 317.886719 115.8125 316.398438 Z M 104.128906 305.492188 C 102.835938 312.042969 101.605469 318.519531 100.355469 325.019531 L 103.878906 326.441406 C 104.921875 321.242188 105.964844 316.042969 107.007812 310.898438 L 117.710938 310.898438 L 117.710938 310.785156 Z M 119.773438 312.5625 C 119.667969 312.648438 119.566406 312.742188 119.472656 312.84375 C 117.054688 315.742188 114.644531 318.632812 112.246094 321.546875 C 112.101562 321.730469 112.007812 321.949219 111.964844 322.179688 C 111.617188 324.003906 111.269531 325.816406 110.921875 327.617188 C 110.628906 329.25 110.628906 329.25 112.152344 329.875 L 116.238281 331.539062 C 117.4375 325.195312 118.617188 318.933594 119.796875 312.5625 Z M 115.96875 332.171875 L 112.089844 332.171875 C 111.441406 332.171875 110.628906 331.996094 110.199219 332.316406 C 109.773438 332.640625 109.867188 333.449219 109.753906 334.054688 C 109.34375 336.132812 108.96875 338.210938 108.574219 340.292969 L 108.699219 340.355469 Z M 103.390625 331.558594 L 109.648438 331.558594 C 109.742188 331.089844 109.804688 330.644531 109.929688 330.207031 C 110.054688 329.769531 109.929688 329.519531 109.480469 329.34375 C 107.9375 328.742188 106.414062 328.09375 104.882812 327.472656 C 104.695312 327.398438 104.496094 327.355469 104.253906 327.285156 C 103.941406 328.742188 103.671875 330.125 103.390625 331.558594 Z M 114.507812 331.558594 L 114.507812 331.421875 L 110.554688 329.8125 L 110.222656 331.570312 Z M 114.507812 331.558594 " fill-opacity="1" fill-rule="evenodd"/></g><path fill="#000000" d="M 178.976562 319.320312 C 177.996094 322.730469 177.078125 325.953125 176.148438 329.175781 C 176.117188 329.347656 176.046875 329.511719 175.945312 329.648438 C 175.839844 329.789062 175.703125 329.902344 175.546875 329.980469 C 175.394531 330.0625 175.222656 330.101562 175.046875 330.101562 C 174.871094 330.105469 174.699219 330.066406 174.542969 329.988281 C 174.417969 329.925781 174.324219 329.816406 174.28125 329.6875 C 173.113281 325.714844 171.949219 321.738281 170.789062 317.761719 C 171.996094 317.425781 172.039062 317.449219 172.363281 318.570312 L 174.804688 327.328125 C 174.867188 327.585938 174.988281 327.828125 175.15625 328.035156 C 176.160156 324.566406 177.152344 321.140625 178.140625 317.75 C 178.199219 317.722656 178.257812 317.703125 178.316406 317.6875 C 179.757812 317.625 179.769531 317.625 180.152344 318.976562 C 180.9375 321.722656 181.71875 324.457031 182.511719 327.203125 C 182.585938 327.5 182.726562 327.777344 182.929688 328.011719 C 183.898438 324.589844 184.867188 321.171875 185.859375 317.71875 L 187.152344 317.71875 C 186.589844 319.695312 186.046875 321.628906 185.492188 323.5625 C 184.941406 325.496094 184.316406 327.460938 183.785156 329.425781 C 183.628906 330 183.3125 330.09375 182.804688 330.09375 C 182.292969 330.09375 182 329.96875 181.84375 329.394531 C 180.988281 326.277344 180.070312 323.15625 179.171875 320.039062 C 179.109375 319.882812 179.046875 319.703125 178.976562 319.320312 Z M 178.976562 319.320312 " fill-opacity="1" fill-rule="evenodd"/><path fill="#000000" d="M 233.917969 330.175781 L 233.917969 317.699219 C 235.621094 317.699219 237.300781 317.574219 238.957031 317.699219 C 239.570312 317.738281 240.148438 317.988281 240.597656 318.402344 C 241.046875 318.816406 241.339844 319.371094 241.429688 319.976562 C 241.597656 320.570312 241.5625 321.207031 241.332031 321.78125 C 241.105469 322.355469 240.691406 322.839844 240.15625 323.15625 C 240.085938 323.15625 240.019531 323.28125 239.894531 323.386719 C 240.1875 323.59375 240.46875 323.769531 240.71875 323.96875 C 241.246094 324.335938 241.648438 324.855469 241.871094 325.457031 C 242.089844 326.0625 242.117188 326.71875 241.949219 327.335938 C 241.855469 327.976562 241.550781 328.566406 241.082031 329.015625 C 240.613281 329.460938 240.007812 329.742188 239.363281 329.8125 C 237.589844 330.09375 235.785156 330.09375 233.917969 330.175781 Z M 235.128906 328.773438 C 236.382812 328.773438 237.539062 328.773438 238.6875 328.773438 C 239.234375 328.757812 239.757812 328.53125 240.144531 328.144531 C 240.53125 327.757812 240.757812 327.238281 240.773438 326.691406 C 240.800781 326.136719 240.621094 325.585938 240.265625 325.15625 C 239.910156 324.726562 239.40625 324.441406 238.851562 324.363281 C 237.777344 324.289062 236.695312 324.289062 235.621094 324.363281 C 235.511719 324.402344 235.414062 324.464844 235.335938 324.546875 C 235.257812 324.628906 235.203125 324.730469 235.171875 324.839844 C 235.109375 326.097656 235.128906 327.390625 235.128906 328.773438 Z M 235.128906 323.09375 C 236.433594 322.949219 237.644531 322.875 238.84375 322.667969 C 239.226562 322.597656 239.570312 322.382812 239.800781 322.070312 C 240.03125 321.757812 240.136719 321.371094 240.09375 320.984375 C 240.09375 319.945312 239.71875 319.183594 238.851562 319.058594 C 237.761719 318.929688 236.664062 318.878906 235.566406 318.914062 C 235.421875 318.914062 235.152344 319.226562 235.152344 319.402344 C 235.140625 320.566406 235.160156 321.742188 235.160156 323.09375 Z M 235.128906 323.09375 " fill-opacity="1" fill-rule="evenodd"/><path fill="#000000" d="M 216.910156 329.976562 C 217.011719 329.738281 217.097656 329.488281 217.199219 329.261719 C 218.777344 325.664062 220.328125 322.066406 221.925781 318.46875 C 221.984375 318.257812 222.117188 318.070312 222.296875 317.949219 C 222.476562 317.824219 222.699219 317.769531 222.917969 317.792969 C 223.125 317.769531 223.332031 317.824219 223.503906 317.945312 C 223.675781 318.066406 223.796875 318.246094 223.84375 318.445312 C 225.355469 322.074219 226.890625 325.726562 228.421875 329.300781 C 228.507812 329.5 228.570312 329.695312 228.640625 329.894531 C 227.597656 330.289062 227.347656 330.1875 226.972656 329.292969 C 226.703125 328.648438 226.410156 328.011719 226.171875 327.367188 C 226.132812 327.207031 226.03125 327.066406 225.890625 326.976562 C 225.753906 326.886719 225.582031 326.851562 225.417969 326.878906 C 223.613281 326.878906 221.820312 326.878906 220.015625 326.878906 C 219.851562 326.855469 219.683594 326.890625 219.546875 326.984375 C 219.410156 327.078125 219.3125 327.21875 219.277344 327.378906 C 219.035156 328.003906 218.671875 328.585938 218.484375 329.21875 C 218.234375 330.070312 217.710938 330.195312 216.910156 329.976562 Z M 220.039062 325.476562 L 225.347656 325.476562 C 224.480469 323.394531 223.636719 321.316406 222.730469 319.164062 C 221.851562 321.398438 220.988281 323.375 220.089844 325.476562 Z M 220.039062 325.476562 " fill-opacity="1" fill-rule="evenodd"/><path fill="#000000" d="M 138.839844 328.832031 C 138.839844 329.300781 138.933594 329.644531 138.976562 330.050781 L 131.164062 330.050781 L 131.164062 317.699219 L 138.589844 317.699219 L 138.738281 318.800781 L 132.394531 318.800781 L 132.394531 322.960938 L 138.121094 322.960938 L 138.121094 324.226562 L 132.355469 324.226562 L 132.355469 328.8125 Z M 138.839844 328.832031 " fill-opacity="1" fill-rule="evenodd"/><path fill="#000000" d="M 158.179688 329.957031 L 158.179688 317.707031 L 159.347656 317.707031 L 159.347656 322.90625 C 159.660156 322.667969 159.855469 322.53125 160.035156 322.375 C 161.464844 321.085938 162.933594 319.839844 164.289062 318.476562 C 164.617188 318.121094 165.035156 317.859375 165.5 317.726562 C 165.96875 317.589844 166.460938 317.589844 166.929688 317.71875 L 160.878906 323.292969 C 163.015625 325.558594 165.144531 327.636719 167.355469 329.957031 C 167 330.066406 166.617188 330.082031 166.25 330 C 165.882812 329.917969 165.546875 329.742188 165.269531 329.488281 C 163.570312 327.761719 161.785156 326.109375 160.054688 324.425781 C 159.898438 324.269531 159.722656 324.113281 159.441406 323.875 L 159.441406 329.957031 Z M 158.179688 329.957031 " fill-opacity="1" fill-rule="evenodd"/><path fill="#000000" d="M 193.578125 324.21875 L 193.578125 328.886719 L 199.667969 328.886719 L 199.667969 330 L 192.367188 330 L 192.367188 317.730469 L 199.667969 317.730469 L 199.667969 318.769531 L 193.578125 318.769531 L 193.578125 322.929688 L 199.34375 322.929688 L 199.34375 324.15625 Z M 193.578125 324.21875 " fill-opacity="1" fill-rule="evenodd"/><g clip-path="url(#94c4d33fed)"><path fill="#000000" d="M 255.28125 318.957031 L 254.351562 319.652344 C 254.082031 319.445312 253.820312 319.238281 253.550781 319.058594 C 253.09375 318.75 252.5625 318.566406 252.011719 318.53125 C 251.457031 318.5 250.910156 318.617188 250.421875 318.871094 C 250.0625 319.03125 249.761719 319.292969 249.554688 319.621094 C 249.347656 319.953125 249.242188 320.335938 249.25 320.722656 C 249.21875 321.113281 249.304688 321.5 249.503906 321.835938 C 249.703125 322.171875 250 322.4375 250.359375 322.59375 C 251.402344 323.03125 252.378906 323.34375 253.382812 323.75 C 253.886719 323.921875 254.339844 324.210938 254.707031 324.597656 C 255.074219 324.984375 255.34375 325.449219 255.488281 325.960938 C 255.636719 326.472656 255.652344 327.011719 255.546875 327.53125 C 255.4375 328.050781 255.203125 328.539062 254.863281 328.949219 C 253.183594 331.132812 249.117188 330.839844 247.707031 328.398438 L 248.804688 327.636719 C 249.167969 328.289062 249.757812 328.785156 250.460938 329.03125 C 251.167969 329.277344 251.9375 329.257812 252.632812 328.980469 C 253.082031 328.878906 253.484375 328.625 253.769531 328.261719 C 254.058594 327.902344 254.210938 327.453125 254.207031 326.992188 C 254.257812 326.558594 254.152344 326.117188 253.910156 325.753906 C 253.664062 325.390625 253.296875 325.125 252.871094 325.007812 C 251.828125 324.589844 250.847656 324.257812 249.855469 323.824219 C 249.320312 323.601562 248.851562 323.234375 248.511719 322.765625 C 248.171875 322.292969 247.96875 321.738281 247.925781 321.160156 C 247.878906 320.617188 247.957031 320.066406 248.15625 319.558594 C 248.355469 319.046875 248.667969 318.589844 249.070312 318.21875 C 249.472656 317.847656 249.953125 317.574219 250.476562 317.417969 C 251.003906 317.257812 251.558594 317.222656 252.097656 317.3125 C 252.722656 317.324219 253.332031 317.476562 253.882812 317.761719 C 254.433594 318.046875 254.914062 318.457031 255.28125 318.957031 Z M 255.28125 318.957031 " fill-opacity="1" fill-rule="evenodd"/></g><path fill="#000000" d="M 144.285156 328.46875 L 145.253906 327.730469 C 145.253906 327.792969 145.253906 327.867188 145.203125 327.929688 C 146.046875 328.382812 146.925781 328.769531 147.832031 329.082031 C 148.394531 329.183594 148.976562 329.109375 149.5 328.875 C 149.90625 328.742188 150.257812 328.480469 150.5 328.132812 C 150.746094 327.785156 150.875 327.367188 150.867188 326.941406 C 150.878906 326.53125 150.761719 326.125 150.53125 325.785156 C 150.300781 325.441406 149.96875 325.183594 149.582031 325.039062 C 148.539062 324.613281 147.558594 324.28125 146.570312 323.84375 C 145.863281 323.574219 145.273438 323.0625 144.90625 322.402344 C 144.535156 321.742188 144.414062 320.976562 144.554688 320.234375 C 144.714844 319.351562 145.195312 318.5625 145.902344 318.007812 C 146.609375 317.457031 147.496094 317.183594 148.394531 317.242188 C 149.058594 317.234375 149.714844 317.378906 150.316406 317.664062 C 150.917969 317.949219 151.445312 318.363281 151.859375 318.882812 C 151.199219 319.695312 151.117188 319.714844 150.324219 319.144531 C 149.867188 318.785156 149.3125 318.570312 148.730469 318.523438 C 148.152344 318.476562 147.570312 318.601562 147.058594 318.882812 C 146.707031 319.039062 146.40625 319.296875 146.195312 319.621094 C 145.984375 319.949219 145.875 320.328125 145.882812 320.714844 C 145.847656 321.09375 145.929688 321.476562 146.117188 321.8125 C 146.300781 322.148438 146.582031 322.417969 146.925781 322.59375 C 147.496094 322.875 148.125 323.082031 148.730469 323.3125 C 149.042969 323.4375 149.363281 323.519531 149.675781 323.636719 C 150.425781 323.816406 151.082031 324.25 151.539062 324.867188 C 151.996094 325.484375 152.21875 326.238281 152.171875 327.003906 C 152.113281 327.832031 151.769531 328.617188 151.199219 329.222656 C 150.628906 329.828125 149.867188 330.21875 149.042969 330.332031 C 148.152344 330.488281 147.238281 330.398438 146.398438 330.070312 C 145.5625 329.738281 144.828125 329.1875 144.285156 328.46875 Z M 144.285156 328.46875 " fill-opacity="1" fill-rule="evenodd"/><path fill="#000000" d="M 206.34375 330.007812 L 206.34375 317.730469 L 207.554688 317.730469 L 207.554688 328.679688 L 213.207031 328.679688 L 213.207031 329.96875 Z M 206.34375 330.007812 " fill-opacity="1" fill-rule="evenodd"/></svg>