<svg xmlns="http://www.w3.org/2000/svg" xmlns:xlink="http://www.w3.org/1999/xlink" width="1984" zoomAndPan="magnify" viewBox="0 0 1488 323.999988" height="432" preserveAspectRatio="xMidYMid meet" version="1.0"><defs><g/><clipPath id="787b7cc7ce"><path d="M 35.636719 1.367188 L 1475.636719 1.367188 L 1475.636719 323.867188 L 35.636719 323.867188 Z M 35.636719 1.367188 " clip-rule="nonzero"/></clipPath><clipPath id="f95faac555"><path d="M 1162 1.367188 L 1484 1.367188 L 1484 323.867188 L 1162 323.867188 Z M 1162 1.367188 " clip-rule="nonzero"/></clipPath><clipPath id="d5ebd42a93"><path d="M 1066 15 L 1475 15 L 1475 323.867188 L 1066 323.867188 Z M 1066 15 " clip-rule="nonzero"/></clipPath><clipPath id="855a7bf9fc"><path d="M 1073 19 L 1249 19 L 1249 323.867188 L 1073 323.867188 Z M 1073 19 " clip-rule="nonzero"/></clipPath><clipPath id="e8e665e9ef"><path d="M 1239 1.367188 L 1469 1.367188 L 1469 185 L 1239 185 Z M 1239 1.367188 " clip-rule="nonzero"/></clipPath><clipPath id="536f1e0f39"><path d="M 1365 1.367188 L 1487 1.367188 L 1487 157 L 1365 157 Z M 1365 1.367188 " clip-rule="nonzero"/></clipPath><clipPath id="f1ca3a6f51"><path d="M 35.636719 0 L 1097.636719 0 L 1097.636719 324 L 35.636719 324 Z M 35.636719 0 " clip-rule="nonzero"/></clipPath><clipPath id="480b088982"><path d="M 37.886719 230.59375 L 342.523438 230.59375 L 342.523438 283.179688 L 37.886719 283.179688 Z M 37.886719 230.59375 " clip-rule="nonzero"/></clipPath><clipPath id="0a6e2b32fd"><path d="M 332.558594 283.179688 L 47.796875 283.179688 C 42.335938 283.179688 37.886719 278.730469 37.886719 273.269531 L 37.886719 240.503906 C 37.886719 235.042969 42.335938 230.59375 47.796875 230.59375 L 332.558594 230.59375 C 338.019531 230.59375 342.46875 235.042969 342.46875 240.503906 L 342.46875 273.269531 C 342.46875 278.730469 338.019531 283.179688 332.558594 283.179688 Z M 332.558594 283.179688 " clip-rule="nonzero"/></clipPath><clipPath id="c0acee23e6"><path d="M 55.449219 238.089844 L 77 238.089844 L 77 275.589844 L 55.449219 275.589844 Z M 55.449219 238.089844 " clip-rule="nonzero"/></clipPath><clipPath id="d984fe80e6"><path d="M 203 250 L 211.617188 250 L 211.617188 264 L 203 264 Z M 203 250 " clip-rule="nonzero"/></clipPath></defs><rect x="-148.8" width="1785.6" fill="#ffffff" y="-32.399999" height="388.799985" fill-opacity="1"/><g clip-path="url(#787b7cc7ce)"><path fill="#edeced" d="M 35.636719 1.367188 L 1475.636719 1.367188 L 1475.636719 323.867188 L 35.636719 323.867188 Z M 35.636719 1.367188 " fill-opacity="1" fill-rule="nonzero"/></g><g clip-path="url(#f95faac555)"><path fill="#2b529d" d="M 1458.339844 348.988281 C 1445.324219 343.832031 1430.355469 341.609375 1415.347656 340.3125 C 1399.371094 338.925781 1383.308594 338.183594 1367.386719 337.347656 C 1338.230469 335.816406 1309.378906 333.929688 1280.652344 333.046875 C 1266.449219 332.613281 1252.285156 332.589844 1238.046875 333.386719 C 1232.875 333.675781 1228.132812 333.195312 1227.59375 329.503906 C 1227.03125 325.675781 1229.007812 321.144531 1229.867188 317.300781 C 1237.710938 282.191406 1245.484375 248.574219 1253.0625 216.316406 C 1253.558594 214.210938 1256.925781 212.667969 1260.394531 213.109375 C 1278.523438 215.429688 1296.992188 217.402344 1315.65625 219.304688 C 1324.445312 220.199219 1333.332031 221.480469 1342.363281 221.929688 C 1351.4375 222.378906 1359.417969 220.425781 1368.136719 218.761719 C 1403.625 211.980469 1441.082031 214.695312 1477.71875 211.257812 C 1481.359375 210.917969 1483.160156 212.367188 1483.164062 213.996094 C 1484.285156 217.363281 1481.96875 221.242188 1481.039062 224.65625 C 1479.972656 228.566406 1479.15625 232.511719 1478.453125 236.480469 C 1478.121094 238.359375 1477.816406 240.246094 1477.527344 242.140625 C 1476.902344 275.5625 1477.257812 310.703125 1467.496094 346.679688 C 1466.828125 349.125 1461.441406 350.214844 1458.339844 348.988281 Z M 1237.75 -93.082031 C 1220.890625 -90.070312 1202.34375 -82.5 1197.722656 -64.25 C 1192.492188 -48.742188 1186.71875 -33.292969 1180.679688 -18.027344 C 1171.503906 0.507812 1161.367188 20.128906 1162.578125 41.398438 C 1166.253906 50.792969 1175.761719 56.234375 1183.066406 62.636719 C 1209.445312 93.511719 1249.5625 89.648438 1273.3125 58.074219 C 1281.429688 31.1875 1298.746094 8.097656 1305.308594 -19.367188 C 1309.308594 -32.984375 1313.347656 -49.480469 1306.886719 -62.855469 C 1304.921875 -78.789062 1252.402344 -91.496094 1237.75 -93.082031 Z M 1237.75 -93.082031 " fill-opacity="1" fill-rule="nonzero"/></g><g clip-path="url(#d5ebd42a93)"><path fill="#85d8a6" d="M 1338.402344 285.421875 C 1346.59375 302.425781 1354.730469 319.609375 1362.167969 337.066406 C 1358.625 336.875 1355.085938 336.683594 1351.550781 336.484375 C 1344.421875 320.636719 1337.574219 304.652344 1330.609375 288.792969 C 1320.105469 264.878906 1309.136719 241.152344 1298.089844 217.472656 C 1300.3125 217.707031 1302.542969 217.945312 1304.773438 218.179688 C 1316.367188 240.394531 1327.523438 262.828125 1338.402344 285.421875 Z M 1273.464844 214.71875 C 1271.21875 214.449219 1268.988281 214.167969 1266.75 213.890625 C 1274.460938 234.210938 1282.886719 254.292969 1291.421875 274.222656 C 1300.078125 294.445312 1308.828125 314.933594 1318.789062 334.691406 C 1322.058594 334.859375 1325.328125 335.035156 1328.597656 335.210938 C 1319.210938 313.988281 1308.847656 293.089844 1299.160156 272.050781 C 1290.398438 253.03125 1282 233.84375 1273.464844 214.71875 Z M 1246.832031 261.328125 C 1245.519531 259.261719 1241.929688 260.542969 1242.738281 263.054688 C 1248.386719 280.679688 1257.515625 297.648438 1266.226562 313.914062 C 1269.667969 320.339844 1273.207031 326.6875 1276.914062 332.949219 C 1278.160156 332.980469 1279.40625 333.011719 1280.652344 333.046875 C 1282.636719 333.109375 1284.625 333.183594 1286.609375 333.253906 C 1282.382812 325.695312 1278.128906 318.152344 1273.929688 310.578125 C 1264.878906 294.257812 1256.84375 277.070312 1246.832031 261.328125 Z M 1368.082031 284.226562 C 1358.59375 263.441406 1350.035156 242.257812 1340.015625 221.785156 C 1337.0625 221.59375 1334.125 221.328125 1331.199219 221.023438 C 1338.519531 244.167969 1348.699219 266.332031 1358.777344 288.492188 C 1365.246094 302.707031 1371.90625 316.835938 1378.761719 330.867188 C 1379.933594 333.265625 1381.089844 335.691406 1382.246094 338.125 C 1386.28125 338.335938 1390.324219 338.5625 1394.367188 338.804688 C 1392.386719 335.042969 1390.433594 331.277344 1388.574219 327.488281 C 1381.539062 313.164062 1374.710938 298.742188 1368.082031 284.226562 Z M 1462.726562 266.558594 C 1458.644531 253.695312 1453.035156 241.519531 1446.910156 229.511719 C 1444.1875 224.175781 1441.699219 218.75 1439.347656 213.269531 C 1435.644531 213.375 1431.945312 213.472656 1428.246094 213.578125 C 1430.992188 220.125 1433.914062 226.59375 1437.175781 232.882812 C 1444.007812 246.050781 1453.808594 256.824219 1458.632812 271.113281 C 1463.917969 286.777344 1467.015625 303.644531 1473.214844 319.035156 C 1473.621094 316.304688 1473.984375 313.578125 1474.308594 310.859375 C 1469.707031 296.378906 1467.300781 280.972656 1462.726562 266.558594 Z M 1405.871094 294.4375 C 1403.375 287.367188 1399.882812 280.625 1396.722656 273.832031 C 1390.109375 259.605469 1383.40625 245.417969 1376.730469 231.222656 C 1374.699219 226.902344 1372.683594 222.539062 1370.359375 218.355469 C 1369.617188 218.488281 1368.875 218.617188 1368.136719 218.761719 C 1365.214844 219.316406 1362.378906 219.90625 1359.558594 220.425781 C 1359.855469 220.914062 1360.152344 221.402344 1360.4375 221.894531 C 1363.683594 227.484375 1366.347656 233.386719 1369.09375 239.230469 C 1375.476562 252.804688 1381.835938 266.390625 1388.273438 279.9375 C 1391.441406 286.617188 1394.292969 293.550781 1398.15625 299.867188 C 1402.046875 306.226562 1405.855469 312.390625 1409.175781 319.085938 C 1412.683594 326.164062 1415.878906 333.347656 1418.832031 340.632812 C 1420.035156 340.75 1421.234375 340.875 1422.433594 341.003906 C 1419.496094 333.074219 1416.464844 325.171875 1413.511719 317.257812 C 1410.691406 309.71875 1408.546875 302.011719 1405.871094 294.4375 Z M 1428.691406 270.691406 C 1424.503906 261.765625 1419.699219 253.121094 1415.390625 244.253906 C 1410.617188 234.4375 1405.816406 224.570312 1400.871094 214.777344 C 1399.378906 214.878906 1397.886719 214.988281 1396.402344 215.105469 C 1401.394531 226.074219 1406.234375 237.101562 1410.777344 248.34375 C 1414.480469 257.515625 1417.132812 267.003906 1420.542969 276.273438 C 1424.199219 286.199219 1428.136719 296.019531 1431.8125 305.941406 C 1436.585938 318.832031 1441.097656 331.820312 1445.363281 344.890625 C 1449.523438 345.921875 1453.5625 347.160156 1457.441406 348.644531 C 1452.140625 332.125 1446.425781 315.734375 1440.308594 299.496094 C 1436.671875 289.84375 1433.070312 280.035156 1428.691406 270.691406 Z M 1233.824219 186.1875 C 1232.101562 174.765625 1229.9375 164.328125 1231.125 152.253906 C 1232.308594 140.191406 1234.628906 128.199219 1236.425781 116.324219 C 1240.257812 90.964844 1244.210938 65.652344 1248.660156 40.539062 C 1249.515625 35.707031 1247.570312 31.339844 1244.65625 31.011719 C 1200.933594 26.109375 1157.226562 21.371094 1113.472656 16.984375 C 1108.796875 16.515625 1103.347656 14.730469 1098.679688 16.082031 C 1094.199219 17.378906 1093.429688 23.5 1093.570312 30.042969 C 1093.953125 48.003906 1093.359375 65.925781 1092.273438 83.871094 C 1090.085938 119.929688 1086.730469 155.890625 1083.808594 191.839844 C 1082.226562 211.3125 1080.757812 230.855469 1078.558594 250.199219 C 1076.5 268.261719 1073.394531 286.171875 1067.039062 301.597656 C 1065.53125 305.25 1066.582031 311.644531 1069.347656 312.484375 C 1110.902344 325.121094 1153.695312 325.792969 1196.164062 327.675781 C 1198.605469 328.105469 1201.050781 328.554688 1203.488281 329.042969 C 1208.65625 330.070312 1213.808594 331.246094 1218.921875 332.75 C 1223.410156 334.066406 1228.457031 337.183594 1233.050781 335.882812 C 1235.246094 335.941406 1237.320312 333.683594 1237.085938 328.992188 C 1234.746094 281.601562 1240.828125 232.664062 1233.824219 186.1875 Z M 1233.824219 186.1875 " fill-opacity="1" fill-rule="nonzero"/></g><g clip-path="url(#855a7bf9fc)"><path fill="#ffffff" d="M 1232.414062 109.84375 C 1234.050781 109.117188 1235.832031 108.8125 1237.621094 108.507812 C 1237.46875 109.488281 1237.320312 110.464844 1237.171875 111.445312 C 1236.253906 111.695312 1235.34375 111.960938 1234.507812 112.394531 C 1232.695312 113.371094 1231.203125 115.027344 1229.398438 115.988281 C 1227.589844 116.9375 1225.6875 117.707031 1223.882812 118.671875 C 1222.097656 119.660156 1220.304688 120.652344 1218.515625 121.640625 C 1216.714844 122.59375 1214.800781 123.3125 1212.96875 124.222656 C 1211.417969 125.003906 1209.957031 125.980469 1208.433594 126.8125 C 1208.148438 126.964844 1207.867188 127.125 1207.574219 127.265625 C 1205.722656 128.164062 1203.945312 129.21875 1202.101562 130.125 C 1200.753906 130.785156 1199.292969 131.21875 1197.890625 131.769531 C 1197.371094 131.972656 1196.859375 132.195312 1196.363281 132.449219 C 1195.925781 132.675781 1195.496094 132.917969 1195.066406 133.160156 C 1193.707031 133.941406 1192.378906 134.78125 1191.007812 135.53125 C 1189.191406 136.496094 1187.21875 137.164062 1185.40625 138.140625 C 1183.621094 139.132812 1182.054688 140.527344 1180.269531 141.515625 C 1178.480469 142.492188 1176.417969 142.980469 1174.640625 143.992188 C 1172.867188 145.007812 1171.4375 146.617188 1169.691406 147.667969 C 1169.355469 147.867188 1169 148.039062 1168.648438 148.210938 C 1169.484375 147.976562 1170.3125 147.722656 1171.078125 147.351562 C 1172.917969 146.46875 1174.636719 145.347656 1176.476562 144.464844 C 1178.3125 143.574219 1180.339844 143.066406 1182.183594 142.210938 C 1184.03125 141.351562 1185.714844 140.167969 1187.570312 139.324219 C 1189.414062 138.460938 1191.1875 137.453125 1193.015625 136.566406 C 1194.859375 135.703125 1196.546875 134.523438 1198.378906 133.636719 L 1203.871094 130.988281 C 1205.707031 130.105469 1207.871094 129.929688 1209.710938 129.070312 C 1211.542969 128.203125 1213.003906 126.519531 1214.84375 125.644531 C 1216.6875 124.78125 1218.757812 124.421875 1220.59375 123.546875 C 1222.429688 122.667969 1224.242188 121.738281 1226.089844 120.878906 C 1227.933594 120.011719 1229.769531 119.125 1231.636719 118.308594 C 1233.28125 117.59375 1234.847656 116.679688 1236.484375 115.9375 C 1236.464844 116.066406 1236.445312 116.195312 1236.425781 116.324219 C 1236.285156 117.25 1236.136719 118.179688 1235.992188 119.109375 C 1234.390625 119.902344 1232.722656 120.539062 1231.164062 121.402344 C 1229.136719 122.511719 1227.183594 123.75 1225.148438 124.828125 C 1223.113281 125.898438 1221.394531 127.625 1219.367188 128.691406 C 1217.585938 129.621094 1215.441406 129.785156 1213.65625 130.714844 C 1211.867188 131.636719 1210.304688 133.007812 1208.511719 133.898438 C 1206.71875 134.800781 1205.007812 135.875 1203.199219 136.730469 C 1201.386719 137.589844 1199.367188 138.011719 1197.546875 138.859375 C 1195.726562 139.703125 1193.964844 140.664062 1192.152344 141.527344 C 1190.34375 142.390625 1188.707031 143.613281 1186.902344 144.484375 C 1185.089844 145.34375 1182.898438 145.449219 1181.066406 146.289062 C 1179.246094 147.148438 1177.554688 148.257812 1175.730469 149.109375 C 1173.863281 149.964844 1171.984375 150.804688 1170.128906 151.695312 C 1168.277344 152.589844 1166.644531 153.90625 1164.789062 154.792969 C 1162.929688 155.667969 1160.992188 156.421875 1159.082031 157.222656 C 1157.179688 158.03125 1154.988281 158.246094 1152.996094 158.921875 C 1151.058594 159.574219 1149.289062 160.5625 1147.390625 161.28125 C 1145.753906 161.902344 1144.238281 162.75 1142.675781 163.507812 C 1142.417969 163.632812 1142.160156 163.761719 1141.898438 163.882812 C 1141.625 164.003906 1141.347656 164.125 1141.074219 164.246094 C 1140.011719 164.808594 1138.957031 165.382812 1137.882812 165.929688 C 1136.945312 166.421875 1135.914062 166.761719 1134.886719 167.109375 C 1133.507812 167.710938 1132.082031 168.246094 1130.800781 169.019531 C 1130.1875 169.390625 1129.398438 168.566406 1129.375 167.878906 C 1128.632812 167.117188 1128.515625 165.820312 1129.664062 164.796875 C 1131.238281 163.402344 1132.851562 162.0625 1134.550781 160.835938 C 1136.261719 159.621094 1138.054688 158.53125 1139.832031 157.421875 C 1141.609375 156.308594 1143.273438 155.003906 1145.09375 153.960938 C 1146.914062 152.917969 1148.617188 151.679688 1150.457031 150.671875 C 1152.300781 149.660156 1154.386719 149.082031 1156.199219 148.035156 C 1157.980469 146.988281 1159.6875 145.8125 1161.46875 144.757812 C 1163.261719 143.726562 1165.242188 143.019531 1167.035156 141.992188 C 1168.820312 140.949219 1170.46875 139.667969 1172.28125 138.667969 C 1174.089844 137.667969 1175.800781 136.480469 1177.640625 135.535156 C 1179.476562 134.582031 1181.34375 133.6875 1183.195312 132.761719 C 1185.097656 131.824219 1187.179688 131.253906 1189.082031 130.320312 C 1190.980469 129.394531 1192.90625 128.511719 1194.820312 127.601562 C 1196.726562 126.6875 1198.507812 125.492188 1200.433594 124.617188 C 1202.363281 123.742188 1204.179688 122.625 1206.125 121.78125 C 1208.066406 120.929688 1210.304688 120.757812 1212.242188 119.90625 C 1214.523438 118.921875 1216.554688 117.332031 1218.832031 116.304688 C 1221.125 115.316406 1223.3125 114.117188 1225.546875 112.992188 C 1227.8125 111.882812 1230.125 110.882812 1232.414062 109.84375 Z M 1158.804688 195.582031 C 1160.144531 195.097656 1161.589844 194.878906 1162.996094 194.582031 C 1164.027344 194.460938 1165.054688 194.347656 1166.019531 194.066406 C 1167.183594 193.734375 1168.339844 193.390625 1169.492188 193.042969 C 1169.714844 192.992188 1169.9375 192.945312 1170.15625 192.898438 C 1170.425781 192.835938 1170.6875 192.761719 1170.953125 192.695312 C 1172.558594 192.277344 1174.132812 191.757812 1175.78125 191.476562 C 1177.695312 191.152344 1179.535156 190.554688 1181.472656 190.292969 C 1183.464844 190.023438 1185.578125 190.238281 1187.503906 189.820312 C 1189.441406 189.410156 1191.394531 189.035156 1193.296875 188.53125 C 1195.195312 188.023438 1196.941406 187.035156 1198.835938 186.503906 C 1200.730469 185.972656 1202.640625 185.503906 1204.539062 185 C 1206.394531 184.496094 1208.164062 183.714844 1210.015625 183.195312 C 1211.875 182.695312 1213.972656 182.976562 1215.816406 182.453125 C 1217.660156 181.917969 1219.382812 180.984375 1221.222656 180.449219 C 1223.066406 179.914062 1224.871094 179.265625 1226.714844 178.734375 C 1228.558594 178.199219 1230.542969 178.128906 1232.375 177.574219 C 1232.410156 177.5625 1232.441406 177.550781 1232.472656 177.542969 C 1232.222656 175.90625 1231.988281 174.277344 1231.773438 172.648438 L 1228.210938 173.746094 C 1226.351562 174.308594 1224.59375 175.191406 1222.726562 175.730469 C 1220.867188 176.285156 1219.046875 176.976562 1217.179688 177.503906 C 1215.304688 178.023438 1213.535156 178.875 1211.664062 179.394531 C 1209.792969 179.914062 1207.796875 180.054688 1205.921875 180.585938 C 1204.050781 181.117188 1202.261719 181.914062 1200.386719 182.4375 C 1199.605469 182.65625 1198.78125 182.75 1197.949219 182.824219 C 1198.3125 182.722656 1198.671875 182.621094 1199.023438 182.488281 C 1200.835938 181.789062 1202.425781 180.46875 1204.253906 179.796875 C 1206.082031 179.125 1208.113281 179.027344 1209.945312 178.378906 C 1211.777344 177.722656 1213.460938 176.632812 1215.292969 175.972656 C 1217.144531 175.328125 1219.105469 175.007812 1220.960938 174.371094 C 1222.363281 173.878906 1223.730469 173.269531 1225.121094 172.730469 C 1225.5625 172.558594 1226.007812 172.394531 1226.457031 172.242188 C 1226.957031 172.074219 1227.472656 171.945312 1227.988281 171.832031 C 1229.183594 171.570312 1230.394531 171.378906 1231.570312 171.066406 C 1231.558594 170.960938 1231.546875 170.855469 1231.535156 170.75 C 1231.320312 168.953125 1231.136719 167.148438 1231.007812 165.324219 C 1229.191406 165.875 1227.453125 166.683594 1225.636719 167.226562 L 1219.84375 168.9375 C 1217.921875 169.527344 1215.871094 169.726562 1213.945312 170.320312 C 1212.066406 170.90625 1210.175781 171.445312 1208.304688 172.054688 C 1206.433594 172.660156 1204.648438 173.511719 1202.789062 174.160156 C 1200.933594 174.808594 1199.191406 175.769531 1197.347656 176.449219 C 1195.5 177.121094 1193.523438 177.445312 1191.675781 178.113281 C 1189.835938 178.804688 1188.042969 179.625 1186.199219 180.304688 C 1184.328125 180.984375 1182.261719 181.128906 1180.367188 181.757812 C 1178.472656 182.382812 1176.667969 183.25 1174.785156 183.898438 C 1172.894531 184.542969 1171.121094 185.484375 1169.261719 186.199219 C 1167.398438 186.914062 1165.53125 187.601562 1163.71875 188.429688 C 1161.910156 189.269531 1160.164062 190.222656 1158.445312 191.25 C 1157.1875 191.996094 1157.078125 193.285156 1157.648438 194.175781 C 1157.554688 194.847656 1158.160156 195.816406 1158.804688 195.582031 Z M 1090.917969 270.554688 C 1093.082031 269.5 1095.242188 268.445312 1097.40625 267.390625 C 1099.570312 266.339844 1101.914062 265.652344 1104.078125 264.59375 C 1106.1875 263.566406 1108.332031 262.605469 1110.4375 261.5625 C 1112.542969 260.519531 1114.546875 259.277344 1116.648438 258.230469 C 1118.75 257.183594 1120.691406 255.816406 1122.792969 254.765625 C 1124.890625 253.714844 1127.15625 252.992188 1129.257812 251.945312 C 1131.359375 250.898438 1133.398438 249.726562 1135.503906 248.6875 C 1137.636719 247.636719 1140.035156 247.152344 1142.203125 246.179688 C 1144.375 245.207031 1146.441406 244.015625 1148.617188 243.058594 C 1150.792969 242.101562 1152.828125 240.832031 1154.980469 239.828125 C 1157.132812 238.820312 1159.296875 237.839844 1161.394531 236.722656 C 1163.488281 235.609375 1165.53125 234.398438 1167.535156 233.109375 C 1169 232.171875 1169.15625 230.824219 1168.519531 229.972656 C 1168.644531 229.261719 1167.972656 228.339844 1167.21875 228.664062 C 1165.648438 229.347656 1163.96875 229.769531 1162.324219 230.269531 C 1161.121094 230.53125 1159.917969 230.792969 1158.785156 231.222656 C 1157.425781 231.734375 1156.074219 232.265625 1154.722656 232.800781 C 1154.46875 232.882812 1154.210938 232.964844 1153.953125 233.050781 C 1153.644531 233.152344 1153.339844 233.265625 1153.03125 233.375 C 1151.152344 234.046875 1149.3125 234.832031 1147.386719 235.398438 C 1145.160156 236.050781 1143.003906 236.957031 1140.746094 237.570312 C 1138.425781 238.199219 1135.945312 238.355469 1133.691406 239.132812 C 1131.425781 239.914062 1129.15625 240.683594 1126.9375 241.566406 C 1124.71875 242.449219 1122.71875 243.828125 1120.523438 244.765625 C 1118.328125 245.699219 1116.101562 246.566406 1113.914062 247.511719 C 1111.765625 248.4375 1109.738281 249.617188 1107.597656 250.5625 C 1105.457031 251.507812 1102.972656 251.707031 1100.84375 252.671875 C 1098.714844 253.640625 1096.789062 255.035156 1094.675781 256.03125 C 1092.558594 257.023438 1090.5 258.132812 1088.402344 259.160156 C 1086.300781 260.183594 1083.972656 260.753906 1081.890625 261.816406 C 1080.09375 262.730469 1078.371094 263.796875 1076.609375 264.78125 C 1076.351562 266.429688 1076.082031 268.066406 1075.792969 269.699219 C 1077.496094 269.050781 1079.316406 268.632812 1080.925781 267.808594 C 1083.011719 266.734375 1085.089844 265.648438 1087.195312 264.605469 C 1089.296875 263.5625 1091.25 262.214844 1093.367188 261.195312 C 1095.484375 260.179688 1097.542969 259.035156 1099.675781 258.042969 C 1101.804688 257.050781 1103.8125 255.796875 1105.957031 254.832031 C 1108.097656 253.863281 1110.417969 253.273438 1112.570312 252.328125 C 1114.722656 251.386719 1116.753906 250.171875 1118.917969 249.253906 C 1119.824219 248.867188 1120.78125 248.605469 1121.746094 248.359375 C 1121.328125 248.539062 1120.910156 248.714844 1120.507812 248.921875 C 1118.421875 250 1116.652344 251.695312 1114.570312 252.777344 C 1112.488281 253.863281 1110.113281 254.386719 1108.035156 255.476562 C 1105.953125 256.566406 1104.082031 258.058594 1102.007812 259.152344 C 1099.914062 260.253906 1097.660156 261.050781 1095.5625 262.148438 C 1093.984375 262.972656 1092.472656 263.9375 1090.929688 264.835938 C 1090.425781 265.125 1089.917969 265.410156 1089.402344 265.683594 C 1088.84375 265.972656 1088.265625 266.234375 1087.683594 266.480469 C 1086.078125 267.15625 1084.417969 267.722656 1082.886719 268.53125 C 1080.792969 269.640625 1078.761719 270.859375 1076.679688 271.984375 C 1076.351562 272.160156 1076.035156 272.351562 1075.714844 272.542969 C 1075.550781 272.640625 1075.382812 272.730469 1075.21875 272.828125 C 1074.824219 274.914062 1074.394531 276.980469 1073.941406 279.027344 C 1075.390625 278.550781 1076.878906 278.144531 1078.230469 277.46875 C 1080.382812 276.394531 1082.433594 275.113281 1084.589844 274.050781 C 1086.75 272.988281 1088.753906 271.609375 1090.917969 270.554688 Z M 1223.15625 277.1875 C 1220.667969 278.015625 1218.191406 278.886719 1215.75 279.84375 C 1213.300781 280.789062 1211.101562 282.304688 1208.707031 283.367188 C 1206.3125 284.433594 1203.871094 285.40625 1201.507812 286.542969 C 1199.183594 287.640625 1196.976562 288.976562 1194.664062 290.105469 C 1192.367188 291.261719 1189.695312 291.691406 1187.402344 292.871094 C 1185.097656 294.039062 1183.082031 295.722656 1180.820312 296.957031 C 1179.695312 297.582031 1178.585938 298.234375 1177.476562 298.894531 L 1174.179688 300.910156 C 1171.976562 302.242188 1169.476562 303.101562 1167.308594 304.503906 C 1165.140625 305.898438 1163.101562 307.5 1160.960938 308.933594 C 1158.828125 310.382812 1157.058594 312.347656 1154.972656 313.855469 C 1152.882812 315.347656 1150.355469 316.269531 1148.332031 317.871094 C 1146.019531 319.699219 1144.15625 322.070312 1141.945312 323.996094 C 1141.621094 324.273438 1141.304688 324.5625 1140.984375 324.84375 C 1142.488281 324.960938 1143.992188 325.070312 1145.496094 325.175781 C 1146.148438 324.652344 1146.804688 324.136719 1147.476562 323.636719 C 1149.535156 322.105469 1151.929688 321.03125 1153.996094 319.515625 C 1156.074219 318.011719 1157.691406 315.847656 1159.804688 314.378906 C 1161.90625 312.898438 1164.5 312.152344 1166.652344 310.757812 C 1168.808594 309.367188 1170.933594 307.929688 1173.140625 306.617188 C 1175.335938 305.289062 1177.355469 303.660156 1179.574219 302.359375 C 1181.8125 301.097656 1183.984375 299.710938 1186.234375 298.472656 C 1188.472656 297.214844 1190.640625 295.800781 1192.921875 294.617188 C 1195.203125 293.433594 1197.683594 292.640625 1200.007812 291.554688 C 1202.332031 290.460938 1204.503906 289.054688 1206.855469 288.015625 C 1207.839844 287.582031 1208.875 287.269531 1209.917969 286.976562 C 1209.464844 287.175781 1209.011719 287.378906 1208.570312 287.605469 C 1206.292969 288.785156 1204.386719 290.636719 1202.148438 291.878906 C 1199.914062 293.121094 1197.351562 293.789062 1195.148438 295.097656 C 1192.933594 296.386719 1190.945312 298.0625 1188.746094 299.363281 C 1186.546875 300.703125 1184.164062 301.753906 1181.960938 303.089844 C 1180.300781 304.078125 1178.761719 305.253906 1177.175781 306.351562 C 1176.640625 306.722656 1176.101562 307.085938 1175.550781 307.429688 C 1174.96875 307.800781 1174.367188 308.136719 1173.757812 308.457031 C 1173.226562 308.742188 1172.6875 309.015625 1172.148438 309.289062 C 1171 309.886719 1169.859375 310.496094 1168.785156 311.210938 C 1166.644531 312.652344 1164.542969 314.152344 1162.441406 315.644531 C 1162.109375 315.878906 1161.792969 316.128906 1161.46875 316.375 C 1159.738281 317.6875 1158.097656 319.132812 1156.339844 320.402344 C 1154.285156 321.917969 1152.15625 323.324219 1150.164062 324.902344 C 1149.9375 325.078125 1149.714844 325.265625 1149.492188 325.445312 C 1151.6875 325.589844 1153.886719 325.722656 1156.082031 325.847656 C 1156.589844 325.4375 1157.101562 325.03125 1157.636719 324.660156 C 1159.78125 323.1875 1162.382812 322.40625 1164.542969 320.972656 C 1166.695312 319.523438 1168.773438 317.957031 1170.96875 316.574219 C 1173.167969 315.195312 1175.175781 313.507812 1177.417969 312.191406 C 1179.652344 310.867188 1181.867188 309.511719 1184.117188 308.21875 C 1186.371094 306.929688 1188.828125 305.996094 1191.078125 304.710938 C 1193.28125 303.464844 1195.550781 302.335938 1197.761719 301.105469 C 1199.964844 299.863281 1202.09375 298.484375 1204.328125 297.296875 C 1206.566406 296.113281 1208.617188 294.574219 1210.882812 293.441406 C 1213.136719 292.292969 1215.554688 291.460938 1217.8125 290.320312 C 1220.089844 289.214844 1222.304688 287.984375 1224.582031 286.882812 C 1226.878906 285.753906 1229.484375 285.304688 1231.835938 284.304688 C 1233.488281 283.609375 1235.101562 282.8125 1236.742188 282.085938 C 1236.773438 280.296875 1236.808594 278.511719 1236.84375 276.722656 C 1236.855469 276.085938 1236.867188 275.449219 1236.882812 274.8125 C 1236.882812 274.792969 1236.882812 274.773438 1236.882812 274.753906 C 1236.890625 274.425781 1236.894531 274.101562 1236.902344 273.773438 C 1234.890625 274.351562 1232.894531 275.019531 1230.863281 275.550781 C 1228.328125 276.203125 1225.644531 276.378906 1223.15625 277.1875 Z M 1118.664062 226.710938 C 1130.4375 222.589844 1142.308594 218.507812 1154.378906 215.261719 C 1166.453125 212.039062 1178.679688 209.730469 1190.976562 207.65625 C 1203.277344 205.617188 1215.746094 203.925781 1228.210938 203.339844 C 1229.539062 203.257812 1230.871094 203.261719 1232.199219 203.226562 L 1235.828125 203.179688 C 1235.722656 201.980469 1235.609375 200.78125 1235.488281 199.582031 L 1234.628906 199.609375 L 1232.226562 199.671875 C 1230.625 199.722656 1229.023438 199.730469 1227.425781 199.835938 C 1224.230469 200.007812 1221.027344 200.140625 1217.839844 200.429688 L 1213.050781 200.824219 L 1208.273438 201.332031 C 1195.78125 202.6875 1183.410156 205.128906 1171.1875 207.828125 C 1158.957031 210.515625 1146.78125 212.96875 1134.828125 216.71875 C 1122.871094 220.457031 1111.164062 225.070312 1099.53125 229.546875 C 1092.941406 232.082031 1086.40625 234.742188 1079.902344 237.460938 C 1079.75 238.988281 1079.597656 240.511719 1079.441406 242.035156 C 1080.878906 241.429688 1082.320312 240.828125 1083.765625 240.234375 C 1095.296875 235.511719 1106.886719 230.839844 1118.664062 226.710938 Z M 1098.109375 219.050781 C 1103.378906 215.871094 1108.589844 212.609375 1113.746094 209.332031 C 1116.722656 207.515625 1119.660156 205.660156 1122.585938 203.792969 L 1126.964844 200.980469 L 1131.414062 198.296875 C 1134.382812 196.507812 1137.351562 194.722656 1140.324219 192.933594 C 1143.320312 191.179688 1146.402344 189.570312 1149.472656 187.917969 C 1161.765625 181.292969 1174.324219 175.375 1187.054688 169.652344 C 1199.898438 164.226562 1213.199219 159.339844 1226.394531 154.859375 C 1227.949219 154.328125 1229.496094 153.773438 1231.042969 153.226562 C 1231.070312 152.902344 1231.09375 152.582031 1231.125 152.253906 C 1231.179688 151.679688 1231.25 151.109375 1231.3125 150.535156 L 1229.925781 150.984375 C 1224.03125 152.914062 1218.117188 154.761719 1212.339844 157.003906 L 1203.628906 160.226562 C 1200.71875 161.289062 1197.875 162.523438 1194.988281 163.648438 L 1186.355469 167.09375 L 1177.847656 170.828125 C 1175.019531 172.089844 1172.160156 173.285156 1169.359375 174.601562 L 1160.976562 178.609375 C 1155.347656 181.195312 1149.902344 184.144531 1144.414062 187.003906 L 1140.300781 189.152344 C 1138.941406 189.886719 1137.601562 190.667969 1136.253906 191.421875 L 1128.160156 195.96875 C 1125.4375 197.445312 1122.777344 199.03125 1120.097656 200.589844 L 1112.027344 205.230469 L 1110.007812 206.390625 L 1108.027344 207.613281 L 1104.074219 210.070312 C 1101.441406 211.710938 1098.820312 213.367188 1096.21875 215.050781 C 1091.113281 218.558594 1086.164062 222.261719 1081.242188 225.984375 L 1080.960938 226.210938 C 1080.8125 227.835938 1080.664062 229.464844 1080.511719 231.089844 C 1081.285156 230.503906 1082.046875 229.90625 1082.824219 229.320312 C 1087.78125 225.746094 1092.972656 222.429688 1098.109375 219.050781 Z M 1089.332031 217.265625 C 1094.375 213.632812 1099.667969 210.371094 1104.875 207 L 1108.785156 204.480469 L 1112.765625 202.085938 C 1115.414062 200.480469 1118.058594 198.875 1120.695312 197.273438 C 1123.320312 195.617188 1126.023438 194.109375 1128.707031 192.566406 C 1131.390625 191.023438 1134.070312 189.480469 1136.75 187.9375 C 1138.078125 187.148438 1139.4375 186.414062 1140.804688 185.695312 L 1144.894531 183.511719 L 1153.082031 179.152344 C 1158.628906 176.398438 1164.242188 173.726562 1169.863281 171.074219 C 1172.707031 169.828125 1175.550781 168.578125 1178.394531 167.328125 L 1182.648438 165.441406 C 1184.058594 164.800781 1185.476562 164.175781 1186.914062 163.601562 C 1189.773438 162.421875 1192.597656 161.207031 1195.40625 159.96875 C 1198.21875 158.738281 1201 157.441406 1203.847656 156.320312 C 1206.6875 155.164062 1209.527344 154.007812 1212.375 152.847656 C 1213.804688 152.28125 1215.238281 151.714844 1216.675781 151.144531 C 1218.125 150.621094 1219.59375 150.125 1221.0625 149.625 C 1224.605469 148.449219 1228.191406 147.292969 1231.8125 146.222656 C 1231.945312 145.179688 1232.074219 144.132812 1232.21875 143.09375 C 1226.105469 144.765625 1220.035156 146.589844 1214 148.628906 C 1206.84375 151.25 1199.605469 153.699219 1192.550781 156.640625 C 1189.011719 158.082031 1185.433594 159.433594 1181.925781 160.953125 L 1171.441406 165.585938 C 1167.960938 167.078125 1164.566406 168.757812 1161.167969 170.410156 C 1157.773438 172.074219 1154.355469 173.683594 1150.980469 175.390625 C 1147.632812 177.140625 1144.285156 178.894531 1140.929688 180.648438 C 1139.257812 181.53125 1137.5625 182.375 1135.902344 183.285156 L 1130.933594 186.050781 C 1127.621094 187.894531 1124.316406 189.753906 1121.042969 191.664062 L 1111.394531 197.679688 L 1106.578125 200.691406 L 1101.851562 203.839844 C 1098.695312 205.933594 1095.53125 208.007812 1092.347656 210.050781 C 1089.6875 211.859375 1087.019531 213.648438 1084.328125 215.410156 C 1083.476562 215.976562 1082.613281 216.535156 1081.75 217.089844 C 1081.585938 219.054688 1081.417969 221.023438 1081.246094 222.988281 C 1081.382812 222.886719 1081.519531 222.785156 1081.660156 222.683594 Z M 1126.089844 232.398438 C 1137.722656 228.363281 1149.496094 224.835938 1161.347656 221.699219 C 1173.195312 218.550781 1185.144531 215.777344 1197.210938 213.820312 C 1209.269531 211.84375 1221.40625 210.242188 1233.59375 209.769531 L 1235.894531 209.6875 L 1236.332031 209.699219 C 1236.210938 207.878906 1236.074219 206.0625 1235.917969 204.246094 C 1235.898438 203.976562 1235.875 203.707031 1235.851562 203.4375 L 1231.882812 203.628906 C 1230.328125 203.710938 1228.773438 203.800781 1227.222656 203.957031 C 1224.121094 204.234375 1221.019531 204.519531 1217.9375 204.933594 C 1211.753906 205.652344 1205.621094 206.667969 1199.46875 207.574219 C 1187.191406 209.480469 1174.851562 211.476562 1162.789062 214.585938 C 1150.726562 217.703125 1138.996094 221.828125 1127.242188 225.871094 C 1115.402344 229.941406 1103.570312 234.144531 1091.960938 238.863281 C 1087.679688 240.605469 1083.433594 242.429688 1079.203125 244.28125 C 1079.195312 244.347656 1079.1875 244.414062 1079.179688 244.480469 C 1078.976562 246.386719 1078.773438 248.296875 1078.558594 250.199219 C 1078.550781 250.257812 1078.542969 250.320312 1078.535156 250.378906 C 1082.515625 248.703125 1086.496094 247.039062 1090.488281 245.414062 C 1102.222656 240.628906 1114.171875 236.53125 1126.089844 232.398438 Z M 1236.820312 218.246094 C 1236.816406 218.152344 1236.8125 218.054688 1236.808594 217.960938 C 1236.710938 215.875 1236.597656 213.792969 1236.46875 211.714844 L 1236.292969 211.824219 L 1234.902344 212.652344 L 1230.90625 215.019531 C 1225.574219 218.164062 1220.214844 221.28125 1214.824219 224.351562 C 1203.910156 230.5625 1192.703125 236.140625 1181.714844 242.351562 C 1170.734375 248.566406 1159.875 255.144531 1149.054688 261.761719 C 1138.21875 268.378906 1127.699219 275.664062 1117.328125 283.082031 C 1106.941406 290.503906 1096.847656 298.375 1087.285156 306.941406 C 1084.324219 309.59375 1081.417969 312.3125 1078.566406 315.085938 C 1079.417969 315.308594 1080.265625 315.53125 1081.117188 315.746094 C 1082.40625 316.070312 1083.695312 316.386719 1084.988281 316.6875 C 1085.070312 316.707031 1085.15625 316.726562 1085.238281 316.746094 C 1087.046875 315.183594 1088.867188 313.621094 1090.691406 312.058594 C 1096.835938 306.800781 1103.167969 301.761719 1109.628906 296.898438 C 1110.425781 296.3125 1111.222656 295.726562 1112.023438 295.148438 C 1113.441406 294.121094 1114.867188 293.101562 1116.296875 292.085938 C 1124.8125 286.03125 1133.554688 280.152344 1142.445312 274.765625 C 1152.785156 268.507812 1163.378906 262.214844 1174.054688 256.476562 C 1185.035156 250.566406 1196 245.449219 1207.039062 239.542969 C 1217.042969 234.191406 1227.070312 228.816406 1237.019531 223.242188 C 1236.96875 221.742188 1236.910156 220.242188 1236.84375 218.742188 C 1236.835938 218.578125 1236.828125 218.414062 1236.820312 218.246094 Z M 1241.851562 41.640625 L 1233.671875 44.605469 C 1228.195312 46.53125 1222.835938 48.738281 1217.453125 50.871094 C 1214.753906 51.914062 1212.105469 53.09375 1209.429688 54.203125 L 1201.414062 57.558594 C 1190.777344 62.171875 1180.214844 66.933594 1169.832031 72.082031 C 1159.390625 77.113281 1149.230469 82.667969 1139.0625 88.207031 C 1128.980469 93.894531 1118.609375 99.222656 1108.804688 105.414062 C 1107.417969 106.289062 1106.035156 107.167969 1104.660156 108.0625 C 1102.511719 108.875 1100.363281 109.707031 1098.230469 110.570312 C 1097.644531 110.808594 1097.0625 111.0625 1096.480469 111.300781 C 1095.886719 111.546875 1095.292969 111.796875 1094.703125 112.042969 C 1094.757812 112.003906 1094.8125 111.96875 1094.867188 111.933594 C 1097.300781 110.308594 1099.714844 108.65625 1102.183594 107.082031 L 1109.574219 102.472656 L 1113.273438 100.175781 L 1117.015625 97.964844 C 1119.511719 96.488281 1122.003906 95.007812 1124.492188 93.535156 C 1127 92.089844 1129.503906 90.648438 1132.003906 89.207031 C 1142.011719 83.363281 1152.140625 77.828125 1162.378906 72.460938 C 1172.703125 67.234375 1183.261719 62.292969 1193.816406 57.570312 C 1199.0625 55.132812 1204.246094 52.722656 1209.433594 50.308594 L 1213.328125 48.492188 C 1214.628906 47.898438 1215.949219 47.339844 1217.265625 46.765625 C 1219.902344 45.628906 1222.558594 44.507812 1225.246094 43.421875 C 1227.929688 42.332031 1230.691406 41.402344 1233.449219 40.429688 C 1236.21875 39.488281 1238.988281 38.503906 1241.796875 37.636719 C 1244.050781 36.941406 1246.296875 36.222656 1248.542969 35.503906 C 1248.308594 34.550781 1247.949219 33.703125 1247.496094 33.003906 C 1244.542969 33.871094 1241.585938 34.726562 1238.644531 35.625 C 1231.914062 37.792969 1225.175781 39.960938 1218.570312 42.59375 C 1211.925781 45.105469 1205.371094 47.902344 1198.785156 50.621094 C 1192.261719 53.488281 1185.710938 56.304688 1179.289062 59.390625 C 1172.867188 62.332031 1166.601562 65.570312 1160.285156 68.691406 C 1154.039062 71.972656 1147.75 75.160156 1141.542969 78.5625 C 1135.277344 81.847656 1129.230469 85.535156 1123.140625 89.121094 C 1117.144531 92.863281 1111.097656 96.511719 1105.125 100.277344 C 1100.285156 103.230469 1095.410156 106.132812 1090.566406 109.089844 C 1090.449219 110.699219 1090.328125 112.308594 1090.207031 113.917969 C 1090.175781 114.332031 1090.144531 114.746094 1090.113281 115.160156 C 1090.105469 115.265625 1090.097656 115.371094 1090.085938 115.472656 C 1090.011719 116.449219 1089.9375 117.425781 1089.863281 118.402344 C 1089.839844 118.730469 1089.8125 119.054688 1089.789062 119.382812 C 1089.742188 119.960938 1089.699219 120.542969 1089.65625 121.121094 C 1089.644531 121.246094 1089.636719 121.367188 1089.625 121.492188 C 1089.589844 121.964844 1089.554688 122.4375 1089.519531 122.910156 C 1089.398438 124.445312 1089.273438 125.980469 1089.152344 127.515625 C 1099.847656 122.917969 1110.566406 118.292969 1121.496094 114.238281 C 1132.589844 110.117188 1143.78125 106.242188 1155.042969 102.574219 C 1166.3125 98.910156 1177.742188 95.835938 1189.132812 92.570312 C 1200.242188 89.378906 1211.449219 86.417969 1222.625 83.503906 C 1229.183594 81.8125 1235.707031 80.179688 1242.21875 78.921875 C 1242.542969 76.894531 1242.882812 74.875 1243.210938 72.847656 C 1243.226562 72.75 1243.242188 72.652344 1243.257812 72.554688 C 1236.738281 73.515625 1230.265625 74.8125 1223.894531 76.453125 C 1212.636719 79.390625 1201.574219 82.90625 1190.421875 86.167969 C 1179.183594 89.453125 1167.875 92.578125 1156.738281 96.222656 C 1148.367188 98.960938 1140.089844 101.957031 1131.832031 105.015625 C 1129.113281 106.023438 1126.394531 107.039062 1123.675781 108.054688 C 1120.625 109.191406 1117.5625 110.3125 1114.496094 111.4375 C 1108.269531 113.722656 1102.042969 116.027344 1095.894531 118.515625 C 1095.898438 118.511719 1095.902344 118.507812 1095.910156 118.507812 C 1098.296875 116.929688 1100.722656 115.390625 1103.167969 113.867188 C 1103.175781 113.859375 1103.183594 113.855469 1103.195312 113.851562 C 1107.480469 112.128906 1111.777344 110.441406 1116.101562 108.808594 C 1127.003906 104.691406 1137.886719 100.46875 1148.964844 96.832031 C 1160.035156 93.203125 1171.148438 89.636719 1182.34375 86.40625 C 1193.53125 83.179688 1204.738281 79.816406 1216.019531 76.941406 C 1225.046875 74.625 1234.191406 72.667969 1243.464844 71.300781 C 1243.671875 70.03125 1243.878906 68.761719 1244.085938 67.492188 C 1239.910156 68.167969 1235.78125 68.984375 1231.710938 69.851562 C 1225.992188 71.082031 1220.304688 72.304688 1214.617188 73.527344 C 1211.800781 74.15625 1208.984375 74.789062 1206.160156 75.417969 C 1203.347656 76.089844 1200.539062 76.785156 1197.730469 77.535156 C 1186.511719 80.578125 1175.402344 84.253906 1164.28125 87.664062 C 1153.15625 91.082031 1142.117188 94.800781 1131.132812 98.683594 C 1129.386719 99.296875 1127.640625 99.90625 1125.890625 100.515625 C 1131.351562 97.203125 1136.773438 93.914062 1142.191406 90.628906 C 1147.789062 87.339844 1153.363281 84 1159.167969 81 C 1164.925781 77.894531 1170.765625 75.003906 1176.570312 72.035156 C 1179.480469 70.570312 1182.429688 69.1875 1185.363281 67.757812 L 1189.769531 65.628906 C 1191.242188 64.925781 1192.734375 64.265625 1194.21875 63.582031 C 1197.1875 62.226562 1200.179688 60.890625 1203.183594 59.570312 C 1206.21875 58.316406 1209.257812 57.0625 1212.300781 55.808594 C 1215.328125 54.527344 1218.398438 53.339844 1221.453125 52.140625 C 1224.5 50.921875 1227.539062 49.707031 1230.570312 48.496094 C 1236.558594 46.171875 1242.484375 43.738281 1248.492188 41.519531 C 1248.546875 41.195312 1248.601562 40.867188 1248.660156 40.539062 C 1248.734375 40.109375 1248.78125 39.6875 1248.816406 39.265625 Z M 1202.179688 97.839844 C 1199.492188 99.089844 1196.84375 100.414062 1194.179688 101.707031 L 1186.175781 105.539062 C 1183.484375 106.777344 1180.871094 108.160156 1178.226562 109.496094 C 1175.59375 110.847656 1172.960938 112.214844 1170.339844 113.613281 C 1165.128906 116.453125 1160.023438 119.5 1154.871094 122.46875 C 1149.789062 125.554688 1144.710938 128.640625 1139.640625 131.722656 C 1134.621094 134.898438 1129.640625 138.160156 1124.679688 141.449219 C 1119.789062 144.839844 1114.898438 148.226562 1110.019531 151.609375 C 1105.203125 155.089844 1100.328125 158.484375 1095.578125 162.039062 L 1088.496094 167.4375 C 1087.550781 168.164062 1086.601562 168.886719 1085.65625 169.613281 C 1085.558594 170.792969 1085.457031 171.972656 1085.359375 173.152344 C 1085.234375 174.648438 1085.105469 176.148438 1084.980469 177.640625 C 1084.972656 177.746094 1084.964844 177.851562 1084.957031 177.957031 C 1085.996094 177.152344 1087.027344 176.335938 1088.085938 175.550781 L 1091.582031 172.984375 L 1098.5625 167.839844 C 1099.179688 167.371094 1099.816406 166.925781 1100.445312 166.46875 C 1102.023438 165.367188 1103.597656 164.261719 1105.183594 163.171875 C 1105.921875 162.675781 1106.65625 162.167969 1107.390625 161.664062 C 1111.351562 158.941406 1115.285156 156.148438 1119.351562 153.542969 C 1124.144531 150.414062 1128.875 147.203125 1133.785156 144.339844 C 1138.640625 141.453125 1143.453125 138.394531 1148.429688 135.59375 C 1153.371094 132.746094 1158.28125 129.839844 1163.324219 127.261719 C 1168.480469 124.554688 1173.585938 121.964844 1178.804688 119.585938 C 1183.984375 117.140625 1189.164062 114.695312 1194.429688 112.210938 L 1202.332031 108.433594 C 1204.972656 107.191406 1207.65625 106.035156 1210.316406 104.828125 L 1218.304688 101.230469 L 1226.371094 97.800781 C 1229.046875 96.632812 1231.734375 95.460938 1234.425781 94.285156 C 1236.34375 93.476562 1238.265625 92.664062 1240.1875 91.851562 C 1240.4375 90.246094 1240.691406 88.640625 1240.945312 87.035156 C 1240.96875 86.890625 1240.992188 86.742188 1241.011719 86.597656 C 1241.015625 86.578125 1241.019531 86.554688 1241.023438 86.53125 C 1241.371094 84.324219 1241.714844 82.113281 1242.066406 79.90625 C 1239.417969 80.96875 1236.785156 82.0625 1234.144531 83.148438 C 1223.335938 87.707031 1212.726562 92.71875 1202.179688 97.839844 Z M 1104.164062 58.125 L 1110.40625 52.460938 C 1112.457031 50.542969 1114.382812 48.488281 1116.453125 46.589844 C 1118.527344 44.699219 1120.347656 42.523438 1122.445312 40.652344 C 1124.53125 38.773438 1126.863281 37.164062 1128.953125 35.289062 C 1131.0625 33.429688 1133.074219 31.46875 1135.1875 29.617188 C 1137.316406 27.734375 1139.890625 26.386719 1142.097656 24.59375 C 1143.761719 23.246094 1145.34375 21.792969 1146.984375 20.414062 C 1144.5625 20.160156 1142.144531 19.917969 1139.722656 19.667969 C 1139.152344 19.609375 1138.582031 19.550781 1138.007812 19.492188 C 1137.789062 19.46875 1137.566406 19.449219 1137.34375 19.425781 C 1136.152344 19.300781 1134.957031 19.179688 1133.761719 19.058594 C 1132.960938 19.496094 1132.171875 19.949219 1131.421875 20.464844 C 1129.0625 22.109375 1126.707031 23.773438 1124.421875 25.519531 C 1122.125 27.261719 1120.199219 29.460938 1117.96875 31.277344 C 1115.738281 33.097656 1113.449219 34.84375 1111.246094 36.695312 C 1109.082031 38.507812 1107.09375 40.527344 1104.945312 42.355469 C 1102.808594 44.199219 1100.136719 45.425781 1098.011719 47.289062 C 1096.429688 48.667969 1095.046875 50.269531 1093.582031 51.78125 C 1093.546875 53.6875 1093.507812 55.597656 1093.457031 57.503906 C 1094.933594 56.082031 1096.398438 54.644531 1097.917969 53.261719 C 1100.003906 51.351562 1101.941406 49.269531 1104.066406 47.398438 C 1106.195312 45.53125 1108.597656 43.988281 1110.765625 42.171875 C 1112.933594 40.355469 1114.894531 38.289062 1117.089844 36.507812 C 1118.007812 35.761719 1119.007812 35.121094 1120.019531 34.496094 C 1119.597656 34.839844 1119.171875 35.183594 1118.773438 35.550781 C 1116.6875 37.457031 1115.105469 39.902344 1113.050781 41.835938 C 1110.996094 43.773438 1108.5 45.242188 1106.472656 47.210938 C 1104.441406 49.175781 1102.722656 51.457031 1100.699219 53.425781 C 1098.675781 55.421875 1096.40625 57.171875 1094.375 59.164062 C 1094.03125 59.5 1093.703125 59.847656 1093.371094 60.195312 C 1093.367188 60.316406 1093.363281 60.441406 1093.359375 60.5625 C 1093.28125 63.042969 1093.191406 65.527344 1093.085938 68.007812 L 1097.578125 63.730469 C 1099.683594 61.765625 1102.066406 60.09375 1104.164062 58.125 Z M 1104.164062 58.125 " fill-opacity="1" fill-rule="nonzero"/></g><g clip-path="url(#e8e665e9ef)"><path fill="#ceb7ff" d="M 1303.476562 69.519531 C 1314.015625 60.417969 1320.265625 42.535156 1323.96875 25.015625 C 1329.679688 -2.011719 1353.300781 -21.492188 1380.925781 -21.492188 C 1402.996094 -21.492188 1423.164062 -9 1432.984375 10.769531 C 1436.242188 17.328125 1440.210938 25.210938 1445.050781 34.6875 C 1472.015625 87.496094 1468.644531 184.125 1468.644531 184.125 L 1239.433594 184.125 C 1238.308594 88.621094 1278.757812 90.867188 1303.476562 69.519531 Z M 1303.476562 69.519531 " fill-opacity="1" fill-rule="nonzero"/></g><g clip-path="url(#536f1e0f39)"><path fill="#2b529d" d="M 1443.472656 -4.449219 C 1438.300781 -8.226562 1432.882812 -8.207031 1427.78125 -6.273438 C 1418.746094 -6.015625 1408.953125 0.253906 1403.371094 6.285156 C 1393.824219 16.609375 1388.703125 32.417969 1394.65625 45.804688 C 1401.644531 61.507812 1419.875 60.558594 1432.679688 52.542969 C 1444.910156 44.890625 1453.597656 30.746094 1453.054688 16.078125 C 1452.773438 8.464844 1449.8125 0.179688 1443.472656 -4.449219 Z M 1442.882812 23.589844 C 1439.84375 35.917969 1429.285156 46.621094 1416.585938 48.714844 C 1400.371094 51.394531 1398.914062 31.894531 1403.242188 20.917969 C 1405.628906 14.863281 1409.957031 9.394531 1415.164062 5.511719 C 1417.15625 4.027344 1419.691406 2.503906 1422.410156 1.386719 C 1429.308594 0.179688 1437.015625 -0.316406 1441.078125 6.421875 C 1444.152344 11.523438 1444.273438 17.949219 1442.882812 23.589844 Z M 1486 64.414062 C 1485.242188 57.542969 1482.222656 50.328125 1475.769531 47.003906 C 1472.378906 45.257812 1467.757812 45.046875 1464.003906 46.503906 C 1453.675781 46.636719 1445.128906 54.9375 1439.964844 64.117188 C 1433.824219 75.03125 1428.851562 89.894531 1438.253906 100.550781 C 1447.496094 111.03125 1463.507812 105.261719 1472.511719 97.492188 C 1481.832031 89.449219 1487.359375 76.738281 1486 64.414062 Z M 1476.234375 73.761719 C 1474.136719 83.480469 1466.949219 92.269531 1457.527344 95.699219 C 1452.039062 97.703125 1446.378906 97.613281 1443.199219 92.070312 C 1440.207031 86.855469 1441.582031 80.574219 1443.496094 75.25 C 1446.421875 67.101562 1452.023438 57.285156 1460.292969 53.542969 C 1460.660156 53.65625 1461.085938 53.648438 1461.578125 53.445312 C 1474.058594 48.246094 1478.210938 64.589844 1476.234375 73.761719 Z M 1399.21875 89.703125 C 1398.773438 89.03125 1398.265625 88.335938 1397.707031 87.632812 C 1397.347656 84.898438 1396.710938 82.28125 1396.285156 80.476562 C 1394.785156 74.089844 1390.941406 70.09375 1384.039062 71 C 1382.320312 71.226562 1380.691406 71.757812 1379.175781 72.523438 C 1375.132812 72.714844 1372.226562 77.734375 1370.328125 81.160156 C 1367.035156 87.105469 1365.382812 93.847656 1365.066406 100.613281 C 1364.769531 106.972656 1365.367188 114.878906 1369.386719 120.105469 C 1373.441406 125.375 1380.242188 126.574219 1386.25 124.132812 C 1398.210938 119.269531 1406.648438 101.019531 1399.21875 89.703125 Z M 1380.011719 116.535156 C 1373.527344 116.691406 1372.167969 107.3125 1372.082031 101.144531 C 1372.351562 101.738281 1372.628906 102.335938 1372.917969 102.9375 C 1373.734375 104.628906 1376.789062 103.871094 1376.566406 101.949219 C 1376.078125 97.691406 1375.796875 91.71875 1377.347656 86.910156 C 1377.671875 86.671875 1377.9375 86.347656 1378.09375 85.949219 C 1379.152344 83.210938 1386.363281 89.796875 1387.378906 90.707031 C 1388.613281 91.8125 1389.882812 92.996094 1390.902344 94.328125 C 1390.886719 94.480469 1390.859375 94.617188 1390.828125 94.75 C 1389.792969 94.972656 1389.085938 96.175781 1389.65625 97.3125 C 1390.050781 98.09375 1390.296875 98.441406 1390.878906 99.070312 C 1391.441406 99.671875 1392.1875 99.882812 1392.933594 99.828125 C 1392.902344 105.859375 1386.550781 116.378906 1380.011719 116.535156 Z M 1452.648438 121.199219 C 1449.429688 122.054688 1447.570312 123.867188 1446.636719 126.21875 C 1446.449219 126.363281 1446.273438 126.53125 1446.121094 126.734375 C 1439.9375 135.15625 1444.660156 150.476562 1453.394531 155.398438 C 1463.21875 160.933594 1471.097656 150.992188 1471.203125 141.753906 C 1471.308594 132.710938 1463.738281 118.253906 1452.648438 121.199219 Z M 1455.152344 144.359375 C 1455.878906 145.910156 1456.734375 147.378906 1457.667969 148.714844 C 1457.71875 148.78125 1457.773438 148.84375 1457.828125 148.910156 C 1456.988281 148.605469 1456.195312 148.039062 1455.496094 147.371094 C 1455.355469 146.367188 1455.253906 145.363281 1455.152344 144.359375 Z M 1406.863281 148.953125 C 1405.222656 150.242188 1403.300781 150.386719 1401.683594 148.953125 C 1400.460938 147.867188 1399.289062 146.359375 1398.429688 144.675781 C 1394.972656 140.359375 1395 133.378906 1399.085938 129.367188 C 1400.5625 127.917969 1402.457031 127.941406 1404.25 128.703125 C 1411.707031 131.867188 1413.140625 144.027344 1406.863281 148.953125 Z M 1406.863281 148.953125 " fill-opacity="1" fill-rule="nonzero"/></g><g clip-path="url(#f1ca3a6f51)"><path fill="#ffffff" d="M 35.636719 0 L 1097.636719 0 L 1097.636719 324 L 35.636719 324 Z M 35.636719 0 " fill-opacity="1" fill-rule="nonzero"/></g><g fill="#000000" fill-opacity="1"><g transform="translate(37.885532, 181.876018)"><g><path d="M 13.5625 -9.28125 C 6.863281 -15.851562 3.515625 -24.179688 3.515625 -34.265625 C 3.515625 -44.359375 6.882812 -52.691406 13.625 -59.265625 C 20.363281 -65.835938 28.613281 -69.125 38.375 -69.125 C 45.789062 -69.125 52.378906 -67.234375 58.140625 -63.453125 C 63.898438 -59.679688 68.019531 -54.378906 70.5 -47.546875 L 54 -47.546875 C 50.9375 -53.535156 45.726562 -56.53125 38.375 -56.53125 C 32.1875 -56.53125 27.15625 -54.492188 23.28125 -50.421875 C 19.414062 -46.359375 17.484375 -40.957031 17.484375 -34.21875 C 17.484375 -27.488281 19.414062 -22.085938 23.28125 -18.015625 C 27.15625 -13.941406 32.1875 -11.90625 38.375 -11.90625 C 45.664062 -11.90625 50.875 -14.898438 54 -20.890625 L 70.5 -20.890625 C 68.019531 -14.054688 63.898438 -8.769531 58.140625 -5.03125 C 52.378906 -1.289062 45.789062 0.578125 38.375 0.578125 C 28.539062 0.578125 20.269531 -2.707031 13.5625 -9.28125 Z M 13.5625 -9.28125 "/></g></g></g><g fill="#000000" fill-opacity="1"><g transform="translate(112.97076, 181.876018)"><g><path d="M 31.34375 -10.84375 C 35.1875 -10.84375 38.488281 -12.253906 41.25 -15.078125 C 44.019531 -17.910156 45.40625 -21.914062 45.40625 -27.09375 C 45.40625 -32.269531 44.035156 -36.253906 41.296875 -39.046875 C 38.566406 -41.847656 35.265625 -43.25 31.390625 -43.25 C 27.515625 -43.25 24.242188 -41.847656 21.578125 -39.046875 C 18.910156 -36.253906 17.578125 -32.253906 17.578125 -27.046875 C 17.578125 -21.835938 18.910156 -17.832031 21.578125 -15.03125 C 24.242188 -12.238281 27.5 -10.84375 31.34375 -10.84375 Z M 11.515625 -6.921875 C 6.242188 -12.066406 3.609375 -18.804688 3.609375 -27.140625 C 3.609375 -35.472656 6.273438 -42.175781 11.609375 -47.25 C 16.953125 -52.332031 23.578125 -54.875 31.484375 -54.875 C 39.398438 -54.875 46.023438 -52.332031 51.359375 -47.25 C 56.691406 -42.175781 59.359375 -35.472656 59.359375 -27.140625 C 59.359375 -18.804688 56.671875 -12.066406 51.296875 -6.921875 C 45.929688 -1.785156 39.28125 0.78125 31.34375 0.78125 C 23.40625 0.78125 16.796875 -1.785156 11.515625 -6.921875 Z M 11.515625 -6.921875 "/></g></g></g><g fill="#000000" fill-opacity="1"><g transform="translate(175.948613, 181.876018)"><g><path d="M 44.625 -54.09375 L 58.390625 -54.09375 L 58.390625 0 L 44.625 0 L 44.625 -8.203125 C 41.175781 -2.273438 35.546875 0.6875 27.734375 0.6875 C 21.609375 0.6875 16.59375 -1.34375 12.6875 -5.40625 C 8.78125 -9.476562 6.828125 -15.128906 6.828125 -22.359375 L 6.828125 -54.09375 L 20.5 -54.09375 L 20.5 -24.3125 C 20.5 -20.082031 21.570312 -16.828125 23.71875 -14.546875 C 25.875 -12.265625 28.804688 -11.125 32.515625 -11.125 C 36.222656 -11.125 39.164062 -12.265625 41.34375 -14.546875 C 43.53125 -16.828125 44.625 -20.082031 44.625 -24.3125 Z M 44.625 -54.09375 "/></g></g></g><g fill="#000000" fill-opacity="1"><g transform="translate(241.660393, 181.876018)"><g><path d="M 21.09375 -54.09375 L 21.09375 -44.53125 C 24.738281 -51.425781 30.007812 -54.875 36.90625 -54.875 L 36.90625 -40.8125 L 33.484375 -40.8125 C 29.390625 -40.8125 26.300781 -39.785156 24.21875 -37.734375 C 22.132812 -35.679688 21.09375 -32.148438 21.09375 -27.140625 L 21.09375 0 L 7.328125 0 L 7.328125 -54.09375 Z M 21.09375 -54.09375 "/></g></g></g><g fill="#000000" fill-opacity="1"><g transform="translate(281.009359, 181.876018)"><g><path d="M 4.296875 -38.28125 C 4.296875 -42.96875 6.28125 -46.90625 10.25 -50.09375 C 14.21875 -53.28125 19.488281 -54.875 26.0625 -54.875 C 32.644531 -54.875 37.921875 -53.296875 41.890625 -50.140625 C 45.859375 -46.984375 47.972656 -42.703125 48.234375 -37.296875 L 34.171875 -37.296875 C 33.785156 -41.859375 30.988281 -44.140625 25.78125 -44.140625 C 23.175781 -44.140625 21.15625 -43.617188 19.71875 -42.578125 C 18.289062 -41.535156 17.578125 -40.101562 17.578125 -38.28125 C 17.578125 -36.457031 18.648438 -35.023438 20.796875 -33.984375 C 22.941406 -32.941406 25.546875 -32.125 28.609375 -31.53125 C 31.671875 -30.945312 34.710938 -30.210938 37.734375 -29.328125 C 40.765625 -28.453125 43.351562 -26.890625 45.5 -24.640625 C 47.644531 -22.398438 48.71875 -19.425781 48.71875 -15.71875 C 48.71875 -10.832031 46.648438 -6.859375 42.515625 -3.796875 C 38.390625 -0.742188 33.117188 0.78125 26.703125 0.78125 C 20.296875 0.78125 15.039062 -0.726562 10.9375 -3.75 C 6.832031 -6.78125 4.585938 -11.128906 4.203125 -16.796875 L 18.265625 -16.796875 C 18.785156 -12.234375 21.679688 -9.953125 26.953125 -9.953125 C 29.484375 -9.953125 31.53125 -10.519531 33.09375 -11.65625 C 34.65625 -12.800781 35.4375 -14.300781 35.4375 -16.15625 C 35.4375 -18.007812 34.363281 -19.472656 32.21875 -20.546875 C 30.070312 -21.628906 27.46875 -22.460938 24.40625 -23.046875 C 21.351562 -23.628906 18.3125 -24.34375 15.28125 -25.1875 C 12.25 -26.03125 9.660156 -27.539062 7.515625 -29.71875 C 5.367188 -31.90625 4.296875 -34.757812 4.296875 -38.28125 Z M 4.296875 -38.28125 "/></g></g></g><g fill="#000000" fill-opacity="1"><g transform="translate(334.125577, 181.876018)"><g><path d="M 30.171875 0.78125 C 22.296875 0.78125 15.882812 -1.769531 10.9375 -6.875 C 5.988281 -11.988281 3.515625 -18.742188 3.515625 -27.140625 C 3.515625 -35.535156 6.003906 -42.253906 10.984375 -47.296875 C 15.960938 -52.347656 22.40625 -54.875 30.3125 -54.875 C 38.226562 -54.875 44.722656 -52.414062 49.796875 -47.5 C 54.867188 -42.582031 57.40625 -36.023438 57.40625 -27.828125 C 57.40625 -25.941406 57.273438 -24.1875 57.015625 -22.5625 L 17.578125 -22.5625 C 17.898438 -19.039062 19.195312 -16.207031 21.46875 -14.0625 C 23.75 -11.914062 26.648438 -10.84375 30.171875 -10.84375 C 34.921875 -10.84375 38.4375 -12.796875 40.71875 -16.703125 L 55.5625 -16.703125 C 54 -11.554688 50.96875 -7.351562 46.46875 -4.09375 C 41.976562 -0.84375 36.546875 0.78125 30.171875 0.78125 Z M 43.15625 -31.4375 C 42.957031 -35.019531 41.640625 -37.882812 39.203125 -40.03125 C 36.765625 -42.175781 33.816406 -43.25 30.359375 -43.25 C 26.910156 -43.25 24.03125 -42.175781 21.71875 -40.03125 C 19.414062 -37.882812 18.035156 -35.019531 17.578125 -31.4375 Z M 43.15625 -31.4375 "/></g></g></g><g fill="#000000" fill-opacity="1"><g transform="translate(395.053006, 181.876018)"><g/></g></g><g fill="#000000" fill-opacity="1"><g transform="translate(424.345031, 181.876018)"><g><path d="M 53.40625 -18.015625 C 57.25 -22.085938 59.171875 -27.503906 59.171875 -34.265625 C 59.171875 -41.035156 57.25 -46.4375 53.40625 -50.46875 C 49.570312 -54.507812 44.5625 -56.53125 38.375 -56.53125 C 32.1875 -56.53125 27.15625 -54.492188 23.28125 -50.421875 C 19.414062 -46.359375 17.484375 -40.957031 17.484375 -34.21875 C 17.484375 -27.488281 19.414062 -22.085938 23.28125 -18.015625 C 27.15625 -13.941406 32.1875 -11.90625 38.375 -11.90625 C 44.5625 -11.90625 49.570312 -13.941406 53.40625 -18.015625 Z M 38.359375 0.6875 C 28.535156 0.6875 20.269531 -2.597656 13.5625 -9.171875 C 6.863281 -15.753906 3.515625 -24.101562 3.515625 -34.21875 C 3.515625 -44.34375 6.882812 -52.691406 13.625 -59.265625 C 20.363281 -65.835938 28.628906 -69.125 38.421875 -69.125 C 48.210938 -69.125 56.460938 -65.835938 63.171875 -59.265625 C 69.878906 -52.691406 73.234375 -44.34375 73.234375 -34.21875 C 73.234375 -24.101562 69.878906 -15.753906 63.171875 -9.171875 C 56.460938 -2.597656 48.191406 0.6875 38.359375 0.6875 Z M 38.359375 0.6875 "/></g></g></g><g fill="#000000" fill-opacity="1"><g transform="translate(501.090144, 181.876018)"><g><path d="M 44.625 -54.09375 L 58.390625 -54.09375 L 58.390625 0 L 44.625 0 L 44.625 -8.203125 C 41.175781 -2.273438 35.546875 0.6875 27.734375 0.6875 C 21.609375 0.6875 16.59375 -1.34375 12.6875 -5.40625 C 8.78125 -9.476562 6.828125 -15.128906 6.828125 -22.359375 L 6.828125 -54.09375 L 20.5 -54.09375 L 20.5 -24.3125 C 20.5 -20.082031 21.570312 -16.828125 23.71875 -14.546875 C 25.875 -12.265625 28.804688 -11.125 32.515625 -11.125 C 36.222656 -11.125 39.164062 -12.265625 41.34375 -14.546875 C 43.53125 -16.828125 44.625 -20.082031 44.625 -24.3125 Z M 44.625 -54.09375 "/></g></g></g><g fill="#000000" fill-opacity="1"><g transform="translate(566.801924, 181.876018)"><g><path d="M 28.3125 -11.515625 L 34.859375 -11.515625 L 34.859375 0 L 26.171875 0 C 20.640625 0 16.375 -1.265625 13.375 -3.796875 C 10.382812 -6.335938 8.890625 -10.539062 8.890625 -16.40625 L 8.890625 -42.859375 L 3.125 -42.859375 L 3.125 -54.09375 L 8.890625 -54.09375 L 8.890625 -67.46875 L 22.65625 -67.46875 L 22.65625 -54.09375 L 34.765625 -54.09375 L 34.765625 -42.859375 L 22.65625 -42.859375 L 22.65625 -16.40625 C 22.65625 -14.644531 23.078125 -13.390625 23.921875 -12.640625 C 24.765625 -11.890625 26.226562 -11.515625 28.3125 -11.515625 Z M 28.3125 -11.515625 "/></g></g></g><g fill="#000000" fill-opacity="1"><g transform="translate(605.076832, 181.876018)"><g><path d="M 7.328125 0 L 7.328125 -72.25 L 21.09375 -72.25 L 21.09375 0 Z M 7.328125 0 "/></g></g></g><g fill="#000000" fill-opacity="1"><g transform="translate(633.490078, 181.876018)"><g><path d="M 22.5625 -67.859375 C 22.5625 -65.515625 21.742188 -63.53125 20.109375 -61.90625 C 18.484375 -60.28125 16.515625 -59.46875 14.203125 -59.46875 C 11.890625 -59.46875 9.921875 -60.28125 8.296875 -61.90625 C 6.671875 -63.53125 5.859375 -65.515625 5.859375 -67.859375 C 5.859375 -70.203125 6.671875 -72.1875 8.296875 -73.8125 C 9.921875 -75.4375 11.890625 -76.25 14.203125 -76.25 C 16.515625 -76.25 18.484375 -75.4375 20.109375 -73.8125 C 21.742188 -72.1875 22.5625 -70.203125 22.5625 -67.859375 Z M 7.328125 0 L 7.328125 -54.09375 L 21.09375 -54.09375 L 21.09375 0 Z M 7.328125 0 "/></g></g></g><g fill="#000000" fill-opacity="1"><g transform="translate(661.903359, 181.876018)"><g><path d="M 21.09375 -54.09375 L 21.09375 -45.984375 C 24.539062 -51.910156 30.140625 -54.875 37.890625 -54.875 C 44.066406 -54.875 49.109375 -52.835938 53.015625 -48.765625 C 56.921875 -44.703125 58.875 -39.054688 58.875 -31.828125 L 58.875 0 L 45.203125 0 L 45.203125 -29.875 C 45.203125 -34.101562 44.128906 -37.34375 41.984375 -39.59375 C 39.835938 -41.84375 36.90625 -42.96875 33.1875 -42.96875 C 29.476562 -42.96875 26.535156 -41.84375 24.359375 -39.59375 C 22.179688 -37.34375 21.09375 -34.101562 21.09375 -29.875 L 21.09375 0 L 7.328125 0 L 7.328125 -54.09375 Z M 21.09375 -54.09375 "/></g></g></g><g fill="#000000" fill-opacity="1"><g transform="translate(727.615139, 181.876018)"><g><path d="M 30.171875 0.78125 C 22.296875 0.78125 15.882812 -1.769531 10.9375 -6.875 C 5.988281 -11.988281 3.515625 -18.742188 3.515625 -27.140625 C 3.515625 -35.535156 6.003906 -42.253906 10.984375 -47.296875 C 15.960938 -52.347656 22.40625 -54.875 30.3125 -54.875 C 38.226562 -54.875 44.722656 -52.414062 49.796875 -47.5 C 54.867188 -42.582031 57.40625 -36.023438 57.40625 -27.828125 C 57.40625 -25.941406 57.273438 -24.1875 57.015625 -22.5625 L 17.578125 -22.5625 C 17.898438 -19.039062 19.195312 -16.207031 21.46875 -14.0625 C 23.75 -11.914062 26.648438 -10.84375 30.171875 -10.84375 C 34.921875 -10.84375 38.4375 -12.796875 40.71875 -16.703125 L 55.5625 -16.703125 C 54 -11.554688 50.96875 -7.351562 46.46875 -4.09375 C 41.976562 -0.84375 36.546875 0.78125 30.171875 0.78125 Z M 43.15625 -31.4375 C 42.957031 -35.019531 41.640625 -37.882812 39.203125 -40.03125 C 36.765625 -42.175781 33.816406 -43.25 30.359375 -43.25 C 26.910156 -43.25 24.03125 -42.175781 21.71875 -40.03125 C 19.414062 -37.882812 18.035156 -35.019531 17.578125 -31.4375 Z M 43.15625 -31.4375 "/></g></g></g><g fill="#000000" fill-opacity="1"><g transform="translate(37.885532, 81.443738)"><g><path d="M 3.453125 -1.453125 L 6.109375 -1.453125 C 7.921875 -1.453125 9.300781 -1.945312 10.25 -2.9375 C 11.207031 -3.9375 11.6875 -5.328125 11.6875 -7.109375 C 11.6875 -8.898438 11.207031 -10.296875 10.25 -11.296875 C 9.300781 -12.296875 7.921875 -12.796875 6.109375 -12.796875 L 3.453125 -12.796875 Z M 6.109375 -14.390625 C 8.429688 -14.390625 10.265625 -13.738281 11.609375 -12.4375 C 12.953125 -11.132812 13.625 -9.363281 13.625 -7.125 C 13.625 -4.882812 12.953125 -3.132812 11.609375 -1.875 C 10.265625 -0.625 8.429688 0 6.109375 0 L 1.5625 0 L 1.5625 -14.390625 Z M 6.109375 -14.390625 "/></g></g></g><g fill="#000000" fill-opacity="1"><g transform="translate(53.371573, 81.443738)"><g><path d="M 11.484375 0 L 10.359375 -3.15625 L 3.96875 -3.15625 L 2.84375 0 L 0.90625 0 L 6.140625 -14.390625 L 8.21875 -14.390625 L 13.4375 0 Z M 4.5 -4.65625 L 9.828125 -4.65625 L 7.171875 -12.078125 Z M 4.5 -4.65625 "/></g></g></g><g fill="#000000" fill-opacity="1"><g transform="translate(68.753815, 81.443738)"><g><path d="M 0.90625 -12.875 L 0.90625 -14.390625 L 10.40625 -14.390625 L 10.40625 -12.875 L 6.609375 -12.875 L 6.609375 0 L 4.71875 0 L 4.71875 -12.875 Z M 0.90625 -12.875 "/></g></g></g><g fill="#000000" fill-opacity="1"><g transform="translate(81.126035, 81.443738)"><g><path d="M 11.484375 0 L 10.359375 -3.15625 L 3.96875 -3.15625 L 2.84375 0 L 0.90625 0 L 6.140625 -14.390625 L 8.21875 -14.390625 L 13.4375 0 Z M 4.5 -4.65625 L 9.828125 -4.65625 L 7.171875 -12.078125 Z M 4.5 -4.65625 "/></g></g></g><g fill="#000000" fill-opacity="1"><g transform="translate(96.508279, 81.443738)"><g/></g></g><g fill="#000000" fill-opacity="1"><g transform="translate(103.773848, 81.443738)"><g><path d="M 3.09375 -10.546875 C 3.09375 -10.023438 3.238281 -9.585938 3.53125 -9.234375 C 3.820312 -8.890625 4.195312 -8.632812 4.65625 -8.46875 C 5.113281 -8.300781 5.617188 -8.15625 6.171875 -8.03125 C 6.734375 -7.90625 7.296875 -7.765625 7.859375 -7.609375 C 8.421875 -7.453125 8.929688 -7.25 9.390625 -7 C 9.847656 -6.75 10.21875 -6.375 10.5 -5.875 C 10.789062 -5.375 10.9375 -4.757812 10.9375 -4.03125 C 10.9375 -2.90625 10.507812 -1.925781 9.65625 -1.09375 C 8.800781 -0.269531 7.640625 0.140625 6.171875 0.140625 C 4.710938 0.140625 3.523438 -0.191406 2.609375 -0.859375 C 1.703125 -1.535156 1.25 -2.445312 1.25 -3.59375 L 3.265625 -3.59375 C 3.316406 -2.9375 3.570312 -2.40625 4.03125 -2 C 4.5 -1.601562 5.1875 -1.40625 6.09375 -1.40625 C 7.007812 -1.40625 7.738281 -1.640625 8.28125 -2.109375 C 8.820312 -2.585938 9.09375 -3.140625 9.09375 -3.765625 C 9.09375 -4.398438 8.945312 -4.882812 8.65625 -5.21875 C 8.363281 -5.5625 7.988281 -5.816406 7.53125 -5.984375 C 7.082031 -6.148438 6.578125 -6.289062 6.015625 -6.40625 C 5.453125 -6.519531 4.890625 -6.660156 4.328125 -6.828125 C 3.765625 -6.992188 3.253906 -7.203125 2.796875 -7.453125 C 2.347656 -7.710938 1.976562 -8.09375 1.6875 -8.59375 C 1.394531 -9.101562 1.25 -9.734375 1.25 -10.484375 C 1.25 -11.703125 1.679688 -12.679688 2.546875 -13.421875 C 3.410156 -14.160156 4.535156 -14.53125 5.921875 -14.53125 C 7.316406 -14.53125 8.425781 -14.207031 9.25 -13.5625 C 10.070312 -12.925781 10.546875 -12.039062 10.671875 -10.90625 L 8.578125 -10.90625 C 8.523438 -11.46875 8.257812 -11.945312 7.78125 -12.34375 C 7.300781 -12.75 6.65625 -12.953125 5.84375 -12.953125 C 5.03125 -12.953125 4.367188 -12.75 3.859375 -12.34375 C 3.347656 -11.9375 3.09375 -11.335938 3.09375 -10.546875 Z M 3.09375 -10.546875 "/></g></g></g><g fill="#000000" fill-opacity="1"><g transform="translate(116.99718, 81.443738)"><g><path d="M 8.140625 0.125 C 6.078125 0.125 4.335938 -0.566406 2.921875 -1.953125 C 1.515625 -3.335938 0.8125 -5.09375 0.8125 -7.21875 C 0.8125 -9.34375 1.515625 -11.09375 2.921875 -12.46875 C 4.335938 -13.84375 6.078125 -14.53125 8.140625 -14.53125 C 9.628906 -14.53125 10.957031 -14.175781 12.125 -13.46875 C 13.300781 -12.769531 14.164062 -11.753906 14.71875 -10.421875 L 12.4375 -10.421875 C 11.582031 -12.046875 10.148438 -12.859375 8.140625 -12.859375 C 6.578125 -12.859375 5.285156 -12.34375 4.265625 -11.3125 C 3.242188 -10.28125 2.734375 -8.910156 2.734375 -7.203125 C 2.734375 -5.503906 3.242188 -4.132812 4.265625 -3.09375 C 5.285156 -2.050781 6.578125 -1.53125 8.140625 -1.53125 C 9.097656 -1.53125 9.945312 -1.738281 10.6875 -2.15625 C 11.4375 -2.582031 12.019531 -3.191406 12.4375 -3.984375 L 14.71875 -3.984375 C 14.164062 -2.660156 13.300781 -1.644531 12.125 -0.9375 C 10.957031 -0.226562 9.628906 0.125 8.140625 0.125 Z M 8.140625 0.125 "/></g></g></g><g fill="#000000" fill-opacity="1"><g transform="translate(134.164683, 81.443738)"><g><path d="M 1.5625 0 L 1.5625 -14.390625 L 3.453125 -14.390625 L 3.453125 0 Z M 1.5625 0 "/></g></g></g><g fill="#000000" fill-opacity="1"><g transform="translate(140.205488, 81.443738)"><g><path d="M 9.171875 -14.390625 L 9.171875 -12.890625 L 3.453125 -12.890625 L 3.453125 -8 L 8.5625 -8 L 8.5625 -6.515625 L 3.453125 -6.515625 L 3.453125 -1.5 L 9.171875 -1.5 L 9.171875 0 L 1.5625 0 L 1.5625 -14.390625 Z M 9.171875 -14.390625 "/></g></g></g><g fill="#000000" fill-opacity="1"><g transform="translate(151.726605, 81.443738)"><g><path d="M 11.046875 -14.390625 L 12.9375 -14.390625 L 12.9375 0 L 11.046875 0 L 3.453125 -11.421875 L 3.453125 0 L 1.5625 0 L 1.5625 -14.390625 L 3.453125 -14.390625 L 11.046875 -2.96875 Z M 11.046875 -14.390625 "/></g></g></g><g fill="#000000" fill-opacity="1"><g transform="translate(167.25416, 81.443738)"><g><path d="M 8.140625 0.125 C 6.078125 0.125 4.335938 -0.566406 2.921875 -1.953125 C 1.515625 -3.335938 0.8125 -5.09375 0.8125 -7.21875 C 0.8125 -9.34375 1.515625 -11.09375 2.921875 -12.46875 C 4.335938 -13.84375 6.078125 -14.53125 8.140625 -14.53125 C 9.628906 -14.53125 10.957031 -14.175781 12.125 -13.46875 C 13.300781 -12.769531 14.164062 -11.753906 14.71875 -10.421875 L 12.4375 -10.421875 C 11.582031 -12.046875 10.148438 -12.859375 8.140625 -12.859375 C 6.578125 -12.859375 5.285156 -12.34375 4.265625 -11.3125 C 3.242188 -10.28125 2.734375 -8.910156 2.734375 -7.203125 C 2.734375 -5.503906 3.242188 -4.132812 4.265625 -3.09375 C 5.285156 -2.050781 6.578125 -1.53125 8.140625 -1.53125 C 9.097656 -1.53125 9.945312 -1.738281 10.6875 -2.15625 C 11.4375 -2.582031 12.019531 -3.191406 12.4375 -3.984375 L 14.71875 -3.984375 C 14.164062 -2.660156 13.300781 -1.644531 12.125 -0.9375 C 10.957031 -0.226562 9.628906 0.125 8.140625 0.125 Z M 8.140625 0.125 "/></g></g></g><g fill="#000000" fill-opacity="1"><g transform="translate(184.421663, 81.443738)"><g><path d="M 9.171875 -14.390625 L 9.171875 -12.890625 L 3.453125 -12.890625 L 3.453125 -8 L 8.5625 -8 L 8.5625 -6.515625 L 3.453125 -6.515625 L 3.453125 -1.5 L 9.171875 -1.5 L 9.171875 0 L 1.5625 0 L 1.5625 -14.390625 Z M 9.171875 -14.390625 "/></g></g></g><g fill="#000000" fill-opacity="1"><g transform="translate(195.942779, 81.443738)"><g/></g></g><g fill="#000000" fill-opacity="1"><g transform="translate(203.208348, 81.443738)"><g><path d="M 1.5625 0 L 1.5625 -14.390625 L 9.65625 -14.390625 L 9.65625 -12.875 L 3.453125 -12.875 L 3.453125 -8 L 8.34375 -8 L 8.34375 -6.5 L 3.453125 -6.5 L 3.453125 0 Z M 1.5625 0 "/></g></g></g><g fill="#000000" fill-opacity="1"><g transform="translate(214.418077, 81.443738)"><g><path d="M 9.171875 -14.390625 L 9.171875 -12.890625 L 3.453125 -12.890625 L 3.453125 -8 L 8.5625 -8 L 8.5625 -6.515625 L 3.453125 -6.515625 L 3.453125 -1.5 L 9.171875 -1.5 L 9.171875 0 L 1.5625 0 L 1.5625 -14.390625 Z M 9.171875 -14.390625 "/></g></g></g><g fill="#000000" fill-opacity="1"><g transform="translate(225.939194, 81.443738)"><g><path d="M 1.5625 -14.390625 L 3.453125 -14.390625 L 3.453125 -1.453125 L 8.5 -1.453125 L 8.5 0 L 1.5625 0 Z M 1.5625 -14.390625 "/></g></g></g><g fill="#000000" fill-opacity="1"><g transform="translate(235.882632, 81.443738)"><g><path d="M 1.5625 -14.390625 L 3.453125 -14.390625 L 3.453125 -1.453125 L 8.5 -1.453125 L 8.5 0 L 1.5625 0 Z M 1.5625 -14.390625 "/></g></g></g><g fill="#000000" fill-opacity="1"><g transform="translate(245.826069, 81.443738)"><g><path d="M 12 -3.09375 C 13.007812 -4.132812 13.515625 -5.503906 13.515625 -7.203125 C 13.515625 -8.910156 13.007812 -10.28125 12 -11.3125 C 10.988281 -12.34375 9.695312 -12.859375 8.125 -12.859375 C 6.550781 -12.859375 5.253906 -12.34375 4.234375 -11.3125 C 3.222656 -10.28125 2.71875 -8.910156 2.71875 -7.203125 C 2.71875 -5.503906 3.226562 -4.132812 4.25 -3.09375 C 5.28125 -2.050781 6.578125 -1.53125 8.140625 -1.53125 C 9.703125 -1.53125 10.988281 -2.050781 12 -3.09375 Z M 8.140625 0.140625 C 6.078125 0.140625 4.335938 -0.550781 2.921875 -1.9375 C 1.515625 -3.332031 0.8125 -5.09375 0.8125 -7.21875 C 0.8125 -9.34375 1.515625 -11.09375 2.921875 -12.46875 C 4.335938 -13.84375 6.078125 -14.53125 8.140625 -14.53125 C 10.203125 -14.53125 11.9375 -13.84375 13.34375 -12.46875 C 14.75 -11.09375 15.453125 -9.335938 15.453125 -7.203125 C 15.453125 -5.066406 14.75 -3.304688 13.34375 -1.921875 C 11.9375 -0.546875 10.203125 0.140625 8.140625 0.140625 Z M 8.140625 0.140625 "/></g></g></g><g fill="#000000" fill-opacity="1"><g transform="translate(263.097353, 81.443738)"><g><path d="M 17.859375 -14.390625 L 19.859375 -14.390625 L 15.484375 0 L 13.375 0 L 10.140625 -11.625 L 6.671875 0 L 4.5625 0.015625 L 0.5 -14.390625 L 2.484375 -14.390625 L 5.6875 -2.15625 L 9.171875 -14.390625 L 11.25 -14.390625 L 14.46875 -2.203125 Z M 17.859375 -14.390625 "/></g></g></g><g fill="#000000" fill-opacity="1"><g transform="translate(284.478882, 81.443738)"><g><path d="M 3.09375 -10.546875 C 3.09375 -10.023438 3.238281 -9.585938 3.53125 -9.234375 C 3.820312 -8.890625 4.195312 -8.632812 4.65625 -8.46875 C 5.113281 -8.300781 5.617188 -8.15625 6.171875 -8.03125 C 6.734375 -7.90625 7.296875 -7.765625 7.859375 -7.609375 C 8.421875 -7.453125 8.929688 -7.25 9.390625 -7 C 9.847656 -6.75 10.21875 -6.375 10.5 -5.875 C 10.789062 -5.375 10.9375 -4.757812 10.9375 -4.03125 C 10.9375 -2.90625 10.507812 -1.925781 9.65625 -1.09375 C 8.800781 -0.269531 7.640625 0.140625 6.171875 0.140625 C 4.710938 0.140625 3.523438 -0.191406 2.609375 -0.859375 C 1.703125 -1.535156 1.25 -2.445312 1.25 -3.59375 L 3.265625 -3.59375 C 3.316406 -2.9375 3.570312 -2.40625 4.03125 -2 C 4.5 -1.601562 5.1875 -1.40625 6.09375 -1.40625 C 7.007812 -1.40625 7.738281 -1.640625 8.28125 -2.109375 C 8.820312 -2.585938 9.09375 -3.140625 9.09375 -3.765625 C 9.09375 -4.398438 8.945312 -4.882812 8.65625 -5.21875 C 8.363281 -5.5625 7.988281 -5.816406 7.53125 -5.984375 C 7.082031 -6.148438 6.578125 -6.289062 6.015625 -6.40625 C 5.453125 -6.519531 4.890625 -6.660156 4.328125 -6.828125 C 3.765625 -6.992188 3.253906 -7.203125 2.796875 -7.453125 C 2.347656 -7.710938 1.976562 -8.09375 1.6875 -8.59375 C 1.394531 -9.101562 1.25 -9.734375 1.25 -10.484375 C 1.25 -11.703125 1.679688 -12.679688 2.546875 -13.421875 C 3.410156 -14.160156 4.535156 -14.53125 5.921875 -14.53125 C 7.316406 -14.53125 8.425781 -14.207031 9.25 -13.5625 C 10.070312 -12.925781 10.546875 -12.039062 10.671875 -10.90625 L 8.578125 -10.90625 C 8.523438 -11.46875 8.257812 -11.945312 7.78125 -12.34375 C 7.300781 -12.75 6.65625 -12.953125 5.84375 -12.953125 C 5.03125 -12.953125 4.367188 -12.75 3.859375 -12.34375 C 3.347656 -11.9375 3.09375 -11.335938 3.09375 -10.546875 Z M 3.09375 -10.546875 "/></g></g></g><g fill="#000000" fill-opacity="1"><g transform="translate(297.702214, 81.443738)"><g><path d="M 10.6875 -14.390625 L 12.609375 -14.390625 L 12.609375 0 L 10.6875 0 L 10.6875 -6.5 L 3.453125 -6.5 L 3.453125 0 L 1.5625 0 L 1.5625 -14.390625 L 3.453125 -14.390625 L 3.453125 -8 L 10.6875 -8 Z M 10.6875 -14.390625 "/></g></g></g><g fill="#000000" fill-opacity="1"><g transform="translate(312.897619, 81.443738)"><g><path d="M 1.5625 0 L 1.5625 -14.390625 L 3.453125 -14.390625 L 3.453125 0 Z M 1.5625 0 "/></g></g></g><g fill="#000000" fill-opacity="1"><g transform="translate(318.938425, 81.443738)"><g><path d="M 6.234375 -14.390625 C 7.847656 -14.390625 9.082031 -13.992188 9.9375 -13.203125 C 10.789062 -12.410156 11.21875 -11.398438 11.21875 -10.171875 C 11.21875 -8.941406 10.804688 -7.925781 9.984375 -7.125 C 9.160156 -6.332031 7.910156 -5.9375 6.234375 -5.9375 L 3.453125 -5.9375 L 3.453125 0 L 1.5625 0 L 1.5625 -14.390625 Z M 3.453125 -7.4375 L 6.234375 -7.4375 C 7.265625 -7.4375 8.03125 -7.671875 8.53125 -8.140625 C 9.039062 -8.617188 9.296875 -9.289062 9.296875 -10.15625 C 9.296875 -11.96875 8.273438 -12.875 6.234375 -12.875 L 3.453125 -12.875 Z M 3.453125 -7.4375 "/></g></g></g><g clip-path="url(#480b088982)"><g clip-path="url(#0a6e2b32fd)"><path fill="#edeced" d="M 37.886719 230.59375 L 342.523438 230.59375 L 342.523438 283.179688 L 37.886719 283.179688 Z M 37.886719 230.59375 " fill-opacity="1" fill-rule="nonzero"/></g></g><g clip-path="url(#c0acee23e6)"><path fill="#000000" d="M 58.425781 265.589844 C 58.730469 264.046875 58.96875 262.652344 59.304688 261.285156 C 59.472656 260.597656 59.355469 260.246094 58.65625 260.015625 C 57.613281 259.660156 56.566406 259.183594 55.449219 258.722656 C 56.777344 251.859375 58.101562 245.015625 59.441406 238.089844 C 59.671875 238.160156 59.867188 238.214844 60.058594 238.285156 C 65.28125 240.308594 70.503906 242.359375 75.730469 244.371094 C 76.230469 244.566406 76.367188 244.785156 76.273438 245.308594 C 75.050781 251.839844 73.847656 258.378906 72.617188 264.921875 C 72.53125 265.308594 72.351562 265.664062 72.09375 265.964844 C 69.378906 269.089844 66.640625 272.128906 63.914062 275.214844 C 63.78125 275.382812 63.601562 275.507812 63.398438 275.578125 C 64.015625 272.277344 64.644531 268.984375 65.269531 265.578125 Z M 75.59375 244.890625 L 63.171875 244.890625 C 62.125 249.941406 61.132812 254.964844 60.121094 260.027344 L 65.898438 262.378906 C 66.335938 260.035156 66.742188 257.796875 67.203125 255.566406 C 67.292969 255.128906 67.480469 254.714844 67.757812 254.359375 C 69.011719 252.808594 70.308594 251.234375 71.582031 249.746094 Z M 59.878906 238.816406 C 58.582031 245.378906 57.351562 251.871094 56.097656 258.378906 L 59.628906 259.808594 C 60.671875 254.597656 61.71875 249.390625 62.761719 244.234375 L 73.484375 244.234375 L 73.484375 244.121094 Z M 75.550781 245.902344 C 75.445312 245.988281 75.34375 246.082031 75.25 246.183594 C 72.824219 249.089844 70.410156 251.984375 68.007812 254.902344 C 67.867188 255.089844 67.769531 255.304688 67.726562 255.535156 C 67.378906 257.363281 67.03125 259.179688 66.679688 260.984375 C 66.390625 262.621094 66.390625 262.621094 67.914062 263.246094 L 72.011719 264.910156 C 73.210938 258.558594 74.394531 252.285156 75.574219 245.902344 Z M 71.738281 265.546875 L 67.851562 265.546875 C 67.203125 265.546875 66.390625 265.371094 65.960938 265.691406 C 65.53125 266.015625 65.625 266.828125 65.511719 267.433594 C 65.101562 269.515625 64.726562 271.597656 64.332031 273.683594 L 64.457031 273.746094 Z M 59.136719 264.933594 L 65.40625 264.933594 C 65.5 264.464844 65.5625 264.015625 65.6875 263.578125 C 65.8125 263.140625 65.6875 262.890625 65.238281 262.714844 C 63.691406 262.109375 62.167969 261.464844 60.632812 260.839844 C 60.441406 260.765625 60.246094 260.722656 60.003906 260.652344 C 59.691406 262.109375 59.417969 263.496094 59.136719 264.933594 Z M 70.277344 264.933594 L 70.277344 264.796875 L 66.316406 263.183594 L 65.980469 264.941406 Z M 70.277344 264.933594 " fill-opacity="1" fill-rule="evenodd"/></g><path fill="#000000" d="M 134.859375 252.671875 C 133.878906 256.089844 132.960938 259.316406 132.027344 262.546875 C 132 262.71875 131.929688 262.882812 131.824219 263.019531 C 131.71875 263.160156 131.582031 263.273438 131.429688 263.355469 C 131.273438 263.433594 131.097656 263.472656 130.925781 263.476562 C 130.75 263.476562 130.578125 263.4375 130.421875 263.359375 C 130.296875 263.296875 130.203125 263.1875 130.160156 263.058594 C 128.988281 259.078125 127.820312 255.09375 126.660156 251.109375 C 127.871094 250.777344 127.914062 250.796875 128.234375 251.921875 L 130.679688 260.691406 C 130.742188 260.953125 130.863281 261.195312 131.035156 261.402344 C 132.039062 257.929688 133.035156 254.496094 134.023438 251.097656 C 134.082031 251.074219 134.140625 251.050781 134.203125 251.035156 C 135.644531 250.972656 135.65625 250.972656 136.042969 252.328125 C 136.824219 255.078125 137.609375 257.816406 138.402344 260.566406 C 138.476562 260.867188 138.621094 261.144531 138.820312 261.378906 C 139.792969 257.953125 140.765625 254.527344 141.757812 251.066406 L 143.054688 251.066406 C 142.488281 253.046875 141.945312 254.984375 141.390625 256.921875 C 140.835938 258.859375 140.210938 260.828125 139.675781 262.796875 C 139.519531 263.371094 139.207031 263.464844 138.695312 263.464844 C 138.183594 263.464844 137.890625 263.339844 137.734375 262.765625 C 136.878906 259.640625 135.957031 256.515625 135.058594 253.390625 C 134.996094 253.234375 134.933594 253.058594 134.859375 252.671875 Z M 134.859375 252.671875 " fill-opacity="1" fill-rule="evenodd"/><path fill="#000000" d="M 189.90625 263.546875 L 189.90625 251.046875 C 191.609375 251.046875 193.292969 250.921875 194.953125 251.046875 C 195.566406 251.089844 196.144531 251.335938 196.59375 251.75 C 197.046875 252.167969 197.339844 252.722656 197.429688 253.328125 C 197.597656 253.925781 197.5625 254.5625 197.332031 255.136719 C 197.101562 255.714844 196.6875 256.199219 196.15625 256.515625 C 196.082031 256.515625 196.019531 256.640625 195.894531 256.746094 C 196.1875 256.953125 196.46875 257.128906 196.71875 257.328125 C 197.246094 257.695312 197.648438 258.21875 197.871094 258.820312 C 198.089844 259.425781 198.117188 260.082031 197.953125 260.703125 C 197.855469 261.34375 197.550781 261.933594 197.082031 262.382812 C 196.613281 262.832031 196.007812 263.113281 195.359375 263.183594 C 193.582031 263.464844 191.777344 263.464844 189.90625 263.546875 Z M 191.117188 262.140625 C 192.371094 262.140625 193.53125 262.140625 194.679688 262.140625 C 195.230469 262.125 195.753906 261.902344 196.140625 261.511719 C 196.53125 261.125 196.753906 260.605469 196.769531 260.058594 C 196.800781 259.5 196.621094 258.949219 196.261719 258.519531 C 195.90625 258.085938 195.402344 257.804688 194.847656 257.722656 C 193.769531 257.652344 192.6875 257.652344 191.609375 257.722656 C 191.5 257.761719 191.402344 257.824219 191.324219 257.910156 C 191.246094 257.992188 191.191406 258.09375 191.160156 258.203125 C 191.097656 259.464844 191.117188 260.753906 191.117188 262.140625 Z M 191.117188 256.453125 C 192.425781 256.308594 193.636719 256.234375 194.835938 256.027344 C 195.222656 255.953125 195.566406 255.742188 195.796875 255.429688 C 196.03125 255.113281 196.136719 254.726562 196.089844 254.339844 C 196.089844 253.296875 195.714844 252.535156 194.847656 252.410156 C 193.757812 252.28125 192.65625 252.230469 191.558594 252.265625 C 191.410156 252.265625 191.140625 252.578125 191.140625 252.753906 C 191.128906 253.921875 191.148438 255.097656 191.148438 256.453125 Z M 191.117188 256.453125 " fill-opacity="1" fill-rule="evenodd"/><path fill="#000000" d="M 172.863281 263.347656 C 172.96875 263.109375 173.050781 262.859375 173.15625 262.628906 C 174.734375 259.027344 176.289062 255.421875 177.890625 251.816406 C 177.949219 251.605469 178.078125 251.421875 178.261719 251.296875 C 178.441406 251.175781 178.664062 251.117188 178.882812 251.140625 C 179.089844 251.121094 179.300781 251.175781 179.46875 251.296875 C 179.640625 251.417969 179.761719 251.59375 179.8125 251.796875 C 181.328125 255.433594 182.863281 259.089844 184.398438 262.671875 C 184.484375 262.871094 184.546875 263.066406 184.617188 263.265625 C 183.574219 263.660156 183.324219 263.558594 182.945312 262.660156 C 182.675781 262.015625 182.382812 261.378906 182.140625 260.734375 C 182.101562 260.574219 182.003906 260.433594 181.863281 260.34375 C 181.722656 260.25 181.554688 260.214844 181.390625 260.246094 C 179.582031 260.246094 177.785156 260.246094 175.976562 260.246094 C 175.8125 260.21875 175.644531 260.257812 175.507812 260.351562 C 175.371094 260.441406 175.273438 260.582031 175.234375 260.746094 C 174.996094 261.371094 174.628906 261.953125 174.441406 262.589844 C 174.191406 263.441406 173.667969 263.566406 172.863281 263.347656 Z M 176 258.839844 L 181.316406 258.839844 C 180.449219 256.753906 179.601562 254.671875 178.695312 252.515625 C 177.816406 254.753906 176.949219 256.734375 176.050781 258.839844 Z M 176 258.839844 " fill-opacity="1" fill-rule="evenodd"/><path fill="#000000" d="M 94.652344 262.203125 C 94.652344 262.671875 94.746094 263.015625 94.789062 263.421875 L 86.960938 263.421875 L 86.960938 251.046875 L 94.402344 251.046875 L 94.546875 252.152344 L 88.195312 252.152344 L 88.195312 256.316406 L 93.933594 256.316406 L 93.933594 257.589844 L 88.152344 257.589844 L 88.152344 262.183594 Z M 94.652344 262.203125 " fill-opacity="1" fill-rule="evenodd"/><path fill="#000000" d="M 114.027344 263.328125 L 114.027344 251.058594 L 115.195312 251.058594 L 115.195312 256.265625 C 115.507812 256.027344 115.707031 255.890625 115.886719 255.734375 C 117.316406 254.441406 118.789062 253.191406 120.148438 251.828125 C 120.476562 251.46875 120.894531 251.207031 121.363281 251.074219 C 121.828125 250.941406 122.324219 250.9375 122.792969 251.066406 L 116.730469 256.652344 C 118.875 258.921875 121.003906 261.003906 123.21875 263.328125 C 122.863281 263.441406 122.480469 263.457031 122.113281 263.371094 C 121.746094 263.289062 121.40625 263.113281 121.128906 262.859375 C 119.425781 261.128906 117.640625 259.472656 115.90625 257.785156 C 115.75 257.628906 115.570312 257.472656 115.289062 257.234375 L 115.289062 263.328125 Z M 114.027344 263.328125 " fill-opacity="1" fill-rule="evenodd"/><path fill="#000000" d="M 149.488281 257.578125 L 149.488281 262.253906 L 155.589844 262.253906 L 155.589844 263.371094 L 148.277344 263.371094 L 148.277344 251.078125 L 155.589844 251.078125 L 155.589844 252.121094 L 149.488281 252.121094 L 149.488281 256.285156 L 155.265625 256.285156 L 155.265625 257.515625 Z M 149.488281 257.578125 " fill-opacity="1" fill-rule="evenodd"/><g clip-path="url(#d984fe80e6)"><path fill="#000000" d="M 211.304688 252.308594 L 210.375 253.003906 C 210.105469 252.796875 209.84375 252.589844 209.570312 252.410156 C 209.113281 252.097656 208.582031 251.917969 208.03125 251.882812 C 207.476562 251.851562 206.925781 251.96875 206.4375 252.222656 C 206.078125 252.382812 205.777344 252.644531 205.570312 252.976562 C 205.363281 253.304688 205.257812 253.6875 205.265625 254.078125 C 205.230469 254.46875 205.320312 254.855469 205.519531 255.191406 C 205.71875 255.527344 206.015625 255.792969 206.375 255.953125 C 207.417969 256.390625 208.402344 256.703125 209.402344 257.109375 C 209.910156 257.28125 210.363281 257.574219 210.734375 257.957031 C 211.101562 258.34375 211.367188 258.8125 211.515625 259.324219 C 211.660156 259.839844 211.679688 260.378906 211.570312 260.898438 C 211.460938 261.421875 211.226562 261.90625 210.886719 262.316406 C 209.203125 264.503906 205.128906 264.214844 203.71875 261.765625 L 204.816406 261.003906 C 205.183594 261.65625 205.773438 262.152344 206.480469 262.398438 C 207.183594 262.648438 207.957031 262.628906 208.652344 262.347656 C 209.101562 262.246094 209.503906 261.992188 209.792969 261.632812 C 210.078125 261.269531 210.234375 260.820312 210.230469 260.359375 C 210.28125 259.921875 210.175781 259.480469 209.929688 259.117188 C 209.6875 258.75 209.316406 258.488281 208.890625 258.371094 C 207.847656 257.953125 206.863281 257.621094 205.871094 257.183594 C 205.332031 256.960938 204.867188 256.59375 204.523438 256.125 C 204.183594 255.652344 203.980469 255.09375 203.9375 254.515625 C 203.890625 253.96875 203.96875 253.421875 204.167969 252.910156 C 204.367188 252.398438 204.679688 251.941406 205.082031 251.570312 C 205.484375 251.199219 205.96875 250.921875 206.496094 250.765625 C 207.019531 250.609375 207.574219 250.574219 208.117188 250.660156 C 208.742188 250.671875 209.351562 250.824219 209.90625 251.109375 C 210.457031 251.394531 210.9375 251.804688 211.304688 252.308594 Z M 211.304688 252.308594 " fill-opacity="1" fill-rule="evenodd"/></g><path fill="#000000" d="M 100.109375 261.839844 L 101.078125 261.097656 C 101.078125 261.160156 101.078125 261.234375 101.027344 261.296875 C 101.871094 261.753906 102.753906 262.140625 103.660156 262.453125 C 104.226562 262.554688 104.808594 262.480469 105.332031 262.246094 C 105.738281 262.109375 106.089844 261.847656 106.335938 261.5 C 106.582031 261.152344 106.710938 260.734375 106.699219 260.308594 C 106.714844 259.894531 106.597656 259.488281 106.367188 259.148438 C 106.136719 258.804688 105.804688 258.542969 105.414062 258.402344 C 104.371094 257.972656 103.386719 257.640625 102.394531 257.203125 C 101.6875 256.933594 101.097656 256.421875 100.726562 255.761719 C 100.359375 255.101562 100.234375 254.332031 100.378906 253.589844 C 100.539062 252.707031 101.019531 251.910156 101.726562 251.359375 C 102.4375 250.804688 103.324219 250.53125 104.222656 250.589844 C 104.890625 250.582031 105.546875 250.726562 106.148438 251.011719 C 106.75 251.296875 107.277344 251.714844 107.695312 252.234375 C 107.035156 253.046875 106.953125 253.066406 106.15625 252.496094 C 105.699219 252.136719 105.144531 251.917969 104.5625 251.871094 C 103.980469 251.828125 103.398438 251.953125 102.886719 252.234375 C 102.53125 252.390625 102.230469 252.648438 102.019531 252.972656 C 101.8125 253.300781 101.703125 253.679688 101.707031 254.066406 C 101.671875 254.449219 101.753906 254.832031 101.941406 255.167969 C 102.128906 255.503906 102.410156 255.777344 102.75 255.953125 C 103.324219 256.234375 103.953125 256.441406 104.558594 256.671875 C 104.871094 256.796875 105.195312 256.878906 105.507812 256.996094 C 106.257812 257.175781 106.917969 257.613281 107.375 258.230469 C 107.832031 258.847656 108.054688 259.605469 108.007812 260.371094 C 107.949219 261.199219 107.605469 261.984375 107.035156 262.59375 C 106.464844 263.199219 105.699219 263.59375 104.871094 263.703125 C 103.984375 263.859375 103.066406 263.769531 102.226562 263.441406 C 101.386719 263.109375 100.652344 262.558594 100.109375 261.839844 Z M 100.109375 261.839844 " fill-opacity="1" fill-rule="evenodd"/><path fill="#000000" d="M 162.277344 263.378906 L 162.277344 251.078125 L 163.492188 251.078125 L 163.492188 262.046875 L 169.152344 262.046875 L 169.152344 263.339844 Z M 162.277344 263.378906 " fill-opacity="1" fill-rule="evenodd"/></svg>