<svg xmlns="http://www.w3.org/2000/svg" xmlns:xlink="http://www.w3.org/1999/xlink" width="1768" zoomAndPan="magnify" viewBox="0 0 1326 296.250004" height="395" preserveAspectRatio="xMidYMid meet" version="1.0"><defs><clipPath id="c135a8b70b"><path d="M 1.675781 0 L 1324.324219 0 L 1324.324219 295.5 L 1.675781 295.5 Z M 1.675781 0 " clip-rule="nonzero"/></clipPath><clipPath id="30c6c42df4"><path d="M 109.269531 28.957031 L 860.367188 28.957031 L 860.367188 221.21875 L 109.269531 221.21875 Z M 109.269531 28.957031 " clip-rule="nonzero"/></clipPath><clipPath id="edc306b308"><path d="M 1.675781 0 L 1324.136719 0 L 1324.136719 294.753906 L 1.675781 294.753906 Z M 1.675781 0 " clip-rule="nonzero"/></clipPath><clipPath id="75e0c4727c"><path d="M 1.675781 1.246094 L 1312.839844 1.246094 L 1312.839844 294.753906 L 1.675781 294.753906 Z M 1.675781 1.246094 " clip-rule="nonzero"/></clipPath><clipPath id="034bf00081"><path d="M 1027 1.246094 L 1320 1.246094 L 1320 294.753906 L 1027 294.753906 Z M 1027 1.246094 " clip-rule="nonzero"/></clipPath><clipPath id="e25e40d93e"><path d="M 939.050781 14 L 1312 14 L 1312 294.753906 L 939.050781 294.753906 Z M 939.050781 14 " clip-rule="nonzero"/></clipPath><clipPath id="90752842b5"><path d="M 946 17.328125 L 1106 17.328125 L 1106 294.753906 L 946 294.753906 Z M 946 17.328125 " clip-rule="nonzero"/></clipPath><clipPath id="a89477632e"><path d="M 1097 1.246094 L 1306.785156 1.246094 L 1306.785156 168 L 1097 168 Z M 1097 1.246094 " clip-rule="nonzero"/></clipPath><clipPath id="d604ccb124"><path d="M 1211.886719 1.246094 L 1323 1.246094 L 1323 143.191406 L 1211.886719 143.191406 Z M 1211.886719 1.246094 " clip-rule="nonzero"/></clipPath><clipPath id="7ce0d2bd0f"><path d="M 1.675781 0 L 967.917969 0 L 967.917969 294.753906 L 1.675781 294.753906 Z M 1.675781 0 " clip-rule="nonzero"/></clipPath><clipPath id="c741bb7b98"><path d="M 1.675781 210.3125 L 278.886719 210.3125 L 278.886719 258.273438 L 1.675781 258.273438 Z M 1.675781 210.3125 " clip-rule="nonzero"/></clipPath><clipPath id="2ce9fad84d"><path d="M 269.792969 258.273438 L 9.953125 258.273438 C 4.96875 258.273438 0.910156 254.214844 0.910156 249.234375 L 0.910156 219.351562 C 0.910156 214.371094 4.96875 210.3125 9.953125 210.3125 L 269.792969 210.3125 C 274.777344 210.3125 278.835938 214.371094 278.835938 219.351562 L 278.835938 249.234375 C 278.835938 254.214844 274.777344 258.273438 269.792969 258.273438 Z M 269.792969 258.273438 " clip-rule="nonzero"/></clipPath><clipPath id="646f467200"><path d="M 16.933594 217.148438 L 36 217.148438 L 36 251.351562 L 16.933594 251.351562 Z M 16.933594 217.148438 " clip-rule="nonzero"/></clipPath><clipPath id="b695681f92"><path d="M 152 228.011719 L 159.4375 228.011719 L 159.4375 240.78125 L 152 240.78125 Z M 152 228.011719 " clip-rule="nonzero"/></clipPath></defs><g clip-path="url(#c135a8b70b)"><path fill="#ffffff" d="M 1.675781 0 L 1324.324219 0 L 1324.324219 295.5 L 1.675781 295.5 Z M 1.675781 0 " fill-opacity="1" fill-rule="nonzero"/></g><g clip-path="url(#30c6c42df4)"><path fill="#ffffff" d="M 109.269531 28.957031 L 860.367188 28.957031 L 860.367188 221.21875 L 109.269531 221.21875 Z M 109.269531 28.957031 " fill-opacity="1" fill-rule="nonzero"/></g><g clip-path="url(#edc306b308)"><rect x="-132.6" width="1591.2" fill="#ffffff" y="-29.625" height="355.500005" fill-opacity="1"/></g><g clip-path="url(#75e0c4727c)"><path fill="#edeced" d="M -1.144531 1.246094 L 1312.839844 1.246094 L 1312.839844 295.378906 L -1.144531 295.378906 Z M -1.144531 1.246094 " fill-opacity="1" fill-rule="nonzero"/></g><g clip-path="url(#034bf00081)"><path fill="#2b529d" d="M 1297.054688 318.292969 C 1285.179688 313.589844 1271.519531 311.5625 1257.828125 310.378906 C 1243.25 309.113281 1228.589844 308.4375 1214.0625 307.675781 C 1187.457031 306.277344 1161.132812 304.558594 1134.917969 303.753906 C 1121.957031 303.359375 1109.035156 303.335938 1096.042969 304.0625 C 1091.324219 304.328125 1086.996094 303.886719 1086.503906 300.523438 C 1085.988281 297.03125 1087.792969 292.898438 1088.578125 289.390625 C 1095.734375 257.371094 1102.828125 226.710938 1109.742188 197.289062 C 1110.195312 195.371094 1113.269531 193.960938 1116.433594 194.363281 C 1132.976562 196.480469 1149.828125 198.28125 1166.859375 200.015625 C 1174.878906 200.832031 1182.988281 202 1191.230469 202.410156 C 1199.507812 202.820312 1206.792969 201.039062 1214.746094 199.519531 C 1247.128906 193.335938 1281.308594 195.8125 1314.738281 192.675781 C 1318.0625 192.367188 1319.703125 193.6875 1319.707031 195.171875 C 1320.730469 198.246094 1318.617188 201.78125 1317.769531 204.894531 C 1316.796875 208.460938 1316.050781 212.0625 1315.410156 215.679688 C 1315.105469 217.394531 1314.828125 219.113281 1314.566406 220.84375 C 1313.996094 251.324219 1314.320312 283.375 1305.410156 316.1875 C 1304.800781 318.417969 1299.886719 319.410156 1297.054688 318.292969 Z M 1095.769531 -84.894531 C 1080.386719 -82.148438 1063.464844 -75.242188 1059.246094 -58.597656 C 1054.472656 -44.453125 1049.207031 -30.363281 1043.695312 -16.441406 C 1035.320312 0.464844 1026.074219 18.359375 1027.175781 37.757812 C 1030.53125 46.324219 1039.207031 51.289062 1045.871094 57.128906 C 1069.941406 85.285156 1106.550781 81.761719 1128.222656 52.964844 C 1135.628906 28.445312 1151.429688 7.386719 1157.417969 -17.664062 C 1161.066406 -30.082031 1164.753906 -45.128906 1158.855469 -57.328125 C 1157.0625 -71.859375 1109.140625 -83.449219 1095.769531 -84.894531 Z M 1095.769531 -84.894531 " fill-opacity="1" fill-rule="nonzero"/></g><g clip-path="url(#e25e40d93e)"><path fill="#85d8a6" d="M 1187.613281 260.316406 C 1195.089844 275.824219 1202.515625 291.496094 1209.300781 307.417969 C 1206.066406 307.246094 1202.839844 307.070312 1199.613281 306.886719 C 1193.109375 292.433594 1186.859375 277.855469 1180.503906 263.390625 C 1170.917969 241.582031 1160.910156 219.941406 1150.832031 198.34375 C 1152.859375 198.558594 1154.894531 198.777344 1156.929688 198.988281 C 1167.507812 219.25 1177.6875 239.710938 1187.613281 260.316406 Z M 1128.359375 195.832031 C 1126.3125 195.585938 1124.277344 195.332031 1122.234375 195.078125 C 1129.269531 213.609375 1136.957031 231.925781 1144.746094 250.101562 C 1152.644531 268.546875 1160.628906 287.234375 1169.71875 305.253906 C 1172.703125 305.40625 1175.683594 305.566406 1178.667969 305.726562 C 1170.101562 286.371094 1160.648438 267.308594 1151.808594 248.121094 C 1143.8125 230.773438 1136.148438 213.277344 1128.359375 195.832031 Z M 1104.058594 238.34375 C 1102.859375 236.457031 1099.585938 237.625 1100.324219 239.917969 C 1105.476562 255.992188 1113.808594 271.46875 1121.753906 286.304688 C 1124.894531 292.164062 1128.125 297.953125 1131.507812 303.664062 C 1132.644531 303.691406 1133.78125 303.722656 1134.917969 303.753906 C 1136.730469 303.808594 1138.542969 303.878906 1140.355469 303.941406 C 1136.496094 297.046875 1132.617188 290.167969 1128.785156 283.261719 C 1120.527344 268.375 1113.195312 252.699219 1104.058594 238.34375 Z M 1214.699219 259.226562 C 1206.039062 240.269531 1198.230469 220.949219 1189.085938 202.277344 C 1186.390625 202.101562 1183.710938 201.859375 1181.042969 201.582031 C 1187.722656 222.691406 1197.011719 242.90625 1206.207031 263.117188 C 1212.109375 276.082031 1218.1875 288.96875 1224.441406 301.765625 C 1225.511719 303.953125 1226.566406 306.164062 1227.621094 308.382812 C 1231.304688 308.578125 1234.992188 308.785156 1238.683594 309.003906 C 1236.875 305.574219 1235.09375 302.140625 1233.394531 298.683594 C 1226.976562 285.617188 1220.746094 272.464844 1214.699219 259.226562 Z M 1301.058594 243.113281 C 1297.335938 231.382812 1292.214844 220.277344 1286.628906 209.324219 C 1284.144531 204.457031 1281.871094 199.507812 1279.726562 194.511719 C 1276.347656 194.605469 1272.972656 194.695312 1269.597656 194.792969 C 1272.101562 200.761719 1274.769531 206.664062 1277.746094 212.398438 C 1283.980469 224.410156 1292.921875 234.234375 1297.324219 247.265625 C 1302.148438 261.554688 1304.972656 276.9375 1310.628906 290.972656 C 1311 288.484375 1311.332031 285.996094 1311.628906 283.515625 C 1307.429688 270.308594 1305.234375 256.257812 1301.058594 243.113281 Z M 1249.179688 268.539062 C 1246.902344 262.089844 1243.714844 255.941406 1240.832031 249.746094 C 1234.796875 236.769531 1228.679688 223.832031 1222.589844 210.886719 C 1220.734375 206.945312 1218.894531 202.964844 1216.773438 199.148438 C 1216.097656 199.269531 1215.421875 199.386719 1214.746094 199.519531 C 1212.082031 200.027344 1209.492188 200.5625 1206.917969 201.039062 C 1207.191406 201.484375 1207.460938 201.929688 1207.722656 202.378906 C 1210.683594 207.476562 1213.113281 212.859375 1215.621094 218.1875 C 1221.445312 230.570312 1227.246094 242.960938 1233.121094 255.316406 C 1236.011719 261.40625 1238.613281 267.730469 1242.140625 273.492188 C 1245.691406 279.292969 1249.164062 284.914062 1252.195312 291.019531 C 1255.394531 297.476562 1258.3125 304.027344 1261.007812 310.671875 C 1262.105469 310.777344 1263.199219 310.894531 1264.292969 311.011719 C 1261.613281 303.777344 1258.847656 296.570312 1256.152344 289.351562 C 1253.578125 282.476562 1251.621094 275.449219 1249.179688 268.539062 Z M 1270.003906 246.882812 C 1266.179688 238.742188 1261.796875 230.855469 1257.867188 222.769531 C 1253.511719 213.816406 1249.128906 204.816406 1244.617188 195.886719 C 1243.253906 195.980469 1241.894531 196.078125 1240.539062 196.183594 C 1245.09375 206.1875 1249.511719 216.246094 1253.65625 226.5 C 1257.035156 234.867188 1259.457031 243.519531 1262.566406 251.972656 C 1265.902344 261.027344 1269.496094 269.984375 1272.851562 279.03125 C 1277.207031 290.789062 1281.324219 302.632812 1285.214844 314.554688 C 1289.011719 315.496094 1292.695312 316.625 1296.238281 317.980469 C 1291.398438 302.914062 1286.183594 287.964844 1280.601562 273.152344 C 1277.285156 264.351562 1274 255.402344 1270.003906 246.882812 Z M 1092.1875 169.8125 C 1090.617188 159.394531 1088.640625 149.875 1089.726562 138.863281 C 1090.804688 127.859375 1092.921875 116.921875 1094.5625 106.09375 C 1098.058594 82.964844 1101.667969 59.878906 1105.726562 36.972656 C 1106.507812 32.566406 1104.730469 28.582031 1102.074219 28.285156 C 1062.175781 23.8125 1022.292969 19.492188 982.371094 15.492188 C 978.101562 15.0625 973.128906 13.433594 968.871094 14.667969 C 964.78125 15.851562 964.082031 21.433594 964.207031 27.402344 C 964.558594 43.78125 964.015625 60.128906 963.023438 76.492188 C 961.027344 109.382812 957.96875 142.179688 955.300781 174.964844 C 953.859375 192.726562 952.515625 210.550781 950.511719 228.191406 C 948.632812 244.667969 945.796875 261 940 275.070312 C 938.625 278.402344 939.582031 284.234375 942.105469 285 C 980.023438 296.523438 1019.070312 297.136719 1057.824219 298.855469 C 1060.050781 299.246094 1062.285156 299.65625 1064.507812 300.101562 C 1069.222656 301.039062 1073.925781 302.109375 1078.589844 303.480469 C 1082.6875 304.683594 1087.292969 307.527344 1091.484375 306.339844 C 1093.484375 306.394531 1095.378906 304.332031 1095.164062 300.054688 C 1093.03125 256.832031 1098.578125 212.199219 1092.1875 169.8125 Z M 1092.1875 169.8125 " fill-opacity="1" fill-rule="nonzero"/></g><g clip-path="url(#90752842b5)"><path fill="#ffffff" d="M 1090.902344 100.183594 C 1092.394531 99.519531 1094.019531 99.242188 1095.652344 98.964844 C 1095.515625 99.859375 1095.378906 100.75 1095.242188 101.644531 C 1094.40625 101.871094 1093.574219 102.113281 1092.8125 102.507812 C 1091.160156 103.398438 1089.796875 104.910156 1088.148438 105.785156 C 1086.5 106.652344 1084.765625 107.355469 1083.117188 108.234375 C 1081.488281 109.136719 1079.851562 110.039062 1078.21875 110.941406 C 1076.578125 111.8125 1074.828125 112.464844 1073.160156 113.296875 C 1071.742188 114.007812 1070.410156 114.898438 1069.019531 115.660156 C 1068.761719 115.796875 1068.503906 115.945312 1068.234375 116.070312 C 1066.546875 116.890625 1064.925781 117.851562 1063.242188 118.679688 C 1062.011719 119.28125 1060.679688 119.675781 1059.398438 120.179688 C 1058.925781 120.363281 1058.457031 120.566406 1058.007812 120.800781 C 1057.605469 121.007812 1057.214844 121.226562 1056.824219 121.449219 C 1055.582031 122.160156 1054.371094 122.925781 1053.121094 123.609375 C 1051.460938 124.492188 1049.660156 125.097656 1048.007812 125.988281 C 1046.378906 126.894531 1044.949219 128.167969 1043.320312 129.066406 C 1041.6875 129.960938 1039.804688 130.40625 1038.183594 131.328125 C 1036.566406 132.253906 1035.261719 133.722656 1033.667969 134.679688 C 1033.363281 134.859375 1033.039062 135.019531 1032.714844 135.175781 C 1033.480469 134.960938 1034.234375 134.730469 1034.933594 134.390625 C 1036.613281 133.585938 1038.179688 132.5625 1039.859375 131.757812 C 1041.535156 130.945312 1043.386719 130.484375 1045.066406 129.703125 C 1046.753906 128.917969 1048.289062 127.839844 1049.984375 127.070312 C 1051.664062 126.28125 1053.28125 125.363281 1054.953125 124.554688 C 1056.632812 123.765625 1058.171875 122.691406 1059.84375 121.882812 L 1064.855469 119.46875 C 1066.53125 118.660156 1068.507812 118.5 1070.1875 117.71875 C 1071.855469 116.925781 1073.191406 115.390625 1074.871094 114.59375 C 1076.550781 113.804688 1078.441406 113.476562 1080.117188 112.679688 C 1081.792969 111.878906 1083.445312 111.03125 1085.132812 110.246094 C 1086.8125 109.457031 1088.488281 108.648438 1090.191406 107.902344 C 1091.691406 107.25 1093.121094 106.417969 1094.617188 105.738281 C 1094.597656 105.859375 1094.582031 105.976562 1094.5625 106.09375 C 1094.433594 106.9375 1094.296875 107.785156 1094.167969 108.632812 C 1092.707031 109.355469 1091.183594 109.9375 1089.761719 110.722656 C 1087.910156 111.734375 1086.128906 112.867188 1084.273438 113.847656 C 1082.414062 114.824219 1080.847656 116.398438 1078.996094 117.371094 C 1077.371094 118.21875 1075.414062 118.371094 1073.785156 119.21875 C 1072.152344 120.058594 1070.726562 121.308594 1069.089844 122.121094 C 1067.457031 122.945312 1065.894531 123.921875 1064.242188 124.703125 C 1062.589844 125.488281 1060.746094 125.871094 1059.085938 126.644531 C 1057.425781 127.414062 1055.816406 128.292969 1054.164062 129.078125 C 1052.511719 129.867188 1051.019531 130.980469 1049.371094 131.777344 C 1047.71875 132.558594 1045.71875 132.65625 1044.046875 133.421875 C 1042.386719 134.207031 1040.84375 135.21875 1039.179688 135.996094 C 1037.476562 136.773438 1035.761719 137.539062 1034.066406 138.351562 C 1032.378906 139.167969 1030.886719 140.367188 1029.195312 141.179688 C 1027.5 141.976562 1025.730469 142.664062 1023.988281 143.394531 C 1022.25 144.132812 1020.25 144.328125 1018.433594 144.945312 C 1016.664062 145.539062 1015.050781 146.441406 1013.320312 147.09375 C 1011.824219 147.660156 1010.441406 148.433594 1009.015625 149.125 C 1008.78125 149.238281 1008.546875 149.359375 1008.308594 149.46875 C 1008.058594 149.578125 1007.804688 149.6875 1007.554688 149.800781 C 1006.585938 150.3125 1005.625 150.835938 1004.644531 151.335938 C 1003.789062 151.785156 1002.847656 152.09375 1001.910156 152.410156 C 1000.652344 152.960938 999.351562 153.449219 998.179688 154.152344 C 997.621094 154.492188 996.902344 153.738281 996.878906 153.113281 C 996.203125 152.417969 996.097656 151.234375 997.144531 150.300781 C 998.582031 149.03125 1000.050781 147.808594 1001.601562 146.6875 C 1003.164062 145.582031 1004.800781 144.585938 1006.421875 143.574219 C 1008.042969 142.558594 1009.5625 141.371094 1011.222656 140.417969 C 1012.882812 139.46875 1014.4375 138.339844 1016.117188 137.417969 C 1017.800781 136.496094 1019.703125 135.96875 1021.355469 135.015625 C 1022.980469 134.058594 1024.539062 132.988281 1026.164062 132.023438 C 1027.800781 131.085938 1029.609375 130.441406 1031.246094 129.503906 C 1032.875 128.550781 1034.378906 127.382812 1036.03125 126.472656 C 1037.683594 125.558594 1039.242188 124.476562 1040.921875 123.613281 C 1042.597656 122.746094 1044.300781 121.929688 1045.992188 121.085938 C 1047.726562 120.230469 1049.625 119.710938 1051.363281 118.859375 C 1053.09375 118.011719 1054.851562 117.207031 1056.597656 116.378906 C 1058.335938 115.542969 1059.960938 114.453125 1061.71875 113.65625 C 1063.480469 112.859375 1065.136719 111.839844 1066.914062 111.070312 C 1068.683594 110.292969 1070.726562 110.136719 1072.496094 109.359375 C 1074.578125 108.460938 1076.429688 107.011719 1078.507812 106.074219 C 1080.601562 105.171875 1082.597656 104.078125 1084.636719 103.054688 C 1086.703125 102.042969 1088.8125 101.128906 1090.902344 100.183594 Z M 1023.734375 178.378906 C 1024.957031 177.9375 1026.277344 177.738281 1027.558594 177.46875 C 1028.5 177.355469 1029.4375 177.253906 1030.316406 176.996094 C 1031.378906 176.695312 1032.433594 176.378906 1033.488281 176.0625 C 1033.691406 176.015625 1033.894531 175.972656 1034.09375 175.933594 C 1034.339844 175.875 1034.578125 175.808594 1034.820312 175.746094 C 1036.285156 175.363281 1037.722656 174.890625 1039.226562 174.636719 C 1040.972656 174.339844 1042.652344 173.792969 1044.417969 173.554688 C 1046.234375 173.308594 1048.164062 173.503906 1049.921875 173.125 C 1051.691406 172.75 1053.472656 172.40625 1055.207031 171.949219 C 1056.941406 171.484375 1058.535156 170.585938 1060.261719 170.097656 C 1061.992188 169.613281 1063.734375 169.1875 1065.464844 168.726562 C 1067.160156 168.269531 1068.773438 167.554688 1070.464844 167.082031 C 1072.160156 166.625 1074.074219 166.882812 1075.757812 166.40625 C 1077.4375 165.917969 1079.011719 165.066406 1080.691406 164.578125 C 1082.371094 164.089844 1084.019531 163.496094 1085.703125 163.011719 C 1087.382812 162.523438 1089.195312 162.460938 1090.867188 161.957031 C 1090.898438 161.945312 1090.925781 161.933594 1090.957031 161.925781 C 1090.726562 160.433594 1090.511719 158.949219 1090.316406 157.460938 L 1087.066406 158.464844 C 1085.371094 158.976562 1083.765625 159.78125 1082.0625 160.273438 C 1080.367188 160.78125 1078.703125 161.410156 1077 161.890625 C 1075.289062 162.363281 1073.675781 163.140625 1071.96875 163.617188 C 1070.261719 164.089844 1068.4375 164.21875 1066.726562 164.703125 C 1065.019531 165.1875 1063.386719 165.914062 1061.675781 166.390625 C 1060.964844 166.589844 1060.210938 166.675781 1059.453125 166.742188 C 1059.785156 166.652344 1060.113281 166.558594 1060.433594 166.4375 C 1062.085938 165.800781 1063.539062 164.59375 1065.207031 163.984375 C 1066.875 163.371094 1068.726562 163.28125 1070.398438 162.6875 C 1072.070312 162.089844 1073.605469 161.097656 1075.277344 160.496094 C 1076.96875 159.90625 1078.757812 159.613281 1080.449219 159.035156 C 1081.730469 158.585938 1082.976562 158.027344 1084.246094 157.539062 C 1084.648438 157.378906 1085.054688 157.230469 1085.464844 157.09375 C 1085.921875 156.9375 1086.394531 156.820312 1086.863281 156.71875 C 1087.953125 156.480469 1089.058594 156.304688 1090.132812 156.019531 C 1090.121094 155.921875 1090.109375 155.828125 1090.101562 155.730469 C 1089.902344 154.09375 1089.738281 152.445312 1089.617188 150.78125 C 1087.960938 151.285156 1086.375 152.023438 1084.71875 152.519531 L 1079.433594 154.078125 C 1077.679688 154.617188 1075.804688 154.796875 1074.050781 155.339844 C 1072.335938 155.875 1070.609375 156.367188 1068.902344 156.921875 C 1067.195312 157.472656 1065.566406 158.25 1063.871094 158.839844 C 1062.175781 159.433594 1060.585938 160.308594 1058.902344 160.929688 C 1057.21875 161.542969 1055.414062 161.835938 1053.730469 162.445312 C 1052.050781 163.078125 1050.414062 163.824219 1048.730469 164.445312 C 1047.023438 165.066406 1045.136719 165.199219 1043.410156 165.769531 C 1041.679688 166.339844 1040.035156 167.132812 1038.316406 167.722656 C 1036.589844 168.3125 1034.972656 169.167969 1033.277344 169.820312 C 1031.574219 170.472656 1029.871094 171.101562 1028.21875 171.855469 C 1026.566406 172.621094 1024.976562 173.492188 1023.40625 174.429688 C 1022.257812 175.109375 1022.160156 176.285156 1022.679688 177.097656 C 1022.59375 177.710938 1023.144531 178.59375 1023.734375 178.378906 Z M 961.789062 246.757812 C 963.761719 245.796875 965.734375 244.832031 967.707031 243.871094 C 969.683594 242.914062 971.820312 242.285156 973.796875 241.320312 C 975.722656 240.382812 977.679688 239.507812 979.601562 238.554688 C 981.519531 237.605469 983.347656 236.472656 985.265625 235.515625 C 987.183594 234.5625 988.957031 233.316406 990.875 232.355469 C 992.789062 231.398438 994.855469 230.738281 996.773438 229.785156 C 998.691406 228.832031 1000.550781 227.761719 1002.472656 226.8125 C 1004.417969 225.855469 1006.605469 225.414062 1008.585938 224.527344 C 1010.566406 223.640625 1012.453125 222.550781 1014.4375 221.679688 C 1016.421875 220.808594 1018.28125 219.648438 1020.246094 218.734375 C 1022.207031 217.8125 1024.183594 216.921875 1026.097656 215.902344 C 1028.007812 214.886719 1029.871094 213.78125 1031.699219 212.605469 C 1033.039062 211.75 1033.179688 210.523438 1032.597656 209.746094 C 1032.714844 209.097656 1032.101562 208.253906 1031.410156 208.550781 C 1029.980469 209.175781 1028.445312 209.558594 1026.945312 210.015625 C 1025.847656 210.253906 1024.75 210.492188 1023.714844 210.886719 C 1022.476562 211.351562 1021.242188 211.835938 1020.007812 212.324219 C 1019.777344 212.398438 1019.542969 212.472656 1019.308594 212.550781 C 1019.027344 212.644531 1018.746094 212.75 1018.464844 212.847656 C 1016.75 213.460938 1015.074219 214.175781 1013.316406 214.695312 C 1011.285156 215.289062 1009.316406 216.113281 1007.257812 216.675781 C 1005.140625 217.246094 1002.875 217.390625 1000.820312 218.097656 C 998.75 218.8125 996.679688 219.515625 994.65625 220.320312 C 992.632812 221.125 990.804688 222.382812 988.804688 223.238281 C 986.800781 224.089844 984.769531 224.878906 982.773438 225.742188 C 980.8125 226.585938 978.960938 227.660156 977.007812 228.523438 C 975.054688 229.386719 972.789062 229.566406 970.84375 230.449219 C 968.902344 231.332031 967.144531 232.601562 965.21875 233.511719 C 963.285156 234.417969 961.40625 235.429688 959.492188 236.363281 C 957.574219 237.296875 955.449219 237.820312 953.550781 238.789062 C 951.910156 239.621094 950.339844 240.59375 948.730469 241.492188 C 948.496094 242.996094 948.25 244.488281 947.988281 245.976562 C 949.542969 245.386719 951.203125 245.003906 952.671875 244.253906 C 954.574219 243.273438 956.46875 242.28125 958.390625 241.332031 C 960.308594 240.378906 962.089844 239.152344 964.023438 238.222656 C 965.957031 237.296875 967.832031 236.25 969.78125 235.347656 C 971.722656 234.441406 973.554688 233.296875 975.511719 232.417969 C 977.464844 231.535156 979.582031 230.996094 981.546875 230.132812 C 983.511719 229.277344 985.363281 228.167969 987.339844 227.332031 C 988.164062 226.976562 989.039062 226.738281 989.917969 226.515625 C 989.539062 226.679688 989.15625 226.839844 988.789062 227.027344 C 986.886719 228.011719 985.269531 229.558594 983.371094 230.542969 C 981.472656 231.535156 979.304688 232.011719 977.40625 233.003906 C 975.507812 234 973.800781 235.359375 971.90625 236.359375 C 969.996094 237.363281 967.941406 238.089844 966.027344 239.089844 C 964.585938 239.84375 963.207031 240.722656 961.800781 241.542969 C 961.339844 241.804688 960.875 242.066406 960.40625 242.316406 C 959.894531 242.578125 959.367188 242.816406 958.835938 243.042969 C 957.371094 243.65625 955.855469 244.175781 954.460938 244.910156 C 952.550781 245.921875 950.695312 247.035156 948.796875 248.0625 C 948.496094 248.222656 948.207031 248.394531 947.914062 248.570312 C 947.765625 248.660156 947.613281 248.742188 947.464844 248.832031 C 947.101562 250.734375 946.710938 252.617188 946.296875 254.484375 C 947.621094 254.050781 948.976562 253.679688 950.210938 253.0625 C 952.175781 252.082031 954.046875 250.914062 956.015625 249.945312 C 957.984375 248.976562 959.8125 247.71875 961.789062 246.757812 Z M 1082.453125 252.808594 C 1080.183594 253.5625 1077.925781 254.355469 1075.695312 255.230469 C 1073.460938 256.089844 1071.453125 257.472656 1069.269531 258.441406 C 1067.085938 259.414062 1064.855469 260.300781 1062.699219 261.339844 C 1060.578125 262.339844 1058.566406 263.558594 1056.457031 264.589844 C 1054.359375 265.644531 1051.921875 266.035156 1049.828125 267.109375 C 1047.726562 268.175781 1045.886719 269.710938 1043.824219 270.835938 C 1042.796875 271.40625 1041.785156 272.003906 1040.773438 272.605469 L 1037.765625 274.441406 C 1035.753906 275.65625 1033.472656 276.441406 1031.492188 277.71875 C 1029.515625 278.992188 1027.65625 280.453125 1025.703125 281.761719 C 1023.753906 283.082031 1022.140625 284.875 1020.238281 286.25 C 1018.332031 287.609375 1016.023438 288.453125 1014.179688 289.910156 C 1012.066406 291.578125 1010.367188 293.742188 1008.351562 295.5 C 1008.054688 295.75 1007.765625 296.015625 1007.472656 296.269531 C 1008.84375 296.378906 1010.21875 296.476562 1011.589844 296.574219 C 1012.183594 296.097656 1012.785156 295.625 1013.398438 295.171875 C 1015.277344 293.773438 1017.460938 292.792969 1019.347656 291.410156 C 1021.242188 290.039062 1022.71875 288.066406 1024.648438 286.726562 C 1026.5625 285.375 1028.929688 284.695312 1030.894531 283.425781 C 1032.863281 282.15625 1034.800781 280.84375 1036.816406 279.648438 C 1038.820312 278.4375 1040.660156 276.949219 1042.6875 275.765625 C 1044.730469 274.613281 1046.710938 273.347656 1048.761719 272.21875 C 1050.804688 271.074219 1052.785156 269.78125 1054.867188 268.703125 C 1056.949219 267.625 1059.210938 266.902344 1061.332031 265.910156 C 1063.453125 264.914062 1065.433594 263.628906 1067.578125 262.683594 C 1068.476562 262.289062 1069.421875 262.003906 1070.375 261.734375 C 1069.960938 261.917969 1069.546875 262.101562 1069.144531 262.308594 C 1067.066406 263.382812 1065.328125 265.074219 1063.285156 266.207031 C 1061.246094 267.339844 1058.90625 267.949219 1056.898438 269.140625 C 1054.875 270.316406 1053.0625 271.847656 1051.054688 273.03125 C 1049.046875 274.253906 1046.875 275.210938 1044.863281 276.429688 C 1043.347656 277.332031 1041.945312 278.40625 1040.496094 279.40625 C 1040.007812 279.746094 1039.515625 280.074219 1039.015625 280.390625 C 1038.484375 280.726562 1037.933594 281.035156 1037.378906 281.324219 C 1036.894531 281.585938 1036.402344 281.835938 1035.910156 282.085938 C 1034.863281 282.628906 1033.820312 283.1875 1032.839844 283.835938 C 1030.886719 285.152344 1028.96875 286.519531 1027.050781 287.882812 C 1026.75 288.09375 1026.460938 288.324219 1026.164062 288.546875 C 1024.585938 289.746094 1023.089844 291.0625 1021.484375 292.21875 C 1019.609375 293.601562 1017.667969 294.886719 1015.851562 296.324219 C 1015.644531 296.484375 1015.441406 296.65625 1015.238281 296.820312 C 1017.238281 296.953125 1019.246094 297.074219 1021.25 297.1875 C 1021.714844 296.8125 1022.179688 296.441406 1022.667969 296.105469 C 1024.625 294.761719 1027 294.046875 1028.96875 292.742188 C 1030.933594 291.417969 1032.832031 289.992188 1034.832031 288.730469 C 1036.839844 287.472656 1038.671875 285.933594 1040.71875 284.730469 C 1042.757812 283.523438 1044.777344 282.289062 1046.832031 281.109375 C 1048.886719 279.933594 1051.128906 279.082031 1053.183594 277.910156 C 1055.195312 276.773438 1057.265625 275.742188 1059.28125 274.621094 C 1061.292969 273.488281 1063.234375 272.230469 1065.273438 271.148438 C 1067.316406 270.066406 1069.1875 268.664062 1071.253906 267.632812 C 1073.3125 266.582031 1075.519531 265.824219 1077.578125 264.785156 C 1079.65625 263.777344 1081.675781 262.652344 1083.753906 261.648438 C 1085.851562 260.621094 1088.230469 260.210938 1090.375 259.296875 C 1091.882812 258.664062 1093.355469 257.9375 1094.851562 257.273438 C 1094.878906 255.644531 1094.910156 254.015625 1094.945312 252.382812 C 1094.953125 251.800781 1094.964844 251.222656 1094.980469 250.640625 C 1094.980469 250.621094 1094.980469 250.605469 1094.980469 250.585938 C 1094.988281 250.289062 1094.992188 249.992188 1094.996094 249.691406 C 1093.160156 250.21875 1091.339844 250.828125 1089.488281 251.3125 C 1087.171875 251.910156 1084.726562 252.070312 1082.453125 252.808594 Z M 987.105469 206.769531 C 997.847656 203.011719 1008.683594 199.289062 1019.695312 196.328125 C 1030.714844 193.390625 1041.871094 191.28125 1053.089844 189.390625 C 1064.316406 187.53125 1075.691406 185.988281 1087.066406 185.453125 C 1088.277344 185.378906 1089.492188 185.382812 1090.707031 185.351562 L 1094.015625 185.308594 C 1093.921875 184.214844 1093.816406 183.121094 1093.707031 182.027344 L 1092.921875 182.050781 L 1090.730469 182.109375 C 1089.269531 182.15625 1087.808594 182.164062 1086.351562 182.257812 C 1083.433594 182.414062 1080.511719 182.535156 1077.601562 182.800781 L 1073.234375 183.160156 L 1068.875 183.625 C 1057.476562 184.859375 1046.1875 187.085938 1035.035156 189.546875 C 1023.875 192 1012.761719 194.238281 1001.855469 197.65625 C 990.945312 201.066406 980.261719 205.273438 969.648438 209.355469 C 963.632812 211.667969 957.671875 214.09375 951.738281 216.574219 C 951.597656 217.96875 951.457031 219.355469 951.316406 220.746094 C 952.628906 220.195312 953.941406 219.644531 955.261719 219.105469 C 965.785156 214.796875 976.359375 210.535156 987.105469 206.769531 Z M 968.351562 199.785156 C 973.160156 196.882812 977.914062 193.910156 982.617188 190.917969 C 985.335938 189.261719 988.015625 187.570312 990.683594 185.867188 L 994.679688 183.304688 L 998.742188 180.855469 C 1001.449219 179.222656 1004.160156 177.59375 1006.871094 175.964844 C 1009.605469 174.363281 1012.417969 172.894531 1015.21875 171.390625 C 1026.4375 165.347656 1037.894531 159.949219 1049.511719 154.730469 C 1061.230469 149.78125 1073.367188 145.324219 1085.410156 141.238281 C 1086.828125 140.753906 1088.238281 140.246094 1089.652344 139.75 C 1089.675781 139.453125 1089.695312 139.160156 1089.726562 138.863281 C 1089.777344 138.339844 1089.839844 137.816406 1089.898438 137.292969 L 1088.632812 137.703125 C 1083.253906 139.464844 1077.855469 141.148438 1072.585938 143.195312 L 1064.636719 146.132812 C 1061.980469 147.101562 1059.386719 148.226562 1056.75 149.253906 L 1048.875 152.398438 L 1041.109375 155.800781 C 1038.53125 156.953125 1035.921875 158.042969 1033.367188 159.242188 L 1025.714844 162.898438 C 1020.578125 165.257812 1015.609375 167.949219 1010.601562 170.554688 L 1006.851562 172.515625 C 1005.609375 173.183594 1004.386719 173.898438 1003.15625 174.585938 L 995.769531 178.730469 C 993.285156 180.078125 990.859375 181.523438 988.414062 182.945312 L 981.050781 187.179688 L 979.207031 188.238281 L 977.402344 189.351562 L 973.792969 191.59375 C 971.390625 193.089844 969 194.601562 966.625 196.136719 C 961.964844 199.335938 957.449219 202.710938 952.960938 206.109375 L 952.703125 206.3125 C 952.566406 207.796875 952.433594 209.28125 952.292969 210.765625 C 953 210.230469 953.695312 209.683594 954.402344 209.148438 C 958.925781 205.890625 963.664062 202.867188 968.351562 199.785156 Z M 960.339844 198.15625 C 964.941406 194.84375 969.773438 191.867188 974.523438 188.792969 L 978.09375 186.496094 L 981.722656 184.3125 C 984.140625 182.847656 986.554688 181.382812 988.960938 179.921875 C 991.355469 178.410156 993.820312 177.035156 996.269531 175.628906 C 998.71875 174.222656 1001.164062 172.8125 1003.609375 171.40625 C 1004.820312 170.6875 1006.0625 170.019531 1007.308594 169.363281 L 1011.042969 167.371094 L 1018.511719 163.394531 C 1023.574219 160.882812 1028.695312 158.445312 1033.824219 156.027344 C 1036.421875 154.890625 1039.015625 153.75 1041.609375 152.609375 L 1045.492188 150.890625 C 1046.777344 150.304688 1048.070312 149.734375 1049.382812 149.210938 C 1051.992188 148.136719 1054.570312 147.027344 1057.132812 145.898438 C 1059.699219 144.777344 1062.238281 143.59375 1064.835938 142.570312 C 1067.425781 141.515625 1070.019531 140.460938 1072.617188 139.402344 C 1073.921875 138.886719 1075.230469 138.371094 1076.539062 137.851562 C 1077.863281 137.371094 1079.203125 136.921875 1080.542969 136.464844 C 1083.777344 135.390625 1087.046875 134.335938 1090.351562 133.363281 C 1090.472656 132.410156 1090.59375 131.457031 1090.722656 130.507812 C 1085.144531 132.03125 1079.605469 133.695312 1074.097656 135.554688 C 1067.570312 137.945312 1060.964844 140.179688 1054.527344 142.863281 C 1051.296875 144.175781 1048.03125 145.410156 1044.832031 146.796875 L 1035.265625 151.019531 C 1032.089844 152.382812 1028.992188 153.914062 1025.890625 155.421875 C 1022.792969 156.9375 1019.675781 158.40625 1016.59375 159.964844 C 1013.539062 161.558594 1010.484375 163.160156 1007.421875 164.757812 C 1005.898438 165.5625 1004.351562 166.332031 1002.835938 167.164062 L 998.300781 169.6875 C 995.28125 171.367188 992.265625 173.0625 989.277344 174.804688 L 980.472656 180.292969 L 976.078125 183.039062 L 971.765625 185.910156 C 968.886719 187.820312 965.996094 189.710938 963.09375 191.574219 C 960.664062 193.226562 958.230469 194.855469 955.773438 196.464844 C 955 196.980469 954.210938 197.488281 953.421875 197.996094 C 953.273438 199.789062 953.121094 201.582031 952.964844 203.375 C 953.085938 203.28125 953.210938 203.191406 953.339844 203.097656 Z M 993.882812 211.957031 C 1004.496094 208.277344 1015.238281 205.058594 1026.054688 202.199219 C 1036.867188 199.328125 1047.769531 196.796875 1058.78125 195.011719 C 1069.78125 193.210938 1080.855469 191.75 1091.976562 191.320312 L 1094.078125 191.242188 L 1094.476562 191.253906 C 1094.367188 189.59375 1094.242188 187.9375 1094.097656 186.28125 C 1094.082031 186.035156 1094.058594 185.789062 1094.039062 185.542969 L 1090.417969 185.71875 C 1089 185.792969 1087.578125 185.875 1086.164062 186.015625 C 1083.335938 186.269531 1080.503906 186.53125 1077.691406 186.910156 C 1072.050781 187.5625 1066.453125 188.488281 1060.839844 189.316406 C 1049.636719 191.054688 1038.375 192.875 1027.371094 195.710938 C 1016.363281 198.554688 1005.660156 202.316406 994.933594 206.003906 C 984.128906 209.714844 973.332031 213.550781 962.738281 217.855469 C 958.832031 219.441406 954.957031 221.105469 951.097656 222.796875 C 951.089844 222.855469 951.085938 222.917969 951.078125 222.976562 C 950.890625 224.714844 950.707031 226.457031 950.511719 228.191406 C 950.503906 228.246094 950.496094 228.304688 950.488281 228.355469 C 954.121094 226.828125 957.753906 225.308594 961.394531 223.828125 C 972.105469 219.464844 983.007812 215.726562 993.882812 211.957031 Z M 1094.921875 199.050781 C 1094.917969 198.964844 1094.914062 198.875 1094.910156 198.789062 C 1094.824219 196.886719 1094.71875 194.988281 1094.601562 193.09375 L 1094.441406 193.191406 L 1093.171875 193.949219 L 1089.527344 196.105469 C 1084.660156 198.976562 1079.769531 201.816406 1074.851562 204.617188 C 1064.890625 210.28125 1054.667969 215.371094 1044.640625 221.035156 C 1034.621094 226.703125 1024.710938 232.703125 1014.835938 238.738281 C 1004.949219 244.773438 995.351562 251.417969 985.886719 258.183594 C 976.410156 264.953125 967.199219 272.128906 958.472656 279.945312 C 955.773438 282.363281 953.121094 284.84375 950.519531 287.371094 C 951.292969 287.574219 952.066406 287.777344 952.84375 287.972656 C 954.023438 288.269531 955.199219 288.558594 956.378906 288.832031 C 956.453125 288.851562 956.53125 288.867188 956.605469 288.886719 C 958.257812 287.460938 959.917969 286.035156 961.582031 284.609375 C 967.1875 279.816406 972.964844 275.21875 978.863281 270.785156 C 979.589844 270.25 980.316406 269.714844 981.046875 269.1875 C 982.339844 268.25 983.640625 267.320312 984.945312 266.394531 C 992.714844 260.871094 1000.695312 255.511719 1008.804688 250.597656 C 1018.242188 244.890625 1027.90625 239.152344 1037.648438 233.917969 C 1047.667969 228.527344 1057.675781 223.859375 1067.746094 218.472656 C 1076.875 213.59375 1086.027344 208.691406 1095.105469 203.605469 C 1095.058594 202.238281 1095.003906 200.871094 1094.945312 199.503906 C 1094.9375 199.351562 1094.929688 199.203125 1094.921875 199.050781 Z M 1099.511719 37.976562 L 1092.050781 40.683594 C 1087.050781 42.4375 1082.160156 44.453125 1077.25 46.398438 C 1074.789062 47.347656 1072.371094 48.421875 1069.929688 49.4375 L 1062.613281 52.496094 C 1052.910156 56.703125 1043.269531 61.046875 1033.796875 65.742188 C 1024.269531 70.332031 1014.996094 75.398438 1005.71875 80.449219 C 996.519531 85.636719 987.054688 90.496094 978.109375 96.140625 C 976.84375 96.941406 975.582031 97.742188 974.328125 98.558594 C 972.367188 99.296875 970.40625 100.058594 968.460938 100.84375 C 967.925781 101.0625 967.394531 101.292969 966.863281 101.511719 C 966.324219 101.734375 965.78125 101.964844 965.242188 102.1875 C 965.292969 102.152344 965.34375 102.121094 965.390625 102.089844 C 967.613281 100.605469 969.816406 99.097656 972.066406 97.664062 L 978.8125 93.460938 L 982.1875 91.363281 L 985.601562 89.347656 C 987.878906 88 990.152344 86.652344 992.425781 85.308594 C 994.710938 83.988281 996.996094 82.675781 999.277344 81.359375 C 1008.410156 76.03125 1017.652344 70.984375 1026.996094 66.085938 C 1036.417969 61.320312 1046.050781 56.8125 1055.683594 52.507812 C 1060.46875 50.285156 1065.199219 48.085938 1069.933594 45.882812 L 1073.484375 44.226562 C 1074.671875 43.683594 1075.878906 43.175781 1077.078125 42.652344 C 1079.484375 41.617188 1081.910156 40.59375 1084.359375 39.601562 C 1086.808594 38.609375 1089.328125 37.761719 1091.847656 36.875 C 1094.375 36.015625 1096.902344 35.117188 1099.464844 34.328125 C 1101.519531 33.691406 1103.570312 33.035156 1105.621094 32.382812 C 1105.40625 31.511719 1105.078125 30.738281 1104.664062 30.101562 C 1101.96875 30.890625 1099.269531 31.671875 1096.585938 32.492188 C 1090.445312 34.46875 1084.296875 36.445312 1078.269531 38.847656 C 1072.207031 41.136719 1066.226562 43.6875 1060.214844 46.167969 C 1054.261719 48.785156 1048.285156 51.351562 1042.425781 54.167969 C 1036.566406 56.847656 1030.847656 59.804688 1025.085938 62.648438 C 1019.386719 65.640625 1013.648438 68.550781 1007.984375 71.652344 C 1002.265625 74.648438 996.75 78.011719 991.191406 81.28125 C 985.71875 84.695312 980.203125 88.023438 974.753906 91.457031 C 970.335938 94.152344 965.886719 96.796875 961.46875 99.496094 C 961.359375 100.960938 961.25 102.429688 961.140625 103.898438 C 961.109375 104.277344 961.082031 104.652344 961.054688 105.03125 C 961.046875 105.128906 961.039062 105.222656 961.027344 105.316406 C 960.960938 106.207031 960.894531 107.097656 960.824219 107.988281 C 960.804688 108.289062 960.78125 108.582031 960.757812 108.882812 C 960.714844 109.410156 960.675781 109.941406 960.636719 110.46875 C 960.625 110.582031 960.621094 110.691406 960.609375 110.804688 C 960.578125 111.238281 960.542969 111.667969 960.511719 112.097656 C 960.402344 113.5 960.289062 114.898438 960.175781 116.300781 C 969.9375 112.105469 979.71875 107.886719 989.691406 104.191406 C 999.8125 100.429688 1010.027344 96.898438 1020.300781 93.550781 C 1030.585938 90.210938 1041.015625 87.40625 1051.410156 84.429688 C 1061.546875 81.515625 1071.773438 78.816406 1081.96875 76.160156 C 1087.953125 74.617188 1093.90625 73.128906 1099.847656 71.980469 C 1100.144531 70.132812 1100.453125 68.289062 1100.753906 66.441406 C 1100.769531 66.351562 1100.78125 66.261719 1100.796875 66.171875 C 1094.847656 67.050781 1088.941406 68.230469 1083.128906 69.730469 C 1072.855469 72.40625 1062.761719 75.613281 1052.585938 78.589844 C 1042.328125 81.585938 1032.011719 84.433594 1021.847656 87.757812 C 1014.210938 90.257812 1006.65625 92.988281 999.121094 95.777344 C 996.640625 96.699219 994.160156 97.625 991.679688 98.550781 C 988.894531 99.585938 986.101562 100.609375 983.304688 101.636719 C 977.621094 103.71875 971.941406 105.820312 966.328125 108.089844 C 966.332031 108.085938 966.335938 108.085938 966.34375 108.085938 C 968.523438 106.644531 970.734375 105.242188 972.964844 103.851562 C 972.972656 103.84375 972.980469 103.839844 972.992188 103.835938 C 976.902344 102.265625 980.824219 100.726562 984.769531 99.238281 C 994.714844 95.484375 1004.648438 91.632812 1014.753906 88.316406 C 1024.855469 85.003906 1034.996094 81.753906 1045.214844 78.804688 C 1055.421875 75.863281 1065.648438 72.796875 1075.941406 70.175781 C 1084.179688 68.0625 1092.523438 66.277344 1100.984375 65.03125 C 1101.175781 63.871094 1101.363281 62.714844 1101.550781 61.554688 C 1097.742188 62.171875 1093.972656 62.917969 1090.261719 63.707031 C 1085.042969 64.828125 1079.851562 65.945312 1074.664062 67.058594 C 1072.09375 67.632812 1069.523438 68.210938 1066.945312 68.785156 C 1064.378906 69.398438 1061.816406 70.03125 1059.253906 70.714844 C 1049.015625 73.492188 1038.878906 76.84375 1028.730469 79.953125 C 1018.582031 83.070312 1008.507812 86.460938 998.484375 90.003906 C 996.890625 90.5625 995.296875 91.117188 993.699219 91.675781 C 998.683594 88.652344 1003.632812 85.652344 1008.574219 82.65625 C 1013.683594 79.65625 1018.769531 76.613281 1024.066406 73.875 C 1029.320312 71.042969 1034.648438 68.40625 1039.945312 65.699219 C 1042.601562 64.363281 1045.292969 63.101562 1047.96875 61.796875 L 1051.988281 59.855469 C 1053.332031 59.214844 1054.695312 58.613281 1056.050781 57.988281 C 1058.757812 56.753906 1061.488281 55.535156 1064.230469 54.332031 C 1067 53.1875 1069.773438 52.042969 1072.546875 50.898438 C 1075.3125 49.730469 1078.113281 48.648438 1080.898438 47.554688 C 1083.679688 46.441406 1086.453125 45.335938 1089.21875 44.230469 C 1094.683594 42.109375 1100.089844 39.890625 1105.574219 37.867188 C 1105.621094 37.570312 1105.671875 37.273438 1105.726562 36.972656 C 1105.792969 36.582031 1105.835938 36.195312 1105.867188 35.8125 Z M 1063.3125 89.234375 C 1060.859375 90.375 1058.445312 91.582031 1056.011719 92.761719 L 1048.710938 96.257812 C 1046.253906 97.386719 1043.871094 98.648438 1041.457031 99.863281 C 1039.054688 101.097656 1036.652344 102.34375 1034.261719 103.621094 C 1029.503906 106.210938 1024.847656 108.988281 1020.144531 111.695312 C 1015.507812 114.511719 1010.875 117.324219 1006.246094 120.136719 C 1001.667969 123.03125 997.121094 126.007812 992.59375 129.007812 C 988.132812 132.101562 983.671875 135.1875 979.21875 138.273438 C 974.824219 141.449219 970.375 144.542969 966.039062 147.785156 L 959.578125 152.710938 C 958.714844 153.371094 957.851562 154.03125 956.988281 154.695312 C 956.898438 155.769531 956.804688 156.847656 956.714844 157.921875 C 956.601562 159.285156 956.484375 160.65625 956.371094 162.015625 C 956.363281 162.113281 956.355469 162.207031 956.347656 162.304688 C 957.296875 161.570312 958.238281 160.824219 959.203125 160.109375 L 962.394531 157.769531 L 968.765625 153.078125 C 969.328125 152.648438 969.90625 152.242188 970.480469 151.828125 C 971.921875 150.820312 973.359375 149.8125 974.804688 148.820312 C 975.480469 148.367188 976.148438 147.902344 976.820312 147.445312 C 980.433594 144.960938 984.023438 142.414062 987.734375 140.039062 C 992.105469 137.183594 996.421875 134.253906 1000.902344 131.644531 C 1005.335938 129.011719 1009.726562 126.222656 1014.265625 123.667969 C 1018.777344 121.070312 1023.257812 118.417969 1027.859375 116.066406 C 1032.5625 113.597656 1037.222656 111.238281 1041.984375 109.066406 C 1046.710938 106.835938 1051.4375 104.605469 1056.242188 102.339844 L 1063.453125 98.894531 C 1065.863281 97.761719 1068.3125 96.707031 1070.738281 95.609375 L 1078.027344 92.328125 L 1085.386719 89.199219 C 1087.828125 88.132812 1090.28125 87.066406 1092.738281 85.992188 C 1094.488281 85.253906 1096.242188 84.511719 1097.996094 83.773438 C 1098.222656 82.308594 1098.453125 80.84375 1098.6875 79.378906 C 1098.707031 79.246094 1098.730469 79.113281 1098.746094 78.980469 C 1098.75 78.964844 1098.753906 78.941406 1098.757812 78.921875 C 1099.074219 76.90625 1099.390625 74.890625 1099.710938 72.878906 C 1097.292969 73.847656 1094.890625 74.84375 1092.480469 75.835938 C 1082.617188 79.992188 1072.9375 84.5625 1063.3125 89.234375 Z M 973.875 53.011719 L 979.570312 47.847656 C 981.441406 46.097656 983.199219 44.222656 985.089844 42.492188 C 986.980469 40.769531 988.644531 38.785156 990.558594 37.078125 C 992.460938 35.363281 994.589844 33.894531 996.496094 32.183594 C 998.417969 30.488281 1000.253906 28.699219 1002.183594 27.011719 C 1004.125 25.296875 1006.476562 24.066406 1008.488281 22.429688 C 1010.007812 21.203125 1011.453125 19.875 1012.949219 18.617188 C 1010.738281 18.386719 1008.53125 18.167969 1006.320312 17.9375 C 1005.800781 17.882812 1005.28125 17.832031 1004.757812 17.777344 C 1004.558594 17.757812 1004.355469 17.738281 1004.152344 17.71875 C 1003.0625 17.601562 1001.972656 17.492188 1000.882812 17.382812 C 1000.152344 17.78125 999.433594 18.195312 998.746094 18.664062 C 996.59375 20.164062 994.445312 21.683594 992.359375 23.273438 C 990.265625 24.863281 988.507812 26.871094 986.472656 28.527344 C 984.4375 30.1875 982.347656 31.777344 980.335938 33.46875 C 978.363281 35.121094 976.546875 36.960938 974.589844 38.628906 C 972.636719 40.3125 970.199219 41.429688 968.261719 43.128906 C 966.816406 44.386719 965.554688 45.847656 964.21875 47.226562 C 964.1875 48.964844 964.152344 50.707031 964.105469 52.445312 C 965.453125 51.148438 966.789062 49.839844 968.175781 48.578125 C 970.078125 46.835938 971.847656 44.9375 973.785156 43.230469 C 975.730469 41.527344 977.921875 40.121094 979.898438 38.460938 C 981.878906 36.804688 983.667969 34.921875 985.667969 33.296875 C 986.507812 32.617188 987.421875 32.03125 988.34375 31.460938 C 987.957031 31.777344 987.570312 32.089844 987.207031 32.425781 C 985.304688 34.164062 983.859375 36.394531 981.984375 38.15625 C 980.109375 39.921875 977.832031 41.261719 975.980469 43.058594 C 974.128906 44.851562 972.558594 46.929688 970.714844 48.726562 C 968.867188 50.546875 966.796875 52.144531 964.941406 53.960938 C 964.628906 54.265625 964.328125 54.582031 964.027344 54.902344 C 964.023438 55.011719 964.019531 55.125 964.015625 55.234375 C 963.945312 57.496094 963.863281 59.765625 963.765625 62.027344 L 967.867188 58.125 C 969.785156 56.332031 971.960938 54.808594 973.875 53.011719 Z M 973.875 53.011719 " fill-opacity="1" fill-rule="nonzero"/></g><g clip-path="url(#a89477632e)"><path fill="#ceb7ff" d="M 1155.746094 63.40625 C 1165.363281 55.105469 1171.066406 38.792969 1174.445312 22.816406 C 1179.65625 -1.835938 1201.210938 -19.601562 1226.417969 -19.601562 C 1246.554688 -19.601562 1264.960938 -8.207031 1273.921875 9.824219 C 1276.894531 15.804688 1280.515625 22.992188 1284.929688 31.636719 C 1309.535156 79.800781 1306.460938 167.929688 1306.460938 167.929688 L 1097.308594 167.929688 C 1096.28125 80.828125 1133.191406 82.875 1155.746094 63.40625 Z M 1155.746094 63.40625 " fill-opacity="1" fill-rule="nonzero"/></g><g clip-path="url(#d604ccb124)"><path fill="#2b529d" d="M 1283.492188 -4.058594 C 1278.769531 -7.503906 1273.828125 -7.484375 1269.171875 -5.722656 C 1260.925781 -5.488281 1251.992188 0.230469 1246.898438 5.730469 C 1238.1875 15.148438 1233.515625 29.566406 1238.945312 41.777344 C 1245.324219 56.097656 1261.957031 55.230469 1273.640625 47.921875 C 1284.800781 40.941406 1292.730469 28.042969 1292.234375 14.664062 C 1291.976562 7.71875 1289.277344 0.164062 1283.492188 -4.058594 Z M 1282.953125 21.515625 C 1280.179688 32.757812 1270.542969 42.519531 1258.957031 44.429688 C 1244.160156 46.875 1242.832031 29.089844 1246.78125 19.078125 C 1248.957031 13.554688 1252.90625 8.566406 1257.660156 5.027344 C 1259.476562 3.671875 1261.789062 2.285156 1264.269531 1.265625 C 1270.566406 0.164062 1277.597656 -0.289062 1281.304688 5.855469 C 1284.109375 10.511719 1284.222656 16.371094 1282.953125 21.515625 Z M 1322.296875 58.75 C 1321.605469 52.480469 1318.847656 45.902344 1312.960938 42.871094 C 1309.867188 41.277344 1305.648438 41.085938 1302.226562 42.414062 C 1292.800781 42.535156 1285 50.105469 1280.289062 58.476562 C 1274.6875 68.433594 1270.148438 81.988281 1278.726562 91.707031 C 1287.160156 101.265625 1301.773438 96.003906 1309.988281 88.917969 C 1318.492188 81.582031 1323.535156 69.988281 1322.296875 58.75 Z M 1313.386719 67.273438 C 1311.472656 76.136719 1304.914062 84.152344 1296.316406 87.28125 C 1291.308594 89.109375 1286.140625 89.027344 1283.242188 83.972656 C 1280.511719 79.214844 1281.765625 73.488281 1283.511719 68.632812 C 1286.179688 61.199219 1291.292969 52.246094 1298.839844 48.832031 C 1299.171875 48.9375 1299.5625 48.929688 1300.011719 48.746094 C 1311.398438 44.003906 1315.1875 58.910156 1313.386719 67.273438 Z M 1243.109375 81.8125 C 1242.703125 81.199219 1242.238281 80.566406 1241.730469 79.925781 C 1241.402344 77.429688 1240.820312 75.042969 1240.433594 73.398438 C 1239.0625 67.574219 1235.554688 63.929688 1229.257812 64.753906 C 1227.691406 64.960938 1226.203125 65.445312 1224.820312 66.144531 C 1221.132812 66.320312 1218.480469 70.898438 1216.746094 74.023438 C 1213.742188 79.445312 1212.234375 85.59375 1211.945312 91.761719 C 1211.675781 97.5625 1212.21875 104.773438 1215.886719 109.542969 C 1219.585938 114.347656 1225.792969 115.441406 1231.273438 113.214844 C 1242.191406 108.777344 1249.890625 92.132812 1243.109375 81.8125 Z M 1225.582031 106.285156 C 1219.667969 106.425781 1218.425781 97.875 1218.347656 92.25 C 1218.59375 92.789062 1218.847656 93.335938 1219.109375 93.882812 C 1219.855469 95.425781 1222.640625 94.734375 1222.4375 92.980469 C 1221.992188 89.097656 1221.738281 83.652344 1223.152344 79.265625 C 1223.449219 79.046875 1223.691406 78.753906 1223.832031 78.390625 C 1224.800781 75.890625 1231.378906 81.898438 1232.304688 82.730469 C 1233.433594 83.738281 1234.589844 84.816406 1235.519531 86.03125 C 1235.507812 86.171875 1235.480469 86.296875 1235.453125 86.417969 C 1234.507812 86.617188 1233.863281 87.714844 1234.382812 88.753906 C 1234.742188 89.464844 1234.96875 89.78125 1235.5 90.355469 C 1236.011719 90.90625 1236.691406 91.097656 1237.375 91.046875 C 1237.34375 96.546875 1231.550781 106.140625 1225.582031 106.285156 Z M 1291.863281 110.539062 C 1288.925781 111.320312 1287.230469 112.972656 1286.378906 115.117188 C 1286.207031 115.25 1286.046875 115.402344 1285.90625 115.585938 C 1280.265625 123.269531 1284.574219 137.242188 1292.542969 141.730469 C 1301.507812 146.777344 1308.699219 137.710938 1308.792969 129.285156 C 1308.890625 121.039062 1301.984375 107.851562 1291.863281 110.539062 Z M 1294.148438 131.660156 C 1294.8125 133.078125 1295.589844 134.414062 1296.445312 135.632812 C 1296.488281 135.695312 1296.539062 135.75 1296.589844 135.8125 C 1295.824219 135.535156 1295.101562 135.019531 1294.460938 134.410156 C 1294.332031 133.492188 1294.242188 132.578125 1294.148438 131.660156 Z M 1250.085938 135.851562 C 1248.585938 137.027344 1246.835938 137.160156 1245.359375 135.851562 C 1244.242188 134.859375 1243.171875 133.484375 1242.390625 131.949219 C 1239.234375 128.015625 1239.257812 121.648438 1242.988281 117.988281 C 1244.335938 116.667969 1246.0625 116.6875 1247.699219 117.382812 C 1254.503906 120.269531 1255.8125 131.359375 1250.085938 135.851562 Z M 1250.085938 135.851562 " fill-opacity="1" fill-rule="nonzero"/></g><g clip-path="url(#7ce0d2bd0f)"><path fill="#ffffff" d="M -1.144531 0 L 967.917969 0 L 967.917969 295.5 L -1.144531 295.5 Z M -1.144531 0 " fill-opacity="1" fill-rule="nonzero"/></g><path fill="#000000" d="M 13.285156 157.414062 C 7.171875 151.421875 4.117188 143.824219 4.117188 134.628906 C 4.117188 125.421875 7.191406 117.820312 13.339844 111.824219 C 19.492188 105.832031 27.019531 102.832031 35.925781 102.832031 C 42.691406 102.832031 48.703125 104.558594 53.960938 108.007812 C 59.214844 111.449219 62.976562 116.28125 65.238281 122.515625 L 50.183594 122.515625 C 47.390625 117.050781 42.632812 114.320312 35.925781 114.320312 C 30.28125 114.320312 25.6875 116.179688 22.152344 119.890625 C 18.625 123.597656 16.863281 128.523438 16.863281 134.667969 C 16.863281 140.808594 18.625 145.734375 22.152344 149.449219 C 25.6875 153.164062 30.28125 155.019531 35.925781 155.019531 C 42.578125 155.019531 47.332031 152.289062 50.183594 146.824219 L 65.238281 146.824219 C 62.976562 153.058594 59.214844 157.878906 53.960938 161.289062 C 48.703125 164.703125 42.691406 166.40625 35.925781 166.40625 C 26.949219 166.40625 19.40625 163.410156 13.285156 157.414062 Z M 13.285156 157.414062 " fill-opacity="1" fill-rule="nonzero"/><path fill="#000000" d="M 98.023438 155.988281 C 101.53125 155.988281 104.542969 154.703125 107.0625 152.125 C 109.589844 149.542969 110.855469 145.890625 110.855469 141.167969 C 110.855469 136.449219 109.605469 132.8125 107.105469 130.265625 C 104.613281 127.710938 101.601562 126.433594 98.066406 126.433594 C 94.53125 126.433594 91.542969 127.710938 89.113281 130.265625 C 86.675781 132.8125 85.460938 136.460938 85.460938 141.210938 C 85.460938 145.964844 86.675781 149.613281 89.113281 152.167969 C 91.542969 154.71875 94.515625 155.988281 98.023438 155.988281 Z M 79.929688 159.566406 C 75.117188 154.875 72.714844 148.726562 72.714844 141.125 C 72.714844 133.527344 75.148438 127.414062 80.015625 122.785156 C 84.890625 118.148438 90.9375 115.832031 98.152344 115.832031 C 105.371094 115.832031 111.417969 118.148438 116.289062 122.785156 C 121.152344 127.414062 123.585938 133.527344 123.585938 141.125 C 123.585938 148.726562 121.136719 154.875 116.230469 159.566406 C 111.332031 164.25 105.265625 166.589844 98.023438 166.589844 C 90.78125 166.589844 84.75 164.25 79.929688 159.566406 Z M 79.929688 159.566406 " fill-opacity="1" fill-rule="nonzero"/><path fill="#000000" d="M 167.609375 116.542969 L 180.171875 116.542969 L 180.171875 165.878906 L 167.609375 165.878906 L 167.609375 158.398438 C 164.460938 163.804688 159.324219 166.503906 152.195312 166.503906 C 146.609375 166.503906 142.03125 164.652344 138.46875 160.949219 C 134.902344 157.234375 133.121094 152.082031 133.121094 145.484375 L 133.121094 116.542969 L 145.597656 116.542969 L 145.597656 143.703125 C 145.597656 147.5625 146.574219 150.53125 148.53125 152.613281 C 150.5 154.691406 153.175781 155.730469 156.558594 155.730469 C 159.941406 155.730469 162.625 154.691406 164.617188 152.613281 C 166.613281 150.53125 167.609375 147.5625 167.609375 143.703125 Z M 167.609375 116.542969 " fill-opacity="1" fill-rule="nonzero"/><path fill="#000000" d="M 206.097656 116.542969 L 206.097656 125.265625 C 209.425781 118.976562 214.230469 115.832031 220.527344 115.832031 L 220.527344 128.65625 L 217.40625 128.65625 C 213.667969 128.65625 210.851562 129.59375 208.949219 131.464844 C 207.046875 133.335938 206.097656 136.558594 206.097656 141.125 L 206.097656 165.878906 L 193.539062 165.878906 L 193.539062 116.542969 Z M 206.097656 116.542969 " fill-opacity="1" fill-rule="nonzero"/><path fill="#000000" d="M 226.675781 130.964844 C 226.675781 126.6875 228.488281 123.097656 232.109375 120.191406 C 235.730469 117.285156 240.539062 115.832031 246.539062 115.832031 C 252.542969 115.832031 257.359375 117.269531 260.980469 120.148438 C 264.601562 123.027344 266.53125 126.929688 266.769531 131.863281 L 253.9375 131.863281 C 253.585938 127.703125 251.035156 125.621094 246.28125 125.621094 C 243.90625 125.621094 242.0625 126.097656 240.75 127.046875 C 239.445312 127.996094 238.796875 129.304688 238.796875 130.964844 C 238.796875 132.628906 239.773438 133.9375 241.734375 134.882812 C 243.691406 135.835938 246.066406 136.578125 248.863281 137.121094 C 251.65625 137.65625 254.429688 138.324219 257.1875 139.128906 C 259.953125 139.929688 262.316406 141.351562 264.273438 143.40625 C 266.230469 145.449219 267.210938 148.160156 267.210938 151.542969 C 267.210938 156 265.324219 159.621094 261.550781 162.414062 C 257.789062 165.203125 252.976562 166.589844 247.125 166.589844 C 241.277344 166.589844 236.480469 165.214844 232.738281 162.457031 C 228.992188 159.695312 226.941406 155.730469 226.59375 150.558594 L 239.425781 150.558594 C 239.898438 154.71875 242.539062 156.800781 247.351562 156.800781 C 249.660156 156.800781 251.527344 156.285156 252.953125 155.246094 C 254.378906 154.203125 255.09375 152.835938 255.09375 151.144531 C 255.09375 149.453125 254.113281 148.117188 252.15625 147.140625 C 250.195312 146.152344 247.820312 145.394531 245.027344 144.859375 C 242.238281 144.328125 239.46875 143.675781 236.699219 142.90625 C 233.933594 142.136719 231.570312 140.761719 229.613281 138.773438 C 227.65625 136.777344 226.675781 134.179688 226.675781 130.964844 Z M 226.675781 130.964844 " fill-opacity="1" fill-rule="nonzero"/><path fill="#000000" d="M 298.757812 166.589844 C 291.570312 166.589844 285.71875 164.265625 281.203125 159.609375 C 276.6875 154.945312 274.433594 148.785156 274.433594 141.125 C 274.433594 133.46875 276.703125 127.339844 281.246094 122.742188 C 285.789062 118.136719 291.671875 115.832031 298.882812 115.832031 C 306.105469 115.832031 312.035156 118.074219 316.664062 122.558594 C 321.289062 127.042969 323.605469 133.023438 323.605469 140.5 C 323.605469 142.21875 323.484375 143.820312 323.25 145.300781 L 287.265625 145.300781 C 287.558594 148.515625 288.738281 151.097656 290.816406 153.054688 C 292.894531 155.011719 295.542969 155.988281 298.757812 155.988281 C 303.089844 155.988281 306.296875 154.207031 308.378906 150.644531 L 321.925781 150.644531 C 320.5 155.339844 317.734375 159.171875 313.625 162.144531 C 309.527344 165.109375 304.574219 166.589844 298.757812 166.589844 Z M 310.605469 137.207031 C 310.421875 133.9375 309.222656 131.328125 306.996094 129.367188 C 304.773438 127.414062 302.082031 126.433594 298.925781 126.433594 C 295.78125 126.433594 293.152344 127.414062 291.042969 129.367188 C 288.941406 131.328125 287.679688 133.9375 287.265625 137.207031 Z M 310.605469 137.207031 " fill-opacity="1" fill-rule="nonzero"/><path fill="#000000" d="M 402.28125 149.449219 C 405.789062 145.734375 407.542969 140.792969 407.542969 134.628906 C 407.542969 128.453125 405.789062 123.527344 402.28125 119.847656 C 398.78125 116.164062 394.210938 114.320312 388.566406 114.320312 C 382.917969 114.320312 378.328125 116.179688 374.792969 119.890625 C 371.261719 123.597656 369.503906 128.523438 369.503906 134.667969 C 369.503906 140.808594 371.261719 145.734375 374.792969 149.449219 C 378.328125 153.164062 382.917969 155.019531 388.566406 155.019531 C 394.210938 155.019531 398.78125 153.164062 402.28125 149.449219 Z M 388.550781 166.503906 C 379.585938 166.503906 372.042969 163.507812 365.925781 157.511719 C 359.8125 151.511719 356.757812 143.898438 356.757812 134.667969 C 356.757812 125.433594 359.828125 117.820312 365.980469 111.824219 C 372.128906 105.832031 379.671875 102.832031 388.609375 102.832031 C 397.539062 102.832031 405.066406 105.832031 411.191406 111.824219 C 417.3125 117.820312 420.375 125.433594 420.375 134.667969 C 420.375 143.898438 417.3125 151.511719 411.191406 157.511719 C 405.066406 163.507812 397.523438 166.503906 388.550781 166.503906 Z M 388.550781 166.503906 " fill-opacity="1" fill-rule="nonzero"/><path fill="#000000" d="M 464.296875 116.542969 L 476.859375 116.542969 L 476.859375 165.878906 L 464.296875 165.878906 L 464.296875 158.398438 C 461.148438 163.804688 456.011719 166.503906 448.882812 166.503906 C 443.296875 166.503906 438.71875 164.652344 435.15625 160.949219 C 431.589844 157.234375 429.808594 152.082031 429.808594 145.484375 L 429.808594 116.542969 L 442.285156 116.542969 L 442.285156 143.703125 C 442.285156 147.5625 443.261719 150.53125 445.21875 152.613281 C 447.1875 154.691406 449.859375 155.730469 453.246094 155.730469 C 456.628906 155.730469 459.3125 154.691406 461.304688 152.613281 C 463.300781 150.53125 464.296875 147.5625 464.296875 143.703125 Z M 464.296875 116.542969 " fill-opacity="1" fill-rule="nonzero"/><path fill="#000000" d="M 509.375 155.375 L 515.347656 155.375 L 515.347656 165.878906 L 507.421875 165.878906 C 502.375 165.878906 498.480469 164.722656 495.742188 162.414062 C 493.011719 160.101562 491.652344 156.265625 491.652344 150.914062 L 491.652344 126.789062 L 486.390625 126.789062 L 486.390625 116.542969 L 491.652344 116.542969 L 491.652344 104.34375 L 504.210938 104.34375 L 504.210938 116.542969 L 515.261719 116.542969 L 515.261719 126.789062 L 504.210938 126.789062 L 504.210938 150.914062 C 504.210938 152.523438 504.597656 153.664062 505.367188 154.351562 C 506.136719 155.035156 507.46875 155.375 509.375 155.375 Z M 509.375 155.375 " fill-opacity="1" fill-rule="nonzero"/><path fill="#000000" d="M 525.152344 99.984375 L 537.710938 99.984375 L 537.710938 165.878906 L 525.152344 165.878906 Z M 525.152344 99.984375 " fill-opacity="1" fill-rule="nonzero"/><path fill="#000000" d="M 564.980469 103.988281 C 564.980469 106.125 564.230469 107.933594 562.742188 109.417969 C 561.257812 110.898438 559.460938 111.640625 557.351562 111.640625 C 555.242188 111.640625 553.445312 110.898438 551.960938 109.417969 C 550.480469 107.933594 549.738281 106.125 549.738281 103.988281 C 549.738281 101.851562 550.480469 100.039062 551.960938 98.558594 C 553.445312 97.078125 555.242188 96.335938 557.351562 96.335938 C 559.460938 96.335938 561.257812 97.078125 562.742188 98.558594 C 564.230469 100.039062 564.980469 101.851562 564.980469 103.988281 Z M 551.078125 165.878906 L 551.078125 116.542969 L 563.636719 116.542969 L 563.636719 165.878906 Z M 551.078125 165.878906 " fill-opacity="1" fill-rule="nonzero"/><path fill="#000000" d="M 589.566406 116.542969 L 589.566406 123.9375 C 592.707031 118.535156 597.820312 115.832031 604.890625 115.832031 C 610.527344 115.832031 615.128906 117.691406 618.695312 121.402344 C 622.257812 125.109375 624.039062 130.257812 624.039062 136.851562 L 624.039062 165.878906 L 611.566406 165.878906 L 611.566406 138.632812 C 611.566406 134.777344 610.585938 131.820312 608.628906 129.765625 C 606.667969 127.714844 603.992188 126.6875 600.601562 126.6875 C 597.214844 126.6875 594.53125 127.714844 592.546875 129.765625 C 590.554688 131.820312 589.566406 134.777344 589.566406 138.632812 L 589.566406 165.878906 L 577.003906 165.878906 L 577.003906 116.542969 Z M 589.566406 116.542969 " fill-opacity="1" fill-rule="nonzero"/><path fill="#000000" d="M 657.808594 166.589844 C 650.625 166.589844 644.773438 164.265625 640.257812 159.609375 C 635.742188 154.945312 633.488281 148.785156 633.488281 141.125 C 633.488281 133.46875 635.757812 127.339844 640.300781 122.742188 C 644.84375 118.136719 650.722656 115.832031 657.9375 115.832031 C 665.160156 115.832031 671.085938 118.074219 675.71875 122.558594 C 680.34375 127.042969 682.660156 133.023438 682.660156 140.5 C 682.660156 142.21875 682.539062 143.820312 682.304688 145.300781 L 646.320312 145.300781 C 646.609375 148.515625 647.792969 151.097656 649.867188 153.054688 C 651.949219 155.011719 654.59375 155.988281 657.808594 155.988281 C 662.144531 155.988281 665.351562 154.207031 667.433594 150.644531 L 680.980469 150.644531 C 679.554688 155.339844 676.785156 159.171875 672.679688 162.144531 C 668.582031 165.109375 663.628906 166.589844 657.808594 166.589844 Z M 669.660156 137.207031 C 669.476562 133.9375 668.273438 131.328125 666.050781 129.367188 C 663.828125 127.414062 661.136719 126.433594 657.980469 126.433594 C 654.832031 126.433594 652.207031 127.414062 650.097656 129.367188 C 647.992188 131.328125 646.734375 133.9375 646.320312 137.207031 Z M 669.660156 137.207031 " fill-opacity="1" fill-rule="nonzero"/><path fill="#000000" d="M 4.058594 72.957031 L 6.484375 72.957031 C 8.136719 72.957031 9.394531 72.507812 10.261719 71.601562 C 11.136719 70.6875 11.574219 69.421875 11.574219 67.796875 C 11.574219 66.164062 11.136719 64.890625 10.261719 63.976562 C 9.394531 63.066406 8.136719 62.609375 6.484375 62.609375 L 4.058594 62.609375 Z M 6.484375 61.15625 C 8.601562 61.15625 10.277344 61.75 11.503906 62.9375 C 12.730469 64.125 13.339844 65.742188 13.339844 67.78125 C 13.339844 69.828125 12.730469 71.421875 11.503906 72.570312 C 10.277344 73.710938 8.601562 74.28125 6.484375 74.28125 L 2.335938 74.28125 L 2.335938 61.15625 Z M 6.484375 61.15625 " fill-opacity="1" fill-rule="nonzero"/><path fill="#000000" d="M 25.519531 74.28125 L 24.492188 71.402344 L 18.660156 71.402344 L 17.636719 74.28125 L 15.867188 74.28125 L 20.644531 61.15625 L 22.539062 61.15625 L 27.300781 74.28125 Z M 19.144531 70.035156 L 24.007812 70.035156 L 21.585938 63.265625 Z M 19.144531 70.035156 " fill-opacity="1" fill-rule="nonzero"/><path fill="#000000" d="M 29.902344 62.539062 L 29.902344 61.15625 L 38.570312 61.15625 L 38.570312 62.539062 L 35.105469 62.539062 L 35.105469 74.28125 L 33.382812 74.28125 L 33.382812 62.539062 Z M 29.902344 62.539062 " fill-opacity="1" fill-rule="nonzero"/><path fill="#000000" d="M 50.84375 74.28125 L 49.816406 71.402344 L 43.988281 71.402344 L 42.960938 74.28125 L 41.191406 74.28125 L 45.96875 61.15625 L 47.863281 61.15625 L 52.625 74.28125 Z M 44.472656 70.035156 L 49.332031 70.035156 L 46.910156 63.265625 Z M 44.472656 70.035156 " fill-opacity="1" fill-rule="nonzero"/><path fill="#000000" d="M 63.855469 64.660156 C 63.855469 65.136719 63.984375 65.539062 64.253906 65.859375 C 64.515625 66.171875 64.859375 66.40625 65.28125 66.554688 C 65.695312 66.710938 66.15625 66.839844 66.664062 66.957031 C 67.175781 67.070312 67.6875 67.199219 68.203125 67.339844 C 68.714844 67.484375 69.179688 67.667969 69.601562 67.894531 C 70.015625 68.125 70.355469 68.464844 70.613281 68.921875 C 70.875 69.378906 71.011719 69.941406 71.011719 70.605469 C 71.011719 71.628906 70.621094 72.523438 69.84375 73.28125 C 69.0625 74.035156 68.003906 74.410156 66.664062 74.410156 C 65.328125 74.410156 64.246094 74.105469 63.414062 73.496094 C 62.585938 72.878906 62.171875 72.050781 62.171875 71.003906 L 64.011719 71.003906 C 64.058594 71.601562 64.289062 72.085938 64.710938 72.457031 C 65.136719 72.820312 65.765625 72.996094 66.589844 72.996094 C 67.425781 72.996094 68.09375 72.785156 68.585938 72.355469 C 69.078125 71.921875 69.328125 71.417969 69.328125 70.847656 C 69.328125 70.269531 69.195312 69.828125 68.929688 69.519531 C 68.664062 69.207031 68.320312 68.976562 67.902344 68.824219 C 67.492188 68.671875 67.035156 68.542969 66.519531 68.4375 C 66.007812 68.335938 65.492188 68.207031 64.980469 68.054688 C 64.46875 67.902344 64 67.710938 63.582031 67.484375 C 63.171875 67.246094 62.835938 66.898438 62.570312 66.441406 C 62.304688 65.980469 62.171875 65.402344 62.171875 64.71875 C 62.171875 63.605469 62.5625 62.714844 63.355469 62.039062 C 64.144531 61.367188 65.167969 61.027344 66.433594 61.027344 C 67.707031 61.027344 68.71875 61.324219 69.472656 61.910156 C 70.21875 62.492188 70.65625 63.300781 70.769531 64.332031 L 68.859375 64.332031 C 68.808594 63.820312 68.566406 63.386719 68.132812 63.023438 C 67.691406 62.652344 67.105469 62.464844 66.363281 62.464844 C 65.621094 62.464844 65.015625 62.652344 64.554688 63.023438 C 64.085938 63.394531 63.855469 63.941406 63.855469 64.660156 Z M 63.855469 64.660156 " fill-opacity="1" fill-rule="nonzero"/><path fill="#000000" d="M 80.523438 74.394531 C 78.644531 74.394531 77.054688 73.765625 75.761719 72.5 C 74.480469 71.238281 73.839844 69.632812 73.839844 67.695312 C 73.839844 65.757812 74.480469 64.164062 75.761719 62.910156 C 77.054688 61.65625 78.644531 61.027344 80.523438 61.027344 C 81.882812 61.027344 83.09375 61.351562 84.160156 61.996094 C 85.234375 62.632812 86.023438 63.558594 86.527344 64.773438 L 84.445312 64.773438 C 83.664062 63.292969 82.355469 62.550781 80.523438 62.550781 C 79.097656 62.550781 77.917969 63.023438 76.988281 63.964844 C 76.054688 64.902344 75.59375 66.152344 75.59375 67.710938 C 75.59375 69.261719 76.054688 70.511719 76.988281 71.457031 C 77.917969 72.410156 79.097656 72.882812 80.523438 72.882812 C 81.398438 72.882812 82.171875 72.695312 82.847656 72.3125 C 83.535156 71.925781 84.066406 71.371094 84.445312 70.648438 L 86.527344 70.648438 C 86.023438 71.855469 85.234375 72.78125 84.160156 73.425781 C 83.09375 74.074219 81.882812 74.394531 80.523438 74.394531 Z M 80.523438 74.394531 " fill-opacity="1" fill-rule="nonzero"/><path fill="#000000" d="M 90.1875 61.15625 L 91.914062 61.15625 L 91.914062 74.28125 L 90.1875 74.28125 Z M 90.1875 61.15625 " fill-opacity="1" fill-rule="nonzero"/><path fill="#000000" d="M 102.644531 61.15625 L 102.644531 62.523438 L 97.425781 62.523438 L 97.425781 66.984375 L 102.085938 66.984375 L 102.085938 68.339844 L 97.425781 68.339844 L 97.425781 72.914062 L 102.644531 72.914062 L 102.644531 74.28125 L 95.699219 74.28125 L 95.699219 61.15625 Z M 102.644531 61.15625 " fill-opacity="1" fill-rule="nonzero"/><path fill="#000000" d="M 114.867188 61.15625 L 116.59375 61.15625 L 116.59375 74.28125 L 114.867188 74.28125 L 107.9375 63.863281 L 107.9375 74.28125 L 106.214844 74.28125 L 106.214844 61.15625 L 107.9375 61.15625 L 114.867188 71.574219 Z M 114.867188 61.15625 " fill-opacity="1" fill-rule="nonzero"/><path fill="#000000" d="M 126.382812 74.394531 C 124.503906 74.394531 122.914062 73.765625 121.621094 72.5 C 120.339844 71.238281 119.695312 69.632812 119.695312 67.695312 C 119.695312 65.757812 120.339844 64.164062 121.621094 62.910156 C 122.914062 61.65625 124.503906 61.027344 126.382812 61.027344 C 127.742188 61.027344 128.953125 61.351562 130.019531 61.996094 C 131.09375 62.632812 131.878906 63.558594 132.386719 64.773438 L 130.304688 64.773438 C 129.523438 63.292969 128.214844 62.550781 126.382812 62.550781 C 124.957031 62.550781 123.777344 63.023438 122.847656 63.964844 C 121.914062 64.902344 121.449219 66.152344 121.449219 67.710938 C 121.449219 69.261719 121.914062 70.511719 122.847656 71.457031 C 123.777344 72.410156 124.957031 72.882812 126.382812 72.882812 C 127.257812 72.882812 128.03125 72.695312 128.707031 72.3125 C 129.390625 71.925781 129.921875 71.371094 130.304688 70.648438 L 132.386719 70.648438 C 131.878906 71.855469 131.09375 72.78125 130.019531 73.425781 C 128.953125 74.074219 127.742188 74.394531 126.382812 74.394531 Z M 126.382812 74.394531 " fill-opacity="1" fill-rule="nonzero"/><path fill="#000000" d="M 142.992188 61.15625 L 142.992188 62.523438 L 137.773438 62.523438 L 137.773438 66.984375 L 142.433594 66.984375 L 142.433594 68.339844 L 137.773438 68.339844 L 137.773438 72.914062 L 142.992188 72.914062 L 142.992188 74.28125 L 136.046875 74.28125 L 136.046875 61.15625 Z M 142.992188 61.15625 " fill-opacity="1" fill-rule="nonzero"/><path fill="#000000" d="M 153.1875 74.28125 L 153.1875 61.15625 L 160.574219 61.15625 L 160.574219 62.539062 L 154.914062 62.539062 L 154.914062 66.984375 L 159.378906 66.984375 L 159.378906 68.351562 L 154.914062 68.351562 L 154.914062 74.28125 Z M 153.1875 74.28125 " fill-opacity="1" fill-rule="nonzero"/><path fill="#000000" d="M 170.363281 61.15625 L 170.363281 62.523438 L 165.144531 62.523438 L 165.144531 66.984375 L 169.804688 66.984375 L 169.804688 68.339844 L 165.144531 68.339844 L 165.144531 72.914062 L 170.363281 72.914062 L 170.363281 74.28125 L 163.417969 74.28125 L 163.417969 61.15625 Z M 170.363281 61.15625 " fill-opacity="1" fill-rule="nonzero"/><path fill="#000000" d="M 173.933594 61.15625 L 175.65625 61.15625 L 175.65625 72.957031 L 180.261719 72.957031 L 180.261719 74.28125 L 173.933594 74.28125 Z M 173.933594 61.15625 " fill-opacity="1" fill-rule="nonzero"/><path fill="#000000" d="M 183.003906 61.15625 L 184.730469 61.15625 L 184.730469 72.957031 L 189.335938 72.957031 L 189.335938 74.28125 L 183.003906 74.28125 Z M 183.003906 61.15625 " fill-opacity="1" fill-rule="nonzero"/><path fill="#000000" d="M 201.601562 71.457031 C 202.519531 70.511719 202.984375 69.261719 202.984375 67.710938 C 202.984375 66.152344 202.519531 64.902344 201.601562 63.964844 C 200.679688 63.023438 199.5 62.550781 198.066406 62.550781 C 196.628906 62.550781 195.445312 63.023438 194.515625 63.964844 C 193.59375 64.902344 193.132812 66.152344 193.132812 67.710938 C 193.132812 69.261719 193.597656 70.511719 194.53125 71.457031 C 195.472656 72.410156 196.65625 72.882812 198.082031 72.882812 C 199.507812 72.882812 200.679688 72.410156 201.601562 71.457031 Z M 198.082031 74.410156 C 196.199219 74.410156 194.609375 73.777344 193.316406 72.511719 C 192.035156 71.242188 191.394531 69.632812 191.394531 67.695312 C 191.394531 65.757812 192.035156 64.164062 193.316406 62.910156 C 194.609375 61.65625 196.199219 61.027344 198.082031 61.027344 C 199.960938 61.027344 201.542969 61.65625 202.828125 62.910156 C 204.109375 64.164062 204.753906 65.765625 204.753906 67.710938 C 204.753906 69.660156 204.109375 71.265625 202.828125 72.527344 C 201.542969 73.78125 199.960938 74.410156 198.082031 74.410156 Z M 198.082031 74.410156 " fill-opacity="1" fill-rule="nonzero"/><path fill="#000000" d="M 222.707031 61.15625 L 224.53125 61.15625 L 220.539062 74.28125 L 218.617188 74.28125 L 215.664062 63.679688 L 212.5 74.28125 L 210.574219 74.292969 L 206.867188 61.15625 L 208.679688 61.15625 L 211.601562 72.3125 L 214.78125 61.15625 L 216.675781 61.15625 L 219.613281 72.269531 Z M 222.707031 61.15625 " fill-opacity="1" fill-rule="nonzero"/><path fill="#000000" d="M 228.746094 64.660156 C 228.746094 65.136719 228.878906 65.539062 229.144531 65.859375 C 229.410156 66.171875 229.75 66.40625 230.171875 66.554688 C 230.589844 66.710938 231.046875 66.839844 231.554688 66.957031 C 232.066406 67.070312 232.582031 67.199219 233.09375 67.339844 C 233.605469 67.484375 234.070312 67.667969 234.492188 67.894531 C 234.910156 68.125 235.246094 68.464844 235.503906 68.921875 C 235.765625 69.378906 235.902344 69.941406 235.902344 70.605469 C 235.902344 71.628906 235.511719 72.523438 234.734375 73.28125 C 233.953125 74.035156 232.894531 74.410156 231.554688 74.410156 C 230.222656 74.410156 229.136719 74.105469 228.304688 73.496094 C 227.476562 72.878906 227.0625 72.050781 227.0625 71.003906 L 228.902344 71.003906 C 228.949219 71.601562 229.179688 72.085938 229.601562 72.457031 C 230.027344 72.820312 230.65625 72.996094 231.484375 72.996094 C 232.316406 72.996094 232.984375 72.785156 233.480469 72.355469 C 233.972656 71.921875 234.21875 71.417969 234.21875 70.847656 C 234.21875 70.269531 234.085938 69.828125 233.820312 69.519531 C 233.554688 69.207031 233.210938 68.976562 232.792969 68.824219 C 232.382812 68.671875 231.925781 68.542969 231.410156 68.4375 C 230.898438 68.335938 230.386719 68.207031 229.871094 68.054688 C 229.359375 67.902344 228.890625 67.710938 228.472656 67.484375 C 228.066406 67.246094 227.726562 66.898438 227.460938 66.441406 C 227.195312 65.980469 227.0625 65.402344 227.0625 64.71875 C 227.0625 63.605469 227.453125 62.714844 228.246094 62.039062 C 229.035156 61.367188 230.0625 61.027344 231.324219 61.027344 C 232.597656 61.027344 233.609375 61.324219 234.363281 61.910156 C 235.113281 62.492188 235.546875 63.300781 235.660156 64.332031 L 233.75 64.332031 C 233.699219 63.820312 233.457031 63.386719 233.023438 63.023438 C 232.585938 62.652344 231.996094 62.464844 231.253906 62.464844 C 230.511719 62.464844 229.90625 62.652344 229.445312 63.023438 C 228.976562 63.394531 228.746094 63.941406 228.746094 64.660156 Z M 228.746094 64.660156 " fill-opacity="1" fill-rule="nonzero"/><path fill="#000000" d="M 247.742188 61.15625 L 249.492188 61.15625 L 249.492188 74.28125 L 247.742188 74.28125 L 247.742188 68.351562 L 241.140625 68.351562 L 241.140625 74.28125 L 239.414062 74.28125 L 239.414062 61.15625 L 241.140625 61.15625 L 241.140625 66.984375 L 247.742188 66.984375 Z M 247.742188 61.15625 " fill-opacity="1" fill-rule="nonzero"/><path fill="#000000" d="M 253.28125 61.15625 L 255.003906 61.15625 L 255.003906 74.28125 L 253.28125 74.28125 Z M 253.28125 61.15625 " fill-opacity="1" fill-rule="nonzero"/><path fill="#000000" d="M 263.054688 61.15625 C 264.527344 61.15625 265.652344 61.519531 266.433594 62.238281 C 267.210938 62.960938 267.601562 63.882812 267.601562 65.003906 C 267.601562 66.125 267.226562 67.050781 266.476562 67.78125 C 265.722656 68.503906 264.582031 68.863281 263.054688 68.863281 L 260.515625 68.863281 L 260.515625 74.28125 L 258.792969 74.28125 L 258.792969 61.15625 Z M 260.515625 67.496094 L 263.054688 67.496094 C 263.996094 67.496094 264.695312 67.285156 265.152344 66.855469 C 265.613281 66.421875 265.847656 65.808594 265.847656 65.015625 C 265.847656 63.363281 264.914062 62.539062 263.054688 62.539062 L 260.515625 62.539062 Z M 260.515625 67.496094 " fill-opacity="1" fill-rule="nonzero"/><g clip-path="url(#c741bb7b98)"><g clip-path="url(#2ce9fad84d)"><path fill="#edeced" d="M 0.910156 210.3125 L 278.886719 210.3125 L 278.886719 258.273438 L 0.910156 258.273438 Z M 0.910156 210.3125 " fill-opacity="1" fill-rule="nonzero"/></g></g><g clip-path="url(#646f467200)"><path fill="#000000" d="M 19.652344 242.230469 C 19.929688 240.820312 20.148438 239.550781 20.453125 238.304688 C 20.605469 237.675781 20.5 237.355469 19.863281 237.144531 C 18.910156 236.820312 17.953125 236.386719 16.933594 235.964844 C 18.148438 229.707031 19.355469 223.464844 20.578125 217.148438 C 20.789062 217.210938 20.964844 217.261719 21.140625 217.328125 C 25.90625 219.171875 30.671875 221.042969 35.441406 222.875 C 35.898438 223.054688 36.023438 223.253906 35.9375 223.730469 C 34.820312 229.6875 33.722656 235.652344 32.601562 241.621094 C 32.523438 241.972656 32.359375 242.296875 32.125 242.570312 C 29.644531 245.421875 27.148438 248.191406 24.660156 251.007812 C 24.539062 251.160156 24.375 251.273438 24.1875 251.339844 C 24.753906 248.328125 25.324219 245.324219 25.894531 242.21875 Z M 35.316406 223.351562 L 23.980469 223.351562 C 23.027344 227.957031 22.121094 232.539062 21.199219 237.15625 L 26.46875 239.300781 C 26.871094 237.164062 27.238281 235.121094 27.660156 233.085938 C 27.742188 232.6875 27.914062 232.3125 28.167969 231.988281 C 29.3125 230.574219 30.496094 229.136719 31.65625 227.777344 Z M 20.976562 217.8125 C 19.792969 223.796875 18.671875 229.71875 17.527344 235.652344 L 20.75 236.957031 C 21.699219 232.203125 22.65625 227.453125 23.609375 222.753906 L 33.390625 222.753906 L 33.390625 222.648438 Z M 35.277344 224.273438 C 35.179688 224.351562 35.089844 224.4375 35.003906 224.53125 C 32.789062 227.179688 30.585938 229.820312 28.394531 232.480469 C 28.265625 232.652344 28.175781 232.847656 28.136719 233.058594 C 27.820312 234.726562 27.503906 236.382812 27.183594 238.027344 C 26.917969 239.523438 26.917969 239.523438 28.308594 240.089844 L 32.046875 241.609375 C 33.144531 235.816406 34.222656 230.09375 35.300781 224.273438 Z M 31.800781 242.191406 L 28.253906 242.191406 C 27.660156 242.191406 26.917969 242.03125 26.527344 242.320312 C 26.136719 242.617188 26.21875 243.359375 26.117188 243.910156 C 25.742188 245.808594 25.402344 247.707031 25.039062 249.609375 L 25.15625 249.667969 Z M 20.300781 241.628906 L 26.019531 241.628906 C 26.105469 241.203125 26.164062 240.792969 26.277344 240.394531 C 26.390625 239.996094 26.277344 239.765625 25.867188 239.605469 C 24.457031 239.054688 23.066406 238.46875 21.664062 237.898438 C 21.492188 237.828125 21.3125 237.789062 21.089844 237.726562 C 20.804688 239.054688 20.558594 240.320312 20.300781 241.628906 Z M 30.464844 241.628906 L 30.464844 241.507812 L 26.851562 240.035156 L 26.546875 241.636719 Z M 30.464844 241.628906 " fill-opacity="1" fill-rule="evenodd"/></g><path fill="#000000" d="M 89.394531 230.449219 C 88.5 233.566406 87.664062 236.507812 86.8125 239.453125 C 86.785156 239.609375 86.722656 239.761719 86.625 239.886719 C 86.53125 240.011719 86.40625 240.117188 86.265625 240.191406 C 86.125 240.261719 85.964844 240.296875 85.808594 240.300781 C 85.644531 240.300781 85.488281 240.265625 85.347656 240.195312 C 85.234375 240.136719 85.148438 240.039062 85.109375 239.921875 C 84.039062 236.289062 82.972656 232.65625 81.914062 229.023438 C 83.019531 228.71875 83.058594 228.738281 83.351562 229.761719 L 85.582031 237.761719 C 85.640625 238 85.75 238.222656 85.90625 238.410156 C 86.824219 235.242188 87.730469 232.113281 88.632812 229.011719 C 88.6875 228.992188 88.742188 228.96875 88.796875 228.953125 C 90.113281 228.898438 90.125 228.898438 90.476562 230.132812 C 91.1875 232.640625 91.90625 235.140625 92.628906 237.648438 C 92.695312 237.921875 92.828125 238.175781 93.011719 238.390625 C 93.898438 235.265625 94.785156 232.140625 95.691406 228.984375 L 96.875 228.984375 C 96.359375 230.789062 95.863281 232.558594 95.355469 234.324219 C 94.851562 236.089844 94.28125 237.886719 93.792969 239.683594 C 93.648438 240.207031 93.363281 240.292969 92.894531 240.292969 C 92.429688 240.292969 92.164062 240.175781 92.019531 239.652344 C 91.238281 236.804688 90.398438 233.953125 89.578125 231.101562 C 89.519531 230.960938 89.464844 230.800781 89.394531 230.449219 Z M 89.394531 230.449219 " fill-opacity="1" fill-rule="evenodd"/><path fill="#000000" d="M 139.625 240.367188 L 139.625 228.964844 C 141.179688 228.964844 142.714844 228.851562 144.230469 228.964844 C 144.789062 229.003906 145.316406 229.230469 145.726562 229.605469 C 146.140625 229.988281 146.410156 230.492188 146.492188 231.046875 C 146.644531 231.589844 146.613281 232.171875 146.402344 232.695312 C 146.191406 233.222656 145.8125 233.664062 145.328125 233.953125 C 145.261719 233.953125 145.203125 234.066406 145.089844 234.164062 C 145.355469 234.351562 145.613281 234.511719 145.84375 234.695312 C 146.324219 235.027344 146.691406 235.507812 146.894531 236.054688 C 147.09375 236.609375 147.117188 237.207031 146.96875 237.773438 C 146.878906 238.355469 146.601562 238.894531 146.171875 239.304688 C 145.746094 239.714844 145.195312 239.96875 144.601562 240.035156 C 142.980469 240.292969 141.332031 240.292969 139.625 240.367188 Z M 140.730469 239.082031 C 141.875 239.082031 142.933594 239.082031 143.980469 239.082031 C 144.484375 239.070312 144.960938 238.867188 145.316406 238.511719 C 145.671875 238.15625 145.875 237.683594 145.886719 237.183594 C 145.917969 236.675781 145.753906 236.171875 145.425781 235.78125 C 145.101562 235.386719 144.640625 235.128906 144.136719 235.054688 C 143.152344 234.988281 142.164062 234.988281 141.179688 235.054688 C 141.078125 235.089844 140.992188 235.148438 140.917969 235.226562 C 140.847656 235.300781 140.796875 235.390625 140.769531 235.492188 C 140.714844 236.644531 140.730469 237.820312 140.730469 239.082031 Z M 140.730469 233.894531 C 141.925781 233.765625 143.03125 233.695312 144.125 233.507812 C 144.476562 233.441406 144.789062 233.246094 145 232.960938 C 145.214844 232.675781 145.3125 232.320312 145.269531 231.96875 C 145.269531 231.019531 144.925781 230.324219 144.136719 230.207031 C 143.140625 230.089844 142.136719 230.046875 141.132812 230.078125 C 141 230.078125 140.753906 230.363281 140.753906 230.523438 C 140.742188 231.585938 140.757812 232.660156 140.757812 233.894531 Z M 140.730469 233.894531 " fill-opacity="1" fill-rule="evenodd"/><path fill="#000000" d="M 124.074219 240.183594 C 124.171875 239.96875 124.246094 239.738281 124.339844 239.527344 C 125.78125 236.242188 127.199219 232.957031 128.660156 229.667969 C 128.714844 229.476562 128.832031 229.308594 129 229.195312 C 129.164062 229.082031 129.367188 229.03125 129.566406 229.050781 C 129.757812 229.03125 129.949219 229.082031 130.101562 229.195312 C 130.257812 229.304688 130.367188 229.464844 130.414062 229.648438 C 131.796875 232.964844 133.199219 236.300781 134.601562 239.566406 C 134.679688 239.75 134.734375 239.929688 134.800781 240.109375 C 133.847656 240.46875 133.621094 240.375 133.273438 239.558594 C 133.027344 238.96875 132.761719 238.390625 132.539062 237.800781 C 132.503906 237.65625 132.414062 237.527344 132.285156 237.445312 C 132.160156 237.359375 132.003906 237.328125 131.855469 237.355469 C 130.203125 237.355469 128.566406 237.355469 126.914062 237.355469 C 126.765625 237.332031 126.613281 237.367188 126.488281 237.453125 C 126.363281 237.535156 126.273438 237.660156 126.238281 237.8125 C 126.019531 238.382812 125.683594 238.914062 125.515625 239.492188 C 125.285156 240.269531 124.808594 240.382812 124.074219 240.183594 Z M 126.9375 236.074219 L 131.789062 236.074219 C 130.996094 234.171875 130.222656 232.273438 129.394531 230.304688 C 128.59375 232.347656 127.800781 234.152344 126.984375 236.074219 Z M 126.9375 236.074219 " fill-opacity="1" fill-rule="evenodd"/><path fill="#000000" d="M 52.707031 239.140625 C 52.707031 239.566406 52.792969 239.882812 52.832031 240.253906 L 45.6875 240.253906 L 45.6875 228.964844 L 52.480469 228.964844 L 52.613281 229.972656 L 46.816406 229.972656 L 46.816406 233.773438 L 52.050781 233.773438 L 52.050781 234.933594 L 46.777344 234.933594 L 46.777344 239.121094 Z M 52.707031 239.140625 " fill-opacity="1" fill-rule="evenodd"/><path fill="#000000" d="M 70.386719 240.167969 L 70.386719 228.976562 L 71.453125 228.976562 L 71.453125 233.726562 C 71.738281 233.507812 71.917969 233.382812 72.082031 233.242188 C 73.386719 232.0625 74.730469 230.921875 75.972656 229.679688 C 76.273438 229.351562 76.652344 229.113281 77.082031 228.992188 C 77.503906 228.871094 77.957031 228.867188 78.386719 228.984375 L 72.855469 234.078125 C 74.8125 236.148438 76.753906 238.046875 78.773438 240.167969 C 78.449219 240.269531 78.101562 240.285156 77.765625 240.207031 C 77.429688 240.132812 77.121094 239.96875 76.867188 239.738281 C 75.3125 238.160156 73.683594 236.648438 72.101562 235.109375 C 71.960938 234.96875 71.796875 234.824219 71.539062 234.609375 L 71.539062 240.167969 Z M 70.386719 240.167969 " fill-opacity="1" fill-rule="evenodd"/><path fill="#000000" d="M 102.746094 234.921875 L 102.746094 239.1875 L 108.3125 239.1875 L 108.3125 240.207031 L 101.640625 240.207031 L 101.640625 228.992188 L 108.3125 228.992188 L 108.3125 229.945312 L 102.746094 229.945312 L 102.746094 233.742188 L 108.015625 233.742188 L 108.015625 234.867188 Z M 102.746094 234.921875 " fill-opacity="1" fill-rule="evenodd"/><g clip-path="url(#b695681f92)"><path fill="#000000" d="M 159.152344 230.117188 L 158.304688 230.75 C 158.058594 230.5625 157.820312 230.371094 157.570312 230.207031 C 157.152344 229.925781 156.667969 229.761719 156.164062 229.726562 C 155.660156 229.699219 155.15625 229.804688 154.710938 230.039062 C 154.382812 230.183594 154.109375 230.421875 153.917969 230.726562 C 153.730469 231.023438 153.632812 231.375 153.640625 231.730469 C 153.609375 232.085938 153.691406 232.4375 153.871094 232.746094 C 154.054688 233.050781 154.324219 233.292969 154.652344 233.441406 C 155.605469 233.839844 156.503906 234.125 157.414062 234.496094 C 157.878906 234.652344 158.292969 234.917969 158.632812 235.269531 C 158.964844 235.621094 159.207031 236.046875 159.34375 236.515625 C 159.476562 236.984375 159.492188 237.476562 159.394531 237.949219 C 159.292969 238.429688 159.082031 238.871094 158.769531 239.242188 C 157.234375 241.238281 153.515625 240.976562 152.230469 238.742188 L 153.230469 238.046875 C 153.566406 238.640625 154.105469 239.09375 154.75 239.320312 C 155.390625 239.546875 156.097656 239.527344 156.730469 239.273438 C 157.140625 239.179688 157.507812 238.949219 157.773438 238.621094 C 158.03125 238.289062 158.175781 237.878906 158.171875 237.457031 C 158.21875 237.058594 158.121094 236.65625 157.898438 236.324219 C 157.675781 235.992188 157.335938 235.753906 156.949219 235.644531 C 155.996094 235.265625 155.097656 234.960938 154.195312 234.5625 C 153.703125 234.359375 153.277344 234.023438 152.964844 233.597656 C 152.652344 233.164062 152.46875 232.65625 152.429688 232.128906 C 152.386719 231.628906 152.457031 231.132812 152.640625 230.664062 C 152.820312 230.199219 153.105469 229.78125 153.472656 229.441406 C 153.839844 229.105469 154.28125 228.851562 154.765625 228.710938 C 155.242188 228.566406 155.746094 228.535156 156.242188 228.613281 C 156.8125 228.625 157.371094 228.761719 157.875 229.023438 C 158.378906 229.28125 158.816406 229.65625 159.152344 230.117188 Z M 159.152344 230.117188 " fill-opacity="1" fill-rule="evenodd"/></g><path fill="#000000" d="M 57.6875 238.808594 L 58.570312 238.132812 C 58.570312 238.1875 58.570312 238.257812 58.523438 238.3125 C 59.292969 238.730469 60.101562 239.082031 60.925781 239.367188 C 61.445312 239.460938 61.976562 239.394531 62.453125 239.179688 C 62.824219 239.054688 63.144531 238.816406 63.367188 238.5 C 63.59375 238.183594 63.710938 237.800781 63.699219 237.414062 C 63.714844 237.035156 63.609375 236.664062 63.398438 236.355469 C 63.1875 236.039062 62.882812 235.800781 62.527344 235.675781 C 61.574219 235.28125 60.679688 234.980469 59.773438 234.582031 C 59.128906 234.335938 58.589844 233.867188 58.25 233.265625 C 57.914062 232.664062 57.800781 231.960938 57.933594 231.285156 C 58.078125 230.480469 58.519531 229.753906 59.164062 229.25 C 59.8125 228.746094 60.621094 228.496094 61.441406 228.546875 C 62.050781 228.542969 62.648438 228.671875 63.199219 228.933594 C 63.746094 229.195312 64.226562 229.574219 64.609375 230.046875 C 64.007812 230.789062 63.933594 230.808594 63.203125 230.289062 C 62.789062 229.960938 62.28125 229.761719 61.75 229.71875 C 61.21875 229.679688 60.6875 229.792969 60.222656 230.046875 C 59.898438 230.191406 59.621094 230.425781 59.429688 230.722656 C 59.242188 231.019531 59.140625 231.367188 59.144531 231.71875 C 59.113281 232.070312 59.1875 232.417969 59.359375 232.722656 C 59.53125 233.03125 59.785156 233.28125 60.097656 233.441406 C 60.621094 233.695312 61.195312 233.886719 61.746094 234.097656 C 62.03125 234.210938 62.328125 234.285156 62.613281 234.390625 C 63.296875 234.554688 63.898438 234.953125 64.316406 235.515625 C 64.734375 236.082031 64.9375 236.769531 64.894531 237.46875 C 64.839844 238.226562 64.527344 238.941406 64.007812 239.496094 C 63.488281 240.050781 62.789062 240.410156 62.03125 240.507812 C 61.222656 240.652344 60.386719 240.570312 59.617188 240.269531 C 58.851562 239.96875 58.183594 239.464844 57.6875 238.808594 Z M 57.6875 238.808594 " fill-opacity="1" fill-rule="evenodd"/><path fill="#000000" d="M 114.414062 240.210938 L 114.414062 228.992188 L 115.523438 228.992188 L 115.523438 238.996094 L 120.6875 238.996094 L 120.6875 240.175781 Z M 114.414062 240.210938 " fill-opacity="1" fill-rule="evenodd"/></svg>