<svg width="150" height="36" viewBox="0 0 150 36" fill="none" xmlns="http://www.w3.org/2000/svg">
<g clip-path="url(#clip0_5421_1681)">
<path fill-rule="evenodd" clip-rule="evenodd" d="M3.11999 26.4C3.40999 24.92 3.63999 23.58 3.95999 22.27C4.11999 21.61 4.00999 21.27 3.33999 21.05C2.33999 20.71 1.33999 20.25 0.269989 19.81C1.53999 13.22 2.80999 6.65 4.08999 0C4.30999 0.07 4.49999 0.12 4.67999 0.19C9.67999 2.13 14.68 4.1 19.68 6.03C20.16 6.22 20.29 6.43 20.2 6.93C19.03 13.2 17.88 19.48 16.7 25.76C16.6185 26.1295 16.4467 26.4731 16.2 26.76C13.6 29.76 10.98 32.68 8.36999 35.64C8.24353 35.8012 8.07346 35.9226 7.87999 35.99C8.46999 32.82 9.06999 29.66 9.66999 26.39L3.11999 26.4ZM19.55 6.53H7.65999C6.65999 11.38 5.70999 16.2 4.73999 21.06L10.27 23.32C10.69 21.07 11.08 18.92 11.52 16.78C11.6047 16.3576 11.7861 15.9606 12.05 15.62C13.25 14.13 14.49 12.62 15.71 11.19L19.55 6.53ZM4.50999 0.7C3.26999 7 2.08999 13.23 0.889989 19.48L4.26999 20.85C5.26999 15.85 6.26999 10.85 7.26999 5.9H17.53V5.79L4.50999 0.7ZM19.51 7.5C19.4075 7.58351 19.3106 7.67371 19.22 7.77C16.9 10.56 14.59 13.34 12.29 16.14C12.1544 16.32 12.0621 16.5287 12.02 16.75C11.6867 18.5033 11.3533 20.2467 11.02 21.98C10.74 23.55 10.74 23.55 12.2 24.15L16.12 25.75C17.27 19.65 18.4 13.63 19.53 7.5H19.51ZM15.86 26.36H12.14C11.52 26.36 10.74 26.19 10.33 26.5C9.91999 26.81 10.01 27.59 9.89999 28.17C9.50999 30.17 9.14999 32.17 8.76999 34.17L8.88999 34.23L15.86 26.36ZM3.79999 25.77H9.79999C9.88999 25.32 9.94999 24.89 10.07 24.47C10.19 24.05 10.07 23.81 9.63999 23.64C8.15999 23.06 6.69999 22.44 5.22999 21.84C5.04999 21.77 4.85999 21.73 4.62999 21.66C4.32999 23.06 4.06999 24.39 3.79999 25.77ZM14.46 25.77V25.64L10.67 24.09L10.35 25.78L14.46 25.77Z" fill="black"/>
<path fill-rule="evenodd" clip-rule="evenodd" d="M76.27 14.0001C75.33 17.2801 74.45 20.3801 73.56 23.4801C73.5307 23.6449 73.4634 23.8007 73.3636 23.935C73.2637 24.0694 73.134 24.1788 72.9847 24.2544C72.8353 24.3301 72.6704 24.3699 72.503 24.3709C72.3356 24.3719 72.1702 24.3339 72.02 24.2601C71.9021 24.1995 71.8125 24.0955 71.77 23.9701C70.65 20.1501 69.5333 16.3267 68.42 12.5001C69.58 12.1801 69.62 12.2001 69.93 13.2801L72.27 21.7001C72.3295 21.9498 72.4459 22.1825 72.61 22.3801C73.57 19.0467 74.5233 15.7501 75.47 12.4901C75.5244 12.4643 75.5814 12.4442 75.64 12.4301C77.02 12.3701 77.03 12.3701 77.4 13.6701C78.15 16.3101 78.9 18.9401 79.66 21.5801C79.73 21.8679 79.8671 22.1352 80.06 22.3601C80.99 19.0701 81.92 15.7801 82.87 12.4601H84.11C83.57 14.3601 83.05 16.2201 82.52 18.0801C81.99 19.9401 81.39 21.8301 80.88 23.7201C80.73 24.2701 80.43 24.3601 79.94 24.3601C79.45 24.3601 79.17 24.2401 79.02 23.6901C78.2 20.6901 77.32 17.6901 76.46 14.6901C76.4 14.5401 76.34 14.3701 76.27 14.0001Z" fill="black"/>
<path fill-rule="evenodd" clip-rule="evenodd" d="M128.95 24.4401V12.4401C130.58 12.4401 132.19 12.3201 133.78 12.4401C134.366 12.4795 134.92 12.7183 135.352 13.1167C135.783 13.5152 136.065 14.0492 136.15 14.6301C136.311 15.2033 136.279 15.8136 136.058 16.3667C135.838 16.9198 135.441 17.3849 134.93 17.6901C134.86 17.6901 134.8 17.8101 134.68 17.9101C134.96 18.1101 135.23 18.2801 135.47 18.4701C135.976 18.8232 136.361 19.3238 136.572 19.9036C136.783 20.4834 136.81 21.1142 136.65 21.7101C136.558 22.3253 136.265 22.8928 135.816 23.3235C135.368 23.7542 134.788 24.0238 134.17 24.0901C132.47 24.3601 130.74 24.3601 128.95 24.4401ZM130.11 23.0901C131.31 23.0901 132.42 23.0901 133.52 23.0901C134.046 23.075 134.546 22.8594 134.917 22.4875C135.289 22.1157 135.505 21.6157 135.52 21.0901C135.548 20.5545 135.375 20.0278 135.034 19.6133C134.694 19.1989 134.211 18.9267 133.68 18.8501C132.648 18.7801 131.612 18.7801 130.58 18.8501C130.477 18.8864 130.383 18.9472 130.309 19.0273C130.234 19.1074 130.179 19.2044 130.15 19.3101C130.09 20.5201 130.11 21.7601 130.11 23.0901ZM130.11 17.6301C131.36 17.4901 132.52 17.4201 133.67 17.2201C134.038 17.1516 134.366 16.9465 134.588 16.646C134.811 16.3454 134.912 15.9717 134.87 15.6001C134.87 14.6001 134.51 13.8701 133.68 13.7501C132.635 13.6232 131.582 13.5764 130.53 13.6101C130.39 13.6101 130.13 13.9101 130.13 14.0801C130.12 15.2001 130.14 16.3301 130.14 17.6301H130.11Z" fill="black"/>
<path fill-rule="evenodd" clip-rule="evenodd" d="M112.64 24.2501C112.74 24.0201 112.82 23.7801 112.92 23.5601C114.43 20.1001 115.92 16.6401 117.45 13.1801C117.506 12.9768 117.632 12.7999 117.806 12.6809C117.98 12.5618 118.19 12.5084 118.4 12.5301C118.599 12.51 118.799 12.5627 118.963 12.6785C119.127 12.7943 119.243 12.9654 119.29 13.1601C120.74 16.6501 122.21 20.1601 123.68 23.6001C123.76 23.7901 123.82 23.9801 123.89 24.1701C122.89 24.5501 122.65 24.4501 122.29 23.5901C122.03 22.9701 121.75 22.3601 121.52 21.7401C121.482 21.5852 121.386 21.4504 121.253 21.3632C121.119 21.276 120.957 21.2427 120.8 21.2701C119.07 21.2701 117.35 21.2701 115.62 21.2701C115.463 21.2458 115.302 21.2818 115.171 21.3708C115.039 21.4598 114.946 21.5953 114.91 21.7501C114.68 22.3501 114.33 22.9101 114.15 23.5201C113.91 24.3401 113.41 24.4601 112.64 24.2501ZM115.64 19.9201H120.73C119.9 17.9201 119.09 15.9201 118.22 13.8501C117.38 16.0001 116.55 17.9001 115.69 19.9201H115.64Z" fill="black"/>
<path fill-rule="evenodd" clip-rule="evenodd" d="M37.79 23.1499C37.79 23.5999 37.88 23.9299 37.92 24.3199H30.43V12.4399H37.55L37.69 13.4999H31.61V17.4999H37.1V18.7199H31.57V23.1299L37.79 23.1499Z" fill="black"/>
<path fill-rule="evenodd" clip-rule="evenodd" d="M56.33 24.23V12.45H57.45V17.45C57.75 17.22 57.94 17.09 58.11 16.94C59.48 15.7 60.89 14.5 62.19 13.19C62.5027 12.8459 62.9048 12.5954 63.3516 12.4665C63.7983 12.3376 64.272 12.3354 64.72 12.46L58.92 17.82C60.97 20 63.01 22 65.13 24.23C64.7865 24.3371 64.4208 24.3519 64.0697 24.2729C63.7186 24.1939 63.3945 24.0239 63.13 23.78C61.5 22.12 59.79 20.53 58.13 18.91C57.98 18.76 57.81 18.61 57.54 18.38V24.23H56.33Z" fill="black"/>
<path fill-rule="evenodd" clip-rule="evenodd" d="M90.27 18.7102V23.2002H96.11V24.2702H89.11V12.4702H96.11V13.4702H90.27V17.4702H95.8V18.6502L90.27 18.7102Z" fill="black"/>
<path fill-rule="evenodd" clip-rule="evenodd" d="M149.43 13.6501L148.54 14.3201C148.28 14.1201 148.03 13.9201 147.77 13.7501C147.334 13.45 146.824 13.2746 146.295 13.2429C145.766 13.2111 145.239 13.3243 144.77 13.5701C144.429 13.7236 144.14 13.9744 143.941 14.291C143.742 14.6077 143.641 14.9761 143.65 15.3501C143.618 15.7231 143.702 16.097 143.892 16.4196C144.082 16.7423 144.368 16.9976 144.71 17.1501C145.71 17.5701 146.65 17.8701 147.61 18.2601C148.094 18.425 148.53 18.7047 148.882 19.0753C149.234 19.4459 149.491 19.8963 149.631 20.3879C149.77 20.8796 149.788 21.3977 149.684 21.898C149.579 22.3982 149.355 22.8656 149.03 23.2601C147.42 25.3601 143.52 25.0801 142.17 22.7301L143.22 22.0001C143.57 22.6253 144.135 23.1014 144.811 23.3389C145.487 23.5764 146.226 23.5591 146.89 23.2901C147.322 23.192 147.707 22.949 147.982 22.6015C148.257 22.254 148.404 21.823 148.4 21.3801C148.451 20.9612 148.35 20.5378 148.115 20.1872C147.88 19.8366 147.527 19.5821 147.12 19.4701C146.12 19.0701 145.18 18.7501 144.23 18.3301C143.714 18.1177 143.268 17.7655 142.941 17.3133C142.614 16.8611 142.42 16.3267 142.38 15.7701C142.335 15.2464 142.41 14.7192 142.6 14.229C142.789 13.7387 143.089 13.2983 143.475 12.9413C143.86 12.5843 144.323 12.3203 144.826 12.1693C145.33 12.0183 145.861 11.9844 146.38 12.0701C146.976 12.0794 147.562 12.227 148.091 12.5011C148.62 12.7753 149.079 13.1686 149.43 13.6501Z" fill="black"/>
<path fill-rule="evenodd" clip-rule="evenodd" d="M43.01 22.7999L43.94 22.0899C43.94 22.1499 43.94 22.2199 43.89 22.2799C44.6987 22.7172 45.5415 23.0884 46.41 23.3899C46.9513 23.4859 47.5089 23.4162 48.01 23.1899C48.3981 23.06 48.7345 22.8095 48.9701 22.4749C49.2058 22.1403 49.3284 21.7391 49.32 21.3299C49.3323 20.9346 49.2202 20.5453 48.9995 20.217C48.7788 19.8887 48.4607 19.6379 48.09 19.4999C47.09 19.0899 46.15 18.7699 45.2 18.3499C44.5219 18.0905 43.9568 17.6005 43.6039 16.966C43.2509 16.3314 43.1327 15.5929 43.27 14.8799C43.4229 14.0319 43.8824 13.2696 44.5611 12.7385C45.2397 12.2074 46.09 11.9445 46.95 11.9999C47.5871 11.9936 48.2172 12.1325 48.7925 12.4063C49.3678 12.6801 49.8731 13.0815 50.27 13.5799C49.64 14.3599 49.56 14.3799 48.8 13.8299C48.3606 13.4851 47.8294 13.2775 47.2727 13.233C46.716 13.1886 46.1585 13.3092 45.67 13.5799C45.3301 13.7306 45.0419 13.9776 44.841 14.2905C44.6402 14.6033 44.5355 14.9682 44.54 15.3399C44.5088 15.7067 44.5873 16.0745 44.7653 16.3967C44.9433 16.7189 45.2129 16.9811 45.54 17.1499C46.09 17.4199 46.69 17.6199 47.27 17.8399C47.57 17.9599 47.88 18.0399 48.18 18.1499C48.8958 18.3226 49.5279 18.7421 49.965 19.3347C50.4022 19.9273 50.6164 20.655 50.57 21.3899C50.5149 22.1872 50.1863 22.941 49.6397 23.5241C49.0931 24.1071 48.362 24.4836 47.57 24.5899C46.7188 24.7408 45.8424 24.6535 45.0377 24.3376C44.233 24.0217 43.5313 23.4896 43.01 22.7999Z" fill="black"/>
<path fill-rule="evenodd" clip-rule="evenodd" d="M102.51 24.2802V12.4702H103.67V23.0002H109.09V24.2402L102.51 24.2802Z" fill="black"/>
</g>
<defs>
<clipPath id="clip0_5421_1681">
<rect width="149.46" height="36" fill="white" transform="translate(0.269989)"/>
</clipPath>
</defs>
</svg>
