<svg xmlns="http://www.w3.org/2000/svg" xmlns:xlink="http://www.w3.org/1999/xlink" width="1241" zoomAndPan="magnify" viewBox="0 0 930.75 173.999997" height="232" preserveAspectRatio="xMidYMid meet" version="1.0"><defs><g/><clipPath id="5358a13645"><path d="M 1 1 L 111 1 L 111 159 L 1 159 Z M 1 1 " clip-rule="nonzero"/></clipPath><clipPath id="f66ff95c59"><path d="M 112.207031 17.121094 L 82.539062 160.292969 L 0.308594 143.25 L 29.976562 0.0820312 Z M 112.207031 17.121094 " clip-rule="nonzero"/></clipPath><clipPath id="24c682f2b0"><path d="M 112.207031 17.125 L 82.496094 160.492188 L -1.835938 143.015625 L 27.871094 -0.351562 Z M 112.207031 17.125 " clip-rule="nonzero"/></clipPath><clipPath id="800e9d597e"><path d="M 110.230469 26.667969 L 84.484375 150.90625 C 83.390625 156.175781 78.234375 159.566406 72.960938 158.472656 L 9.542969 145.332031 C 4.273438 144.238281 0.886719 139.082031 1.976562 133.808594 L 27.722656 9.570312 C 28.816406 4.300781 33.972656 0.914062 39.246094 2.003906 L 102.664062 15.144531 C 107.933594 16.238281 111.320312 21.398438 110.230469 26.667969 Z M 110.230469 26.667969 " clip-rule="nonzero"/></clipPath><clipPath id="05b3fb1530"><path d="M 33 35 L 83 35 L 83 115 L 33 115 Z M 33 35 " clip-rule="nonzero"/></clipPath><clipPath id="97cc5030f5"><path d="M 42.425781 34.011719 L 92.277344 44.707031 L 75.761719 121.683594 L 25.910156 110.988281 Z M 42.425781 34.011719 " clip-rule="nonzero"/></clipPath><clipPath id="9372dc85c0"><path d="M 42.425781 34.011719 L 93.011719 44.863281 L 76.496094 121.839844 L 25.910156 110.988281 Z M 42.425781 34.011719 " clip-rule="nonzero"/></clipPath><clipPath id="f60000d75b"><path d="M 42.425781 34.011719 L 363.53125 102.90625 L 347.015625 179.882812 L 25.910156 110.988281 Z M 42.425781 34.011719 " clip-rule="nonzero"/></clipPath><clipPath id="7fcd2b6a39"><path d="M 43.011719 34.136719 L 362.945312 102.78125 L 346.429688 179.757812 L 26.496094 111.113281 Z M 43.011719 34.136719 " clip-rule="nonzero"/></clipPath><clipPath id="9125493def"><path d="M 50 5 L 89 5 L 89 22 L 50 22 Z M 50 5 " clip-rule="nonzero"/></clipPath><clipPath id="447f868d13"><path d="M 52.265625 4.84375 L 89.71875 12.550781 L 87.90625 21.363281 L 50.453125 13.65625 Z M 52.265625 4.84375 " clip-rule="nonzero"/></clipPath><clipPath id="f66c164aff"><path d="M 52.269531 4.847656 L 89.4375 12.492188 L 87.144531 23.644531 L 49.976562 15.996094 Z M 52.269531 4.847656 " clip-rule="nonzero"/></clipPath><clipPath id="4d57131188"><path d="M 55.207031 5.449219 L 86.492188 11.886719 C 88.113281 12.222656 89.15625 13.804688 88.824219 15.429688 L 88.144531 18.722656 C 87.8125 20.34375 86.226562 21.390625 84.605469 21.054688 L 53.320312 14.621094 C 51.699219 14.285156 50.65625 12.699219 50.988281 11.078125 L 51.667969 7.78125 C 52 6.160156 53.585938 5.117188 55.207031 5.449219 Z M 55.207031 5.449219 " clip-rule="nonzero"/></clipPath><clipPath id="61970bc634"><path d="M 99 47 L 107 47 L 107 65 L 99 65 Z M 99 47 " clip-rule="nonzero"/></clipPath><clipPath id="9c7dd18beb"><path d="M 107.113281 47.859375 L 103.382812 65.464844 L 98.984375 64.53125 L 102.710938 46.925781 Z M 107.113281 47.859375 " clip-rule="nonzero"/></clipPath><clipPath id="eeb31bdc54"><path d="M 107.113281 47.867188 L 103.183594 66.414062 L 95.761719 64.84375 L 99.691406 46.292969 Z M 107.113281 47.867188 " clip-rule="nonzero"/></clipPath><clipPath id="7a26487b04"><path d="M 106.664062 49.980469 L 103.882812 63.101562 C 103.636719 64.269531 102.488281 65.015625 101.320312 64.769531 C 100.152344 64.519531 99.40625 63.375 99.65625 62.207031 L 102.433594 49.085938 C 102.683594 47.917969 103.828125 47.171875 104.996094 47.417969 C 106.164062 47.664062 106.910156 48.8125 106.664062 49.980469 Z M 106.664062 49.980469 " clip-rule="nonzero"/></clipPath><clipPath id="4044c2d325"><path d="M 19 26 L 27 26 L 27 45 L 19 45 Z M 19 26 " clip-rule="nonzero"/></clipPath><clipPath id="0b7362c215"><path d="M 26.828125 27.226562 L 23.097656 44.832031 L 19.429688 44.054688 L 23.160156 26.449219 Z M 26.828125 27.226562 " clip-rule="nonzero"/></clipPath><clipPath id="f566ba4b68"><path d="M 26.828125 27.226562 L 22.894531 45.792969 L 19.183594 45.003906 L 23.113281 26.441406 Z M 26.828125 27.226562 " clip-rule="nonzero"/></clipPath><clipPath id="aa555097ea"><path d="M 26.4375 29.0625 L 23.535156 42.757812 C 23.433594 43.246094 23.140625 43.671875 22.726562 43.941406 C 22.308594 44.210938 21.800781 44.304688 21.316406 44.203125 C 20.828125 44.101562 20.402344 43.808594 20.132812 43.390625 C 19.863281 42.976562 19.765625 42.46875 19.871094 41.980469 L 22.773438 28.285156 C 22.875 27.796875 23.167969 27.371094 23.582031 27.101562 C 24 26.832031 24.507812 26.738281 24.992188 26.839844 C 25.480469 26.941406 25.90625 27.234375 26.175781 27.652344 C 26.449219 28.066406 26.542969 28.574219 26.4375 29.0625 Z M 26.4375 29.0625 " clip-rule="nonzero"/></clipPath><clipPath id="379bbf22b7"><path d="M 16 44 L 23 44 L 23 63 L 16 63 Z M 16 44 " clip-rule="nonzero"/></clipPath><clipPath id="55280791a7"><path d="M 23.152344 45.371094 L 19.425781 62.976562 L 15.757812 62.199219 L 19.488281 44.59375 Z M 23.152344 45.371094 " clip-rule="nonzero"/></clipPath><clipPath id="7d49311173"><path d="M 23.152344 45.371094 L 19.222656 63.9375 L 15.507812 63.148438 L 19.441406 44.585938 Z M 23.152344 45.371094 " clip-rule="nonzero"/></clipPath><clipPath id="b63dcc6b68"><path d="M 22.765625 47.207031 L 19.863281 60.902344 C 19.761719 61.390625 19.46875 61.8125 19.050781 62.085938 C 18.636719 62.355469 18.128906 62.449219 17.640625 62.347656 C 17.15625 62.246094 16.730469 61.953125 16.460938 61.535156 C 16.1875 61.121094 16.09375 60.613281 16.195312 60.125 L 19.097656 46.429688 C 19.203125 45.941406 19.492188 45.515625 19.910156 45.246094 C 20.328125 44.976562 20.835938 44.878906 21.320312 44.984375 C 21.804688 45.085938 22.230469 45.378906 22.503906 45.796875 C 22.773438 46.210938 22.867188 46.71875 22.765625 47.207031 Z M 22.765625 47.207031 " clip-rule="nonzero"/></clipPath><clipPath id="b299d72726"><path d="M 63 9 L 77 9 L 77 18 L 63 18 Z M 63 9 " clip-rule="nonzero"/></clipPath><clipPath id="90da6b51ca"><path d="M 63.769531 8.6875 L 76.988281 11.40625 L 75.628906 18.015625 L 62.410156 15.296875 Z M 63.769531 8.6875 " clip-rule="nonzero"/></clipPath><clipPath id="5c7112a7b8"><path d="M 63.78125 8.6875 L 78.628906 11.742188 L 77.101562 19.164062 L 62.253906 16.109375 Z M 63.78125 8.6875 " clip-rule="nonzero"/></clipPath><clipPath id="cd49355b29"><path d="M 66.714844 9.292969 L 74.402344 10.875 C 76.019531 11.207031 77.0625 12.789062 76.730469 14.410156 L 76.632812 14.878906 C 76.300781 16.496094 74.71875 17.539062 73.097656 17.207031 L 65.410156 15.625 C 63.792969 15.292969 62.75 13.710938 63.082031 12.089844 L 63.179688 11.621094 C 63.511719 10 65.09375 8.957031 66.714844 9.292969 Z M 66.714844 9.292969 " clip-rule="nonzero"/></clipPath><clipPath id="e9cfdcd384"><path d="M 74.476562 12.082031 L 80.21875 12.082031 L 80.21875 17.824219 L 74.476562 17.824219 Z M 74.476562 12.082031 " clip-rule="nonzero"/></clipPath><clipPath id="8767300c43"><path d="M 77.347656 12.082031 C 75.761719 12.082031 74.476562 13.367188 74.476562 14.953125 C 74.476562 16.539062 75.761719 17.824219 77.347656 17.824219 C 78.933594 17.824219 80.21875 16.539062 80.21875 14.953125 C 80.21875 13.367188 78.933594 12.082031 77.347656 12.082031 Z M 77.347656 12.082031 " clip-rule="nonzero"/></clipPath><clipPath id="ff1e5eaa05"><path d="M 52 6 L 65 6 L 65 15 L 52 15 Z M 52 6 " clip-rule="nonzero"/></clipPath><clipPath id="bca1c72183"><path d="M 52.972656 5.816406 L 65.394531 8.371094 L 64.003906 15.140625 L 51.578125 12.582031 Z M 52.972656 5.816406 " clip-rule="nonzero"/></clipPath><clipPath id="07587bace2"><path d="M 55.910156 6.421875 L 62.453125 7.765625 C 64.078125 8.101562 65.121094 9.6875 64.789062 11.308594 L 64.605469 12.199219 C 64.269531 13.824219 62.683594 14.867188 61.0625 14.535156 L 54.515625 13.1875 C 52.894531 12.851562 51.851562 11.265625 52.183594 9.644531 L 52.367188 8.753906 C 52.699219 7.128906 54.285156 6.085938 55.910156 6.421875 Z M 55.910156 6.421875 " clip-rule="nonzero"/></clipPath><clipPath id="407154b985"><path d="M 52 6 L 65 6 L 65 15 L 52 15 Z M 52 6 " clip-rule="nonzero"/></clipPath><clipPath id="659fa48510"><path d="M 52.972656 5.816406 L 65.457031 8.382812 L 64.097656 14.996094 L 51.613281 12.425781 Z M 52.972656 5.816406 " clip-rule="nonzero"/></clipPath><clipPath id="4a829c66c6"><path d="M 52.976562 5.816406 L 67.832031 8.875 L 66.300781 16.300781 L 51.449219 13.242188 Z M 52.976562 5.816406 " clip-rule="nonzero"/></clipPath><clipPath id="9ea9b35748"><path d="M 55.910156 6.421875 L 62.449219 7.765625 C 64.070312 8.097656 65.113281 9.683594 64.777344 11.304688 L 64.59375 12.195312 C 64.261719 13.816406 62.679688 14.859375 61.058594 14.523438 L 54.519531 13.179688 C 52.898438 12.847656 51.855469 11.261719 52.191406 9.640625 L 52.371094 8.75 C 52.707031 7.128906 54.289062 6.085938 55.910156 6.421875 Z M 55.910156 6.421875 " clip-rule="nonzero"/></clipPath><clipPath id="c0068ce40e"><path d="M 77 12 L 88 12 L 88 21 L 77 21 Z M 77 12 " clip-rule="nonzero"/></clipPath><clipPath id="4981bb098d"><path d="M 78.738281 12.085938 L 88.121094 14.015625 L 86.730469 20.78125 L 77.347656 18.851562 Z M 78.738281 12.085938 " clip-rule="nonzero"/></clipPath><clipPath id="5b58d3d3d1"><path d="M 81.675781 12.6875 L 85.164062 13.40625 C 86.785156 13.738281 87.828125 15.324219 87.496094 16.949219 L 87.3125 17.839844 C 86.976562 19.460938 85.390625 20.507812 83.769531 20.171875 L 80.285156 19.457031 C 78.660156 19.121094 77.617188 17.535156 77.949219 15.914062 L 78.132812 15.023438 C 78.46875 13.398438 80.054688 12.355469 81.675781 12.6875 Z M 81.675781 12.6875 " clip-rule="nonzero"/></clipPath><clipPath id="cf2cbe885d"><path d="M 77 12 L 88 12 L 88 21 L 77 21 Z M 77 12 " clip-rule="nonzero"/></clipPath><clipPath id="67ba1dc0da"><path d="M 78.738281 12.085938 L 88.285156 14.050781 L 86.925781 20.660156 L 77.378906 18.695312 Z M 78.738281 12.085938 " clip-rule="nonzero"/></clipPath><clipPath id="31dc900675"><path d="M 78.738281 12.085938 L 89.878906 14.375 L 88.351562 21.804688 L 77.210938 19.511719 Z M 78.738281 12.085938 " clip-rule="nonzero"/></clipPath><clipPath id="d95331078d"><path d="M 81.671875 12.6875 L 85.15625 13.40625 C 86.777344 13.738281 87.820312 15.320312 87.484375 16.941406 L 87.304688 17.832031 C 86.96875 19.453125 85.386719 20.496094 83.765625 20.164062 L 80.28125 19.445312 C 78.664062 19.113281 77.621094 17.53125 77.953125 15.910156 L 78.136719 15.019531 C 78.46875 13.398438 80.054688 12.355469 81.671875 12.6875 Z M 81.671875 12.6875 " clip-rule="nonzero"/></clipPath></defs><g clip-path="url(#5358a13645)"><g clip-path="url(#f66ff95c59)"><g clip-path="url(#24c682f2b0)"><g clip-path="url(#800e9d597e)"><path stroke-linecap="butt" transform="matrix(-0.152142, 0.734201, -0.734201, -0.152142, 112.206265, 17.123727)" fill="none" stroke-linejoin="miter" d="M 12.998967 -0.00257416 L 182.215018 -0.000853369 C 189.392738 0.00148776 195.216099 5.817709 195.214815 13.000531 L 195.216 99.377169 C 195.213659 106.55489 189.39638 112.373149 182.214616 112.376966 L 12.998564 112.375245 C 5.820844 112.372904 0.00258491 106.555626 -0.00123242 99.373861 L -0.00241752 12.997223 C -0.0000763878 5.819502 5.822303 0.000186066 12.998967 -0.00257416 Z M 12.998967 -0.00257416 " stroke="#000000" stroke-width="8" stroke-opacity="1" stroke-miterlimit="4"/></g></g></g></g><g clip-path="url(#05b3fb1530)"><g clip-path="url(#97cc5030f5)"><g clip-path="url(#9372dc85c0)"><g clip-path="url(#f60000d75b)"><g clip-path="url(#7fcd2b6a39)"><path fill="#000000" d="M 37 91.894531 C 38.300781 88.863281 39.40625 86.105469 40.691406 83.449219 C 41.335938 82.113281 41.257812 81.335938 39.925781 80.554688 C 37.941406 79.371094 36.011719 77.925781 33.921875 76.496094 C 39.664062 62.988281 45.398438 49.523438 51.1875 35.890625 C 51.625 36.140625 52.011719 36.335938 52.363281 36.566406 C 62.175781 43.011719 71.976562 49.519531 81.792969 55.945312 C 82.734375 56.570312 82.914062 57.078125 82.492188 58.109375 C 77.113281 70.976562 71.769531 83.878906 66.363281 96.761719 C 66.019531 97.515625 65.492188 98.171875 64.832031 98.671875 C 57.890625 103.894531 50.945312 108.933594 44 114.0625 C 43.652344 114.351562 43.234375 114.53125 42.789062 114.585938 C 45.507812 108.078125 48.242188 101.597656 51.023438 94.882812 Z M 81.285156 56.953125 L 55.832031 51.492188 C 51.46875 61.402344 47.222656 71.273438 42.917969 81.21875 L 53.71875 88.59375 C 55.648438 83.976562 57.46875 79.558594 59.394531 75.183594 C 59.769531 74.320312 60.339844 73.554688 61.0625 72.945312 C 64.3125 70.3125 67.660156 67.652344 70.925781 65.15625 Z M 51.765625 37.582031 C 46.21875 50.480469 40.835938 63.261719 35.402344 76.074219 L 42.007812 80.554688 C 46.441406 70.324219 50.875 60.09375 55.289062 49.964844 L 77.25 54.679688 L 77.300781 54.445312 Z M 80.753906 59.007812 C 80.496094 59.140625 80.25 59.289062 80.011719 59.453125 C 73.765625 64.355469 67.542969 69.238281 61.335938 74.167969 C 60.964844 74.492188 60.667969 74.894531 60.476562 75.347656 C 58.960938 78.945312 57.445312 82.519531 55.9375 86.070312 C 54.617188 89.300781 54.617188 89.300781 57.46875 91.253906 L 65.125 96.476562 C 70.386719 83.960938 75.566406 71.605469 80.796875 59.019531 Z M 64.289062 97.660156 L 56.324219 95.953125 C 55 95.667969 53.40625 94.945312 52.386719 95.421875 C 51.367188 95.894531 51.203125 97.605469 50.699219 98.792969 C 48.949219 102.890625 47.261719 107.003906 45.527344 111.105469 L 45.757812 111.289062 Z M 38.742188 90.859375 L 51.585938 93.617188 C 51.988281 92.695312 52.3125 91.804688 52.761719 90.960938 C 53.210938 90.117188 53.066406 89.550781 52.222656 88.988281 C 49.320312 87.066406 46.480469 85.070312 43.609375 83.113281 C 43.253906 82.882812 42.867188 82.707031 42.40625 82.453125 C 41.121094 85.308594 39.953125 88.035156 38.742188 90.859375 Z M 61.5625 95.757812 L 61.621094 95.476562 L 54.222656 90.421875 L 52.761719 93.890625 Z M 61.5625 95.757812 " fill-opacity="1" fill-rule="evenodd"/></g></g></g></g></g><g clip-path="url(#9125493def)"><g clip-path="url(#447f868d13)"><g clip-path="url(#f66c164aff)"><g clip-path="url(#4d57131188)"><path stroke-linecap="butt" transform="matrix(0.734413, 0.151113, -0.151113, 0.734413, 52.271211, 4.846497)" fill="none" stroke-linejoin="miter" d="M 3.997142 -0.00176931 L 46.596061 -0.00144099 C 48.804033 0.00166869 50.591723 1.787976 50.594766 4.000001 L 50.591991 8.484382 C 50.593984 10.691304 48.803624 12.485147 46.595652 12.482037 L 3.997783 12.486812 C 1.789811 12.483702 0.0010701 10.692292 -0.000923057 8.48537 L 0.000802504 3.995886 C -0.00119065 1.788964 1.79022 0.000223847 3.997142 -0.00176931 Z M 3.997142 -0.00176931 " stroke="#000000" stroke-width="8" stroke-opacity="1" stroke-miterlimit="4"/></g></g></g></g><g clip-path="url(#61970bc634)"><g clip-path="url(#9c7dd18beb)"><g clip-path="url(#eeb31bdc54)"><g clip-path="url(#7a26487b04)"><path stroke-linecap="butt" transform="matrix(-0.155392, 0.73352, -0.73352, -0.155392, 107.111912, 47.865423)" fill="none" stroke-linejoin="miter" d="M 2.883362 -0.000274787 L 20.771662 0.00183908 C 22.363573 0.0000987506 23.654458 1.292285 23.656198 2.884196 C 23.652842 4.477187 22.365752 5.766992 20.772761 5.763636 L 2.88554 5.766618 C 1.29255 5.763262 0.00274491 4.476172 0.00100458 2.884261 C -0.00073575 1.29235 1.291451 0.00146554 2.883362 -0.000274787 Z M 2.883362 -0.000274787 " stroke="#000000" stroke-width="4" stroke-opacity="1" stroke-miterlimit="4"/></g></g></g></g><g clip-path="url(#4044c2d325)"><g clip-path="url(#0b7362c215)"><g clip-path="url(#f566ba4b68)"><g clip-path="url(#aa555097ea)"><path stroke-linecap="butt" transform="matrix(-0.155392, 0.73352, -0.73352, -0.155392, 26.827072, 27.227942)" fill="none" stroke-linejoin="miter" d="M 2.501292 0.00121448 L 21.172268 0.00260902 C 21.837418 0.000159852 22.473927 0.26472 22.940042 0.730464 C 23.407236 1.201304 23.669915 1.837953 23.671284 2.498006 C 23.673733 3.163156 23.409173 3.799665 22.938333 4.266859 C 22.472589 4.732973 21.83702 5.000749 21.17079 4.998101 L 2.499814 4.996707 C 1.834664 4.999156 1.198155 4.734596 0.732041 4.268852 C 0.264847 3.798012 0.00216785 3.161363 0.000798376 2.50131 C -0.00165079 1.83616 0.26291 1.199651 0.73375 0.732457 C 1.198414 0.261246 1.835062 -0.00143298 2.501292 0.00121448 Z M 2.501292 0.00121448 " stroke="#000000" stroke-width="4" stroke-opacity="1" stroke-miterlimit="4"/></g></g></g></g><g clip-path="url(#379bbf22b7)"><g clip-path="url(#55280791a7)"><g clip-path="url(#7d49311173)"><g clip-path="url(#b63dcc6b68)"><path stroke-linecap="butt" transform="matrix(-0.155392, 0.73352, -0.73352, -0.155392, 23.153696, 45.372159)" fill="none" stroke-linejoin="miter" d="M 2.501286 -0.000830607 L 21.172263 0.000563931 C 21.837413 -0.00188524 22.468825 0.263755 22.941116 0.733515 C 23.40723 1.199259 23.669909 1.835908 23.672358 2.501058 C 23.673728 3.161111 23.409167 3.79762 22.938327 4.264814 C 22.473663 4.736025 21.837015 4.998704 21.171865 5.001153 L 2.500888 4.999758 C 1.834658 4.997111 1.199229 4.737647 0.732035 4.266807 C 0.264841 3.795967 -0.00293433 3.160398 0.000792818 2.499265 C -0.000576658 1.839211 0.263984 1.202702 0.733744 0.730412 C 1.199488 0.264297 1.836136 0.00161856 2.501286 -0.000830607 Z M 2.501286 -0.000830607 " stroke="#000000" stroke-width="4" stroke-opacity="1" stroke-miterlimit="4"/></g></g></g></g><g clip-path="url(#b299d72726)"><g clip-path="url(#90da6b51ca)"><g clip-path="url(#5c7112a7b8)"><g clip-path="url(#cd49355b29)"><path stroke-linecap="butt" transform="matrix(0.734413, 0.151113, -0.151113, 0.734413, 63.782274, 8.688076)" fill="none" stroke-linejoin="miter" d="M 3.993479 0.00194155 L 14.461087 0.00226484 C 16.662907 0.00132162 18.450597 1.787629 18.45259 3.994551 L 18.451015 4.63314 C 18.451958 6.83496 16.665651 8.62265 14.458729 8.624643 L 3.99112 8.62432 C 1.7893 8.625263 0.00160986 6.838956 -0.000383325 4.632034 L 0.00119213 3.993445 C -0.000801055 1.786523 1.785506 -0.0011681 3.993479 0.00194155 Z M 3.993479 0.00194155 " stroke="#000000" stroke-width="6" stroke-opacity="1" stroke-miterlimit="4"/></g></g></g></g><g clip-path="url(#e9cfdcd384)"><g clip-path="url(#8767300c43)"><path stroke-linecap="butt" transform="matrix(0.749799, 0, 0, 0.749799, 74.476672, 12.083574)" fill="none" stroke-linejoin="miter" d="M 3.829008 -0.00205722 C 1.713857 -0.00205722 -0.00014553 1.711945 -0.00014553 3.827096 C -0.00014553 5.942248 1.713857 7.65625 3.829008 7.65625 C 5.94416 7.65625 7.658162 5.942248 7.658162 3.827096 C 7.658162 1.711945 5.94416 -0.00205722 3.829008 -0.00205722 Z M 3.829008 -0.00205722 " stroke="#000000" stroke-width="6" stroke-opacity="1" stroke-miterlimit="4"/></g></g><g fill="#000000" fill-opacity="1"><g transform="translate(155.77247, 112.558673)"><g><path d="M 41.78125 -61.203125 L 41.78125 -51.75 L 18.890625 -51.75 L 18.890625 -35.75 L 39.171875 -35.75 L 39.171875 -26.3125 L 18.890625 -26.3125 L 18.890625 -9.4375 L 41.78125 -9.4375 L 41.78125 0 L 6.5625 0 L 6.5625 -61.203125 Z M 41.78125 -61.203125 "/></g></g></g><g fill="#000000" fill-opacity="1"><g transform="translate(221.077545, 112.558673)"><g><path d="M 26.3125 -52.015625 C 23.863281 -52.015625 21.867188 -51.382812 20.328125 -50.125 C 18.785156 -48.875 18.015625 -47.140625 18.015625 -44.921875 C 18.015625 -42.710938 18.582031 -40.984375 19.71875 -39.734375 C 20.851562 -38.484375 22.351562 -37.519531 24.21875 -36.84375 C 26.082031 -36.175781 28.117188 -35.578125 30.328125 -35.046875 C 32.546875 -34.523438 34.757812 -33.882812 36.96875 -33.125 C 39.1875 -32.375 41.226562 -31.441406 43.09375 -30.328125 C 44.957031 -29.222656 46.457031 -27.609375 47.59375 -25.484375 C 48.738281 -23.359375 49.3125 -20.78125 49.3125 -17.75 C 49.3125 -12.738281 47.3125 -8.425781 43.3125 -4.8125 C 39.320312 -1.195312 34.019531 0.609375 27.40625 0.609375 C 20.789062 0.609375 15.441406 -0.945312 11.359375 -4.0625 C 7.285156 -7.1875 5.25 -11.570312 5.25 -17.21875 L 18.359375 -17.21875 C 18.828125 -11.851562 21.882812 -9.171875 27.53125 -9.171875 C 30.332031 -9.171875 32.546875 -9.898438 34.171875 -11.359375 C 35.804688 -12.816406 36.625 -14.753906 36.625 -17.171875 C 36.625 -19.597656 35.546875 -21.507812 33.390625 -22.90625 C 31.234375 -24.300781 28.625 -25.347656 25.5625 -26.046875 C 22.507812 -26.742188 19.4375 -27.585938 16.34375 -28.578125 C 13.257812 -29.578125 10.640625 -31.3125 8.484375 -33.78125 C 6.328125 -36.257812 5.25 -39.539062 5.25 -43.625 C 5.25 -49.15625 7.257812 -53.582031 11.28125 -56.90625 C 15.300781 -60.226562 20.472656 -61.890625 26.796875 -61.890625 C 33.117188 -61.890625 38.203125 -60.445312 42.046875 -57.5625 C 45.890625 -54.675781 47.988281 -50.289062 48.34375 -44.40625 L 34.875 -44.40625 C 34.644531 -46.738281 33.769531 -48.585938 32.25 -49.953125 C 30.738281 -51.328125 28.757812 -52.015625 26.3125 -52.015625 Z M 26.3125 -52.015625 "/></g></g></g><g fill="#000000" fill-opacity="1"><g transform="translate(293.114114, 112.558673)"><g><path d="M 18.890625 0 L 6.5625 0 L 6.5625 -61.015625 L 18.890625 -61.015625 L 18.890625 -33.75 L 40.90625 -61.015625 L 57 -61.015625 L 30.515625 -30.421875 L 57 0 L 41 0 L 18.890625 -27.09375 Z M 18.890625 0 "/></g></g></g><g fill="#000000" fill-opacity="1"><g transform="translate(369.521765, 112.558673)"><g><path d="M 74.828125 -61.015625 L 88.03125 -61.015625 L 70.375 0 L 56.390625 0 L 44.578125 -42.578125 L 32.4375 0 L 18.453125 0 L 1.140625 -61.015625 L 14.25 -61.015625 L 25.96875 -13.90625 L 38.296875 -61.015625 L 52.1875 -61.015625 L 63.8125 -14.34375 Z M 74.828125 -61.015625 "/></g></g></g><g fill="#000000" fill-opacity="1"><g transform="translate(476.177409, 112.558673)"><g><path d="M 41.78125 -61.203125 L 41.78125 -51.75 L 18.890625 -51.75 L 18.890625 -35.75 L 39.171875 -35.75 L 39.171875 -26.3125 L 18.890625 -26.3125 L 18.890625 -9.4375 L 41.78125 -9.4375 L 41.78125 0 L 6.5625 0 L 6.5625 -61.203125 Z M 41.78125 -61.203125 "/></g></g></g><g fill="#000000" fill-opacity="1"><g transform="translate(541.482466, 112.558673)"><g><path d="M 6.5625 -61.015625 L 18.890625 -61.015625 L 18.890625 -9.359375 L 38.46875 -9.359375 L 38.46875 0 L 6.5625 0 Z M 6.5625 -61.015625 "/></g></g></g><g fill="#000000" fill-opacity="1"><g transform="translate(598.50668, 112.527217)"><g><path d="M 48.890625 0 L 44.125 -13.4375 L 16.890625 -13.4375 L 12.109375 0 L 3.890625 0 L 26.171875 -61.28125 L 35.015625 -61.28125 L 57.203125 0 Z M 19.1875 -19.8125 L 41.828125 -19.8125 L 30.5 -51.46875 Z M 19.1875 -19.8125 "/></g></g></g><g fill="#000000" fill-opacity="1"><g transform="translate(677.288451, 112.527217)"><g><path d="M 26.53125 -61.28125 C 33.425781 -61.28125 38.6875 -59.597656 42.3125 -56.234375 C 45.9375 -52.878906 47.75 -48.578125 47.75 -43.328125 C 47.75 -38.078125 45.992188 -33.753906 42.484375 -30.359375 C 38.972656 -26.972656 33.65625 -25.28125 26.53125 -25.28125 L 14.671875 -25.28125 L 14.671875 0 L 6.625 0 L 6.625 -61.28125 Z M 14.671875 -31.65625 L 26.53125 -31.65625 C 30.945312 -31.65625 34.226562 -32.671875 36.375 -34.703125 C 38.53125 -36.734375 39.609375 -39.578125 39.609375 -43.234375 C 39.609375 -50.960938 35.25 -54.828125 26.53125 -54.828125 L 14.671875 -54.828125 Z M 14.671875 -31.65625 "/></g></g></g><g fill="#000000" fill-opacity="1"><g transform="translate(746.079032, 112.527217)"><g><path d="M 26.53125 -61.28125 C 33.425781 -61.28125 38.6875 -59.597656 42.3125 -56.234375 C 45.9375 -52.878906 47.75 -48.578125 47.75 -43.328125 C 47.75 -38.078125 45.992188 -33.753906 42.484375 -30.359375 C 38.972656 -26.972656 33.65625 -25.28125 26.53125 -25.28125 L 14.671875 -25.28125 L 14.671875 0 L 6.625 0 L 6.625 -61.28125 Z M 14.671875 -31.65625 L 26.53125 -31.65625 C 30.945312 -31.65625 34.226562 -32.671875 36.375 -34.703125 C 38.53125 -36.734375 39.609375 -39.578125 39.609375 -43.234375 C 39.609375 -50.960938 35.25 -54.828125 26.53125 -54.828125 L 14.671875 -54.828125 Z M 14.671875 -31.65625 "/></g></g></g><g fill="#000000" fill-opacity="1"><g transform="translate(814.869608, 112.527217)"><g><path d="M 13.171875 -44.921875 C 13.171875 -42.679688 13.789062 -40.820312 15.03125 -39.34375 C 16.269531 -37.875 17.859375 -36.785156 19.796875 -36.078125 C 21.742188 -35.367188 23.910156 -34.75 26.296875 -34.21875 C 28.691406 -33.6875 31.082031 -33.082031 33.46875 -32.40625 C 35.851562 -31.726562 38.019531 -30.859375 39.96875 -29.796875 C 41.914062 -28.734375 43.503906 -27.140625 44.734375 -25.015625 C 45.972656 -22.898438 46.59375 -20.28125 46.59375 -17.15625 C 46.59375 -12.375 44.765625 -8.210938 41.109375 -4.671875 C 37.460938 -1.140625 32.53125 0.625 26.3125 0.625 C 20.09375 0.625 15.035156 -0.800781 11.140625 -3.65625 C 7.253906 -6.519531 5.3125 -10.398438 5.3125 -15.296875 L 13.875 -15.296875 C 14.113281 -12.523438 15.21875 -10.285156 17.1875 -8.578125 C 19.164062 -6.867188 22.097656 -6.015625 25.984375 -6.015625 C 29.878906 -6.015625 32.976562 -7.015625 35.28125 -9.015625 C 37.582031 -11.023438 38.734375 -13.367188 38.734375 -16.046875 C 38.734375 -18.734375 38.113281 -20.796875 36.875 -22.234375 C 35.632812 -23.679688 34.039062 -24.757812 32.09375 -25.46875 C 30.144531 -26.175781 27.976562 -26.78125 25.59375 -27.28125 C 23.207031 -27.78125 20.820312 -28.382812 18.4375 -29.09375 C 16.050781 -29.800781 13.882812 -30.695312 11.9375 -31.78125 C 9.988281 -32.875 8.394531 -34.492188 7.15625 -36.640625 C 5.925781 -38.796875 5.3125 -41.46875 5.3125 -44.65625 C 5.3125 -49.84375 7.148438 -54.007812 10.828125 -57.15625 C 14.515625 -60.3125 19.316406 -61.890625 25.234375 -61.890625 C 31.160156 -61.890625 35.878906 -60.519531 39.390625 -57.78125 C 42.898438 -55.039062 44.921875 -51.253906 45.453125 -46.421875 L 36.515625 -46.421875 C 36.285156 -48.835938 35.148438 -50.898438 33.109375 -52.609375 C 31.078125 -54.316406 28.335938 -55.171875 24.890625 -55.171875 C 21.441406 -55.171875 18.625 -54.300781 16.4375 -52.5625 C 14.257812 -50.820312 13.171875 -48.273438 13.171875 -44.921875 Z M 13.171875 -44.921875 "/></g></g></g><g clip-path="url(#ff1e5eaa05)"><g clip-path="url(#bca1c72183)"><g clip-path="url(#07587bace2)"><path fill="#000000" d="M 52.972656 5.816406 L 65.394531 8.371094 L 64.003906 15.140625 L 51.578125 12.582031 Z M 52.972656 5.816406 " fill-opacity="1" fill-rule="nonzero"/></g></g></g><g clip-path="url(#407154b985)"><g clip-path="url(#659fa48510)"><g clip-path="url(#4a829c66c6)"><g clip-path="url(#9ea9b35748)"><path stroke-linecap="butt" transform="matrix(0.734413, 0.151113, -0.151113, 0.734413, 52.976662, 5.816648)" fill="none" stroke-linejoin="miter" d="M 3.994776 0.00212951 L 12.898104 -0.000131238 C 15.105026 -0.00212439 16.893767 1.789286 16.890657 3.997258 L 16.890215 5.210052 C 16.892208 7.416974 15.105901 9.204664 12.897929 9.201555 L 3.994601 9.203815 C 1.787679 9.205809 -0.00106159 7.414398 0.00204809 5.206426 L -0.00261278 3.994682 C 0.000496899 1.78671 1.786804 -0.000980165 3.994776 0.00212951 Z M 3.994776 0.00212951 " stroke="#000000" stroke-width="6" stroke-opacity="1" stroke-miterlimit="4"/></g></g></g></g><g clip-path="url(#c0068ce40e)"><g clip-path="url(#4981bb098d)"><g clip-path="url(#5b58d3d3d1)"><path fill="#000000" d="M 78.738281 12.085938 L 88.097656 14.011719 L 86.703125 20.777344 L 77.347656 18.851562 Z M 78.738281 12.085938 " fill-opacity="1" fill-rule="nonzero"/></g></g></g><g clip-path="url(#cf2cbe885d)"><g clip-path="url(#67ba1dc0da)"><g clip-path="url(#31dc900675)"><g clip-path="url(#d95331078d)"><path stroke-linecap="butt" transform="matrix(0.734413, 0.151113, -0.151113, 0.734413, 78.739657, 12.084631)" fill="none" stroke-linejoin="miter" d="M 3.992475 -0.000608126 L 8.737394 0.00174762 C 10.944317 -0.000245536 12.732007 1.786062 12.728897 3.994034 L 12.733558 5.205778 C 12.730449 7.41375 10.944141 9.20144 8.737219 9.203434 L 3.9923 9.201078 C 1.790481 9.202021 0.00279017 7.415714 0.000797013 5.208791 L 0.00123898 3.995998 C -0.00075418 1.789076 1.790656 0.000335068 3.992475 -0.000608126 Z M 3.992475 -0.000608126 " stroke="#000000" stroke-width="6" stroke-opacity="1" stroke-miterlimit="4"/></g></g></g></g></svg>