<svg xmlns="http://www.w3.org/2000/svg" xmlns:xlink="http://www.w3.org/1999/xlink" width="1719" zoomAndPan="magnify" viewBox="0 0 1289.25 292.499991" height="390" preserveAspectRatio="xMidYMid meet" version="1.0"><defs><clipPath id="e2b44c94c9"><path d="M 0.726562 0 L 1287.777344 0 L 1287.777344 292 L 0.726562 292 Z M 0.726562 0 " clip-rule="nonzero"/></clipPath><clipPath id="bb87cf9cdd"><path d="M 100.257812 46.496094 L 851.972656 46.496094 L 851.972656 238.914062 L 100.257812 238.914062 Z M 100.257812 46.496094 " clip-rule="nonzero"/></clipPath><clipPath id="4e09f8746d"><path d="M 0.726562 0.09375 L 1286.75 0.09375 L 1286.75 291.660156 L 0.726562 291.660156 Z M 0.726562 0.09375 " clip-rule="nonzero"/></clipPath><clipPath id="612071f115"><path d="M 0.726562 1.300781 L 1286.75 1.300781 L 1286.75 289.863281 L 0.726562 289.863281 Z M 0.726562 1.300781 " clip-rule="nonzero"/></clipPath><clipPath id="062c9eef51"><path d="M 1006.011719 0.09375 L 1286.0625 0.09375 L 1286.0625 290.15625 L 1006.011719 290.15625 Z M 1006.011719 0.09375 " clip-rule="nonzero"/></clipPath><clipPath id="15190b08a5"><path d="M 920.109375 14 L 1285.691406 14 L 1285.691406 290.15625 L 920.109375 290.15625 Z M 920.109375 14 " clip-rule="nonzero"/></clipPath><clipPath id="ef10a1e061"><path d="M 927.101562 17.097656 L 1083.921875 17.097656 L 1083.921875 290.15625 L 927.101562 290.15625 Z M 927.101562 17.097656 " clip-rule="nonzero"/></clipPath><clipPath id="b668649f4f"><path d="M 1187 0.09375 L 1286.0625 0.09375 L 1286.0625 141 L 1187 141 Z M 1187 0.09375 " clip-rule="nonzero"/></clipPath><clipPath id="c4f9413ea2"><path d="M 0.726562 1.300781 L 948.585938 1.300781 L 948.585938 291.367188 L 0.726562 291.367188 Z M 0.726562 1.300781 " clip-rule="nonzero"/></clipPath><clipPath id="f8ff146d34"><path d="M 0.726562 78 L 37 78 L 37 128 L 0.726562 128 Z M 0.726562 78 " clip-rule="nonzero"/></clipPath><clipPath id="941289c3f7"><path d="M 0.726562 156 L 38 156 L 38 206 L 0.726562 206 Z M 0.726562 156 " clip-rule="nonzero"/></clipPath></defs><g clip-path="url(#e2b44c94c9)"><path fill="#ffffff" d="M 0.726562 0 L 1287.777344 0 L 1287.777344 292 L 0.726562 292 Z M 0.726562 0 " fill-opacity="1" fill-rule="nonzero"/></g><g clip-path="url(#bb87cf9cdd)"><path fill="#ffffff" d="M 100.257812 46.496094 L 851.972656 46.496094 L 851.972656 238.914062 L 100.257812 238.914062 Z M 100.257812 46.496094 " fill-opacity="1" fill-rule="nonzero"/></g><g clip-path="url(#4e09f8746d)"><path fill="#ffffff" d="M -31.363281 0.09375 L 1286.75 0.09375 L 1286.75 291.660156 L -31.363281 291.660156 Z M -31.363281 0.09375 " fill-opacity="1" fill-rule="nonzero"/></g><g clip-path="url(#612071f115)"><path fill="#edeced" d="M -0.515625 1.300781 L 1286.910156 1.300781 L 1286.910156 289.863281 L -0.515625 289.863281 Z M -0.515625 1.300781 " fill-opacity="1" fill-rule="nonzero"/></g><g clip-path="url(#062c9eef51)"><path fill="#2b529d" d="M 1271.128906 312.433594 C 1259.492188 307.820312 1246.113281 305.828125 1232.703125 304.667969 C 1218.417969 303.429688 1204.0625 302.765625 1189.832031 302.015625 C 1163.773438 300.644531 1137.984375 298.957031 1112.304688 298.167969 C 1099.613281 297.777344 1086.953125 297.761719 1074.226562 298.472656 C 1069.605469 298.730469 1065.363281 298.300781 1064.882812 294.996094 C 1064.378906 291.570312 1066.148438 287.511719 1066.914062 284.074219 C 1073.921875 252.648438 1080.871094 222.5625 1087.644531 193.6875 C 1088.089844 191.804688 1091.097656 190.421875 1094.199219 190.820312 C 1110.40625 192.894531 1126.910156 194.660156 1143.59375 196.363281 C 1151.453125 197.164062 1159.394531 198.308594 1167.46875 198.710938 C 1175.578125 199.113281 1182.714844 197.367188 1190.5 195.875 C 1222.222656 189.808594 1255.703125 192.238281 1288.453125 189.164062 C 1291.703125 188.855469 1293.3125 190.15625 1293.316406 191.613281 C 1294.320312 194.625 1292.25 198.097656 1291.417969 201.152344 C 1290.460938 204.652344 1289.734375 208.183594 1289.105469 211.734375 C 1288.8125 213.417969 1288.539062 215.105469 1288.277344 216.800781 C 1287.71875 246.71875 1288.039062 278.167969 1279.308594 310.371094 C 1278.71875 312.558594 1273.902344 313.535156 1271.128906 312.433594 Z M 1073.957031 -83.234375 C 1058.890625 -80.542969 1042.316406 -73.765625 1038.183594 -57.429688 C 1033.503906 -43.550781 1028.347656 -29.722656 1022.949219 -16.058594 C 1014.75 0.53125 1005.6875 18.09375 1006.769531 37.128906 C 1010.054688 45.535156 1018.550781 50.410156 1025.082031 56.140625 C 1048.664062 83.773438 1084.515625 80.3125 1105.746094 52.058594 C 1113.003906 27.988281 1128.480469 7.324219 1134.347656 -17.257812 C 1137.921875 -29.445312 1141.535156 -44.210938 1135.753906 -56.183594 C 1134 -70.441406 1087.054688 -81.816406 1073.957031 -83.234375 Z M 1073.957031 -83.234375 " fill-opacity="1" fill-rule="nonzero"/></g><g clip-path="url(#15190b08a5)"><path fill="#85d8a6" d="M 1163.925781 255.539062 C 1171.246094 270.757812 1178.523438 286.140625 1185.167969 301.765625 C 1182 301.59375 1178.835938 301.421875 1175.679688 301.246094 C 1169.304688 287.058594 1163.1875 272.75 1156.960938 258.5625 C 1147.570312 237.152344 1137.769531 215.914062 1127.894531 194.722656 C 1129.882812 194.933594 1131.871094 195.148438 1133.867188 195.355469 C 1144.230469 215.238281 1154.199219 235.316406 1163.925781 255.539062 Z M 1105.882812 192.257812 C 1103.875 192.019531 1101.878906 191.765625 1099.882812 191.519531 C 1106.773438 209.707031 1114.304688 227.679688 1121.929688 245.515625 C 1129.671875 263.617188 1137.492188 281.957031 1146.394531 299.636719 C 1149.316406 299.789062 1152.238281 299.945312 1155.164062 300.105469 C 1146.773438 281.109375 1137.507812 262.402344 1128.847656 243.574219 C 1121.019531 226.550781 1113.515625 209.375 1105.882812 192.257812 Z M 1082.078125 233.976562 C 1080.902344 232.125 1077.695312 233.273438 1078.417969 235.519531 C 1083.46875 251.296875 1091.625 266.484375 1099.414062 281.042969 C 1102.492188 286.792969 1105.652344 292.476562 1108.96875 298.078125 C 1110.082031 298.105469 1111.191406 298.132812 1112.304688 298.167969 C 1114.082031 298.222656 1115.855469 298.292969 1117.632812 298.355469 C 1113.855469 291.589844 1110.054688 284.835938 1106.300781 278.058594 C 1098.207031 263.453125 1091.023438 248.066406 1082.078125 233.976562 Z M 1190.453125 254.46875 C 1181.976562 235.867188 1174.324219 216.90625 1165.371094 198.582031 C 1162.726562 198.410156 1160.101562 198.175781 1157.488281 197.902344 C 1164.03125 218.613281 1173.125 238.453125 1182.136719 258.289062 C 1187.917969 271.011719 1193.871094 283.65625 1200 296.21875 C 1201.046875 298.363281 1202.082031 300.53125 1203.113281 302.710938 C 1206.722656 302.902344 1210.332031 303.105469 1213.949219 303.320312 C 1212.179688 299.953125 1210.429688 296.585938 1208.769531 293.191406 C 1202.484375 280.371094 1196.378906 267.460938 1190.453125 254.46875 Z M 1275.050781 238.65625 C 1271.402344 227.144531 1266.386719 216.246094 1260.914062 205.5 C 1258.476562 200.722656 1256.253906 195.867188 1254.152344 190.960938 C 1250.84375 191.054688 1247.535156 191.144531 1244.230469 191.238281 C 1246.683594 197.097656 1249.296875 202.886719 1252.210938 208.515625 C 1258.316406 220.300781 1267.078125 229.945312 1271.390625 242.738281 C 1276.113281 256.753906 1278.882812 271.847656 1284.425781 285.625 C 1284.789062 283.179688 1285.113281 280.742188 1285.40625 278.3125 C 1281.289062 265.347656 1279.136719 251.558594 1275.050781 238.65625 Z M 1224.230469 263.613281 C 1221.996094 257.285156 1218.878906 251.246094 1216.054688 245.167969 C 1210.144531 232.433594 1204.152344 219.734375 1198.183594 207.03125 C 1196.371094 203.164062 1194.566406 199.257812 1192.492188 195.511719 C 1191.828125 195.632812 1191.164062 195.75 1190.5 195.875 C 1187.890625 196.375 1185.359375 196.902344 1182.835938 197.367188 C 1183.097656 197.804688 1183.363281 198.238281 1183.621094 198.683594 C 1186.519531 203.683594 1188.90625 208.96875 1191.359375 214.195312 C 1197.0625 226.347656 1202.75 238.503906 1208.5 250.632812 C 1211.332031 256.613281 1213.878906 262.820312 1217.332031 268.46875 C 1220.808594 274.164062 1224.214844 279.679688 1227.183594 285.671875 C 1230.320312 292.007812 1233.175781 298.4375 1235.816406 304.957031 C 1236.890625 305.058594 1237.960938 305.171875 1239.035156 305.289062 C 1236.410156 298.191406 1233.703125 291.121094 1231.054688 284.035156 C 1228.539062 277.289062 1226.625 270.386719 1224.230469 263.613281 Z M 1244.625 242.355469 C 1240.886719 234.367188 1236.59375 226.628906 1232.738281 218.691406 C 1228.472656 209.910156 1224.179688 201.074219 1219.761719 192.3125 C 1218.425781 192.402344 1217.097656 192.5 1215.765625 192.605469 C 1220.230469 202.421875 1224.554688 212.292969 1228.613281 222.359375 C 1231.921875 230.5625 1234.292969 239.054688 1237.347656 247.351562 C 1240.613281 256.234375 1244.132812 265.027344 1247.417969 273.90625 C 1251.683594 285.445312 1255.714844 297.070312 1259.527344 308.769531 C 1263.246094 309.695312 1266.859375 310.800781 1270.324219 312.128906 C 1265.585938 297.339844 1260.480469 282.671875 1255.007812 268.136719 C 1251.761719 259.5 1248.542969 250.71875 1244.625 242.355469 Z M 1070.449219 166.722656 C 1068.910156 156.5 1066.976562 147.15625 1068.039062 136.351562 C 1069.097656 125.554688 1071.171875 114.820312 1072.777344 104.191406 C 1076.203125 81.492188 1079.738281 58.835938 1083.710938 36.359375 C 1084.476562 32.035156 1082.738281 28.125 1080.136719 27.832031 C 1041.054688 23.445312 1001.984375 19.203125 962.878906 15.28125 C 958.699219 14.863281 953.828125 13.257812 949.65625 14.46875 C 945.652344 15.628906 944.964844 21.109375 945.089844 26.964844 C 945.433594 43.039062 944.902344 59.082031 943.925781 75.144531 C 941.976562 107.417969 938.976562 139.605469 936.367188 171.78125 C 934.949219 189.210938 933.636719 206.703125 931.671875 224.019531 C 929.832031 240.183594 927.054688 256.210938 921.375 270.015625 C 920.027344 273.285156 920.96875 279.011719 923.4375 279.765625 C 960.578125 291.078125 998.828125 291.675781 1036.789062 293.359375 C 1038.976562 293.746094 1041.15625 294.148438 1043.335938 294.582031 C 1047.953125 295.503906 1052.5625 296.558594 1057.132812 297.902344 C 1061.144531 299.078125 1065.65625 301.867188 1069.761719 300.703125 C 1071.722656 300.757812 1073.574219 298.738281 1073.367188 294.542969 C 1071.273438 252.121094 1076.714844 208.320312 1070.449219 166.722656 Z M 1070.449219 166.722656 " fill-opacity="1" fill-rule="nonzero"/></g><g clip-path="url(#ef10a1e061)"><path fill="#ffffff" d="M 1069.191406 98.390625 C 1070.652344 97.738281 1072.246094 97.464844 1073.84375 97.195312 C 1073.707031 98.070312 1073.574219 98.945312 1073.441406 99.820312 C 1072.625 100.046875 1071.808594 100.285156 1071.0625 100.671875 C 1069.441406 101.546875 1068.109375 103.03125 1066.496094 103.890625 C 1064.878906 104.742188 1063.175781 105.429688 1061.566406 106.292969 C 1059.96875 107.175781 1058.367188 108.0625 1056.765625 108.949219 C 1055.15625 109.800781 1053.445312 110.449219 1051.8125 111.257812 C 1050.421875 111.960938 1049.121094 112.832031 1047.753906 113.574219 C 1047.5 113.714844 1047.25 113.855469 1046.988281 113.984375 C 1045.335938 114.785156 1043.746094 115.730469 1042.097656 116.542969 C 1040.894531 117.132812 1039.585938 117.519531 1038.335938 118.011719 C 1037.871094 118.195312 1037.410156 118.398438 1036.96875 118.625 C 1036.578125 118.828125 1036.191406 119.042969 1035.808594 119.261719 C 1034.59375 119.960938 1033.40625 120.714844 1032.183594 121.382812 C 1030.558594 122.246094 1028.796875 122.84375 1027.171875 123.71875 C 1025.574219 124.605469 1024.179688 125.855469 1022.582031 126.738281 C 1020.984375 127.613281 1019.136719 128.050781 1017.550781 128.957031 C 1015.964844 129.863281 1014.691406 131.304688 1013.128906 132.246094 C 1012.828125 132.421875 1012.511719 132.578125 1012.195312 132.730469 C 1012.945312 132.519531 1013.683594 132.292969 1014.371094 131.960938 C 1016.011719 131.167969 1017.550781 130.167969 1019.191406 129.375 C 1020.835938 128.582031 1022.644531 128.128906 1024.296875 127.359375 C 1025.945312 126.59375 1027.453125 125.53125 1029.105469 124.777344 C 1030.757812 124.007812 1032.339844 123.101562 1033.976562 122.308594 C 1035.625 121.539062 1037.132812 120.480469 1038.773438 119.6875 L 1043.679688 117.3125 C 1045.320312 116.523438 1047.253906 116.367188 1048.898438 115.597656 C 1050.535156 114.820312 1051.84375 113.316406 1053.484375 112.53125 C 1055.136719 111.761719 1056.984375 111.4375 1058.628906 110.65625 C 1060.265625 109.867188 1061.886719 109.039062 1063.535156 108.265625 C 1065.1875 107.492188 1066.824219 106.699219 1068.496094 105.96875 C 1069.964844 105.328125 1071.367188 104.511719 1072.832031 103.847656 C 1072.8125 103.960938 1072.796875 104.078125 1072.777344 104.191406 C 1072.652344 105.023438 1072.519531 105.851562 1072.390625 106.683594 C 1070.957031 107.394531 1069.464844 107.960938 1068.070312 108.738281 C 1066.265625 109.730469 1064.515625 110.835938 1062.699219 111.800781 C 1060.878906 112.761719 1059.34375 114.304688 1057.527344 115.257812 C 1055.9375 116.089844 1054.019531 116.238281 1052.425781 117.070312 C 1050.824219 117.894531 1049.425781 119.125 1047.824219 119.921875 C 1046.21875 120.730469 1044.695312 121.691406 1043.074219 122.457031 C 1041.460938 123.226562 1039.648438 123.601562 1038.027344 124.359375 C 1036.398438 125.113281 1034.824219 125.976562 1033.203125 126.75 C 1031.585938 127.523438 1030.125 128.617188 1028.511719 129.398438 C 1026.890625 130.164062 1024.933594 130.257812 1023.292969 131.007812 C 1021.667969 131.777344 1020.15625 132.773438 1018.527344 133.53125 C 1016.855469 134.296875 1015.175781 135.050781 1013.519531 135.851562 C 1011.863281 136.652344 1010.40625 137.828125 1008.746094 138.621094 C 1007.082031 139.40625 1005.351562 140.082031 1003.644531 140.800781 C 1001.945312 141.519531 999.988281 141.714844 998.207031 142.316406 C 996.476562 142.902344 994.890625 143.785156 993.195312 144.429688 C 991.730469 144.984375 990.378906 145.742188 988.980469 146.421875 C 988.75 146.535156 988.519531 146.648438 988.285156 146.757812 C 988.039062 146.867188 987.792969 146.972656 987.550781 147.082031 C 986.597656 147.585938 985.65625 148.097656 984.695312 148.589844 C 983.859375 149.027344 982.9375 149.335938 982.015625 149.644531 C 980.789062 150.183594 979.511719 150.660156 978.367188 151.355469 C 977.816406 151.6875 977.113281 150.949219 977.09375 150.332031 C 976.429688 149.652344 976.324219 148.492188 977.351562 147.574219 C 978.757812 146.328125 980.203125 145.128906 981.71875 144.03125 C 983.246094 142.941406 984.847656 141.96875 986.441406 140.976562 C 988.023438 139.976562 989.511719 138.8125 991.144531 137.878906 C 992.769531 136.945312 994.292969 135.839844 995.9375 134.929688 C 997.585938 134.027344 999.449219 133.507812 1001.070312 132.574219 C 1002.660156 131.636719 1004.1875 130.582031 1005.777344 129.636719 C 1007.382812 128.714844 1009.148438 128.082031 1010.753906 127.164062 C 1012.347656 126.234375 1013.824219 125.085938 1015.441406 124.1875 C 1017.0625 123.296875 1018.585938 122.230469 1020.234375 121.386719 C 1021.875 120.53125 1023.542969 119.734375 1025.199219 118.90625 C 1026.898438 118.0625 1028.761719 117.554688 1030.457031 116.71875 C 1032.160156 115.886719 1033.878906 115.097656 1035.589844 114.285156 C 1037.292969 113.464844 1038.882812 112.398438 1040.605469 111.613281 C 1042.332031 110.832031 1043.953125 109.832031 1045.695312 109.078125 C 1047.429688 108.3125 1049.429688 108.160156 1051.160156 107.394531 C 1053.199219 106.515625 1055.015625 105.09375 1057.050781 104.175781 C 1059.101562 103.292969 1061.054688 102.21875 1063.050781 101.210938 C 1065.078125 100.214844 1067.144531 99.316406 1069.191406 98.390625 Z M 1003.394531 175.132812 C 1004.597656 174.699219 1005.886719 174.503906 1007.144531 174.234375 C 1008.066406 174.128906 1008.980469 174.023438 1009.84375 173.773438 C 1010.886719 173.480469 1011.917969 173.171875 1012.949219 172.859375 C 1013.148438 172.816406 1013.347656 172.773438 1013.542969 172.726562 C 1013.785156 172.671875 1014.019531 172.609375 1014.257812 172.546875 C 1015.6875 172.171875 1017.097656 171.707031 1018.570312 171.457031 C 1020.28125 171.167969 1021.925781 170.632812 1023.65625 170.398438 C 1025.4375 170.15625 1027.328125 170.351562 1029.046875 169.972656 C 1030.78125 169.605469 1032.527344 169.269531 1034.226562 168.820312 C 1035.921875 168.363281 1037.484375 167.480469 1039.175781 167.003906 C 1040.871094 166.527344 1042.574219 166.109375 1044.273438 165.65625 C 1045.933594 165.207031 1047.515625 164.507812 1049.171875 164.042969 C 1050.832031 163.59375 1052.710938 163.847656 1054.355469 163.378906 C 1056.003906 162.898438 1057.542969 162.066406 1059.191406 161.585938 C 1060.835938 161.105469 1062.453125 160.527344 1064.097656 160.050781 C 1065.746094 159.574219 1067.515625 159.507812 1069.15625 159.011719 C 1069.1875 159.003906 1069.214844 158.992188 1069.246094 158.984375 C 1069.019531 157.519531 1068.808594 156.0625 1068.617188 154.605469 L 1065.433594 155.585938 C 1063.769531 156.089844 1062.199219 156.882812 1060.53125 157.363281 C 1058.871094 157.859375 1057.242188 158.476562 1055.574219 158.949219 C 1053.898438 159.414062 1052.316406 160.179688 1050.640625 160.644531 C 1048.972656 161.109375 1047.1875 161.230469 1045.515625 161.710938 C 1043.839844 162.183594 1042.238281 162.894531 1040.5625 163.363281 C 1039.863281 163.558594 1039.125 163.644531 1038.386719 163.710938 C 1038.710938 163.621094 1039.035156 163.53125 1039.34375 163.410156 C 1040.964844 162.785156 1042.386719 161.605469 1044.019531 161 C 1045.65625 160.402344 1047.46875 160.3125 1049.109375 159.734375 C 1050.746094 159.148438 1052.25 158.171875 1053.886719 157.582031 C 1055.542969 157 1057.296875 156.71875 1058.953125 156.144531 C 1060.207031 155.707031 1061.429688 155.160156 1062.675781 154.679688 C 1063.066406 154.523438 1063.464844 154.378906 1063.863281 154.242188 C 1064.3125 154.09375 1064.773438 153.976562 1065.238281 153.875 C 1066.304688 153.640625 1067.386719 153.46875 1068.4375 153.191406 C 1068.425781 153.097656 1068.414062 153 1068.40625 152.90625 C 1068.210938 151.292969 1068.046875 149.679688 1067.933594 148.046875 C 1066.3125 148.542969 1064.757812 149.265625 1063.132812 149.75 L 1057.957031 151.28125 C 1056.234375 151.808594 1054.402344 151.988281 1052.683594 152.515625 C 1051.003906 153.042969 1049.316406 153.527344 1047.640625 154.074219 C 1045.964844 154.617188 1044.371094 155.378906 1042.710938 155.957031 C 1041.054688 156.539062 1039.492188 157.398438 1037.847656 158.007812 C 1036.195312 158.605469 1034.433594 158.894531 1032.777344 159.496094 C 1031.132812 160.113281 1029.53125 160.847656 1027.882812 161.457031 C 1026.210938 162.066406 1024.367188 162.195312 1022.667969 162.753906 C 1020.980469 163.316406 1019.363281 164.089844 1017.679688 164.671875 C 1015.992188 165.25 1014.40625 166.089844 1012.742188 166.730469 C 1011.082031 167.371094 1009.40625 167.988281 1007.789062 168.726562 C 1006.171875 169.476562 1004.613281 170.335938 1003.074219 171.253906 C 1001.953125 171.925781 1001.855469 173.074219 1002.363281 173.871094 C 1002.28125 174.472656 1002.820312 175.339844 1003.394531 175.132812 Z M 942.71875 242.234375 C 944.652344 241.292969 946.585938 240.347656 948.519531 239.40625 C 950.453125 238.457031 952.550781 237.84375 954.480469 236.898438 C 956.371094 235.976562 958.285156 235.117188 960.167969 234.183594 C 962.046875 233.253906 963.835938 232.140625 965.71875 231.203125 C 967.59375 230.265625 969.332031 229.042969 971.207031 228.101562 C 973.085938 227.164062 975.109375 226.515625 976.988281 225.578125 C 978.867188 224.640625 980.691406 223.59375 982.570312 222.664062 C 984.472656 221.71875 986.621094 221.285156 988.558594 220.414062 C 990.5 219.546875 992.34375 218.476562 994.292969 217.621094 C 996.238281 216.765625 998.050781 215.628906 999.976562 214.730469 C 1001.902344 213.832031 1003.835938 212.953125 1005.710938 211.953125 C 1007.585938 210.957031 1009.40625 209.875 1011.203125 208.722656 C 1012.507812 207.878906 1012.648438 206.671875 1012.082031 205.914062 C 1012.191406 205.277344 1011.59375 204.445312 1010.917969 204.742188 C 1009.515625 205.351562 1008.011719 205.730469 1006.542969 206.179688 C 1005.464844 206.414062 1004.394531 206.648438 1003.382812 207.03125 C 1002.164062 207.492188 1000.957031 207.964844 999.75 208.445312 C 999.519531 208.519531 999.289062 208.589844 999.0625 208.667969 C 998.785156 208.757812 998.511719 208.859375 998.234375 208.957031 C 996.558594 209.558594 994.910156 210.261719 993.191406 210.769531 C 991.199219 211.351562 989.273438 212.164062 987.257812 212.710938 C 985.179688 213.273438 982.964844 213.414062 980.949219 214.109375 C 978.925781 214.808594 976.898438 215.5 974.914062 216.289062 C 972.929688 217.078125 971.140625 218.3125 969.183594 219.148438 C 967.21875 219.988281 965.230469 220.761719 963.273438 221.605469 C 961.351562 222.4375 959.539062 223.496094 957.625 224.339844 C 955.714844 225.1875 953.492188 225.367188 951.59375 226.230469 C 949.691406 227.09375 947.96875 228.34375 946.078125 229.234375 C 944.183594 230.121094 942.347656 231.117188 940.46875 232.035156 C 938.589844 232.949219 936.507812 233.464844 934.648438 234.410156 C 933.039062 235.230469 931.503906 236.183594 929.929688 237.066406 C 929.699219 238.539062 929.460938 240.011719 929.203125 241.46875 C 930.71875 240.890625 932.351562 240.515625 933.785156 239.777344 C 935.652344 238.8125 937.507812 237.84375 939.390625 236.910156 C 941.269531 235.972656 943.015625 234.765625 944.910156 233.855469 C 946.800781 232.945312 948.640625 231.925781 950.542969 231.035156 C 952.449219 230.148438 954.242188 229.027344 956.160156 228.160156 C 958.074219 227.296875 960.148438 226.765625 962.070312 225.921875 C 963.996094 225.082031 965.8125 223.992188 967.746094 223.167969 C 968.554688 222.824219 969.410156 222.589844 970.273438 222.371094 C 969.902344 222.53125 969.527344 222.6875 969.167969 222.875 C 967.300781 223.839844 965.722656 225.355469 963.859375 226.324219 C 961.996094 227.292969 959.878906 227.765625 958.015625 228.738281 C 956.160156 229.710938 954.484375 231.046875 952.628906 232.027344 C 950.757812 233.015625 948.746094 233.726562 946.871094 234.707031 C 945.460938 235.445312 944.109375 236.3125 942.730469 237.113281 C 942.277344 237.375 941.824219 237.628906 941.363281 237.871094 C 940.863281 238.132812 940.347656 238.363281 939.824219 238.585938 C 938.394531 239.195312 936.90625 239.699219 935.539062 240.425781 C 933.667969 241.417969 931.851562 242.507812 929.988281 243.511719 C 929.699219 243.671875 929.417969 243.84375 929.128906 244.015625 C 928.984375 244.101562 928.832031 244.183594 928.6875 244.269531 C 928.332031 246.136719 927.953125 247.984375 927.542969 249.816406 C 928.839844 249.390625 930.167969 249.027344 931.378906 248.421875 C 933.300781 247.460938 935.132812 246.3125 937.0625 245.363281 C 938.996094 244.414062 940.785156 243.179688 942.71875 242.234375 Z M 1060.917969 248.171875 C 1058.695312 248.910156 1056.476562 249.691406 1054.296875 250.546875 C 1052.109375 251.394531 1050.140625 252.75 1048.003906 253.703125 C 1045.863281 254.65625 1043.679688 255.527344 1041.566406 256.546875 C 1039.488281 257.527344 1037.515625 258.726562 1035.453125 259.734375 C 1033.398438 260.769531 1031.007812 261.152344 1028.957031 262.210938 C 1026.898438 263.253906 1025.097656 264.761719 1023.074219 265.867188 C 1022.066406 266.425781 1021.078125 267.011719 1020.085938 267.597656 L 1017.140625 269.402344 C 1015.167969 270.59375 1012.933594 271.363281 1011 272.617188 C 1009.058594 273.871094 1007.238281 275.300781 1005.324219 276.585938 C 1003.417969 277.882812 1001.835938 279.640625 999.972656 280.988281 C 998.101562 282.328125 995.84375 283.152344 994.039062 284.585938 C 991.96875 286.21875 990.308594 288.339844 988.324219 290.0625 C 988.035156 290.316406 987.753906 290.570312 987.472656 290.824219 C 988.8125 290.925781 990.15625 291.03125 991.5 291.125 C 992.082031 290.652344 992.667969 290.191406 993.269531 289.746094 C 995.113281 288.375 997.253906 287.414062 999.097656 286.054688 C 1000.957031 284.710938 1002.402344 282.773438 1004.292969 281.457031 C 1006.171875 280.132812 1008.484375 279.46875 1010.410156 278.21875 C 1012.335938 276.972656 1014.238281 275.6875 1016.210938 274.515625 C 1018.175781 273.320312 1019.976562 271.863281 1021.960938 270.703125 C 1023.960938 269.570312 1025.902344 268.332031 1027.914062 267.222656 C 1029.914062 266.09375 1031.851562 264.832031 1033.890625 263.769531 C 1035.929688 262.714844 1038.148438 262.003906 1040.226562 261.03125 C 1042.304688 260.050781 1044.246094 258.792969 1046.34375 257.863281 C 1047.222656 257.476562 1048.152344 257.195312 1049.085938 256.933594 C 1048.679688 257.113281 1048.273438 257.292969 1047.878906 257.5 C 1045.847656 258.550781 1044.136719 260.210938 1042.140625 261.320312 C 1040.140625 262.433594 1037.851562 263.03125 1035.878906 264.199219 C 1033.902344 265.355469 1032.128906 266.851562 1030.15625 268.015625 C 1028.195312 269.21875 1026.0625 270.15625 1024.09375 271.351562 C 1022.609375 272.234375 1021.234375 273.289062 1019.816406 274.277344 C 1019.339844 274.609375 1018.855469 274.933594 1018.367188 275.242188 C 1017.847656 275.570312 1017.308594 275.871094 1016.761719 276.160156 C 1016.289062 276.414062 1015.804688 276.660156 1015.324219 276.902344 C 1014.300781 277.441406 1013.277344 277.984375 1012.316406 278.625 C 1010.40625 279.914062 1008.527344 281.253906 1006.648438 282.589844 C 1006.351562 282.800781 1006.066406 283.023438 1005.777344 283.242188 C 1004.230469 284.421875 1002.765625 285.714844 1001.195312 286.847656 C 999.355469 288.207031 997.453125 289.464844 995.671875 290.875 C 995.46875 291.039062 995.273438 291.203125 995.070312 291.367188 C 997.039062 291.496094 999 291.613281 1000.964844 291.726562 C 1001.417969 291.359375 1001.875 290.996094 1002.351562 290.65625 C 1004.269531 289.34375 1006.59375 288.640625 1008.523438 287.359375 C 1010.449219 286.0625 1012.304688 284.660156 1014.269531 283.421875 C 1016.234375 282.1875 1018.03125 280.679688 1020.03125 279.5 C 1022.027344 278.316406 1024.007812 277.105469 1026.019531 275.945312 C 1028.039062 274.792969 1030.234375 273.957031 1032.242188 272.800781 C 1034.214844 271.6875 1036.242188 270.679688 1038.21875 269.578125 C 1040.183594 268.464844 1042.09375 267.230469 1044.085938 266.167969 C 1046.085938 265.109375 1047.921875 263.734375 1049.945312 262.71875 C 1051.960938 261.691406 1054.121094 260.949219 1056.140625 259.925781 C 1058.175781 258.9375 1060.152344 257.835938 1062.191406 256.851562 C 1064.246094 255.835938 1066.570312 255.433594 1068.675781 254.539062 C 1070.148438 253.914062 1071.59375 253.203125 1073.0625 252.554688 C 1073.089844 250.953125 1073.121094 249.355469 1073.152344 247.753906 C 1073.164062 247.183594 1073.175781 246.613281 1073.1875 246.042969 C 1073.1875 246.027344 1073.1875 246.011719 1073.1875 245.992188 C 1073.191406 245.699219 1073.199219 245.40625 1073.203125 245.117188 C 1071.40625 245.632812 1069.621094 246.230469 1067.804688 246.703125 C 1065.539062 247.289062 1063.140625 247.445312 1060.917969 248.171875 Z M 967.519531 202.988281 C 978.042969 199.304688 988.652344 195.648438 999.441406 192.746094 C 1010.234375 189.863281 1021.164062 187.796875 1032.15625 185.933594 C 1043.148438 184.109375 1054.292969 182.597656 1065.4375 182.074219 C 1066.621094 182 1067.8125 182.003906 1069 181.972656 L 1072.242188 181.929688 C 1072.148438 180.855469 1072.046875 179.78125 1071.941406 178.710938 L 1071.167969 178.734375 L 1069.023438 178.789062 C 1067.589844 178.835938 1066.160156 178.84375 1064.730469 178.9375 C 1061.875 179.09375 1059.011719 179.210938 1056.164062 179.46875 L 1051.886719 179.824219 L 1047.613281 180.273438 C 1036.445312 181.488281 1025.386719 183.675781 1014.464844 186.089844 C 1003.535156 188.5 992.648438 190.691406 981.964844 194.046875 C 971.277344 197.394531 960.816406 201.523438 950.417969 205.535156 C 944.523438 207.800781 938.683594 210.179688 932.875 212.613281 C 932.738281 213.980469 932.601562 215.34375 932.460938 216.707031 C 933.742188 216.164062 935.03125 215.625 936.324219 215.097656 C 946.632812 210.871094 956.988281 206.6875 967.519531 202.988281 Z M 949.148438 196.136719 C 953.855469 193.289062 958.515625 190.371094 963.125 187.441406 C 965.78125 185.808594 968.410156 184.152344 971.023438 182.476562 L 974.9375 179.960938 L 978.914062 177.5625 C 981.566406 175.960938 984.226562 174.363281 986.882812 172.761719 C 989.558594 171.191406 992.308594 169.746094 995.054688 168.269531 C 1006.042969 162.339844 1017.269531 157.046875 1028.648438 151.917969 C 1040.125 147.066406 1052.019531 142.691406 1063.808594 138.683594 C 1065.199219 138.207031 1066.582031 137.714844 1067.964844 137.222656 C 1067.992188 136.929688 1068.007812 136.644531 1068.039062 136.351562 C 1068.089844 135.839844 1068.152344 135.324219 1068.207031 134.8125 L 1066.964844 135.210938 C 1061.695312 136.941406 1056.410156 138.59375 1051.246094 140.601562 L 1043.460938 143.488281 C 1040.863281 144.4375 1038.320312 145.542969 1035.738281 146.546875 L 1028.023438 149.632812 L 1020.417969 152.976562 C 1017.890625 154.105469 1015.332031 155.171875 1012.832031 156.355469 L 1005.339844 159.9375 C 1000.308594 162.253906 995.4375 164.890625 990.535156 167.449219 L 986.859375 169.375 C 985.640625 170.03125 984.445312 170.734375 983.242188 171.410156 L 976.007812 175.476562 C 973.574219 176.796875 971.191406 178.214844 968.796875 179.613281 L 961.585938 183.765625 L 959.78125 184.800781 L 954.476562 188.097656 C 952.125 189.570312 949.785156 191.050781 947.457031 192.558594 C 942.894531 195.695312 938.46875 199.007812 934.070312 202.339844 L 933.816406 202.542969 C 933.6875 204 933.550781 205.457031 933.417969 206.914062 C 934.109375 206.386719 934.789062 205.851562 935.484375 205.332031 C 939.914062 202.125 944.554688 199.160156 949.148438 196.136719 Z M 941.300781 194.539062 C 945.808594 191.285156 950.535156 188.367188 955.191406 185.347656 L 958.6875 183.09375 L 962.246094 180.949219 C 964.609375 179.515625 966.976562 178.078125 969.335938 176.644531 C 971.679688 175.164062 974.09375 173.8125 976.496094 172.433594 C 978.890625 171.050781 981.285156 169.667969 983.683594 168.289062 C 984.871094 167.582031 986.085938 166.921875 987.3125 166.28125 L 990.964844 164.324219 L 998.28125 160.425781 C 1003.238281 157.960938 1008.257812 155.570312 1013.28125 153.199219 C 1015.824219 152.074219 1018.367188 150.957031 1020.90625 149.839844 L 1024.710938 148.152344 C 1025.96875 147.582031 1027.238281 147.019531 1028.523438 146.507812 C 1031.078125 145.453125 1033.601562 144.363281 1036.113281 143.257812 C 1038.628906 142.15625 1041.113281 140.996094 1043.65625 139.992188 C 1046.195312 138.957031 1048.734375 137.921875 1051.28125 136.882812 C 1052.558594 136.378906 1053.839844 135.871094 1055.125 135.355469 C 1056.417969 134.886719 1057.730469 134.441406 1059.046875 133.996094 C 1062.210938 132.945312 1065.414062 131.910156 1068.65625 130.949219 C 1068.773438 130.015625 1068.886719 129.082031 1069.015625 128.148438 C 1063.550781 129.644531 1058.125 131.28125 1052.734375 133.105469 C 1046.332031 135.449219 1039.867188 137.644531 1033.558594 140.277344 C 1030.394531 141.566406 1027.199219 142.777344 1024.066406 144.136719 L 1014.691406 148.28125 C 1011.582031 149.617188 1008.546875 151.117188 1005.507812 152.597656 C 1002.476562 154.089844 999.417969 155.53125 996.40625 157.058594 C 993.414062 158.625 990.417969 160.195312 987.421875 161.765625 C 985.925781 162.554688 984.410156 163.308594 982.925781 164.121094 L 978.484375 166.597656 C 975.523438 168.25 972.570312 169.914062 969.644531 171.625 L 961.019531 177.007812 L 956.714844 179.703125 L 952.492188 182.523438 C 949.671875 184.394531 946.839844 186.25 943.996094 188.082031 C 941.621094 189.699219 939.234375 191.300781 936.828125 192.875 C 936.066406 193.386719 935.296875 193.882812 934.523438 194.378906 C 934.375 196.140625 934.226562 197.898438 934.070312 199.660156 C 934.195312 199.570312 934.320312 199.476562 934.445312 199.386719 Z M 974.152344 208.082031 C 984.550781 204.46875 995.074219 201.3125 1005.667969 198.507812 C 1016.257812 195.691406 1026.9375 193.207031 1037.726562 191.453125 C 1048.503906 189.6875 1059.351562 188.253906 1070.242188 187.832031 L 1072.304688 187.757812 L 1072.695312 187.765625 C 1072.582031 186.132812 1072.460938 184.507812 1072.324219 182.886719 C 1072.304688 182.644531 1072.285156 182.402344 1072.261719 182.160156 L 1068.714844 182.332031 C 1067.324219 182.40625 1065.9375 182.484375 1064.550781 182.625 C 1061.777344 182.875 1059.007812 183.128906 1056.246094 183.5 C 1050.722656 184.144531 1045.242188 185.050781 1039.742188 185.863281 C 1028.769531 187.574219 1017.742188 189.355469 1006.957031 192.140625 C 996.175781 194.929688 985.691406 198.621094 975.1875 202.238281 C 964.601562 205.882812 954.027344 209.648438 943.648438 213.867188 C 939.820312 215.425781 936.03125 217.0625 932.25 218.714844 C 932.242188 218.777344 932.234375 218.835938 932.230469 218.894531 C 932.046875 220.601562 931.863281 222.3125 931.671875 224.019531 C 931.664062 224.070312 931.65625 224.125 931.652344 224.175781 C 935.207031 222.675781 938.765625 221.183594 942.335938 219.730469 C 952.824219 215.449219 963.503906 211.78125 974.152344 208.082031 Z M 1073.132812 195.417969 C 1073.125 195.332031 1073.125 195.246094 1073.121094 195.160156 C 1073.035156 193.292969 1072.933594 191.429688 1072.816406 189.570312 L 1072.660156 189.667969 L 1071.414062 190.410156 L 1067.84375 192.527344 C 1063.078125 195.34375 1058.289062 198.132812 1053.464844 200.878906 C 1043.710938 206.441406 1033.695312 211.429688 1023.875 216.988281 C 1014.058594 222.554688 1004.355469 228.441406 994.679688 234.363281 C 984.996094 240.289062 975.59375 246.808594 966.324219 253.445312 C 957.039062 260.089844 948.015625 267.132812 939.472656 274.804688 C 936.824219 277.175781 934.226562 279.609375 931.679688 282.089844 C 932.441406 282.289062 933.195312 282.492188 933.957031 282.683594 C 935.113281 282.972656 936.265625 283.253906 937.417969 283.527344 C 937.492188 283.542969 937.566406 283.558594 937.640625 283.578125 C 939.261719 282.179688 940.882812 280.78125 942.515625 279.382812 C 948.007812 274.679688 953.667969 270.164062 959.445312 265.8125 C 960.15625 265.289062 960.867188 264.765625 961.582031 264.246094 C 962.851562 263.328125 964.121094 262.417969 965.402344 261.507812 C 973.015625 256.085938 980.832031 250.824219 988.777344 246.003906 C 998.015625 240.402344 1007.484375 234.769531 1017.027344 229.632812 C 1026.84375 224.347656 1036.644531 219.761719 1046.507812 214.476562 C 1055.453125 209.6875 1064.414062 204.878906 1073.308594 199.886719 C 1073.261719 198.542969 1073.210938 197.203125 1073.152344 195.859375 C 1073.144531 195.710938 1073.136719 195.566406 1073.132812 195.417969 Z M 1077.625 37.347656 L 1070.3125 40 C 1065.421875 41.722656 1060.628906 43.699219 1055.820312 45.605469 C 1053.402344 46.542969 1051.039062 47.59375 1048.648438 48.585938 L 1041.484375 51.59375 C 1031.976562 55.722656 1022.53125 59.984375 1013.253906 64.589844 C 1003.921875 69.097656 994.839844 74.066406 985.753906 79.023438 C 976.742188 84.117188 967.46875 88.886719 958.707031 94.425781 C 957.464844 95.207031 956.230469 95.996094 955.003906 96.796875 C 953.082031 97.523438 951.160156 98.265625 949.257812 99.039062 C 948.730469 99.253906 948.210938 99.480469 947.6875 99.695312 C 947.15625 99.914062 946.632812 100.136719 946.101562 100.359375 C 946.152344 100.324219 946.203125 100.292969 946.25 100.257812 C 948.421875 98.804688 950.582031 97.324219 952.789062 95.917969 L 959.394531 91.792969 L 962.699219 89.738281 L 966.046875 87.761719 C 968.273438 86.4375 970.503906 85.113281 972.726562 83.792969 C 974.96875 82.5 977.210938 81.207031 979.445312 79.917969 C 988.386719 74.6875 997.441406 69.738281 1006.589844 64.929688 C 1015.816406 60.253906 1025.261719 55.832031 1034.691406 51.605469 C 1039.378906 49.421875 1044.011719 47.261719 1048.648438 45.105469 L 1052.132812 43.480469 C 1053.292969 42.949219 1054.472656 42.445312 1055.652344 41.933594 C 1058.007812 40.914062 1060.378906 39.910156 1062.789062 38.941406 C 1065.183594 37.964844 1067.648438 37.132812 1070.117188 36.261719 C 1072.59375 35.417969 1075.066406 34.539062 1077.574219 33.761719 C 1079.59375 33.144531 1081.601562 32.5 1083.605469 31.851562 C 1083.398438 31 1083.078125 30.242188 1082.671875 29.617188 C 1080.03125 30.390625 1077.386719 31.15625 1074.761719 31.964844 C 1068.746094 33.902344 1062.722656 35.84375 1056.816406 38.199219 C 1050.875 40.449219 1045.023438 42.949219 1039.132812 45.382812 C 1033.300781 47.945312 1027.449219 50.472656 1021.707031 53.234375 C 1015.964844 55.867188 1010.367188 58.761719 1004.722656 61.558594 C 999.136719 64.492188 993.515625 67.347656 987.964844 70.394531 C 982.367188 73.335938 976.964844 76.632812 971.519531 79.839844 C 966.160156 83.191406 960.753906 86.460938 955.417969 89.832031 C 951.089844 92.472656 946.734375 95.070312 942.40625 97.714844 C 942.300781 99.15625 942.191406 100.597656 942.082031 102.039062 C 942.054688 102.410156 942.027344 102.78125 942 103.148438 C 941.992188 103.242188 941.984375 103.339844 941.976562 103.433594 C 941.910156 104.304688 941.84375 105.179688 941.777344 106.054688 C 941.753906 106.34375 941.730469 106.636719 941.710938 106.929688 C 941.667969 107.445312 941.628906 107.964844 941.589844 108.484375 C 941.582031 108.597656 941.574219 108.707031 941.566406 108.816406 C 941.53125 109.238281 941.5 109.664062 941.46875 110.085938 C 941.359375 111.457031 941.25 112.832031 941.140625 114.207031 C 950.699219 110.089844 960.28125 105.953125 970.050781 102.324219 C 979.96875 98.632812 989.96875 95.164062 1000.035156 91.882812 C 1010.105469 88.605469 1020.324219 85.855469 1030.503906 82.929688 C 1040.433594 80.070312 1050.449219 77.425781 1060.4375 74.816406 C 1066.304688 73.300781 1072.136719 71.839844 1077.957031 70.714844 C 1078.246094 68.902344 1078.546875 67.09375 1078.839844 65.277344 C 1078.855469 65.191406 1078.871094 65.101562 1078.882812 65.015625 C 1073.058594 65.875 1067.269531 67.039062 1061.578125 68.503906 C 1051.515625 71.132812 1041.625 74.28125 1031.65625 77.199219 C 1021.613281 80.140625 1011.503906 82.933594 1001.550781 86.199219 C 994.070312 88.652344 986.667969 91.332031 979.289062 94.066406 C 976.859375 94.96875 974.425781 95.878906 971.996094 96.789062 C 969.269531 97.804688 966.535156 98.808594 963.792969 99.816406 C 958.226562 101.867188 952.664062 103.925781 947.167969 106.152344 C 947.167969 106.152344 947.171875 106.148438 947.179688 106.144531 C 949.316406 104.734375 951.484375 103.355469 953.664062 101.992188 C 953.671875 101.988281 953.679688 101.984375 953.691406 101.976562 C 957.519531 100.4375 961.363281 98.925781 965.226562 97.460938 C 974.96875 93.777344 984.699219 90 994.601562 86.746094 C 1004.5 83.492188 1014.429688 80.300781 1024.4375 77.410156 C 1034.4375 74.523438 1044.453125 71.515625 1054.535156 68.941406 C 1062.605469 66.871094 1070.777344 65.117188 1079.066406 63.894531 C 1079.253906 62.757812 1079.441406 61.621094 1079.625 60.484375 C 1075.890625 61.085938 1072.199219 61.816406 1068.5625 62.597656 C 1063.449219 63.695312 1058.371094 64.789062 1053.285156 65.882812 C 1050.765625 66.453125 1048.25 67.015625 1045.726562 67.582031 C 1043.210938 68.179688 1040.699219 68.804688 1038.191406 69.476562 C 1028.164062 72.199219 1018.234375 75.484375 1008.289062 78.539062 C 998.347656 81.597656 988.480469 84.925781 978.664062 88.402344 C 977.105469 88.953125 975.542969 89.496094 973.980469 90.039062 C 978.859375 87.078125 983.707031 84.136719 988.546875 81.191406 C 993.550781 78.25 998.535156 75.257812 1003.722656 72.574219 C 1008.867188 69.792969 1014.089844 67.210938 1019.273438 64.550781 C 1021.878906 63.238281 1024.515625 62 1027.136719 60.722656 L 1031.074219 58.816406 C 1032.386719 58.1875 1033.722656 57.597656 1035.050781 56.984375 C 1037.703125 55.773438 1040.378906 54.578125 1043.0625 53.394531 C 1045.777344 52.273438 1048.496094 51.148438 1051.210938 50.027344 C 1053.921875 48.878906 1056.660156 47.816406 1059.394531 46.742188 C 1062.117188 45.652344 1064.835938 44.566406 1067.542969 43.484375 C 1072.898438 41.402344 1078.191406 39.222656 1083.5625 37.238281 C 1083.609375 36.945312 1083.660156 36.652344 1083.710938 36.359375 C 1083.777344 35.976562 1083.820312 35.597656 1083.847656 35.222656 Z M 1042.167969 87.648438 C 1039.761719 88.765625 1037.394531 89.949219 1035.019531 91.109375 L 1027.863281 94.535156 C 1025.453125 95.644531 1023.121094 96.882812 1020.757812 98.078125 C 1018.402344 99.289062 1016.050781 100.511719 1013.707031 101.765625 C 1009.050781 104.308594 1004.488281 107.035156 999.882812 109.6875 C 995.339844 112.453125 990.800781 115.214844 986.265625 117.972656 C 981.78125 120.816406 977.332031 123.734375 972.894531 126.679688 C 968.523438 129.710938 964.152344 132.746094 959.792969 135.773438 C 955.488281 138.890625 951.128906 141.925781 946.878906 145.109375 L 940.550781 149.9375 C 939.710938 150.589844 938.863281 151.238281 938.015625 151.886719 C 937.925781 152.945312 937.839844 154.003906 937.75 155.058594 C 937.636719 156.398438 937.523438 157.734375 937.410156 159.074219 C 937.402344 159.167969 937.394531 159.261719 937.386719 159.355469 C 938.320312 158.636719 939.242188 157.902344 940.1875 157.203125 L 943.308594 154.90625 L 949.550781 150.296875 C 950.101562 149.878906 950.671875 149.480469 951.234375 149.074219 C 952.644531 148.085938 954.050781 147.097656 955.46875 146.121094 C 956.132812 145.675781 956.789062 145.222656 957.441406 144.769531 C 960.980469 142.335938 964.496094 139.835938 968.132812 137.503906 C 972.417969 134.703125 976.648438 131.828125 981.03125 129.265625 C 985.375 126.679688 989.675781 123.945312 994.125 121.441406 C 998.539062 118.890625 1002.929688 116.285156 1007.4375 113.980469 C 1012.042969 111.558594 1016.609375 109.242188 1021.273438 107.109375 C 1025.902344 104.921875 1030.53125 102.734375 1035.242188 100.507812 L 1042.304688 97.128906 C 1044.664062 96.015625 1047.0625 94.984375 1049.4375 93.902344 L 1056.578125 90.683594 L 1063.785156 87.613281 C 1066.183594 86.566406 1068.582031 85.519531 1070.988281 84.464844 C 1072.703125 83.742188 1074.421875 83.011719 1076.140625 82.285156 C 1076.363281 80.847656 1076.59375 79.410156 1076.8125 77.972656 C 1076.835938 77.84375 1076.855469 77.714844 1076.875 77.585938 C 1076.878906 77.566406 1076.882812 77.546875 1076.886719 77.527344 C 1077.195312 75.550781 1077.5 73.570312 1077.816406 71.59375 C 1075.453125 72.546875 1073.097656 73.527344 1070.734375 74.496094 C 1061.078125 78.574219 1051.59375 83.0625 1042.167969 87.648438 Z M 954.558594 52.101562 L 960.136719 47.027344 C 961.96875 45.3125 963.691406 43.472656 965.542969 41.777344 C 967.394531 40.082031 969.023438 38.136719 970.894531 36.460938 C 972.765625 34.78125 974.847656 33.339844 976.71875 31.65625 C 978.597656 29.996094 980.402344 28.238281 982.289062 26.582031 C 984.191406 24.898438 986.492188 23.691406 988.460938 22.089844 C 989.949219 20.882812 991.363281 19.582031 992.832031 18.347656 C 990.667969 18.121094 988.503906 17.90625 986.34375 17.679688 C 985.832031 17.628906 985.320312 17.578125 984.808594 17.523438 C 984.609375 17.503906 984.414062 17.484375 984.21875 17.464844 C 983.148438 17.351562 982.078125 17.246094 981.011719 17.136719 C 980.300781 17.527344 979.59375 17.933594 978.921875 18.394531 C 976.8125 19.867188 974.707031 21.355469 972.664062 22.917969 C 970.613281 24.476562 968.890625 26.445312 966.898438 28.070312 C 964.902344 29.699219 962.855469 31.261719 960.886719 32.921875 C 958.953125 34.542969 957.175781 36.347656 955.257812 37.988281 C 953.351562 39.636719 950.957031 40.730469 949.0625 42.402344 C 947.644531 43.636719 946.410156 45.066406 945.101562 46.417969 C 945.070312 48.128906 945.035156 49.839844 944.988281 51.546875 C 946.308594 50.273438 947.617188 48.980469 948.976562 47.746094 C 950.839844 46.035156 952.574219 44.171875 954.472656 42.5 C 956.375 40.828125 958.519531 39.445312 960.457031 37.824219 C 962.398438 36.195312 964.144531 34.347656 966.113281 32.753906 C 966.933594 32.085938 967.824219 31.507812 968.730469 30.949219 C 968.351562 31.257812 967.972656 31.5625 967.613281 31.898438 C 965.75 33.601562 964.335938 35.789062 962.5 37.523438 C 960.664062 39.257812 958.433594 40.570312 956.625 42.332031 C 954.804688 44.089844 953.269531 46.132812 951.460938 47.890625 C 949.652344 49.683594 947.625 51.25 945.8125 53.03125 C 945.503906 53.332031 945.207031 53.644531 944.910156 53.953125 C 944.90625 54.0625 944.90625 54.171875 944.902344 54.285156 C 944.832031 56.503906 944.75 58.722656 944.65625 60.945312 L 948.671875 57.117188 C 950.550781 55.359375 952.683594 53.863281 954.558594 52.101562 Z M 954.558594 52.101562 " fill-opacity="1" fill-rule="nonzero"/></g><path fill="#ceb7ff" d="M 1132.707031 62.296875 C 1142.125 54.152344 1147.714844 38.148438 1151.023438 22.464844 C 1156.125 -1.722656 1177.242188 -19.160156 1201.933594 -19.160156 C 1221.660156 -19.160156 1239.6875 -7.980469 1248.460938 9.714844 C 1251.375 15.585938 1254.921875 22.640625 1259.25 31.121094 C 1283.351562 78.386719 1280.339844 164.875 1280.339844 164.875 L 1075.464844 164.875 C 1074.460938 79.394531 1110.617188 81.402344 1132.707031 62.296875 Z M 1132.707031 62.296875 " fill-opacity="1" fill-rule="nonzero"/><g clip-path="url(#b668649f4f)"><path fill="#2b529d" d="M 1257.839844 -3.910156 C 1253.214844 -7.289062 1248.375 -7.273438 1243.816406 -5.539062 C 1235.738281 -5.308594 1226.984375 0.304688 1221.996094 5.703125 C 1213.464844 14.945312 1208.882812 29.089844 1214.207031 41.074219 C 1220.453125 55.128906 1236.75 54.28125 1248.191406 47.105469 C 1259.121094 40.253906 1266.890625 27.59375 1266.402344 14.464844 C 1266.152344 7.652344 1263.503906 0.238281 1257.839844 -3.910156 Z M 1257.3125 21.1875 C 1254.597656 32.226562 1245.15625 41.800781 1233.808594 43.679688 C 1219.316406 46.074219 1218.011719 28.621094 1221.878906 18.800781 C 1224.011719 13.378906 1227.882812 8.484375 1232.539062 5.011719 C 1234.316406 3.683594 1236.585938 2.316406 1239.011719 1.316406 C 1245.175781 0.238281 1252.066406 -0.207031 1255.699219 5.824219 C 1258.445312 10.390625 1258.554688 16.140625 1257.3125 21.1875 Z M 1295.851562 57.730469 C 1295.175781 51.582031 1292.472656 45.121094 1286.707031 42.144531 C 1283.675781 40.582031 1279.546875 40.394531 1276.1875 41.699219 C 1266.960938 41.816406 1259.320312 49.25 1254.707031 57.464844 C 1249.214844 67.234375 1244.769531 80.535156 1253.175781 90.074219 C 1261.4375 99.453125 1275.746094 94.289062 1283.792969 87.335938 C 1292.128906 80.132812 1297.066406 68.761719 1295.851562 57.730469 Z M 1287.121094 66.09375 C 1285.25 74.796875 1278.820312 82.660156 1270.402344 85.734375 C 1265.496094 87.523438 1260.4375 87.445312 1257.59375 82.480469 C 1254.917969 77.8125 1256.148438 72.195312 1257.863281 67.429688 C 1260.476562 60.132812 1265.480469 51.351562 1272.875 47.996094 C 1273.199219 48.101562 1273.585938 48.09375 1274.023438 47.910156 C 1285.179688 43.257812 1288.894531 57.886719 1287.121094 66.09375 Z M 1218.28125 80.363281 C 1217.886719 79.761719 1217.429688 79.136719 1216.933594 78.511719 C 1216.613281 76.0625 1216.042969 73.722656 1215.664062 72.105469 C 1214.320312 66.386719 1210.886719 62.8125 1204.714844 63.625 C 1203.183594 63.824219 1201.722656 64.300781 1200.371094 64.984375 C 1196.753906 65.15625 1194.160156 69.652344 1192.460938 72.71875 C 1189.519531 78.039062 1188.039062 84.074219 1187.757812 90.132812 C 1187.492188 95.820312 1188.027344 102.898438 1191.621094 107.578125 C 1195.242188 112.292969 1201.324219 113.363281 1206.691406 111.179688 C 1217.382812 106.828125 1224.925781 90.492188 1218.28125 80.363281 Z M 1201.113281 104.382812 C 1195.324219 104.519531 1194.105469 96.125 1194.027344 90.605469 C 1194.269531 91.136719 1194.519531 91.671875 1194.777344 92.207031 C 1195.507812 93.722656 1198.234375 93.046875 1198.039062 91.324219 C 1197.601562 87.515625 1197.347656 82.164062 1198.734375 77.863281 C 1199.023438 77.648438 1199.265625 77.363281 1199.402344 77.003906 C 1200.347656 74.554688 1206.792969 80.449219 1207.699219 81.261719 C 1208.804688 82.25 1209.941406 83.308594 1210.847656 84.507812 C 1210.835938 84.640625 1210.8125 84.761719 1210.785156 84.882812 C 1209.859375 85.082031 1209.226562 86.15625 1209.738281 87.175781 C 1210.089844 87.875 1210.308594 88.183594 1210.832031 88.746094 C 1211.332031 89.289062 1212 89.476562 1212.667969 89.429688 C 1212.636719 94.824219 1206.960938 104.242188 1201.113281 104.382812 Z M 1266.039062 108.554688 C 1263.164062 109.320312 1261.503906 110.941406 1260.667969 113.046875 C 1260.5 113.175781 1260.34375 113.324219 1260.207031 113.507812 C 1254.683594 121.050781 1258.902344 134.757812 1266.707031 139.164062 C 1275.488281 144.117188 1282.53125 135.21875 1282.625 126.949219 C 1282.71875 118.859375 1275.949219 105.917969 1266.039062 108.554688 Z M 1268.28125 129.28125 C 1268.925781 130.667969 1269.691406 131.984375 1270.53125 133.179688 C 1270.574219 133.242188 1270.621094 133.296875 1270.667969 133.355469 C 1269.917969 133.082031 1269.207031 132.578125 1268.585938 131.976562 C 1268.460938 131.078125 1268.371094 130.183594 1268.28125 129.28125 Z M 1225.117188 133.394531 C 1223.652344 134.546875 1221.929688 134.675781 1220.488281 133.394531 C 1219.394531 132.421875 1218.34375 131.074219 1217.578125 129.566406 C 1214.488281 125.703125 1214.515625 119.457031 1218.164062 115.863281 C 1219.484375 114.570312 1221.179688 114.589844 1222.78125 115.269531 C 1229.449219 118.101562 1230.730469 128.984375 1225.117188 133.394531 Z M 1225.117188 133.394531 " fill-opacity="1" fill-rule="nonzero"/></g><g clip-path="url(#c4f9413ea2)"><path fill="#ffffff" d="M -0.515625 1.300781 L 948.585938 1.300781 L 948.585938 291.367188 L -0.515625 291.367188 Z M -0.515625 1.300781 " fill-opacity="1" fill-rule="nonzero"/></g><g clip-path="url(#f8ff146d34)"><path fill="#000000" d="M 32.839844 103.074219 C 31.578125 104.617188 29.75 105.847656 27.347656 106.761719 C 24.949219 107.667969 22.148438 108.121094 18.933594 108.121094 L 10.835938 108.121094 L 10.835938 127.5625 L 0.984375 127.5625 L 0.984375 78.742188 L 18.933594 78.742188 C 24.574219 78.742188 28.914062 80.15625 31.964844 82.976562 C 35.011719 85.789062 36.539062 89.109375 36.539062 92.929688 C 36.539062 96.757812 35.304688 100.136719 32.839844 103.074219 Z M 10.835938 100.558594 L 18.933594 100.558594 C 21.398438 100.558594 23.28125 99.917969 24.585938 98.636719 C 25.894531 97.355469 26.550781 95.621094 26.550781 93.429688 C 26.550781 91.234375 25.894531 89.492188 24.585938 88.210938 C 23.28125 86.929688 21.398438 86.289062 18.933594 86.289062 L 10.835938 86.289062 Z M 10.835938 100.558594 " fill-opacity="1" fill-rule="nonzero"/></g><path fill="#000000" d="M 68.605469 116.546875 C 70.65625 114.515625 71.683594 111.730469 71.683594 108.183594 C 71.683594 104.644531 70.65625 101.863281 68.605469 99.839844 C 66.554688 97.808594 64.160156 96.792969 61.414062 96.792969 C 58.664062 96.792969 56.277344 97.792969 54.25 99.792969 C 52.21875 101.792969 51.207031 104.570312 51.207031 108.121094 C 51.207031 111.667969 52.226562 114.464844 54.28125 116.515625 C 56.328125 118.570312 58.714844 119.59375 61.445312 119.59375 C 64.167969 119.59375 66.554688 118.578125 68.605469 116.546875 Z M 46.414062 122.5 C 42.949219 118.742188 41.214844 113.949219 41.214844 108.121094 C 41.214844 102.289062 42.9375 97.519531 46.382812 93.804688 C 49.835938 90.097656 54.21875 88.242188 59.523438 88.242188 C 64.832031 88.242188 68.878906 90.4375 71.683594 94.824219 L 71.683594 88.804688 L 81.453125 88.804688 L 81.453125 127.5625 L 71.683594 127.5625 L 71.683594 121.0625 C 68.746094 125.773438 64.667969 128.125 59.445312 128.125 C 54.234375 128.125 49.886719 126.25 46.414062 122.5 Z M 46.414062 122.5 " fill-opacity="1" fill-rule="nonzero"/><path fill="#000000" d="M 106.953125 119.3125 L 111.636719 119.3125 L 111.636719 127.5625 L 105.425781 127.5625 C 101.460938 127.5625 98.40625 126.65625 96.261719 124.84375 C 94.117188 123.023438 93.046875 120.011719 93.046875 115.8125 L 93.046875 96.855469 L 88.925781 96.855469 L 88.925781 88.804688 L 93.046875 88.804688 L 93.046875 79.226562 L 102.894531 79.226562 L 102.894531 88.804688 L 111.558594 88.804688 L 111.558594 96.855469 L 102.894531 96.855469 L 102.894531 115.8125 C 102.894531 117.074219 103.195312 117.976562 103.800781 118.515625 C 104.414062 119.046875 105.464844 119.3125 106.953125 119.3125 Z M 106.953125 119.3125 " fill-opacity="1" fill-rule="nonzero"/><path fill="#000000" d="M 129.171875 75.800781 L 129.171875 94.621094 C 131.636719 90.367188 135.640625 88.242188 141.1875 88.242188 C 145.609375 88.242188 149.214844 89.703125 152.003906 92.617188 C 154.800781 95.539062 156.203125 99.585938 156.203125 104.761719 L 156.203125 127.5625 L 146.417969 127.5625 L 146.417969 106.152344 C 146.417969 103.121094 145.644531 100.804688 144.105469 99.199219 C 142.578125 97.597656 140.488281 96.792969 137.832031 96.792969 C 135.179688 96.792969 133.074219 97.597656 131.511719 99.199219 C 129.953125 100.804688 129.171875 103.121094 129.171875 106.152344 L 129.171875 127.5625 L 119.324219 127.5625 L 119.324219 75.800781 Z M 129.171875 75.800781 " fill-opacity="1" fill-rule="nonzero"/><path fill="#000000" d="M 182.894531 88.804688 L 182.894531 96.855469 L 176.746094 96.855469 L 176.746094 127.5625 L 166.960938 127.5625 L 166.960938 96.855469 L 162.761719 96.855469 L 162.761719 88.804688 L 166.960938 88.804688 L 166.960938 86.648438 C 166.960938 81.984375 168.195312 78.578125 170.660156 76.425781 C 173.125 74.28125 177.015625 73.207031 182.332031 73.207031 L 182.332031 81.460938 C 180.28125 81.460938 178.835938 81.863281 177.996094 82.664062 C 177.160156 83.457031 176.746094 84.785156 176.746094 86.648438 L 176.746094 88.804688 Z M 182.894531 88.804688 " fill-opacity="1" fill-rule="nonzero"/><path fill="#000000" d="M 200.5625 78.945312 C 200.5625 80.625 199.976562 82.046875 198.816406 83.210938 C 197.648438 84.378906 196.238281 84.960938 194.585938 84.960938 C 192.929688 84.960938 191.519531 84.378906 190.355469 83.210938 C 189.199219 82.046875 188.625 80.625 188.625 78.945312 C 188.625 77.269531 189.199219 75.84375 190.355469 74.675781 C 191.519531 73.511719 192.929688 72.925781 194.585938 72.925781 C 196.238281 72.925781 197.648438 73.511719 198.816406 74.675781 C 199.976562 75.84375 200.5625 77.269531 200.5625 78.945312 Z M 189.667969 127.5625 L 189.667969 88.804688 L 199.515625 88.804688 L 199.515625 127.5625 Z M 189.667969 127.5625 " fill-opacity="1" fill-rule="nonzero"/><path fill="#000000" d="M 219.84375 88.804688 L 219.84375 94.621094 C 222.3125 90.367188 226.3125 88.242188 231.863281 88.242188 C 236.28125 88.242188 239.886719 89.703125 242.679688 92.617188 C 245.476562 95.539062 246.875 99.585938 246.875 104.761719 L 246.875 127.5625 L 237.089844 127.5625 L 237.089844 106.152344 C 237.089844 103.121094 236.316406 100.804688 234.78125 99.199219 C 233.25 97.597656 231.160156 96.792969 228.507812 96.792969 C 225.855469 96.792969 223.746094 97.597656 222.1875 99.199219 C 220.625 100.804688 219.84375 103.121094 219.84375 106.152344 L 219.84375 127.5625 L 209.996094 127.5625 L 209.996094 88.804688 Z M 219.84375 88.804688 " fill-opacity="1" fill-rule="nonzero"/><path fill="#000000" d="M 281.667969 116.546875 C 283.71875 114.515625 284.742188 111.730469 284.742188 108.183594 C 284.742188 104.644531 283.71875 101.863281 281.667969 99.839844 C 279.617188 97.808594 277.222656 96.792969 274.472656 96.792969 C 271.726562 96.792969 269.339844 97.792969 267.3125 99.792969 C 265.28125 101.792969 264.265625 104.570312 264.265625 108.121094 C 264.265625 111.667969 265.289062 114.464844 267.34375 116.515625 C 269.390625 118.570312 271.777344 119.59375 274.503906 119.59375 C 277.230469 119.59375 279.617188 118.578125 281.667969 116.546875 Z M 259.476562 122.5 C 256.011719 118.742188 254.277344 113.949219 254.277344 108.121094 C 254.277344 102.289062 256 97.519531 259.445312 93.804688 C 262.898438 90.097656 267.28125 88.242188 272.585938 88.242188 C 277.890625 88.242188 281.941406 90.4375 284.742188 94.824219 L 284.742188 75.800781 L 294.515625 75.800781 L 294.515625 127.5625 L 284.742188 127.5625 L 284.742188 121.0625 C 281.808594 125.773438 277.726562 128.125 272.507812 128.125 C 267.296875 128.125 262.949219 126.25 259.476562 122.5 Z M 259.476562 122.5 " fill-opacity="1" fill-rule="nonzero"/><path fill="#000000" d="M 321.34375 128.125 C 315.699219 128.125 311.113281 126.296875 307.578125 122.640625 C 304.039062 118.976562 302.269531 114.136719 302.269531 108.121094 C 302.269531 102.101562 304.050781 97.285156 307.609375 93.664062 C 311.175781 90.050781 315.789062 88.242188 321.453125 88.242188 C 327.109375 88.242188 331.757812 90.003906 335.390625 93.523438 C 339.019531 97.050781 340.835938 101.746094 340.835938 107.621094 C 340.835938 108.976562 340.742188 110.238281 340.554688 111.40625 L 312.335938 111.40625 C 312.5625 113.929688 313.492188 115.960938 315.117188 117.5 C 316.746094 119.03125 318.824219 119.796875 321.34375 119.796875 C 324.746094 119.796875 327.257812 118.402344 328.882812 115.609375 L 339.507812 115.609375 C 338.386719 119.289062 336.214844 122.292969 333 124.625 C 329.792969 126.960938 325.90625 128.125 321.34375 128.125 Z M 330.628906 105.042969 C 330.492188 102.480469 329.550781 100.429688 327.804688 98.886719 C 326.054688 97.347656 323.949219 96.574219 321.484375 96.574219 C 319.015625 96.574219 316.957031 97.347656 315.304688 98.886719 C 313.648438 100.429688 312.65625 102.480469 312.335938 105.042969 Z M 330.628906 105.042969 " fill-opacity="1" fill-rule="nonzero"/><path fill="#000000" d="M 358.441406 88.804688 L 358.441406 95.667969 C 361.039062 90.71875 364.8125 88.242188 369.753906 88.242188 L 369.753906 98.324219 L 367.304688 98.324219 C 364.371094 98.324219 362.160156 99.058594 360.671875 100.527344 C 359.183594 101.996094 358.441406 104.527344 358.441406 108.121094 L 358.441406 127.5625 L 348.59375 127.5625 L 348.59375 88.804688 Z M 358.441406 88.804688 " fill-opacity="1" fill-rule="nonzero"/><path fill="#000000" d="M 429.695312 127.5625 L 426.542969 118.40625 L 407.550781 118.40625 L 404.398438 127.5625 L 393.988281 127.5625 L 411.25 78.601562 L 422.921875 78.601562 L 440.105469 127.5625 Z M 410.125 110.839844 L 424.03125 110.839844 L 417.054688 90.492188 Z M 410.125 110.839844 " fill-opacity="1" fill-rule="nonzero"/><path fill="#000000" d="M 444.78125 100.136719 C 444.78125 96.785156 446.199219 93.964844 449.042969 91.679688 C 451.882812 89.390625 455.652344 88.242188 460.355469 88.242188 C 465.058594 88.242188 468.832031 89.378906 471.671875 91.648438 C 474.511719 93.914062 476.027344 96.976562 476.214844 100.839844 L 466.164062 100.839844 C 465.882812 97.582031 463.875 95.949219 460.152344 95.949219 C 458.289062 95.949219 456.84375 96.324219 455.816406 97.074219 C 454.792969 97.816406 454.285156 98.839844 454.285156 100.152344 C 454.285156 101.457031 455.050781 102.480469 456.578125 103.230469 C 458.117188 103.972656 459.980469 104.554688 462.167969 104.980469 C 464.359375 105.398438 466.542969 105.917969 468.707031 106.542969 C 470.867188 107.167969 472.722656 108.289062 474.261719 109.902344 C 475.800781 111.511719 476.574219 113.640625 476.574219 116.296875 C 476.574219 119.796875 475.089844 122.648438 472.125 124.84375 C 469.167969 127.03125 465.398438 128.125 460.808594 128.125 C 456.222656 128.125 452.460938 127.042969 449.527344 124.875 C 446.589844 122.710938 444.984375 119.59375 444.703125 115.53125 L 454.769531 115.53125 C 455.144531 118.792969 457.210938 120.421875 460.980469 120.421875 C 462.800781 120.421875 464.265625 120.015625 465.382812 119.203125 C 466.507812 118.390625 467.066406 117.324219 467.066406 116 C 467.066406 114.667969 466.296875 113.617188 464.757812 112.84375 C 463.21875 112.074219 461.355469 111.480469 459.171875 111.058594 C 456.984375 110.632812 454.804688 110.117188 452.632812 109.511719 C 450.464844 108.910156 448.613281 107.824219 447.074219 106.261719 C 445.546875 104.699219 444.78125 102.660156 444.78125 100.136719 Z M 444.78125 100.136719 " fill-opacity="1" fill-rule="nonzero"/><path fill="#000000" d="M 482.78125 100.136719 C 482.78125 96.785156 484.203125 93.964844 487.042969 91.679688 C 489.882812 89.390625 493.652344 88.242188 498.359375 88.242188 C 503.058594 88.242188 506.832031 89.378906 509.671875 91.648438 C 512.515625 93.914062 514.027344 96.976562 514.214844 100.839844 L 504.164062 100.839844 C 503.882812 97.582031 501.878906 95.949219 498.15625 95.949219 C 496.289062 95.949219 494.847656 96.324219 493.816406 97.074219 C 492.792969 97.816406 492.289062 98.839844 492.289062 100.152344 C 492.289062 101.457031 493.050781 102.480469 494.582031 103.230469 C 496.117188 103.972656 497.984375 104.554688 500.167969 104.980469 C 502.363281 105.398438 504.542969 105.917969 506.707031 106.542969 C 508.871094 107.167969 510.722656 108.289062 512.265625 109.902344 C 513.800781 111.511719 514.574219 113.640625 514.574219 116.296875 C 514.574219 119.796875 513.089844 122.648438 510.125 124.84375 C 507.167969 127.03125 503.398438 128.125 498.8125 128.125 C 494.222656 128.125 490.460938 127.042969 487.527344 124.875 C 484.59375 122.710938 482.984375 119.59375 482.703125 115.53125 L 492.769531 115.53125 C 493.144531 118.792969 495.214844 120.421875 498.984375 120.421875 C 500.800781 120.421875 502.269531 120.015625 503.382812 119.203125 C 504.507812 118.390625 505.070312 117.324219 505.070312 116 C 505.070312 114.667969 504.296875 113.617188 502.757812 112.84375 C 501.21875 112.074219 499.355469 111.480469 497.171875 111.058594 C 494.988281 110.632812 492.804688 110.117188 490.632812 109.511719 C 488.46875 108.910156 486.613281 107.824219 485.078125 106.261719 C 483.546875 104.699219 482.78125 102.660156 482.78125 100.136719 Z M 482.78125 100.136719 " fill-opacity="1" fill-rule="nonzero"/><path fill="#000000" d="M 539.292969 128.125 C 533.652344 128.125 529.0625 126.296875 525.527344 122.640625 C 521.988281 118.976562 520.222656 114.136719 520.222656 108.121094 C 520.222656 102.101562 522 97.285156 525.558594 93.664062 C 529.125 90.050781 533.742188 88.242188 539.402344 88.242188 C 545.0625 88.242188 549.707031 90.003906 553.339844 93.523438 C 556.96875 97.050781 558.789062 101.746094 558.789062 107.621094 C 558.789062 108.976562 558.695312 110.238281 558.507812 111.40625 L 530.289062 111.40625 C 530.515625 113.929688 531.445312 115.960938 533.066406 117.5 C 534.699219 119.03125 536.773438 119.796875 539.292969 119.796875 C 542.695312 119.796875 545.210938 118.402344 546.832031 115.609375 L 557.460938 115.609375 C 556.335938 119.289062 554.167969 122.292969 550.953125 124.625 C 547.746094 126.960938 543.859375 128.125 539.292969 128.125 Z M 548.582031 105.042969 C 548.445312 102.480469 547.503906 100.429688 545.753906 98.886719 C 544.007812 97.347656 541.902344 96.574219 539.433594 96.574219 C 536.96875 96.574219 534.910156 97.347656 533.253906 98.886719 C 531.601562 100.429688 530.609375 102.480469 530.289062 105.042969 Z M 548.582031 105.042969 " fill-opacity="1" fill-rule="nonzero"/><path fill="#000000" d="M 564.375 100.136719 C 564.375 96.785156 565.792969 93.964844 568.636719 91.679688 C 571.476562 89.390625 575.246094 88.242188 579.949219 88.242188 C 584.652344 88.242188 588.425781 89.378906 591.265625 91.648438 C 594.105469 93.914062 595.621094 96.976562 595.808594 100.839844 L 585.757812 100.839844 C 585.476562 97.582031 583.46875 95.949219 579.746094 95.949219 C 577.882812 95.949219 576.4375 96.324219 575.410156 97.074219 C 574.386719 97.816406 573.878906 98.839844 573.878906 100.152344 C 573.878906 101.457031 574.644531 102.480469 576.171875 103.230469 C 577.710938 103.972656 579.574219 104.554688 581.761719 104.980469 C 583.953125 105.398438 586.136719 105.917969 588.300781 106.542969 C 590.460938 107.167969 592.316406 108.289062 593.855469 109.902344 C 595.394531 111.511719 596.167969 113.640625 596.167969 116.296875 C 596.167969 119.796875 594.683594 122.648438 591.71875 124.84375 C 588.761719 127.03125 584.992188 128.125 580.402344 128.125 C 575.816406 128.125 572.054688 127.042969 569.117188 124.875 C 566.183594 122.710938 564.578125 119.59375 564.296875 115.53125 L 574.363281 115.53125 C 574.738281 118.792969 576.804688 120.421875 580.574219 120.421875 C 582.394531 120.421875 583.859375 120.015625 584.976562 119.203125 C 586.101562 118.390625 586.660156 117.324219 586.660156 116 C 586.660156 114.667969 585.890625 113.617188 584.351562 112.84375 C 582.808594 112.074219 580.949219 111.480469 578.765625 111.058594 C 576.578125 110.632812 574.398438 110.117188 572.226562 109.511719 C 570.058594 108.910156 568.207031 107.824219 566.667969 106.261719 C 565.140625 104.699219 564.375 102.660156 564.375 100.136719 Z M 564.375 100.136719 " fill-opacity="1" fill-rule="nonzero"/><path fill="#000000" d="M 602.378906 100.136719 C 602.378906 96.785156 603.796875 93.964844 606.636719 91.679688 C 609.476562 89.390625 613.246094 88.242188 617.953125 88.242188 C 622.65625 88.242188 626.429688 89.378906 629.269531 91.648438 C 632.109375 93.914062 633.621094 96.976562 633.808594 100.839844 L 623.757812 100.839844 C 623.476562 97.582031 621.472656 95.949219 617.75 95.949219 C 615.886719 95.949219 614.441406 96.324219 613.410156 97.074219 C 612.390625 97.816406 611.882812 98.839844 611.882812 100.152344 C 611.882812 101.457031 612.648438 102.480469 614.175781 103.230469 C 615.714844 103.972656 617.578125 104.554688 619.761719 104.980469 C 621.957031 105.398438 624.136719 105.917969 626.304688 106.542969 C 628.464844 107.167969 630.316406 108.289062 631.859375 109.902344 C 633.394531 111.511719 634.167969 113.640625 634.167969 116.296875 C 634.167969 119.796875 632.6875 122.648438 629.722656 124.84375 C 626.761719 127.03125 622.996094 128.125 618.40625 128.125 C 613.816406 128.125 610.054688 127.042969 607.121094 124.875 C 604.1875 122.710938 602.578125 119.59375 602.300781 115.53125 L 612.367188 115.53125 C 612.742188 118.792969 614.808594 120.421875 618.578125 120.421875 C 620.394531 120.421875 621.863281 120.015625 622.980469 119.203125 C 624.101562 118.390625 624.664062 117.324219 624.664062 116 C 624.664062 114.667969 623.890625 113.617188 622.355469 112.84375 C 620.8125 112.074219 618.953125 111.480469 616.765625 111.058594 C 614.582031 110.632812 612.402344 110.117188 610.226562 109.511719 C 608.0625 108.910156 606.207031 107.824219 604.671875 106.261719 C 603.140625 104.699219 602.378906 102.660156 602.378906 100.136719 Z M 602.378906 100.136719 " fill-opacity="1" fill-rule="nonzero"/><path fill="#000000" d="M 652.394531 88.804688 L 652.394531 94.621094 C 654.863281 90.367188 658.867188 88.242188 664.414062 88.242188 C 667.347656 88.242188 669.960938 88.921875 672.265625 90.273438 C 674.574219 91.628906 676.355469 93.566406 677.617188 96.089844 C 678.960938 93.660156 680.804688 91.75 683.15625 90.351562 C 685.519531 88.945312 688.167969 88.242188 691.101562 88.242188 C 695.710938 88.242188 699.421875 89.691406 702.230469 92.585938 C 705.046875 95.488281 706.460938 99.542969 706.460938 104.761719 L 706.460938 127.5625 L 696.6875 127.5625 L 696.6875 106.152344 C 696.6875 103.121094 695.917969 100.804688 694.378906 99.199219 C 692.839844 97.597656 690.742188 96.792969 688.089844 96.792969 C 685.4375 96.792969 683.328125 97.597656 681.769531 99.199219 C 680.207031 100.804688 679.429688 103.121094 679.429688 106.152344 L 679.429688 127.5625 L 669.640625 127.5625 L 669.640625 106.152344 C 669.640625 103.121094 668.871094 100.804688 667.332031 99.199219 C 665.804688 97.597656 663.710938 96.792969 661.058594 96.792969 C 658.40625 96.792969 656.296875 97.597656 654.738281 99.199219 C 653.175781 100.804688 652.394531 103.121094 652.394531 106.152344 L 652.394531 127.5625 L 642.546875 127.5625 L 642.546875 88.804688 Z M 652.394531 88.804688 " fill-opacity="1" fill-rule="nonzero"/><path fill="#000000" d="M 732.9375 128.125 C 727.296875 128.125 722.707031 126.296875 719.171875 122.640625 C 715.632812 118.976562 713.867188 114.136719 713.867188 108.121094 C 713.867188 102.101562 715.644531 97.285156 719.203125 93.664062 C 722.769531 90.050781 727.386719 88.242188 733.046875 88.242188 C 738.703125 88.242188 743.351562 90.003906 746.984375 93.523438 C 750.613281 97.050781 752.429688 101.746094 752.429688 107.621094 C 752.429688 108.976562 752.335938 110.238281 752.148438 111.40625 L 723.933594 111.40625 C 724.160156 113.929688 725.085938 115.960938 726.710938 117.5 C 728.339844 119.03125 730.417969 119.796875 732.9375 119.796875 C 736.339844 119.796875 738.851562 118.402344 740.476562 115.609375 L 751.105469 115.609375 C 749.980469 119.289062 747.8125 122.292969 744.597656 124.625 C 741.390625 126.960938 737.503906 128.125 732.9375 128.125 Z M 742.222656 105.042969 C 742.085938 102.480469 741.148438 100.429688 739.398438 98.886719 C 737.652344 97.347656 735.542969 96.574219 733.078125 96.574219 C 730.613281 96.574219 728.550781 97.347656 726.898438 98.886719 C 725.242188 100.429688 724.253906 102.480469 723.933594 105.042969 Z M 742.222656 105.042969 " fill-opacity="1" fill-rule="nonzero"/><path fill="#000000" d="M 770.035156 88.804688 L 770.035156 94.621094 C 772.5 90.367188 776.503906 88.242188 782.050781 88.242188 C 786.472656 88.242188 790.078125 89.703125 792.867188 92.617188 C 795.664062 95.539062 797.066406 99.585938 797.066406 104.761719 L 797.066406 127.5625 L 787.28125 127.5625 L 787.28125 106.152344 C 787.28125 103.121094 786.507812 100.804688 784.972656 99.199219 C 783.441406 97.597656 781.351562 96.792969 778.695312 96.792969 C 776.042969 96.792969 773.9375 97.597656 772.375 99.199219 C 770.816406 100.804688 770.035156 103.121094 770.035156 106.152344 L 770.035156 127.5625 L 760.1875 127.5625 L 760.1875 88.804688 Z M 770.035156 88.804688 " fill-opacity="1" fill-rule="nonzero"/><path fill="#000000" d="M 822.214844 119.3125 L 826.894531 119.3125 L 826.894531 127.5625 L 820.683594 127.5625 C 816.71875 127.5625 813.664062 126.65625 811.523438 124.84375 C 809.378906 123.023438 808.308594 120.011719 808.308594 115.8125 L 808.308594 96.855469 L 804.1875 96.855469 L 804.1875 88.804688 L 808.308594 88.804688 L 808.308594 79.226562 L 818.15625 79.226562 L 818.15625 88.804688 L 826.820312 88.804688 L 826.820312 96.855469 L 818.15625 96.855469 L 818.15625 115.8125 C 818.15625 117.074219 818.457031 117.976562 819.0625 118.515625 C 819.675781 119.046875 820.722656 119.3125 822.214844 119.3125 Z M 822.214844 119.3125 " fill-opacity="1" fill-rule="nonzero"/><g clip-path="url(#941289c3f7)"><path fill="#000000" d="M 10.835938 186.074219 L 10.835938 205.515625 L 0.984375 205.515625 L 0.984375 156.691406 L 18.933594 156.691406 C 24.574219 156.691406 28.914062 158.105469 31.964844 160.925781 C 35.011719 163.738281 36.539062 167.226562 36.539062 171.382812 C 36.539062 174.457031 35.605469 177.320312 33.746094 179.976562 C 31.878906 182.632812 28.945312 184.457031 24.941406 185.433594 L 37.382812 205.515625 L 25.707031 205.515625 L 14.050781 186.074219 Z M 10.835938 164.238281 L 10.835938 178.507812 L 18.933594 178.507812 C 21.398438 178.507812 23.28125 177.867188 24.585938 176.585938 C 25.894531 175.304688 26.550781 173.570312 26.550781 171.382812 C 26.550781 169.1875 25.894531 167.445312 24.585938 166.164062 C 23.28125 164.878906 21.398438 164.238281 18.933594 164.238281 Z M 10.835938 164.238281 " fill-opacity="1" fill-rule="nonzero"/></g><path fill="#000000" d="M 62.664062 206.078125 C 57.023438 206.078125 52.433594 204.25 48.898438 200.59375 C 45.359375 196.925781 43.59375 192.085938 43.59375 186.074219 C 43.59375 180.050781 45.371094 175.234375 48.929688 171.617188 C 52.496094 168.003906 57.113281 166.195312 62.773438 166.195312 C 68.429688 166.195312 73.078125 167.957031 76.710938 171.476562 C 80.339844 175 82.15625 179.695312 82.15625 185.574219 C 82.15625 186.929688 82.0625 188.191406 81.875 189.355469 L 53.660156 189.355469 C 53.886719 191.878906 54.8125 193.910156 56.4375 195.449219 C 58.066406 196.980469 60.144531 197.746094 62.664062 197.746094 C 66.066406 197.746094 68.578125 196.351562 70.203125 193.558594 L 80.832031 193.558594 C 79.707031 197.238281 77.539062 200.246094 74.324219 202.578125 C 71.117188 204.914062 67.230469 206.078125 62.664062 206.078125 Z M 71.949219 182.996094 C 71.8125 180.429688 70.875 178.378906 69.125 176.835938 C 67.378906 175.296875 65.269531 174.523438 62.804688 174.523438 C 60.339844 174.523438 58.277344 175.296875 56.625 176.835938 C 54.96875 178.378906 53.980469 180.429688 53.660156 182.996094 Z M 71.949219 182.996094 " fill-opacity="1" fill-rule="nonzero"/><path fill="#000000" d="M 117.117188 194.464844 C 119.144531 192.414062 120.160156 189.617188 120.160156 186.074219 C 120.160156 182.519531 119.144531 179.742188 117.117188 177.742188 C 115.089844 175.742188 112.699219 174.742188 109.953125 174.742188 C 107.207031 174.742188 104.820312 175.757812 102.789062 177.789062 C 100.769531 179.8125 99.761719 182.59375 99.761719 186.136719 C 99.761719 189.679688 100.769531 192.464844 102.789062 194.496094 C 104.820312 196.527344 107.207031 197.542969 109.953125 197.542969 C 112.699219 197.542969 115.089844 196.519531 117.117188 194.464844 Z M 99.761719 172.773438 C 102.507812 168.390625 106.535156 166.195312 111.839844 166.195312 C 117.148438 166.195312 121.523438 168.050781 124.96875 171.757812 C 128.421875 175.46875 130.148438 180.25 130.148438 186.105469 C 130.148438 191.960938 128.421875 196.753906 124.96875 200.484375 C 121.523438 204.214844 117.179688 206.078125 111.933594 206.078125 C 106.699219 206.078125 102.640625 203.726562 99.761719 199.011719 L 99.761719 223.988281 L 89.914062 223.988281 L 89.914062 166.757812 L 99.761719 166.757812 Z M 99.761719 172.773438 " fill-opacity="1" fill-rule="nonzero"/><path fill="#000000" d="M 155.089844 197.746094 C 157.835938 197.746094 160.195312 196.738281 162.175781 194.714844 C 164.148438 192.683594 165.140625 189.816406 165.140625 186.105469 C 165.140625 182.394531 164.160156 179.539062 162.207031 177.539062 C 160.246094 175.53125 157.886719 174.523438 155.121094 174.523438 C 152.347656 174.523438 150.007812 175.53125 148.097656 177.539062 C 146.191406 179.539062 145.238281 182.40625 145.238281 186.136719 C 145.238281 189.867188 146.191406 192.738281 148.097656 194.746094 C 150.007812 196.746094 152.339844 197.746094 155.089844 197.746094 Z M 140.902344 200.5625 C 137.132812 196.871094 135.25 192.042969 135.25 186.074219 C 135.25 180.101562 137.160156 175.300781 140.980469 171.664062 C 144.796875 168.019531 149.53125 166.195312 155.183594 166.195312 C 160.839844 166.195312 165.582031 168.019531 169.398438 171.664062 C 173.214844 175.300781 175.128906 180.101562 175.128906 186.074219 C 175.128906 192.042969 173.207031 196.871094 169.367188 200.5625 C 165.53125 204.242188 160.769531 206.078125 155.089844 206.078125 C 149.40625 206.078125 144.679688 204.242188 140.902344 200.5625 Z M 140.902344 200.5625 " fill-opacity="1" fill-rule="nonzero"/><path fill="#000000" d="M 192.808594 166.757812 L 192.808594 173.617188 C 195.40625 168.671875 199.179688 166.195312 204.125 166.195312 L 204.125 176.273438 L 201.675781 176.273438 C 198.742188 176.273438 196.527344 177.007812 195.042969 178.476562 C 193.550781 179.945312 192.808594 182.476562 192.808594 186.074219 L 192.808594 205.515625 L 182.960938 205.515625 L 182.960938 166.757812 Z M 192.808594 166.757812 " fill-opacity="1" fill-rule="nonzero"/><path fill="#000000" d="M 226.128906 197.261719 L 230.8125 197.261719 L 230.8125 205.515625 L 224.597656 205.515625 C 220.632812 205.515625 217.578125 204.609375 215.4375 202.796875 C 213.292969 200.976562 212.222656 197.960938 212.222656 193.761719 L 212.222656 174.804688 L 208.101562 174.804688 L 208.101562 166.757812 L 212.222656 166.757812 L 212.222656 157.175781 L 222.070312 157.175781 L 222.070312 166.757812 L 230.734375 166.757812 L 230.734375 174.804688 L 222.070312 174.804688 L 222.070312 193.761719 C 222.070312 195.023438 222.371094 195.925781 222.976562 196.464844 C 223.589844 196.996094 224.636719 197.261719 226.128906 197.261719 Z M 226.128906 197.261719 " fill-opacity="1" fill-rule="nonzero"/></svg>